<svg width="134" height="70" viewBox="0 0 134 70" fill="none" xmlns="http://www.w3.org/2000/svg">
<g clip-path="url(#clip0_4102_2334)">
<path fill-rule="evenodd" clip-rule="evenodd" d="M32.9042 23.949C32.9042 25.3097 31.4683 25.99 31.4683 28.8298C31.4683 30.5454 32.2932 31.9949 33.1181 32.7936C34.3401 33.9768 37.9452 38.1476 39.1673 39.4492C39.4423 39.745 39.6256 39.9816 39.87 40.2183L41.2143 41.7269C42.7724 41.8452 48.6078 37.1123 49.0661 36.6095C48.7911 36.2545 44.2695 27.2028 43.7195 26.1379C42.9863 24.7181 42.1614 23.6532 40.5116 23.0024C36.9981 21.6121 36.0205 23.5053 34.3707 21.7304C34.0652 21.4642 5.265 -16.8915 5.08169 -17.3057H0.804443L26.3967 15.134C28.1992 17.4708 30.5517 20.1331 32.2932 22.4108C32.5987 22.8545 32.9042 23.2686 32.9042 23.949ZM42.0697 33.0006C41.5809 32.202 41.0615 31.4329 40.5421 30.6342C40.2061 30.1313 38.984 28.6227 40.4199 28.2677C41.2448 28.0607 41.7948 29.1256 42.4363 30.0722C43.8417 32.1428 45.8276 34.805 47.2941 36.8757C46.9886 37.0827 46.5303 37.1419 46.1637 37.2898C45.7665 37.4377 45.4915 37.5856 45.1555 37.7335L42.0697 33.0006ZM42.0697 40.2479C41.917 39.8929 37.8536 33.888 37.3953 33.2373C36.7537 32.2907 35.8677 31.3737 36.5399 30.7229C37.5481 29.7468 38.3424 31.3441 38.7396 31.9061C40.1144 33.7697 42.4364 36.8165 43.689 38.6209C43.414 38.9463 43.139 39.0942 42.8641 39.39L42.0697 40.2479Z" fill="white"/>
<path fill-rule="evenodd" clip-rule="evenodd" d="M43.0474 58.4399C43.9945 59.771 53.6183 59.564 55.7263 58.7949C56.0319 58.6766 56.1235 58.647 56.2152 58.3512C55.2986 57.0792 43.5362 57.1384 43.0474 58.4399Z" fill="white"/>
<path fill-rule="evenodd" clip-rule="evenodd" d="M55.9369 58.0997C56.0755 58.1698 56.1805 58.2471 56.2422 58.3326L56.2513 58.3453L56.2467 58.3601C56.2002 58.5102 56.152 58.5986 56.0722 58.6637C55.9986 58.7237 55.9 58.7619 55.7618 58.8153C55.7542 58.8182 55.7464 58.8212 55.7386 58.8243L55.7379 58.8245C55.2063 59.0185 54.2054 59.1759 52.992 59.2826C51.7774 59.3895 50.3461 59.4459 48.9512 59.4367C47.5565 59.4274 46.1971 59.3525 45.1266 59.1964C44.5914 59.1184 44.1274 59.0199 43.7668 58.8988C43.4079 58.7782 43.1449 58.6331 43.0201 58.4578L43.0105 58.4442L43.0163 58.4287C43.0504 58.338 43.1318 58.2567 43.2476 58.1834C43.364 58.1098 43.5187 58.0421 43.7051 57.9798C44.0781 57.8551 44.5836 57.7507 45.1773 57.6662C46.3651 57.4972 47.9116 57.4075 49.4706 57.3983C51.0297 57.389 52.6028 57.4602 53.8439 57.6134C54.4644 57.69 55.0029 57.7872 55.4156 57.9055C55.6219 57.9646 55.7977 58.0293 55.9369 58.0997ZM43.0847 58.4353C43.2009 58.5871 43.4419 58.722 43.7884 58.8384C44.1436 58.9578 44.6032 59.0555 45.1364 59.1332C46.2026 59.2887 47.5586 59.3635 48.9517 59.3728C50.3446 59.382 51.7738 59.3256 52.9861 59.219C54.1994 59.1122 55.1919 58.9554 55.7144 58.7648C55.7145 58.7648 55.7146 58.7648 55.7147 58.7647L55.7298 58.7588C55.8755 58.7025 55.9645 58.668 56.0297 58.6149C56.0926 58.5635 56.1353 58.4926 56.1788 58.3568C56.1244 58.2877 56.0333 58.2206 55.9063 58.1563C55.7722 58.0885 55.6008 58.0252 55.3969 57.9668C54.989 57.8499 54.4544 57.7532 53.8356 57.6768C52.5982 57.5241 51.0282 57.4529 49.471 57.4622C47.9138 57.4714 46.3707 57.561 45.1869 57.7294C44.5949 57.8137 44.094 57.9174 43.7266 58.0402C43.5429 58.1016 43.3938 58.1673 43.2837 58.2369C43.181 58.3019 43.1152 58.3685 43.0847 58.4353Z" fill="white"/>
<path fill-rule="evenodd" clip-rule="evenodd" d="M45.7045 51.0136C46.8295 51.4658 48.1032 51.6919 49.5255 51.6919C50.9478 51.6919 52.2108 51.4658 53.3147 51.0136C54.4185 50.5614 55.3526 49.9448 56.1168 49.1638C56.881 48.3828 57.4648 47.4887 57.8681 46.4816C58.2714 45.4745 58.4731 44.416 58.4731 43.3062C58.4731 42.1757 58.2714 41.107 57.8681 40.0999C57.4648 39.0928 56.881 38.1987 56.1168 37.4177C55.3526 36.6367 54.4185 36.0201 53.3147 35.5679C52.2108 35.1157 50.9478 34.8896 49.5255 34.8896C48.1032 34.8896 46.8295 35.1157 45.7045 35.5679C44.6006 36.0201 43.6666 36.6367 42.9024 37.4177C42.1382 38.1987 41.5544 39.0928 41.1511 40.0999C40.769 41.107 40.5779 42.1757 40.5779 43.3062C40.5779 44.416 40.769 45.4745 41.1511 46.4816C41.5544 47.4887 42.1382 48.3828 42.9024 49.1638C43.6666 49.9448 44.6006 50.5614 45.7045 51.0136ZM46.2776 45.5259C45.9592 44.8888 45.8 44.1488 45.8 43.3062C45.8 42.4635 45.9592 41.7236 46.2776 41.0864C46.6173 40.4493 47.063 39.956 47.615 39.6066C48.1669 39.2572 48.8037 39.0825 49.5255 39.0825C50.226 39.0825 50.8522 39.2572 51.4042 39.6066C51.9773 39.956 52.4231 40.4493 52.7415 41.0864C53.06 41.7236 53.2192 42.4635 53.2192 43.3062C53.2192 44.1283 53.06 44.8579 52.7415 45.4951C52.4231 46.1322 51.9773 46.6358 51.4042 47.0057C50.8522 47.3551 50.226 47.5298 49.5255 47.5298C48.8037 47.5298 48.1669 47.3551 47.615 47.0057C47.063 46.6563 46.6173 46.1631 46.2776 45.5259Z" fill="white"/>
<path d="M67.3125 51.1741L71.6748 57.6484H77.0879L70.5603 48.4303L76.5785 41.4627H71.1972L65.5293 48.1528V35.1426H60.4346V57.6484H65.5293V52.9314L67.3125 51.1741Z" fill="white"/>
<path d="M0.776902 42.6035C0.267431 43.8777 0.0126953 45.1829 0.0126953 46.5188C0.0126953 47.9164 0.278045 49.2935 0.808744 50.65C1.36067 51.986 2.12488 53.1986 3.10137 54.2879C4.09908 55.3567 5.27723 56.2199 6.63582 56.8776C8.01564 57.5148 9.52283 57.8333 11.1574 57.8333C12.4098 57.8333 13.6729 57.6381 14.9466 57.2476C16.2415 56.8365 17.3984 56.2507 18.4173 55.4903C19.4363 54.7298 20.1687 53.8152 20.6144 52.7464L16.3476 50.3109C16.0504 51.0303 15.6153 51.616 15.0421 52.0682C14.4902 52.4998 13.8852 52.8184 13.2271 53.0239C12.569 53.2294 11.9216 53.3322 11.2847 53.3322C10.3932 53.3322 9.5759 53.1575 8.83292 52.8081C8.08994 52.4381 7.4531 51.9449 6.9224 51.3283C6.41293 50.7117 6.02021 50.0026 5.74425 49.201C5.46828 48.3994 5.3303 47.567 5.3303 46.7038C5.3303 45.9228 5.44706 45.1418 5.68056 44.3607C5.91407 43.5797 6.27495 42.8706 6.76319 42.2335C7.25143 41.5963 7.86704 41.0928 8.61002 40.7228C9.353 40.3323 10.2234 40.1371 11.2211 40.1371C11.8367 40.1371 12.4735 40.2296 13.1316 40.4145C13.8109 40.579 14.4265 40.877 14.9784 41.3086C15.5516 41.7402 16.008 42.3465 16.3476 43.1276L20.3597 40.4145C19.5955 38.9964 18.428 37.8454 16.8571 36.9616C15.3074 36.0778 13.4712 35.6359 11.3484 35.6359C9.56528 35.6359 7.97318 35.9545 6.57214 36.5917C5.17109 37.2083 3.98233 38.0407 3.00584 39.0889C2.02935 40.1371 1.28637 41.3086 0.776902 42.6035Z" fill="white"/>
<path fill-rule="evenodd" clip-rule="evenodd" d="M31.0718 57.1929C29.6496 57.1929 28.3759 56.9668 27.2508 56.5146C26.1469 56.0624 25.2129 55.4458 24.4487 54.6648C23.6845 53.8838 23.1007 52.9897 22.6974 51.9826C22.3153 50.9755 22.1242 49.917 22.1242 48.8072C22.1242 47.6767 22.3153 46.608 22.6974 45.6009C23.1007 44.5938 23.6845 43.6997 24.4487 42.9187C25.2129 42.1377 26.1469 41.5211 27.2508 41.0689C28.3759 40.6167 29.6496 40.3906 31.0718 40.3906C32.4941 40.3906 33.7572 40.6167 34.861 41.0689C35.9649 41.5211 36.8989 42.1377 37.6631 42.9187C38.4273 43.6997 39.0111 44.5938 39.4144 45.6009C39.8178 46.608 40.0194 47.6767 40.0194 48.8072C40.0194 49.917 39.8178 50.9755 39.4144 51.9826C39.0111 52.9897 38.4273 53.8838 37.6631 54.6648C36.8989 55.4458 35.9649 56.0624 34.861 56.5146C33.7572 56.9668 32.4941 57.1929 31.0718 57.1929ZM27.3463 48.8072C27.3463 49.6498 27.5055 50.3898 27.824 51.0269C28.1636 51.6641 28.6094 52.1573 29.1613 52.5067C29.7132 52.8561 30.3501 53.0308 31.0718 53.0308C31.7724 53.0308 32.3986 52.8561 32.9505 52.5067C33.5237 52.1368 33.9695 51.6332 34.2879 50.9961C34.6063 50.3589 34.7655 49.6293 34.7655 48.8072C34.7655 47.9645 34.6063 47.2246 34.2879 46.5874C33.9695 45.9503 33.5237 45.457 32.9505 45.1076C32.3986 44.7582 31.7724 44.5835 31.0718 44.5835C30.3501 44.5835 29.7132 44.7582 29.1613 45.1076C28.6094 45.457 28.1636 45.9503 27.824 46.5874C27.5055 47.2246 27.3463 47.9645 27.3463 48.8072Z" fill="white"/>
<path fill-rule="evenodd" clip-rule="evenodd" d="M120.162 57.1901C121.329 57.659 122.65 57.8934 124.125 57.8934C125.599 57.8934 126.909 57.659 128.054 57.1901C129.198 56.7213 130.167 56.0819 130.959 55.272C131.752 54.4622 132.357 53.5351 132.775 52.4908C133.194 51.4465 133.403 50.3489 133.403 49.1981C133.403 48.0259 133.194 46.9176 132.775 45.8733C132.357 44.829 131.752 43.902 130.959 43.0921C130.167 42.2822 129.198 41.6429 128.054 41.174C126.909 40.7051 125.599 40.4707 124.125 40.4707C122.65 40.4707 121.329 40.7051 120.162 41.174C119.018 41.6429 118.049 42.2822 117.257 43.0921C116.464 43.902 115.859 44.829 115.441 45.8733C115.045 46.9176 114.847 48.0259 114.847 49.1981C114.847 50.3489 115.045 51.4465 115.441 52.4908C115.859 53.5351 116.464 54.4622 117.257 55.272C118.049 56.0819 119.018 56.7213 120.162 57.1901ZM120.757 51.4998C120.427 50.8391 120.262 50.0719 120.262 49.1981C120.262 48.3243 120.427 47.557 120.757 46.8963C121.109 46.2357 121.571 45.7242 122.144 45.3619C122.716 44.9995 123.376 44.8184 124.125 44.8184C124.851 44.8184 125.5 44.9995 126.073 45.3619C126.667 45.7242 127.129 46.2357 127.459 46.8963C127.79 47.557 127.955 48.3243 127.955 49.1981C127.955 50.0505 127.79 50.8071 127.459 51.4678C127.129 52.1285 126.667 52.6506 126.073 53.0343C125.5 53.3966 124.851 53.5777 124.125 53.5777C123.376 53.5777 122.716 53.3966 122.144 53.0343C121.571 52.6719 121.109 52.1604 120.757 51.4998Z" fill="white"/>
<path fill-rule="evenodd" clip-rule="evenodd" d="M103.628 58.1052C102.154 58.1052 100.833 57.8707 99.6663 57.4019C98.5216 56.933 97.5531 56.2936 96.7607 55.4838C95.9683 54.6739 95.3629 53.7468 94.9447 52.7025C94.5485 51.6582 94.3504 50.5607 94.3504 49.4098C94.3504 48.2376 94.5485 47.1294 94.9447 46.0851C95.3629 45.0408 95.9683 44.1137 96.7607 43.3038C97.5531 42.494 98.5216 41.8546 99.6663 41.3858C100.833 40.9169 102.154 40.6824 103.628 40.6824C105.103 40.6824 106.413 40.9169 107.558 41.3858C108.702 41.8546 109.671 42.494 110.463 43.3038C111.256 44.1137 111.861 45.0408 112.279 46.0851C112.697 47.1294 112.906 48.2376 112.906 49.4098C112.906 50.5607 112.697 51.6582 112.279 52.7025C111.861 53.7468 111.256 54.6739 110.463 55.4838C109.671 56.2936 108.702 56.933 107.558 57.4019C106.413 57.8707 105.103 58.1052 103.628 58.1052ZM99.7653 49.4098C99.7653 50.2836 99.9304 51.0508 100.261 51.7115C100.613 52.3722 101.075 52.8837 101.647 53.246C102.22 53.6083 102.88 53.7895 103.628 53.7895C104.355 53.7895 105.004 53.6083 105.576 53.246C106.171 52.8624 106.633 52.3402 106.963 51.6795C107.293 51.0189 107.458 50.2623 107.458 49.4098C107.458 48.536 107.293 47.7688 106.963 47.1081C106.633 46.4474 106.171 45.9359 105.576 45.5736C105.004 45.2113 104.355 45.0301 103.628 45.0301C102.88 45.0301 102.22 45.2113 101.647 45.5736C101.075 45.9359 100.613 46.4474 100.261 47.1081C99.9304 47.7688 99.7653 48.536 99.7653 49.4098Z" fill="white"/>
<path d="M93.4273 47.3467H88.2641V59.3564H83.2841V47.3467H78.0903V43.0279H93.4273V47.3467Z" fill="white"/>
<path fill-rule="evenodd" clip-rule="evenodd" d="M33.9524 65.7768C33.9524 64.9275 34.1879 64.2633 34.6589 63.784C35.1299 63.3023 35.7378 63.0615 36.4828 63.0615C36.9706 63.0615 37.4104 63.1744 37.8021 63.4001C38.1938 63.6257 38.4917 63.941 38.696 64.3458C38.9027 64.7484 39.006 65.2056 39.006 65.7174C39.006 66.2363 38.8979 66.7004 38.6816 67.1099C38.4653 67.5194 38.1589 67.83 37.7624 68.0418C37.3659 68.2512 36.9382 68.3559 36.4792 68.3559C35.9817 68.3559 35.5372 68.2395 35.1455 68.0069C34.7538 67.7742 34.457 67.4566 34.2551 67.0541C34.0533 66.6516 33.9524 66.2258 33.9524 65.7768ZM34.6733 65.7872C34.6733 66.4038 34.8439 66.8901 35.1851 67.2461C35.5288 67.5997 35.9589 67.7765 36.4756 67.7765C37.0018 67.7765 37.4344 67.5974 37.7732 67.2391C38.1145 66.8808 38.2851 66.3724 38.2851 65.7139C38.2851 65.2975 38.2118 64.9345 38.0652 64.6251C37.921 64.3133 37.7084 64.0725 37.4272 63.9026C37.1484 63.7304 36.8348 63.6444 36.4864 63.6444C35.9914 63.6444 35.5648 63.8095 35.2068 64.1399C34.8511 64.468 34.6733 65.0171 34.6733 65.7872Z" fill="white"/>
<path d="M30.2369 66.4748L30.9362 66.6458C30.7896 67.2018 30.5253 67.6265 30.1432 67.9196C29.7635 68.2105 29.2985 68.3559 28.7482 68.3559C28.1787 68.3559 27.7149 68.2442 27.3568 68.0208C27.0012 67.7951 26.7296 67.4694 26.5422 67.0436C26.3572 66.6179 26.2646 66.1607 26.2646 65.6721C26.2646 65.1392 26.3692 64.6751 26.5782 64.2795C26.7897 63.8817 27.0889 63.5804 27.4758 63.3756C27.8651 63.1686 28.2928 63.065 28.759 63.065C29.2877 63.065 29.7323 63.1953 30.0927 63.4559C30.4532 63.7165 30.7043 64.0829 30.8461 64.5553L30.1576 64.7123C30.0351 64.34 29.8572 64.069 29.6241 63.8991C29.391 63.7293 29.0979 63.6444 28.7446 63.6444C28.3385 63.6444 27.9985 63.7386 27.7245 63.927C27.453 64.1155 27.2619 64.3691 27.1514 64.6879C27.0408 65.0043 26.9856 65.3312 26.9856 65.6686C26.9856 66.1037 27.0505 66.4841 27.1802 66.8098C27.3124 67.1332 27.5166 67.3752 27.793 67.5357C28.0694 67.6963 28.3685 67.7765 28.6905 67.7765C29.0822 67.7765 29.4139 67.6672 29.6854 67.4485C29.957 67.2298 30.1408 66.9052 30.2369 66.4748Z" fill="white"/>
<path fill-rule="evenodd" clip-rule="evenodd" d="M42.7683 63.784C42.2973 64.2633 42.0618 64.9275 42.0618 65.7768C42.0618 66.2258 42.1628 66.6516 42.3646 67.0541C42.5665 67.4566 42.8633 67.7742 43.255 68.0069C43.6467 68.2395 44.0912 68.3559 44.5887 68.3559C45.0476 68.3559 45.4754 68.2512 45.8719 68.0418C46.2684 67.83 46.5748 67.5194 46.7911 67.1099C47.0073 66.7004 47.1155 66.2363 47.1155 65.7174C47.1155 65.2056 47.0121 64.7484 46.8055 64.3458C46.6012 63.941 46.3032 63.6257 45.9115 63.4001C45.5198 63.1744 45.0801 63.0615 44.5923 63.0615C43.8473 63.0615 43.2393 63.3023 42.7683 63.784ZM43.2946 67.2461C42.9534 66.8901 42.7827 66.4038 42.7827 65.7872C42.7827 65.0171 42.9606 64.468 43.3162 64.1399C43.6743 63.8095 44.1008 63.6444 44.5959 63.6444C44.9443 63.6444 45.2579 63.7304 45.5367 63.9026C45.8178 64.0725 46.0305 64.3133 46.1747 64.6251C46.3213 64.9345 46.3946 65.2975 46.3946 65.7139C46.3946 66.3724 46.2239 66.8808 45.8827 67.2391C45.5439 67.5974 45.1113 67.7765 44.585 67.7765C44.0684 67.7765 43.6382 67.5997 43.2946 67.2461Z" fill="white"/>
<path d="M50.3552 68.2686V63.1523H51.0545V65.6895L53.6786 63.1523H54.6266L52.4098 65.2253L54.724 68.2686H53.8012L51.9196 65.679L51.0545 66.4957V68.2686H50.3552Z" fill="white"/>
<path d="M57.7942 63.1523V68.2686H58.4935V63.1523H57.7942Z" fill="white"/>
<path d="M62.0863 68.2686V63.1523H62.8036L65.5791 67.1693V63.1523H66.2496V68.2686H65.5323L62.7567 64.2481V68.2686H62.0863Z" fill="white"/>
<path d="M72.2649 65.6616V66.2619H73.8185V67.2146C73.6695 67.3426 73.4508 67.4636 73.1624 67.5776C72.8741 67.6893 72.5785 67.7451 72.2757 67.7451C71.9273 67.7451 71.598 67.6707 71.288 67.5218C70.9781 67.3729 70.7413 67.1448 70.5779 66.8377C70.4169 66.5306 70.3364 66.149 70.3364 65.693C70.3364 65.3231 70.4037 64.9799 70.5383 64.6634C70.6176 64.4796 70.7281 64.311 70.8699 64.1574C71.0141 64.0038 71.2027 63.8805 71.4358 63.7875C71.6689 63.6921 71.9453 63.6444 72.2649 63.6444C72.5316 63.6444 72.7743 63.6897 72.993 63.7805C73.2117 63.8689 73.3799 63.9875 73.4977 64.1364C73.6154 64.2854 73.7139 64.4901 73.7932 64.7507L74.424 64.5832C74.3327 64.2388 74.1994 63.9596 74.0239 63.7456C73.8485 63.5315 73.6058 63.3652 73.2958 63.2465C72.9882 63.1255 72.6434 63.065 72.2613 63.065C71.735 63.065 71.27 63.1697 70.8663 63.3791C70.4626 63.5885 70.1526 63.9096 69.9363 64.3424C69.7224 64.7728 69.6155 65.237 69.6155 65.7349C69.6155 66.2374 69.7236 66.6923 69.9399 67.0995C70.1562 67.5066 70.4758 67.8184 70.8987 68.0348C71.3241 68.2488 71.7963 68.3559 72.3154 68.3559C72.6998 68.3559 73.0747 68.2896 73.44 68.1569C73.8053 68.022 74.1597 67.8219 74.5033 67.5567V65.6581L72.2649 65.6616Z" fill="white"/>
<path d="M85.0729 66.4748L85.7722 66.6458C85.6256 67.2018 85.3612 67.6265 84.9791 67.9196C84.5995 68.2105 84.1345 68.3559 83.5842 68.3559C83.0146 68.3559 82.5508 68.2442 82.1928 68.0208C81.8371 67.7951 81.5656 67.4694 81.3781 67.0436C81.1931 66.6179 81.1006 66.1607 81.1006 65.6721C81.1006 65.1392 81.2051 64.6751 81.4142 64.2795C81.6257 63.8817 81.9248 63.5804 82.3117 63.3756C82.701 63.1686 83.1288 63.065 83.595 63.065C84.1236 63.065 84.5682 63.1953 84.9287 63.4559C85.2891 63.7165 85.5403 64.0829 85.682 64.5553L84.9936 64.7123C84.871 64.34 84.6932 64.069 84.4601 63.8991C84.227 63.7293 83.9338 63.6444 83.5806 63.6444C83.1744 63.6444 82.8344 63.7386 82.5605 63.927C82.2889 64.1155 82.0979 64.3691 81.9873 64.6879C81.8768 65.0043 81.8215 65.3312 81.8215 65.6686C81.8215 66.1037 81.8864 66.4841 82.0162 66.8098C82.1483 67.1332 82.3526 67.3752 82.6289 67.5357C82.9053 67.6963 83.2045 67.7765 83.5265 67.7765C83.9182 67.7765 84.2498 67.6672 84.5214 67.4485C84.7929 67.2298 84.9767 66.9052 85.0729 66.4748Z" fill="white"/>
<path d="M88.9721 63.1523V68.2686H92.2739V67.6649H89.6714V63.1523H88.9721Z" fill="white"/>
<path d="M98.9414 63.1523H99.6407V66.1083C99.6407 66.6225 99.5807 67.0308 99.4605 67.3333C99.3403 67.6358 99.1229 67.8824 98.8081 68.0732C98.4957 68.2616 98.0847 68.3559 97.5753 68.3559C97.0803 68.3559 96.6753 68.2733 96.3605 68.1081C96.0457 67.9429 95.8211 67.7044 95.6865 67.3926C95.5519 67.0785 95.4846 66.6504 95.4846 66.1083V63.1523H96.1839V66.1048C96.1839 66.5492 96.226 66.8773 96.3101 67.089C96.3966 67.2984 96.5432 67.4601 96.7498 67.5741C96.9589 67.6881 97.2136 67.7451 97.514 67.7451C98.0283 67.7451 98.3947 67.6323 98.6134 67.4066C98.8321 67.1809 98.9414 66.747 98.9414 66.1048V63.1523Z" fill="white"/>
<path fill-rule="evenodd" clip-rule="evenodd" d="M103.144 63.1523V68.2686H105.159C105.495 68.2686 105.779 68.2407 106.009 68.1849C106.243 68.1267 106.436 68.0418 106.59 67.9301C106.744 67.8184 106.872 67.6602 106.975 67.4555C107.081 67.2484 107.134 67.025 107.134 66.7854C107.134 66.4876 107.048 66.2293 106.875 66.0106C106.704 65.7919 106.459 65.6372 106.139 65.5464C106.387 65.4278 106.572 65.2719 106.694 65.0788C106.817 64.8856 106.878 64.6797 106.878 64.461C106.878 64.226 106.808 64.0015 106.669 63.7874C106.532 63.5711 106.341 63.4117 106.096 63.3093C105.853 63.2046 105.53 63.1523 105.126 63.1523H103.144ZM104.986 65.3021H103.843V63.756H104.899C105.279 63.756 105.547 63.7805 105.703 63.8293C105.859 63.8759 105.979 63.9643 106.064 64.0946C106.148 64.2225 106.19 64.3714 106.19 64.5413C106.19 64.7204 106.144 64.8694 106.053 64.988C105.964 65.1067 105.83 65.1916 105.653 65.2428C105.518 65.2823 105.296 65.3021 104.986 65.3021ZM105.159 67.6649H103.843V65.9059H105.065C105.401 65.9059 105.659 65.935 105.836 65.9931C106.017 66.049 106.157 66.1479 106.258 66.2898C106.359 66.4294 106.41 66.5946 106.41 66.7854C106.41 66.9482 106.375 67.0925 106.305 67.2181C106.235 67.3414 106.146 67.4357 106.038 67.5008C105.93 67.566 105.796 67.6125 105.635 67.6404C105.543 67.6567 105.385 67.6649 105.159 67.6649Z" fill="white"/>
</g>
<defs>
<clipPath id="clip0_4102_2334">
<rect width="134" height="70" fill="white"/>
</clipPath>
</defs>
</svg>
