<svg width="24" height="24" viewBox="0 0 24 24" fill="none" xmlns="http://www.w3.org/2000/svg">
<path d="M13.798 5.90563C14.5235 5.77889 15.2462 5.85898 15.8962 6.1581C17.001 6.65915 17.7782 7.5832 18.1097 8.75394C18.2525 9.32413 18.2741 9.92002 18.1731 10.4999C18.072 11.0797 17.8507 11.6295 17.5247 12.1106C17.0138 12.847 16.3002 13.3844 15.4582 13.6253C13.8179 14.0994 12.4606 15.0493 11.5538 16.3988C11.4433 16.5564 11.2781 16.6627 11.0936 16.6949C10.909 16.7272 10.7197 16.6828 10.5661 16.5714L9.55586 15.8193C9.48455 15.7668 9.42397 15.6999 9.37764 15.6227C9.33132 15.5454 9.30017 15.4593 9.28602 15.3694C9.24944 15.1413 9.31341 14.9238 9.46625 14.7001C10.3454 13.4023 10.7553 11.8113 10.6405 10.0869C10.5595 8.85363 11.0134 7.70514 11.9176 6.84376C12.4316 6.35067 13.0812 6.03085 13.798 5.90563ZM13.5054 4.08095C12.4827 4.25961 11.5068 4.73022 10.719 5.47747C9.34594 6.77716 8.75555 8.531 8.87321 10.2174C8.9527 11.4416 8.69559 12.6401 8.02602 13.6199L8.00418 13.6519C7.15993 14.8873 7.41888 16.5022 8.52966 17.3211L9.53986 18.0731C10.1011 18.4909 10.7612 18.6288 11.3818 18.5204C12.0024 18.412 12.5923 18.0557 12.9926 17.4699C13.6985 16.4368 14.7398 15.7578 15.9329 15.4087C17.1085 15.0627 18.192 14.3107 18.9649 13.1909C19.4491 12.4834 19.7747 11.6714 19.9176 10.8149C20.0605 9.95841 20.0171 9.07934 19.7907 8.2427C19.5642 7.40606 19.1604 6.63327 18.6092 5.98148C18.058 5.32969 17.3734 4.81558 16.6061 4.47717C15.6253 4.02013 14.5456 3.89924 13.5054 4.08095ZM7.85802 21.8184C8.17595 22.288 8.19677 22.9222 7.85324 23.4136C7.70554 23.6332 7.49964 23.8031 7.26081 23.9023C7.02197 24.0015 6.76058 24.0258 6.5087 23.9722C6.25682 23.9186 6.0254 23.7895 5.84283 23.6006C5.66025 23.4117 5.53447 23.1713 5.4809 22.9089C5.22574 22.9415 4.96702 22.8956 4.73647 22.777C4.50592 22.6583 4.31357 22.472 4.183 22.2409C4.05244 22.0097 3.98935 21.7439 4.00147 21.4759C4.01358 21.2079 4.10038 20.9494 4.25122 20.7321C4.58601 20.2422 5.17451 20.0456 5.69476 20.2079L7.50703 17.6122C7.6572 17.7642 7.82924 17.9405 8.01292 18.0772L9.02312 18.8293C9.23594 18.9797 9.43563 19.1042 9.68484 19.2014L7.85802 21.8184Z" fill="black"/>
</svg>
