<svg width="24" height="24" viewBox="0 0 24 24" fill="none" xmlns="http://www.w3.org/2000/svg">
<path fill-rule="evenodd" clip-rule="evenodd" d="M15.572 5.04132C14.9225 3.32231 13.3395 2 11.31 2C9.68635 2 8.10332 3.19008 7.53506 4.29201C4.32841 2.70523 1 5.52617 1 8.83196C1 11.124 2.2583 12.6667 4.04428 13.6364C3.93937 14.6617 3.80192 15.7694 3.66557 16.8683C3.53815 17.8952 3.41169 18.9144 3.31365 19.8512C3.305 19.9217 3.29543 19.9937 3.28572 20.0667C3.20432 20.6785 3.11337 21.3622 3.47601 21.8347C4.23419 22.0323 5.03768 22.0085 5.86956 21.9838C6.15109 21.9754 6.43587 21.9669 6.72325 21.9669H16.6273C17.1744 21.6874 17.2112 21.0476 17.2434 20.487C17.2518 20.3405 17.2599 20.1994 17.2768 20.0716C17.4761 18.1229 17.7539 15.9615 17.9945 14.089L18.0074 13.989C20.9705 14.0771 23 11.9614 23 8.96419C23 5.04132 18.941 2.48485 15.572 5.04132ZM14.3948 6.31956C14.3948 6.53035 14.3261 6.65403 14.2616 6.76994C14.2048 6.87217 14.1513 6.96836 14.1513 7.11295C14.1958 7.14519 14.2416 7.17874 14.2884 7.21312C14.6261 7.46076 15.0225 7.75152 15.4502 7.90634C15.8561 6.58402 17.2362 5.39394 18.9004 5.6584C20.524 5.87879 21.5793 7.68595 21.4576 9.40496C21.3358 10.8595 20.0775 12.314 18.1292 12.3581C18.2509 11.4766 18.2915 10.551 17.5203 10.5069C16.7595 10.5069 16.6404 11.7069 16.5282 12.8373C16.5207 12.9131 16.5132 12.9886 16.5055 13.0634C16.4252 13.6961 16.3746 14.318 16.3293 14.8757C16.2831 15.4446 16.2423 15.9467 16.1808 16.3251H5.27738L5.2823 16.2808C5.43451 14.9145 5.58672 13.5482 5.74908 12.2259C3.92251 12.1377 2.33948 10.6391 2.54244 8.39118C2.86716 5.34986 6.84502 4.5124 8.26568 6.98072C8.34686 5.30579 9.48339 3.85124 10.9041 3.67493C12.5683 3.45455 13.9889 4.60055 14.3948 6.31956ZM15.9592 18.1833C15.9654 18.122 15.9716 18.0609 15.9779 18C14.2017 17.9002 10.0446 17.9259 7.02942 17.9445C6.30145 17.949 5.64004 17.9531 5.09478 17.9549C5.00383 18.758 4.91144 19.5547 4.8155 20.3361H15.6937C15.8062 19.6849 15.884 18.9211 15.9592 18.1833Z" fill="black"/>
</svg>
