<svg width="24" height="24" viewBox="0 0 24 24" fill="none" xmlns="http://www.w3.org/2000/svg">
<path d="M11.3247 0.511764L2.13768 16.4098C1.85585 16.8975 2.02053 17.5199 2.50542 17.7996L11.2868 22.8649C11.7717 23.1446 12.3935 22.9759 12.6753 22.4882L21.8623 6.5902C22.1442 6.10249 21.9795 5.48014 21.4946 5.20044L12.7132 0.135075C12.2283 -0.144628 11.6065 0.0240579 11.3247 0.511764ZM18.5337 5.25893C17.9698 6.23462 18.2991 7.47889 19.2691 8.03846L12.6341 19.5204C11.664 18.9608 10.4209 19.2981 9.85704 20.2737L5.46635 17.7411C6.03017 16.7654 5.70092 15.5211 4.73085 14.9615L11.3659 3.47963C12.336 4.03919 13.5791 3.70194 14.143 2.72625L18.5337 5.25893Z" fill="black"/>
<path d="M13.9585 13.6681L13.0794 13.161L12.7836 13.6729L12.338 13.4158L12.6338 12.904L12.14 12.6191L11.8442 13.131L11.3986 12.874L11.6944 12.3621L9.71335 11.2194L10.5451 9.78011C10.7237 9.47099 10.9267 9.24014 11.154 9.08757C11.3837 8.93098 11.6221 8.85175 11.8694 8.84987C12.119 8.84398 12.3683 8.91281 12.6172 9.05638C12.8661 9.19995 13.0464 9.37888 13.158 9.59317C13.2697 9.80747 13.3134 10.0468 13.2891 10.3111C13.2608 10.5731 13.1608 10.8527 12.9891 11.1498L12.5889 11.8423L13.0827 12.1271L13.643 11.1576L14.0886 11.4146L13.5283 12.3842L14.4074 12.8913L13.9585 13.6681ZM12.1364 11.5973L12.4809 11.0011C12.6317 10.7402 12.6883 10.5079 12.6508 10.3042C12.6156 10.0966 12.4795 9.92443 12.2427 9.78781C12.0018 9.64888 11.7846 9.61725 11.591 9.69292C11.3957 9.76227 11.2227 9.92742 11.0719 10.1884L10.7273 10.7845L12.1364 11.5973Z" fill="black"/>
</svg>
