<svg width="24" height="24" viewBox="0 0 24 24" fill="none" xmlns="http://www.w3.org/2000/svg">
<path fill-rule="evenodd" clip-rule="evenodd" d="M7.8455 5.54727C7.8906 5.30054 8.06471 5.10041 8.29696 5.02832C8.52921 4.95623 8.78089 5.0242 8.94959 5.20456L8.95821 5.21382L8.9813 5.2387C9.00132 5.26032 9.03039 5.29185 9.06733 5.33222C9.14119 5.41293 9.24662 5.52913 9.37406 5.67233C9.62859 5.95833 9.9727 6.35398 10.3293 6.791C10.5341 7.04194 10.7452 7.30911 10.9469 7.57895C11.0374 7.46192 11.1386 7.35294 11.2498 7.2537C11.7124 6.84064 12.3109 6.6281 12.9209 6.66027C13.5308 6.69244 14.1054 6.96684 14.5251 7.42643C14.7678 7.69216 14.9478 8.00798 15.056 8.3494C15.1866 8.33633 15.3182 8.32971 15.4504 8.32971C16.3931 8.32971 17.3024 8.66601 18.0286 9.27446C18.1015 9.22526 18.1771 9.18013 18.2551 9.13931C18.5364 8.9921 18.8431 8.90394 19.1574 8.87993C19.4717 8.85591 19.7875 8.8965 20.0866 8.99936C20.3857 9.10223 20.6622 9.26533 20.9002 9.4793L20.905 9.48365C21.3825 9.92149 21.6757 10.5354 21.722 11.1942C21.7391 11.4378 21.7219 11.6804 21.6727 11.9149H22.3508C22.7094 11.9149 23 12.2159 23 12.5872C23 15.6087 21.8411 18.5065 19.7782 20.643C18.9959 21.4532 18.1079 22.1288 17.1478 22.6553H18.9005C19.259 22.6553 19.5497 22.9564 19.5497 23.3277C19.5497 23.699 19.259 24 18.9005 24H5.09952C4.741 24 4.45037 23.699 4.45037 23.3277C4.45037 22.9564 4.741 22.6553 5.09952 22.6553H6.85238C5.89226 22.1288 5.00427 21.4532 4.22199 20.643C2.1591 18.5065 1.00019 15.6087 1.00019 12.5872C1.00019 12.4089 1.06858 12.2379 1.19032 12.1118C1.31206 11.9857 1.47717 11.9149 1.64934 11.9149H3.91783C3.88983 11.8571 3.86238 11.7991 3.83552 11.7412C3.67187 11.3885 3.5139 11.0032 3.36828 10.6218L1.36665 9.6191C1.0439 9.45742 0.908811 9.05537 1.06492 8.7211C1.22102 8.38683 1.60921 8.24692 1.93196 8.4086L2.74265 8.81471L2.71084 8.71377C2.65276 8.52858 2.60659 8.3765 2.57483 8.2703C2.55895 8.21719 2.54665 8.17551 2.53825 8.14686L2.52862 8.11384L2.52506 8.10154C2.45582 7.86088 2.52185 7.60032 2.69627 7.42589C2.87069 7.25146 3.12443 7.19224 3.35423 7.27234L3.36599 7.27646L3.39752 7.28759C3.42488 7.29729 3.46467 7.31148 3.51537 7.32979C3.61673 7.3664 3.76185 7.41953 3.93849 7.48618C4.29128 7.6193 4.7722 7.80725 5.28259 8.02597C5.79128 8.24397 6.33836 8.4964 6.8201 8.75904C7.0209 8.86851 7.22252 8.98613 7.41077 9.11028C7.43388 8.63085 7.4812 8.12686 7.53551 7.65817C7.60135 7.09006 7.67866 6.5636 7.73937 6.17975C7.76978 5.98755 7.79612 5.83045 7.81495 5.72095C7.82436 5.6662 7.8319 5.6233 7.83714 5.59384L7.84321 5.55991L7.8455 5.54727ZM5.41201 11.9149H5.9496L5.19075 11.5348C5.27015 11.6858 5.34443 11.8129 5.41201 11.9149ZM12.7229 11.9149H13.8737L13.7829 11.821C13.5291 11.5588 13.5286 11.1331 13.7819 10.8702C14.0351 10.6074 14.4461 10.6069 14.6999 10.8692L15.4221 11.6154L15.4302 11.6239L15.4382 11.6154L16.1604 10.8692C16.4142 10.6069 16.8252 10.6074 17.0785 10.8702C17.3317 11.1331 17.3312 11.5588 17.0774 11.821L16.9866 11.9149H18.178C18.06 11.3925 17.8034 10.9096 17.4311 10.5241C16.9058 9.98002 16.1933 9.67437 15.4504 9.67437C14.7075 9.67437 13.9951 9.98002 13.4698 10.5241C13.0975 10.9096 12.8409 11.3925 12.7229 11.9149ZM7.11528 10.5613C7.31107 10.7718 7.45473 10.9995 7.55296 11.2244L4.39648 9.64319C4.31872 9.42671 4.24567 9.21528 4.17883 9.01644C4.3715 9.09396 4.57649 9.17859 4.7862 9.26847C5.27619 9.47845 5.78287 9.71313 6.21536 9.94892C6.66558 10.1944 6.97234 10.4079 7.11528 10.5613ZM12.1161 9.67093L12.4448 9.68826C12.3528 9.79098 12.2661 9.89794 12.185 10.0087C12.1671 9.89614 12.1442 9.78339 12.1161 9.67093ZM10.5116 9.2622C10.5245 9.28702 10.539 9.31108 10.555 9.3342C10.701 9.58052 10.7947 9.7778 10.8344 9.91553C10.9799 10.42 10.9558 10.8984 10.829 11.2554C10.8193 11.2827 10.8091 11.309 10.7985 11.3344L10.3613 9.82267C10.2584 9.46697 9.89661 9.26499 9.55317 9.37153C9.20972 9.47807 9.0147 9.8528 9.11757 10.2085L9.5546 11.7196C9.53236 11.7045 9.51001 11.6884 9.48756 11.6712C9.1924 11.4454 8.91854 11.0597 8.7724 10.5552C8.71322 10.3512 8.68361 9.96952 8.69748 9.44249C8.71079 8.93641 8.76137 8.36382 8.82457 7.8184C8.85162 7.585 8.88075 7.35843 8.90985 7.14647C9.04667 7.3069 9.19128 7.4795 9.33777 7.65901C9.68015 8.07855 10.0264 8.528 10.3062 8.94319C10.3825 9.05636 10.451 9.1629 10.5116 9.2622ZM12.0975 8.27212C12.3072 8.08493 12.5784 7.98861 12.8548 8.00319C13.1313 8.01777 13.3916 8.14212 13.5818 8.3504C13.5978 8.36788 13.6132 8.38585 13.6279 8.40426L12.0464 8.32086C12.0629 8.30409 12.0799 8.28784 12.0975 8.27212ZM19.2529 10.2209C19.3965 10.21 19.5408 10.2285 19.6775 10.2755C19.8131 10.3222 19.9386 10.3959 20.0468 10.4926C20.2691 10.6976 20.4055 10.9842 20.4271 11.2917C20.4314 11.3524 20.4311 11.413 20.4264 11.4729L19.0778 10.2492C19.1352 10.2349 19.1937 10.2255 19.2529 10.2209ZM5.14003 19.6922C3.47424 17.9669 2.47678 15.6789 2.32022 13.2596H21.68C21.5234 15.6789 20.5259 17.9669 18.8602 19.6922C17.0408 21.5766 14.5731 22.6352 12.0001 22.6352C9.42707 22.6352 6.95943 21.5766 5.14003 19.6922Z" fill="black"/>
</svg>
