<svg width="24" height="24" viewBox="0 0 24 24" fill="none" xmlns="http://www.w3.org/2000/svg">
<path d="M12.46 1.15848C12.7134 0.893503 12.7134 0.463845 12.4601 0.198809C12.2069 -0.0662265 11.7962 -0.066276 11.5429 0.198699C11.269 0.485259 11.0516 0.825476 10.9034 1.19992C10.7551 1.57436 10.6788 1.97569 10.6788 2.381C10.6788 2.7863 10.7551 3.18763 10.9034 3.56208C11.0516 3.93641 11.2691 4.27678 11.5429 4.56329C11.8524 4.88743 12.0262 5.32683 12.0262 5.78496C12.0262 6.24321 11.8523 6.68272 11.5427 7.00687C11.2895 7.27198 11.2896 7.70164 11.543 7.96654C11.7964 8.23145 12.2071 8.23128 12.4603 7.96617C13.0129 7.38753 13.3233 6.60298 13.3233 5.78496C13.3233 4.96695 13.0127 4.18216 12.46 3.60351C12.3066 3.44298 12.1848 3.2524 12.1018 3.04263C12.0318 2.86579 11.9904 2.67825 11.9791 2.48769C11.977 2.45221 11.976 2.41663 11.976 2.381C11.976 2.15395 12.0187 1.92912 12.1018 1.71936C12.1233 1.66501 12.1474 1.61195 12.174 1.56037C12.25 1.41286 12.3463 1.27742 12.46 1.15848Z" fill="black"/>
<path d="M7.86667 2.5697C8.11986 2.30459 8.1197 1.87494 7.86632 1.61003C7.61293 1.34513 7.20227 1.34529 6.94908 1.6104C6.39644 2.18905 6.08601 2.9736 6.08601 3.79161C6.08601 4.60963 6.39644 5.39417 6.94908 5.97282C7.25867 6.29698 7.43257 6.73648 7.43257 7.19473C7.43257 7.65298 7.25867 8.09248 6.94908 8.41664C6.69589 8.68175 6.69605 9.1114 6.94943 9.37631C7.20282 9.64121 7.61348 9.64105 7.86667 9.37594C8.41931 8.79729 8.72974 8.01275 8.72974 7.19473C8.72974 6.37671 8.41931 5.59217 7.86667 5.01352C7.55708 4.68936 7.38318 4.24986 7.38318 3.79161C7.38318 3.33336 7.55708 2.89386 7.86667 2.5697Z" fill="black"/>
<path d="M17.0555 2.5697C17.3087 2.30459 17.3085 1.87494 17.0551 1.61003C16.8018 1.34513 16.3911 1.34529 16.1379 1.6104C15.5853 2.18905 15.2748 2.97359 15.2748 3.79161C15.2748 4.60963 15.5853 5.39418 16.1379 5.97282C16.4475 6.29698 16.6214 6.73648 16.6214 7.19473C16.6214 7.65298 16.4475 8.09248 16.1379 8.41664C15.8847 8.68175 15.8849 9.1114 16.1383 9.37631C16.3916 9.64121 16.8023 9.64105 17.0555 9.37594C17.6081 8.79729 17.9186 8.01275 17.9186 7.19473C17.9186 6.37671 17.6081 5.59217 17.0555 5.01352C16.7459 4.68936 16.572 4.24986 16.572 3.79161C16.572 3.33336 16.7459 2.89386 17.0555 2.5697Z" fill="black"/>
<path fill-rule="evenodd" clip-rule="evenodd" d="M22.619 9.51047C22.9432 9.3511 23.0825 8.94692 22.9302 8.60772C22.7779 8.26852 22.3916 8.12274 22.0674 8.28211L14.8855 11.8126H1.65021C1.29648 11.8126 1.00798 12.1091 1.00172 12.4791C0.975866 14.0074 1.24124 15.5258 1.78234 16.9455C2.32345 18.3653 3.12945 19.6581 4.15329 20.7485C4.84821 21.4885 5.63404 22.1252 6.48848 22.6428H5.10716C4.74896 22.6428 4.45858 22.9466 4.45858 23.3214C4.45858 23.6962 4.74896 24 5.10716 24H18.8961C19.2543 24 19.5447 23.6962 19.5447 23.3214C19.5447 22.9466 19.2543 22.6428 18.8961 22.6428H17.5115C18.366 22.1252 19.1518 21.4885 19.8467 20.7485C20.8706 19.6581 21.6766 18.3653 22.2177 16.9455C22.7588 15.5258 23.0241 14.0074 22.9983 12.4791C22.992 12.1091 22.7035 11.8126 22.3498 11.8126H17.9359L22.619 9.51047ZM15.0186 13.1697C15.0267 13.1699 15.0349 13.1699 15.043 13.1697H21.6917C21.6402 14.291 21.4112 15.3973 21.0127 16.4429C20.5354 17.6952 19.8245 18.8356 18.9214 19.7973C18.0183 20.7591 16.9411 21.523 15.7527 22.0445C15.1468 22.3104 14.5181 22.5105 13.8766 22.6428H10.1234C9.48186 22.5105 8.8532 22.3104 8.24726 22.0445C7.0589 21.523 5.98172 20.7591 5.07861 19.7973C4.1755 18.8356 3.46455 17.6952 2.98725 16.4429C2.58875 15.3973 2.3598 14.291 2.30834 13.1697H15.0186Z" fill="black"/>
</svg>
