<svg width="24" height="24" viewBox="0 0 24 24" fill="none" xmlns="http://www.w3.org/2000/svg">
<path d="M17.3783 16.6404L10.7036 10.9938C10.8758 10.6427 11.1972 10.3324 11.6679 10.0628C12.3268 9.68537 13.0018 9.55128 13.8261 9.45796L18.4802 13.3578C18.5767 14.8176 18.0601 15.8711 17.3783 16.6404ZM8.72017 17.9378L11.2045 20.0502C9.73741 20.7642 8.53662 21.0732 7.76748 21.2612L6.58042 20.2997C7.52175 19.7605 8.20362 18.9912 8.72017 17.9378ZM15.9824 17.6924C14.8528 18.3394 13.8173 18.9325 12.915 19.323L9.2987 16.3439C9.49383 15.6008 9.63385 14.7631 9.5305 13.9384C9.49833 13.4518 9.5603 12.9113 9.67738 12.4654L15.9824 17.6924Z" fill="black"/>
<path fill-rule="evenodd" clip-rule="evenodd" d="M10.3474 8.04075L10.382 8.02094C11.9064 7.14784 13.867 6.77471 15.6717 7.13847C17.5439 7.51582 19.0547 8.71914 19.8911 10.1564C21.4687 12.8674 21.1691 15.1838 20.1955 16.8858C19.2882 18.4719 17.8843 19.3814 17.4058 19.6554C12.6796 22.3624 9.64241 23.5831 7.60868 23.9067C6.57067 24.0718 5.67091 24.0243 4.91086 23.7117C4.1158 23.3847 3.64577 22.8392 3.35667 22.3425C3.0283 21.7782 2.89849 21.0995 3.0874 20.4241C3.27576 19.7506 3.73797 19.2335 4.30505 18.9087L4.49505 18.7999C6.09472 17.8837 7.13443 16.0503 7.11745 14.1001C6.9986 11.6481 8.26158 9.39088 10.3139 8.06239L10.3474 8.04075ZM8.56964 14.0482C8.6023 16.4986 7.30781 18.8449 5.21783 20.0419L5.02783 20.1508C4.45784 20.4772 4.29338 21.0652 4.61667 21.6208C5.31715 22.8245 7.27815 23.8 16.683 18.4134C17.443 17.9781 21.2713 15.415 18.6311 10.878C17.9845 9.76693 16.809 8.83529 15.3741 8.54606C13.9391 8.25684 12.3397 8.55564 11.1047 9.26298C9.44865 10.335 8.4675 12.1315 8.56964 14.0482Z" fill="black"/>
</svg>
