<svg width="24" height="24" viewBox="0 0 24 24" fill="none" xmlns="http://www.w3.org/2000/svg">
<path d="M17.2341 19.0865L11.9215 11.4383C12.1993 11.1221 12.6201 10.8884 13.1839 10.7374C13.9732 10.526 14.7103 10.5706 15.5903 10.6977L19.3052 15.992C18.9916 17.5274 18.1582 18.4762 17.2341 19.0865ZM7.90016 18.0788L9.87449 20.9365C8.15287 21.2766 6.8218 21.2703 5.972 21.256L5.01508 19.9399C6.14267 19.638 7.06678 19.0276 7.90016 18.0788ZM15.4904 19.7954C14.1373 20.1578 12.8969 20.4899 11.8519 20.6489L8.95087 16.5879C9.36346 15.8727 9.74581 15.0447 9.8724 14.1641C9.97696 13.6523 10.1943 13.1104 10.4418 12.6812L15.4904 19.7954Z" fill="black"/>
<path fill-rule="evenodd" clip-rule="evenodd" d="M12.3892 8.28881L12.4307 8.27772C14.2567 7.7887 16.3928 7.9349 18.1588 8.80059C19.9907 9.69864 21.2143 11.3525 21.6733 13.0652C22.5391 16.2959 21.5725 18.6092 20.0821 20.1046C18.6931 21.4982 16.9815 22.0574 16.4084 22.2109C10.747 23.7271 7.25586 24.165 5.05806 23.9478C3.9363 23.8369 3.01797 23.5437 2.31942 23.0143C1.5887 22.4606 1.25648 21.7691 1.09783 21.1771C0.917638 20.5047 0.97549 19.7678 1.36247 19.1208C1.74833 18.4757 2.3735 18.0666 3.05279 17.8846L3.28038 17.8237C5.19658 17.3105 6.79272 15.6973 7.32765 13.6766C7.89925 11.1095 9.84668 9.11867 12.3485 8.30212L12.3892 8.28881ZM8.84623 14.0169C8.18585 16.559 6.18052 18.6333 3.67701 19.3038L3.44942 19.3647C2.76664 19.5476 2.42974 20.1109 2.60715 20.7729C2.99154 22.2073 4.74596 23.7478 16.0118 20.7308C16.9221 20.487 21.6129 18.876 20.164 13.4694C19.8092 12.1453 18.8558 10.8633 17.4517 10.175C16.0476 9.48668 14.3067 9.36164 12.8273 9.75782C10.8085 10.4167 9.2835 12.0077 8.84623 14.0169Z" fill="black"/>
</svg>
