<svg width="24" height="24" viewBox="0 0 24 24" fill="none" xmlns="http://www.w3.org/2000/svg">
<path d="M11.4364 4.48684C11.7879 4.1467 11.7879 3.59524 11.4364 3.2551C11.0849 2.91497 10.5151 2.91497 10.1636 3.2551L1.77061 11.3773C1.60363 11.5355 1.5 11.756 1.5 11.9999C1.5 12 1.5 11.9999 1.5 11.9999C1.5 12.0027 1.50001 12.0055 1.50004 12.0082C1.50191 12.2028 1.5697 12.3821 1.68285 12.5262C1.70749 12.5577 1.73444 12.5876 1.7636 12.6159L10.1636 20.7449C10.5151 21.085 11.0849 21.085 11.4364 20.7449C11.7879 20.4048 11.7879 19.8533 11.4364 19.5132L4.57272 12.8709H21.6C22.0971 12.8709 22.5 12.4809 22.5 11.9999C22.5 11.5189 22.0971 11.129 21.6 11.129H4.57287L11.4364 4.48684Z" fill="black"/>
</svg>
