<svg width="3085" height="510" viewBox="0 0 3085 510" fill="none" xmlns="http://www.w3.org/2000/svg">
<path d="M185.778 53.6243C188.784 53.3678 191.661 52.6653 194.356 51.5697L194.349 51.5791C192.252 54.5162 189.657 57.0526 186.686 59.0696C186.69 59.7141 186.682 60.3646 186.658 61.0081C185.914 80.8156 170.189 103.122 142.992 102.148C134.957 101.87 127.178 99.2501 120.585 94.6027C121.751 94.7843 122.927 94.8963 124.107 94.9381C130.764 95.1864 137.316 93.157 142.71 89.1764C139.627 89.0086 136.676 87.8676 134.269 85.913C131.862 83.9585 130.121 81.2883 129.289 78.2763C131.489 78.7838 133.775 78.7775 135.976 78.2579C132.655 77.4525 129.715 75.5066 127.654 72.7502C125.593 69.9938 124.538 66.5967 124.668 63.1354L124.675 62.9424C126.684 64.1728 128.956 64.8982 131.301 65.0579C129.328 63.6149 127.738 61.6995 126.673 59.4818C125.608 57.2641 125.099 54.8126 125.193 52.3448C125.296 49.6034 126.123 47.0554 127.476 44.8807C131.014 49.6443 135.504 53.5975 140.652 56.4838C145.8 59.3701 151.493 61.1251 157.36 61.6348C156.737 58.393 157.187 55.0302 158.641 52.0687C160.095 49.1072 162.472 46.7125 165.402 45.2565C168.332 43.8005 171.652 43.3646 174.846 44.0165C178.039 44.6685 180.929 46.3717 183.065 48.8618C186.401 48.3214 189.622 47.2052 192.589 45.562C191.357 48.9958 188.936 51.8615 185.778 53.6243Z" fill="#FA6425"/>
<path d="M197.679 317.109C199.179 314.897 201.019 312.891 203.185 311.158C201.67 314.114 201.28 317.53 202.088 320.769C203.517 318.003 205.41 315.506 207.683 313.389C210.583 314.188 213.657 314.003 216.429 312.864C219.201 311.725 221.515 309.696 223.012 307.09C224.509 304.484 225.105 301.448 224.708 298.454C224.311 295.459 222.942 292.674 220.815 290.53C225.557 287.915 230.799 286.335 236.202 285.894C241.605 285.452 247.047 286.159 252.176 287.968C252.102 285.623 251.436 283.264 250.119 281.129C248.934 279.205 247.297 277.602 245.354 276.462C243.411 275.323 241.221 274.681 238.979 274.594C240.852 273.515 242.956 272.904 245.118 272.811L245.025 272.66C243.362 269.963 240.826 267.922 237.848 266.882C234.87 265.843 231.633 265.868 228.686 266.956C230.102 265.435 231.846 264.26 233.785 263.52C231.615 261.657 228.925 260.519 226.092 260.266C223.258 260.012 220.422 260.655 217.982 262.105C220.075 256.321 224.047 251.426 229.259 248.208C230.181 247.636 231.137 247.119 232.12 246.661C224.717 246.503 217.44 248.493 211.161 252.393C189.888 265.57 189.234 290.566 198.753 305.998C199.062 306.499 199.387 306.998 199.719 307.485C198.476 310.538 197.785 313.793 197.679 317.098L197.679 317.109Z" fill="#FA6425"/>
<path d="M75.137 288.445C77.4609 290.367 80.0041 291.878 82.6919 292.981L82.6805 292.983C79.1329 293.618 75.5096 293.616 71.9806 292.98C71.5335 293.444 71.0729 293.904 70.6061 294.348C56.2383 308.009 29.4366 312.967 10.7138 293.224C5.17628 287.398 1.45666 280.075 0 272.131C0.705032 273.077 1.46557 273.981 2.27768 274.837C6.85372 279.677 12.946 282.812 19.5746 283.739C17.4925 281.46 16.1841 278.576 15.8327 275.492C15.4813 272.407 16.1044 269.276 17.6148 266.537C18.8299 268.441 20.4655 270.037 22.3981 271.206C20.5918 268.304 19.8536 264.852 20.3088 261.435C20.764 258.018 22.3845 254.847 24.8954 252.46L25.0354 252.327C25.6094 254.615 26.7233 256.725 28.2845 258.482C27.8852 256.067 28.0892 253.582 28.8785 251.249C29.6677 248.915 31.0177 246.804 32.8088 245.103C34.7974 243.212 37.167 241.966 39.6513 241.357C38.8481 247.245 39.2891 253.219 40.9457 258.891C42.6023 264.563 45.4374 269.806 49.2671 274.28C51.087 271.522 53.7575 269.43 56.8639 268.328C59.9702 267.226 63.3387 267.176 66.4462 268.185C69.5538 269.195 72.2266 271.207 74.0497 273.911C75.8727 276.614 76.7441 279.857 76.5285 283.135C79.2859 285.085 82.3638 286.541 85.6282 287.442C82.3506 289.038 78.6216 289.395 75.137 288.445Z" fill="#FA6425"/>
<path d="M117.142 364.825C116.241 366.377 116.456 367.727 118.879 368.298L126.881 370.181C128.917 370.661 130.107 369.819 130.894 368.767C130.894 368.767 137.278 359.942 144.545 354.944C146.847 353.54 147.832 353.155 148.851 353.395C149.36 353.515 149.986 354.279 149.59 355.954L145.891 371.593C145.416 373.601 145.765 374.627 147.46 375.026L160.044 377.988C161.315 378.287 162.3 377.536 162.509 376.652C162.681 375.926 162.382 375.315 162.001 374.534C161.384 373.27 160.55 371.563 161.15 368.211L163.9 356.585C164.503 354.035 165.079 353.683 166.097 353.923C168.81 354.561 173.084 365.944 174.341 378.112C174.583 380.479 175.142 381.542 177.188 382.023L185.196 383.908C187.482 384.447 188.19 383.492 188.468 382.32C188.962 380.232 188.702 369.223 182.024 353.17C177.625 342.246 169.514 334.976 161.03 332.979C155.942 331.781 155.048 332.76 154.588 334.704L152.913 341.784C152.38 344.04 151.792 344.376 150.179 343.997C148.99 343.717 147.096 342.651 143.415 337.018C142.177 335.045 141.279 333.428 140.547 332.111C138.82 329.001 138.021 327.563 135.875 327.058L127.873 325.174C125.587 324.636 124.174 325.492 124.306 327.876C124.507 330.263 126.337 334.09 128.87 338.716C129.555 340.04 130.47 341.465 131.28 342.726C132.067 343.952 132.756 345.025 133.039 345.701C133.869 347.483 133.372 348.074 132.208 349.212C132.208 349.212 119.248 360.464 117.145 364.826L117.142 364.825Z" fill="#FA6425"/>
<path d="M161.869 168.594C160.314 169.489 159.826 170.766 161.637 172.474L167.619 178.113C169.141 179.548 170.591 179.414 171.797 178.896C171.797 178.896 181.727 174.44 190.51 173.746C193.202 173.681 194.247 173.841 195.008 174.558C195.389 174.917 195.549 175.894 194.371 177.147L183.36 188.853C181.946 190.356 181.736 191.42 183.003 192.615L192.41 201.482C193.361 202.378 194.588 202.221 195.21 201.558C195.721 201.015 195.768 200.335 195.828 199.468C195.926 198.063 196.057 196.165 198.249 193.56L206.435 184.858C208.23 182.949 208.904 182.932 209.665 183.649C211.693 185.561 209.707 197.569 204.717 208.747C203.744 210.92 203.697 212.122 205.226 213.563L211.213 219.206C212.922 220.817 214.011 220.344 214.837 219.467C216.307 217.904 221.58 208.23 223.82 190.971C225.469 179.298 222.083 168.934 215.741 162.956C211.937 159.371 210.675 159.772 209.306 161.227L204.322 166.526C202.733 168.215 202.057 168.212 200.851 167.076C199.962 166.238 198.856 164.365 198.485 157.639C198.399 155.309 198.43 153.458 198.454 151.95C198.513 148.389 198.54 146.742 196.936 145.23L190.954 139.591C189.245 137.98 187.595 138.016 186.519 140.148C185.501 142.318 185.173 146.552 185.053 151.83C184.985 153.321 185.065 155.014 185.136 156.514C185.205 157.971 185.265 159.245 185.172 159.973C185 161.933 184.275 162.197 182.7 162.601C182.7 162.601 165.869 165.868 161.871 168.596L161.869 168.594Z" fill="#FA6425"/>
<path d="M128.495 128.662C128.965 126.93 128.408 125.683 125.919 125.76L117.699 126.015C115.607 126.08 114.674 127.201 114.186 128.42C114.186 128.42 110.298 138.595 104.567 145.303C102.706 147.255 101.853 147.882 100.807 147.915C100.284 147.931 99.4803 147.355 99.4303 145.636L98.9626 129.578C98.9025 127.517 98.2996 126.617 96.5586 126.671L83.6321 127.072C82.3263 127.112 81.5682 128.092 81.5946 129C81.6163 129.745 82.0631 130.258 82.6332 130.913C83.5568 131.974 84.804 133.406 85.0907 136.797L85.4384 148.734C85.5146 151.352 85.0493 151.842 84.0034 151.874C81.2165 151.961 74.1431 142.079 69.7829 130.657C68.9377 128.434 68.1222 127.553 66.0211 127.618L57.7949 127.873C55.4463 127.946 55.0084 129.051 55.0434 130.255C55.1059 132.398 58.203 142.96 68.8059 156.728C75.8812 166.134 85.5994 171.052 94.3142 170.781C99.5405 170.619 100.152 169.443 100.094 167.447L99.882 160.177C99.8145 157.861 100.296 157.383 101.952 157.332C103.174 157.294 105.28 157.833 110.294 162.317C111.999 163.901 113.285 165.229 114.332 166.311C116.806 168.866 117.95 170.048 120.155 169.98L128.374 169.725C130.723 169.652 131.867 168.459 131.124 166.192C130.312 163.939 127.554 160.719 123.911 156.909C122.906 155.808 121.654 154.669 120.545 153.661C119.467 152.682 118.524 151.825 118.076 151.245C116.813 149.74 117.141 149.041 117.971 147.64C117.971 147.64 127.587 133.419 128.492 128.663L128.495 128.662Z" fill="#FA6425"/>
<path d="M84.4383 358.346L54.0609 377.163L59.3057 385.666L48.3684 392.441L43.1235 383.939L33.7816 389.726C26.4406 394.273 16.601 393.426 9.46223 381.853C6.57185 377.168 4.85891 373.44 4.85891 373.44L15.241 367.386C15.241 367.386 17.3882 370.94 19.7668 374.796C22.3411 378.969 24.5705 378.512 27.5861 376.644L35.5724 371.697L27.8226 359.134L39.0972 352.905L46.5097 364.922L76.8872 346.104L84.4383 358.346Z" fill="#FA6425"/>
<path d="M138.282 201.842L139.322 237.56L149.307 237.25L149.682 250.111L139.696 250.421L140.016 261.405C140.268 270.037 134.6 278.146 121.009 278.568C115.506 278.739 111.423 278.366 111.423 278.366L111.393 266.346C111.393 266.346 115.544 266.256 120.073 266.116C124.974 265.963 125.697 263.803 125.594 260.257L125.32 250.867L110.566 251.324L110.833 238.444L124.946 238.006L123.905 202.288L138.282 201.842Z" fill="#FA6425"/>
<path d="M301.764 130.869L266.087 131.976L266.378 141.973L253.532 142.371L253.241 132.374L242.269 132.715C233.647 132.982 225.558 127.322 225.161 113.715C225.001 108.206 225.381 104.117 225.381 104.117L237.386 104.066C237.386 104.066 237.469 108.222 237.601 112.755C237.744 117.662 239.9 118.382 243.442 118.272L252.822 117.981L252.392 103.21L265.256 103.454L265.667 117.583L301.345 116.476L301.764 130.869Z" fill="#FA6425"/>
<path d="M177.976 439.278L208.353 420.461L203.108 411.958L214.046 405.183L219.291 413.686L228.633 407.899C235.973 403.351 245.813 404.198 252.952 415.771C255.842 420.456 257.555 424.184 257.555 424.184L247.173 430.238C247.173 430.238 245.026 426.684 242.647 422.828C240.073 418.655 237.844 419.112 234.828 420.98L226.842 425.927L234.591 438.491L223.317 444.719L215.904 432.702L185.527 451.52L177.976 439.278Z" fill="#FA6425"/>
<path d="M399.575 102.509C397.204 104.194 394.565 105.538 391.698 106.478C394.367 104.037 396.065 100.692 396.475 97.0673C393.965 99.348 391.086 101.174 387.964 102.466C385.313 100.533 382.11 99.5392 378.851 99.6382C375.593 99.7372 372.462 100.924 369.945 103.014C367.428 105.104 365.664 107.98 364.929 111.197C364.194 114.413 364.528 117.789 365.88 120.801C360.052 121.653 354.109 121.252 348.435 119.625C342.761 117.999 337.484 115.182 332.946 111.359C332.129 113.786 331.91 116.456 332.439 119.147C332.914 121.571 333.972 123.84 335.518 125.754C337.064 127.668 339.052 129.167 341.303 130.118C338.984 130.501 336.607 130.317 334.368 129.581L334.406 129.77C335.074 133.169 336.881 136.233 339.52 138.442C342.159 140.652 345.468 141.87 348.885 141.891C346.862 142.903 344.639 143.434 342.381 143.445C343.883 146.185 346.191 148.384 348.982 149.734C351.773 151.084 354.907 151.516 357.946 150.971C353.611 156.084 347.7 159.564 341.164 160.852C340.006 161.082 338.836 161.243 337.66 161.334C345.143 164.343 353.316 165.106 361.2 163.532C387.894 158.233 398.076 132.911 394.25 113.463C394.126 112.831 393.985 112.196 393.832 111.57C396.261 108.924 398.204 105.859 399.57 102.519L399.575 102.509Z" fill="#FA6425"/>
<path d="M467.787 353.13C466.077 355.315 464.747 357.689 463.795 360.186L463.793 360.176C463.137 356.935 463.062 353.608 463.57 350.351C463.135 349.953 462.705 349.542 462.289 349.125C449.48 336.293 444.376 311.815 462.053 294.104C467.269 288.866 473.894 285.258 481.136 283.711C480.284 284.384 479.473 285.106 478.707 285.874C474.373 290.203 471.631 295.879 470.923 301.99C472.965 300.018 475.577 298.741 478.393 298.337C481.209 297.933 484.089 298.423 486.628 299.738C484.911 300.903 483.484 302.447 482.455 304.252C485.073 302.518 488.218 301.749 491.355 302.077C494.492 302.405 497.429 303.809 499.667 306.052L499.792 306.177C497.71 306.764 495.802 307.842 494.227 309.322C496.429 308.892 498.707 309.014 500.861 309.677C503.014 310.34 504.975 311.524 506.569 313.124C508.342 314.9 509.532 317.043 510.143 319.308C504.735 318.726 499.276 319.288 494.119 320.958C488.962 322.629 484.223 325.37 480.208 329.004C482.771 330.602 484.743 332.999 485.817 335.822C486.891 338.646 487.008 341.737 486.15 344.617C485.291 347.497 483.505 350.004 481.069 351.749C478.633 353.494 475.683 354.38 472.677 354.268C470.951 356.851 469.683 359.715 468.927 362.737C467.397 359.769 466.992 356.355 467.787 353.13Z" fill="#FA6425"/>
<path d="M346.34 363.112C343.471 362.657 340.649 361.769 337.946 360.433C341.555 360.557 345.103 359.353 347.926 357.047C344.542 356.92 341.212 356.209 338.08 354.946C337.537 351.705 335.944 348.749 333.549 346.537C331.154 344.324 328.09 342.979 324.834 342.71C321.578 342.442 318.311 343.264 315.541 345.05C312.77 346.836 310.652 349.486 309.514 352.588C304.759 349.113 300.796 344.662 297.881 339.522C294.966 334.382 293.165 328.669 292.594 322.753C290.316 323.917 288.296 325.673 286.795 327.97C285.442 330.037 284.613 332.402 284.381 334.855C284.149 337.308 284.521 339.772 285.464 342.031C283.541 340.68 281.972 338.882 280.888 336.787L280.782 336.949C278.887 339.849 278.038 343.307 278.38 346.737C278.721 350.167 280.233 353.358 282.657 355.767C280.508 355.074 278.549 353.895 276.929 352.321C276.089 355.334 276.201 358.525 277.252 361.446C278.302 364.368 280.238 366.874 282.788 368.614C276.123 369.234 269.474 367.581 263.909 363.922C262.922 363.275 261.974 362.571 261.07 361.811C264.312 369.208 269.615 375.482 276.342 379.88C299.099 394.795 324.045 383.814 334.892 367.218C335.244 366.679 335.587 366.126 335.915 365.571C339.496 365.38 343.023 364.549 346.33 363.117L346.34 363.112Z" fill="#FA6425"/>
<path d="M398.858 428.105C396.368 428.106 395.849 426.842 396.37 425.124H396.373C397.418 420.396 407.447 406.468 407.447 406.468C408.319 405.093 408.667 404.404 407.449 402.86C407.019 402.267 406.103 401.381 405.055 400.369C403.976 399.327 402.759 398.151 401.787 397.019C398.26 393.098 395.6 389.794 394.856 387.517C394.181 385.227 395.359 384.069 397.708 384.068L405.928 384.063C408.133 384.062 409.241 385.279 411.636 387.909C412.651 389.022 413.896 390.39 415.554 392.026C420.43 396.663 422.519 397.266 423.74 397.265C425.397 397.264 425.892 396.801 425.893 394.483L425.897 387.208C425.898 385.21 426.544 384.052 431.771 384.049C440.486 384.045 450.05 389.258 456.841 398.879C467.027 412.969 469.808 423.624 469.807 425.77C469.806 426.974 469.336 428.066 466.987 428.067L458.76 428.072C456.659 428.073 455.87 427.167 455.092 424.919C451.074 413.364 444.299 403.268 441.512 403.269C440.466 403.27 439.987 403.745 439.985 406.365L439.979 418.312C440.165 421.712 441.368 423.182 442.26 424.271C442.81 424.943 443.241 425.469 443.241 426.215C443.24 427.124 442.454 428.081 441.148 428.081L428.22 428.089C426.479 428.089 425.904 427.171 425.905 425.108L425.913 409.037C425.914 407.317 425.129 406.716 424.606 406.717C423.56 406.717 422.689 407.319 420.771 409.213C414.846 415.747 410.659 425.802 410.659 425.802C410.136 427.007 409.171 428.099 407.079 428.1L398.858 428.105Z" fill="#FA6425"/>
<path d="M395.499 227.696C393.343 226.449 393.525 225.094 394.833 223.866L394.836 223.868C398.1 220.294 413.73 213.249 413.73 213.249C415.171 212.494 415.816 212.071 415.533 210.123C415.457 209.393 415.105 208.167 414.703 206.765C414.29 205.322 413.823 203.693 413.548 202.225C412.451 197.061 411.798 192.865 412.291 190.519C412.849 188.196 414.446 187.783 416.48 188.958L423.597 193.073C425.505 194.176 425.857 195.785 426.618 199.264C426.94 200.737 427.336 202.547 427.954 204.794C429.86 211.256 431.367 212.824 432.424 213.435C433.859 214.264 434.518 214.112 435.676 212.103L439.31 205.8C440.308 204.07 441.445 203.39 445.97 206.006C453.515 210.368 459.192 219.677 460.267 231.416C462.051 248.728 459.141 259.355 458.069 261.214C457.467 262.257 456.515 262.968 454.482 261.792L447.359 257.675C445.54 256.623 445.309 255.444 445.758 253.105C448.047 241.08 447.222 228.936 444.809 227.542C443.904 227.018 443.252 227.19 441.943 229.46L435.975 239.809C434.439 242.848 434.747 244.725 434.975 246.115C435.116 246.973 435.227 247.646 434.854 248.292C434.4 249.079 433.242 249.514 432.111 248.861L420.919 242.391C419.412 241.519 419.372 240.435 420.403 238.648L428.43 224.726C429.29 223.235 428.909 222.321 428.457 222.06C427.551 221.536 426.497 221.621 423.892 222.302C415.503 224.995 406.862 231.612 406.862 231.612C405.807 232.394 404.427 232.857 402.616 231.81L395.499 227.696Z" fill="#FA6425"/>
<path d="M350.006 190.434C352.411 189.787 353.24 190.873 353.18 192.667L353.177 192.668C353.388 197.504 347.296 213.554 347.296 213.554C346.81 215.108 346.651 215.863 348.226 217.039C348.796 217.5 349.91 218.117 351.184 218.823L351.186 218.824C352.496 219.55 353.976 220.37 355.206 221.211C359.627 224.082 363.051 226.583 364.358 228.589C365.602 230.625 364.763 232.049 362.494 232.659L354.552 234.795C352.422 235.368 351.038 234.481 348.044 232.562C346.776 231.75 345.219 230.752 343.195 229.602C337.285 226.389 335.112 226.349 333.932 226.666C332.331 227.096 331.972 227.672 332.57 229.911L334.446 236.937C334.961 238.866 334.636 240.152 329.586 241.51C321.167 243.774 310.579 241.221 301.532 233.69C288.051 222.726 282.611 213.158 282.058 211.086C281.747 209.923 281.92 208.746 284.189 208.136L292.136 205.999C294.167 205.453 295.162 206.122 296.496 208.092C303.363 218.207 312.516 226.2 315.209 225.476C316.219 225.204 316.56 224.621 315.884 222.091L312.805 210.553C311.747 207.318 310.204 206.21 309.061 205.39C308.356 204.884 307.803 204.487 307.611 203.767C307.377 202.889 307.89 201.762 309.151 201.422L321.64 198.063C323.322 197.611 324.116 198.348 324.648 200.341L328.791 215.861C329.234 217.523 330.148 217.899 330.654 217.763C331.664 217.492 332.35 216.685 333.714 214.358C337.751 206.513 339.198 195.717 339.198 195.717C339.393 194.418 340.044 193.113 342.065 192.57L350.006 190.434Z" fill="#FA6425"/>
<path d="M337.809 451.62L363.052 426.329L352.892 416.149L327.648 441.44L317.674 431.447L308.131 440.098L318.559 450.546L311.922 457.195C309.416 459.706 307.352 460.663 303.888 457.192C300.687 453.985 297.781 451.02 297.781 451.02L289.067 459.296C289.067 459.296 291.59 462.531 295.479 466.428C305.085 476.052 314.856 474.616 320.957 468.504L328.72 460.726L335.777 467.797L344.866 458.691L337.809 451.62Z" fill="#FA6425"/>
<path d="M388.728 296.167L379.512 261.642L365.623 265.378L374.839 299.903L361.204 303.57L363.902 316.167L378.157 312.333L380.58 321.41C381.495 324.837 381.287 327.106 376.552 328.38C372.177 329.557 368.158 330.598 368.158 330.598L370.946 342.289C370.946 342.289 375.006 341.714 380.323 340.284C393.454 336.753 397.108 327.558 394.88 319.215L392.046 308.598L401.694 306.003L398.375 293.572L388.728 296.167Z" fill="#FA6425"/>
<path d="M487.855 164.291L522.324 155.02L518.611 141.108L484.141 150.379L480.496 136.723L467.919 139.44L471.731 153.717L462.668 156.155C459.247 157.075 456.982 156.87 455.716 152.127C454.546 147.745 453.511 143.719 453.511 143.719L441.839 146.526C441.839 146.526 442.408 150.593 443.83 155.918C447.341 169.07 456.514 172.721 464.844 170.48L475.444 167.629L478.023 177.292L490.434 173.954L487.855 164.291Z" fill="#FA6425"/>
<path d="M497.921 458.324L472.677 483.615L482.838 493.795L508.081 468.504L518.056 478.497L527.598 469.846L517.17 459.398L523.807 452.749C526.313 450.238 528.378 449.281 531.842 452.752C535.042 455.959 537.948 458.924 537.948 458.924L546.663 450.648C546.663 450.648 544.139 447.413 540.25 443.516C530.644 433.892 520.873 435.328 514.773 441.44L507.01 449.218L499.952 442.147L490.863 451.253L497.921 458.324Z" fill="#FA6425"/>
<path d="M610.636 113.413C608.782 115.634 606.582 117.597 604.056 119.232C606.002 116.211 606.776 112.574 606.234 109C604.4 111.826 602.092 114.312 599.41 116.35C596.349 115.18 592.998 115.05 589.876 115.98C586.754 116.91 584.037 118.849 582.147 121.495C580.256 124.141 579.297 127.346 579.42 130.613C579.542 133.88 580.739 137.026 582.823 139.562C577.415 141.872 571.57 143.012 565.669 142.91C559.767 142.808 553.941 141.466 548.567 138.971C548.406 141.503 548.886 144.115 550.094 146.555C551.18 148.753 552.789 150.653 554.778 152.089C556.767 153.524 559.074 154.449 561.495 154.782C559.355 155.743 557.01 156.177 554.658 156.046L554.743 156.218C556.268 159.3 558.807 161.769 561.928 163.206C565.049 164.644 568.56 164.962 571.866 164.106C570.174 165.592 568.164 166.671 565.986 167.261C568.146 169.499 570.944 171.011 573.99 171.587C577.035 172.163 580.175 171.773 582.969 170.473C580.105 176.478 575.296 181.325 569.315 184.233C568.257 184.75 567.168 185.204 566.055 185.593C574.063 186.554 582.155 185.188 589.363 181.66C613.776 169.742 617.058 142.896 608.328 125.263C608.045 124.69 607.744 124.118 607.435 123.558C609.096 120.403 610.18 116.971 610.635 113.424L610.636 113.413Z" fill="#FA6425"/>
<path d="M756.529 329.939C756.862 332.668 757.598 335.265 758.687 337.682L758.678 337.676C755.926 335.867 753.524 333.59 751.584 330.952C750.995 330.978 750.401 330.992 749.812 330.992C731.691 330.992 710.797 317.43 710.797 292.622C710.788 285.293 712.927 278.118 716.958 271.953C716.83 273.022 716.766 274.097 716.766 275.172C716.757 281.245 718.826 287.145 722.639 291.921C722.691 289.107 723.637 286.38 725.344 284.121C727.051 281.862 729.434 280.185 732.159 279.323C731.767 281.345 731.848 283.428 732.394 285.414C733.021 282.362 734.703 279.617 737.154 277.645C739.605 275.673 742.674 274.596 745.841 274.596H746.018C744.959 276.469 744.371 278.563 744.301 280.704C745.555 278.858 747.253 277.344 749.245 276.298C751.236 275.252 753.459 274.705 755.717 274.706C758.225 274.706 760.58 275.372 762.611 276.53C758.375 279.916 754.91 284.141 752.441 288.929C749.972 293.718 748.555 298.964 748.281 304.326C751.223 303.647 754.31 303.942 757.063 305.165C759.816 306.389 762.082 308.472 763.508 311.091C764.934 313.711 765.441 316.72 764.95 319.651C764.459 322.583 762.997 325.273 760.792 327.304C761.395 330.325 762.52 333.221 764.118 335.867C760.941 334.862 758.243 332.755 756.529 329.939Z" fill="#FA6425"/>
<path d="M626.666 376.491C623.776 376.79 620.82 376.665 617.863 376.079C621.382 375.272 624.497 373.21 626.628 370.279C623.326 371.025 619.925 371.199 616.573 370.792C615.21 367.83 612.906 365.409 610.02 363.906C607.134 362.403 603.826 361.901 600.611 362.479C597.396 363.057 594.454 364.682 592.24 367.102C590.026 369.522 588.666 372.601 588.369 375.862C582.877 373.756 577.897 370.511 573.751 366.34C569.605 362.168 566.386 357.162 564.304 351.646C562.405 353.344 560.908 355.544 560.052 358.127C559.281 360.452 559.092 362.928 559.502 365.335C559.913 367.742 560.91 370.006 562.406 371.926C560.199 371.126 558.218 369.807 556.629 368.08L556.569 368.262C555.488 371.524 555.563 375.051 556.781 378.247C557.999 381.442 560.285 384.108 563.25 385.792C560.995 385.68 558.798 385.054 556.826 383.963C556.793 387.062 557.728 390.087 559.499 392.614C561.269 395.141 563.788 397.043 566.701 398.054C560.424 400.357 553.574 400.481 547.251 398.406C546.13 398.04 545.032 397.608 543.963 397.113C549.009 403.362 555.754 408.006 563.391 410.491C589.233 418.93 610.488 402.022 616.67 383.357C616.87 382.75 617.058 382.133 617.232 381.517C620.642 380.417 623.833 378.717 626.657 376.498L626.666 376.491Z" fill="#FA6425"/>
<path d="M738.661 360.112C740.817 358.876 741.898 359.704 742.305 361.436L742.302 361.437C743.758 366.012 742.028 382.936 742.028 382.936C741.96 384.548 742.002 385.312 743.828 386.032C744.497 386.328 745.732 386.633 747.144 386.982L747.146 386.982C748.6 387.341 750.243 387.746 751.65 388.236C756.663 389.85 760.618 391.366 762.4 392.951C764.128 394.58 763.686 396.158 761.652 397.324L754.534 401.405C752.625 402.499 751.058 402.005 747.669 400.937L747.668 400.937C746.233 400.484 744.471 399.929 742.219 399.348C735.679 397.788 733.569 398.307 732.512 398.913C731.077 399.735 730.879 400.378 732.036 402.368L735.667 408.612C736.663 410.326 736.682 411.64 732.156 414.234C724.61 418.561 713.721 418.832 703.034 413.945C687.174 406.909 679.442 399.146 678.372 397.305C677.771 396.271 677.633 395.101 679.667 393.935L686.791 389.851C688.61 388.807 689.746 389.193 691.543 390.736C700.794 398.657 711.705 403.959 714.119 402.576C715.024 402.056 715.202 401.411 713.895 399.162L707.933 388.909C706.074 386.084 704.297 385.42 702.982 384.928C702.169 384.624 701.533 384.386 701.161 383.746C700.707 382.966 700.911 381.755 702.041 381.107L713.236 374.689C714.743 373.825 715.701 374.327 716.73 376.098L724.749 389.89C725.608 391.367 726.588 391.492 727.041 391.233C727.947 390.714 728.401 389.766 729.116 387.189C730.985 378.645 729.589 367.941 729.589 367.941C729.441 366.648 729.731 365.232 731.543 364.193L738.661 360.112Z" fill="#FA6425"/>
<path d="M716.445 215.402C718.717 216.413 718.675 217.767 717.5 219.11L717.497 219.108C714.617 222.961 699.792 231.485 699.792 231.485C698.437 232.374 697.839 232.856 698.32 234.748C698.471 235.459 698.946 236.632 699.49 237.973L699.49 237.975C700.049 239.355 700.681 240.914 701.106 242.333C702.726 247.313 703.806 251.383 703.557 253.746C703.24 256.091 701.693 256.66 699.55 255.707L692.049 252.37C690.037 251.475 689.522 249.924 688.408 246.572C687.937 245.152 687.358 243.409 686.512 241.255C683.953 235.079 682.293 233.685 681.179 233.189C679.667 232.516 679.027 232.734 678.081 234.83L675.113 241.411C674.298 243.217 673.237 244.002 668.467 241.881C660.515 238.343 653.913 229.74 651.639 218.276C648.088 201.391 649.893 190.621 650.768 188.681C651.26 187.591 652.134 186.795 654.277 187.748L661.784 191.087C663.701 191.94 664.052 193.08 663.846 195.431C662.803 207.516 664.869 219.403 667.412 220.534C668.367 220.959 668.998 220.724 670.067 218.354L674.941 207.549C676.157 204.398 675.658 202.579 675.288 201.232C675.06 200.4 674.881 199.749 675.185 199.074C675.556 198.252 676.664 197.706 677.855 198.236L689.652 203.484C691.241 204.191 691.392 205.255 690.55 207.121L683.993 221.656C683.291 223.212 683.763 224.074 684.241 224.287C685.195 224.711 686.235 224.521 688.756 223.587C696.824 220.084 704.741 212.689 704.741 212.689C705.709 211.812 707.035 211.216 708.944 212.065L716.445 215.402Z" fill="#FA6425"/>
<path d="M585.513 210.278C587.669 209.042 588.75 209.87 589.157 211.602L589.154 211.603C590.61 216.178 588.88 233.102 588.88 233.102C588.812 234.714 588.855 235.478 590.68 236.199C591.349 236.494 592.585 236.799 593.999 237.148C595.453 237.507 597.096 237.913 598.502 238.402C603.515 240.016 607.47 241.532 609.252 243.117C610.98 244.746 610.538 246.324 608.504 247.49L601.386 251.571C599.477 252.666 597.91 252.171 594.521 251.103L594.519 251.102L594.517 251.102C593.083 250.65 591.322 250.095 589.072 249.514C582.532 247.954 580.422 248.473 579.364 249.079C577.929 249.901 577.732 250.544 578.888 252.534L582.519 258.778C583.516 260.492 583.535 261.806 579.009 264.401C571.462 268.727 560.574 268.998 549.886 264.111C534.026 257.075 526.295 249.312 525.224 247.471C524.623 246.437 524.485 245.267 526.519 244.101L533.643 240.017C535.462 238.973 536.598 239.359 538.395 240.902C547.647 248.823 558.557 254.125 560.971 252.742C561.877 252.223 562.055 251.577 560.747 249.328L554.786 239.075C552.927 236.25 551.15 235.586 549.834 235.094C549.022 234.79 548.385 234.552 548.013 233.912C547.56 233.132 547.763 231.921 548.894 231.273L560.088 224.855C561.596 223.991 562.553 224.493 563.583 226.264L571.602 240.056C572.46 241.533 573.441 241.658 573.893 241.399C574.799 240.88 575.253 239.932 575.968 237.355C577.837 228.811 576.441 218.107 576.441 218.107C576.293 216.814 576.583 215.398 578.395 214.36L585.513 210.278Z" fill="#FA6425"/>
<path d="M622.049 459.887L610.904 493.54L624.56 498L635.705 464.346L649.111 468.724L653.733 456.806L639.718 452.229L642.648 443.382C643.755 440.041 645.167 438.272 649.823 439.792C654.124 441.197 658.054 442.52 658.054 442.52L662.106 431.304C662.106 431.304 658.397 429.572 653.17 427.865C640.259 423.649 632.183 429.288 629.49 437.42L626.062 447.77L616.577 444.672L612.564 456.789L622.049 459.887Z" fill="#FA6425"/>
<path d="M635.118 313.961L648.215 346.914L661.587 341.674L648.49 308.721L661.616 303.576L657.498 291.477L643.775 296.856L640.331 288.192C639.031 284.921 638.978 282.664 643.537 280.877C647.749 279.226 651.623 277.749 651.623 277.749L647.518 266.553C647.518 266.553 643.55 267.575 638.432 269.581C625.79 274.536 623.21 283.999 626.375 291.962L630.403 302.096L621.115 305.736L625.83 317.601L635.118 313.961Z" fill="#FA6425"/>
<path d="M711.901 149.905L742.797 132.192L735.61 119.829L704.713 137.542L697.658 125.407L686.212 131.232L693.589 143.92L685.467 148.577C682.4 150.335 680.159 150.72 677.708 146.505C675.444 142.611 673.403 139.023 673.403 139.023L662.854 144.703C662.854 144.703 664.457 148.45 667.208 153.182C674.004 164.869 683.809 166.011 691.276 161.73L700.777 156.283L705.77 164.869L716.894 158.492L711.901 149.905Z" fill="#FA6425"/>
<path d="M781.738 450.921L763.9 481.601L776.35 488.739L794.188 458.058L806.409 465.065L813.387 454.337L800.61 447.012L805.3 438.946C807.071 435.9 808.818 434.455 813.062 436.889C816.984 439.137 820.558 441.23 820.558 441.23L826.833 431.074C826.833 431.074 823.559 428.625 818.793 425.893C807.024 419.145 797.957 423.025 793.646 430.439L788.161 439.874L779.514 434.917L773.091 445.963L781.738 450.921Z" fill="#FA6425"/>
<path d="M2681.21 504.479C2683.59 502.783 2686.25 501.429 2689.14 500.483C2686.45 502.94 2684.74 506.307 2684.33 509.957C2686.85 507.661 2689.75 505.822 2692.89 504.522C2695.56 506.467 2698.79 507.468 2702.07 507.369C2705.35 507.269 2708.5 506.074 2711.03 503.97C2713.57 501.866 2715.34 498.971 2716.08 495.733C2716.82 492.495 2716.49 489.097 2715.13 486.065C2720.99 485.208 2726.97 485.611 2732.69 487.249C2738.4 488.886 2743.71 491.721 2748.28 495.57C2749.1 493.127 2749.32 490.439 2748.79 487.73C2748.31 485.29 2747.25 483.006 2745.69 481.079C2744.13 479.153 2742.13 477.644 2739.87 476.686C2742.2 476.301 2744.59 476.486 2746.85 477.227L2746.81 477.036C2746.14 473.615 2744.32 470.531 2741.66 468.307C2739 466.083 2735.67 464.856 2732.23 464.835C2734.27 463.817 2736.51 463.282 2738.78 463.271C2737.27 460.512 2734.95 458.299 2732.14 456.94C2729.33 455.581 2726.17 455.146 2723.11 455.694C2727.48 450.547 2733.43 447.044 2740.01 445.748C2741.17 445.517 2742.35 445.355 2743.53 445.263C2736 442.234 2727.77 441.466 2719.84 443.05C2692.97 448.384 2682.72 473.874 2686.57 493.452C2686.69 494.088 2686.83 494.728 2686.99 495.358C2684.54 498.021 2682.59 501.106 2681.21 504.468L2681.21 504.479Z" fill="#F25411"/>
<path d="M2612.54 252.193C2614.26 249.994 2615.6 247.603 2616.56 245.09L2616.56 245.1C2617.22 248.362 2617.3 251.711 2616.79 254.99C2617.22 255.391 2617.66 255.804 2618.08 256.224C2630.97 269.142 2636.11 293.783 2618.31 311.611C2613.06 316.884 2606.39 320.516 2599.1 322.073C2599.96 321.396 2600.78 320.669 2601.55 319.896C2605.91 315.538 2608.67 309.824 2609.38 303.673C2607.33 305.657 2604.7 306.943 2601.86 307.35C2599.03 307.756 2596.13 307.263 2593.57 305.94C2595.3 304.766 2596.74 303.212 2597.78 301.395C2595.14 303.142 2591.97 303.915 2588.82 303.585C2585.66 303.255 2582.7 301.841 2580.45 299.584L2580.32 299.458C2582.42 298.867 2584.34 297.781 2585.93 296.292C2583.71 296.725 2581.42 296.602 2579.25 295.934C2577.08 295.267 2575.11 294.075 2573.5 292.465C2571.72 290.677 2570.52 288.519 2569.9 286.239C2575.35 286.826 2580.84 286.26 2586.03 284.578C2591.23 282.897 2596 280.137 2600.04 276.479C2597.46 274.87 2595.47 272.457 2594.39 269.615C2593.31 266.773 2593.19 263.661 2594.06 260.762C2594.92 257.863 2596.72 255.34 2599.17 253.583C2601.62 251.826 2604.59 250.935 2607.62 251.047C2609.36 248.447 2610.63 245.564 2611.39 242.522C2612.93 245.51 2613.34 248.947 2612.54 252.193Z" fill="#F25411"/>
<path d="M2734.79 242.144C2737.68 242.603 2740.52 243.496 2743.25 244.841C2739.61 244.717 2736.04 245.928 2733.2 248.249C2736.61 248.378 2739.96 249.093 2743.11 250.365C2743.66 253.627 2745.26 256.603 2747.67 258.83C2750.08 261.057 2753.17 262.411 2756.44 262.682C2759.72 262.952 2763.01 262.124 2765.8 260.326C2768.59 258.529 2770.72 255.861 2771.87 252.739C2776.65 256.236 2780.64 260.717 2783.58 265.891C2786.51 271.065 2788.32 276.816 2788.9 282.771C2791.19 281.6 2793.23 279.832 2794.74 277.52C2796.1 275.439 2796.93 273.059 2797.17 270.589C2797.4 268.12 2797.03 265.639 2796.08 263.366C2798.01 264.726 2799.59 266.535 2800.68 268.644L2800.79 268.482C2802.7 265.562 2803.55 262.081 2803.21 258.628C2802.86 255.175 2801.34 251.964 2798.9 249.538C2801.06 250.236 2803.04 251.423 2804.67 253.007C2805.51 249.974 2805.4 246.762 2804.34 243.821C2803.28 240.881 2801.34 238.358 2798.77 236.606C2805.48 235.982 2812.17 237.646 2817.77 241.329C2818.77 241.98 2819.72 242.689 2820.63 243.454C2817.37 236.008 2812.03 229.693 2805.26 225.265C2782.35 210.251 2757.24 221.305 2746.32 238.011C2745.96 238.554 2745.62 239.111 2745.29 239.669C2741.68 239.861 2738.13 240.698 2734.81 242.14L2734.79 242.144Z" fill="#F25411"/>
<path d="M2681.93 176.72C2684.43 176.719 2684.96 177.991 2684.43 179.721H2684.43C2683.38 184.48 2673.28 198.5 2673.28 198.5C2672.4 199.885 2672.05 200.578 2673.28 202.132C2673.71 202.73 2674.64 203.621 2675.69 204.64L2675.69 204.641C2676.78 205.689 2678 206.873 2678.98 208.012C2682.53 211.959 2685.21 215.285 2685.96 217.577C2686.64 219.882 2685.45 221.048 2683.09 221.049L2674.81 221.054C2672.59 221.055 2671.48 219.831 2669.07 217.183C2668.04 216.062 2666.79 214.685 2665.12 213.039C2660.21 208.371 2658.11 207.764 2656.88 207.765C2655.21 207.766 2654.71 208.231 2654.71 210.565L2654.71 217.889C2654.71 219.9 2654.06 221.065 2648.8 221.068C2640.02 221.073 2630.4 215.825 2623.56 206.14C2613.31 191.956 2610.51 181.23 2610.51 179.071C2610.51 177.858 2610.98 176.759 2613.35 176.758L2621.63 176.753C2623.74 176.752 2624.54 177.664 2625.32 179.927C2629.37 191.558 2636.19 201.722 2638.99 201.72C2640.04 201.72 2640.53 201.241 2640.53 198.604L2640.53 186.578C2640.35 183.155 2639.14 181.675 2638.24 180.579C2637.68 179.903 2637.25 179.373 2637.25 178.622C2637.25 177.707 2638.04 176.744 2639.36 176.743L2652.37 176.736C2654.12 176.735 2654.7 177.66 2654.7 179.737L2654.69 195.914C2654.69 197.646 2655.48 198.25 2656.01 198.25C2657.06 198.25 2657.94 197.644 2659.87 195.737C2665.83 189.16 2670.05 179.038 2670.05 179.038C2670.58 177.825 2671.55 176.726 2673.65 176.725L2681.93 176.72Z" fill="#F25411"/>
<path d="M2685.31 378.461C2687.48 379.715 2687.3 381.079 2685.98 382.315L2685.98 382.314C2682.69 385.911 2666.96 393.003 2666.96 393.003C2665.51 393.763 2664.86 394.189 2665.14 396.149C2665.22 396.884 2665.57 398.119 2665.98 399.53L2665.98 399.531C2666.39 400.983 2666.86 402.623 2667.14 404.1C2668.24 409.299 2668.9 413.523 2668.41 415.884C2667.84 418.222 2666.24 418.638 2664.19 417.455L2657.03 413.313C2655.1 412.203 2654.75 410.583 2653.98 407.081C2653.66 405.597 2653.26 403.777 2652.64 401.514C2650.72 395.01 2649.2 393.431 2648.14 392.815C2646.7 391.981 2646.03 392.135 2644.87 394.156L2641.21 400.501C2640.2 402.243 2639.06 402.927 2634.5 400.294C2626.91 395.903 2621.19 386.533 2620.11 374.715C2618.32 357.288 2621.25 346.59 2622.32 344.72C2622.93 343.669 2623.89 342.954 2625.93 344.137L2633.1 348.282C2634.94 349.34 2635.17 350.528 2634.72 352.882C2632.41 364.988 2633.24 377.211 2635.67 378.615C2636.58 379.142 2637.24 378.97 2638.56 376.685L2644.56 366.267C2646.11 363.207 2645.8 361.318 2645.57 359.918C2645.43 359.055 2645.32 358.378 2645.69 357.728C2646.15 356.935 2647.32 356.497 2648.45 357.155L2659.72 363.668C2661.24 364.545 2661.28 365.636 2660.24 367.436L2652.16 381.45C2651.29 382.95 2651.68 383.87 2652.13 384.134C2653.04 384.661 2654.11 384.576 2656.73 383.89C2665.17 381.179 2673.87 374.518 2673.87 374.518C2674.93 373.731 2676.32 373.265 2678.15 374.319L2685.31 378.461Z" fill="#F25411"/>
<path d="M2731.1 415.97C2728.68 416.621 2727.85 415.528 2727.91 413.722L2727.91 413.721C2727.7 408.852 2733.83 392.696 2733.83 392.696C2734.32 391.132 2734.48 390.371 2732.9 389.188C2732.32 388.724 2731.2 388.102 2729.92 387.392C2728.6 386.661 2727.11 385.835 2725.87 384.988C2721.42 382.098 2717.97 379.58 2716.66 377.561C2715.41 375.512 2716.25 374.078 2718.53 373.464L2726.53 371.314C2728.67 370.737 2730.07 371.63 2733.08 373.562C2734.36 374.38 2735.92 375.384 2737.96 376.541C2743.91 379.776 2746.1 379.816 2747.29 379.497C2748.9 379.064 2749.26 378.485 2748.66 376.231L2746.77 369.157C2746.25 367.216 2746.58 365.922 2751.66 364.554C2760.14 362.275 2770.79 364.846 2779.9 372.426C2793.47 383.463 2798.95 393.095 2799.5 395.18C2799.82 396.351 2799.64 397.535 2797.36 398.15L2789.36 400.302C2787.32 400.851 2786.31 400.177 2784.97 398.194C2778.06 388.012 2768.84 379.966 2766.13 380.695C2765.12 380.968 2764.77 381.555 2765.45 384.103L2768.55 395.717C2769.62 398.973 2771.17 400.088 2772.32 400.914C2773.03 401.424 2773.59 401.823 2773.78 402.548C2774.02 403.432 2773.5 404.567 2772.23 404.908L2759.66 408.29C2757.97 408.745 2757.17 408.003 2756.63 405.997L2752.46 390.373C2752.01 388.7 2751.09 388.322 2750.59 388.459C2749.57 388.732 2748.88 389.544 2747.51 391.886C2743.44 399.784 2741.98 410.651 2741.98 410.651C2741.79 411.959 2741.13 413.272 2739.1 413.82L2731.1 415.97Z" fill="#F25411"/>
<path d="M2743.38 153.048L2717.97 178.508L2728.2 188.756L2753.61 163.296L2763.65 173.356L2773.26 164.647L2762.76 154.129L2769.44 147.436C2771.96 144.909 2774.04 143.946 2777.53 147.439C2780.75 150.667 2783.68 153.653 2783.68 153.653L2792.45 145.321C2792.45 145.321 2789.91 142.065 2785.99 138.142C2776.32 128.454 2766.49 129.9 2760.35 136.052L2752.53 143.882L2745.43 136.764L2736.28 145.931L2743.38 153.048Z" fill="#F25411"/>
<path d="M2692.13 309.534L2701.4 344.288L2715.38 340.528L2706.11 305.774L2719.83 302.082L2717.12 289.401L2702.77 293.261L2700.33 284.124C2699.41 280.674 2699.62 278.389 2704.38 277.107C2708.79 275.923 2712.83 274.874 2712.83 274.874L2710.03 263.105C2710.03 263.105 2705.94 263.684 2700.59 265.124C2687.37 268.679 2683.69 277.935 2685.93 286.333L2688.79 297.021L2679.07 299.633L2682.41 312.146L2692.13 309.534Z" fill="#F25411"/>
<path d="M2592.34 442.286L2557.64 451.619L2561.38 465.623L2596.08 456.29L2599.75 470.038L2612.41 467.303L2608.57 452.93L2617.69 450.477C2621.14 449.55 2623.42 449.757 2624.69 454.531C2625.87 458.943 2626.91 462.995 2626.91 462.995L2638.66 460.169C2638.66 460.169 2638.09 456.075 2636.66 450.715C2633.12 437.475 2623.89 433.801 2615.5 436.056L2604.83 438.926L2602.24 429.199L2589.74 432.559L2592.34 442.286Z" fill="#F25411"/>
<path d="M2582.21 146.3L2607.62 120.841L2597.39 110.593L2571.98 136.052L2561.94 125.993L2552.33 134.702L2562.83 145.219L2556.15 151.912C2553.63 154.44 2551.55 155.403 2548.06 151.909C2544.84 148.681 2541.91 145.696 2541.91 145.696L2533.14 154.027C2533.14 154.027 2535.68 157.283 2539.6 161.206C2549.27 170.894 2559.1 169.449 2565.24 163.296L2573.06 155.467L2580.16 162.584L2589.31 153.418L2582.21 146.3Z" fill="#F25411"/>
<path d="M2462.46 493.255C2464.33 490.998 2466.54 489.004 2469.09 487.343C2467.13 490.411 2466.35 494.106 2466.89 497.738C2468.74 494.866 2471.06 492.341 2473.76 490.271C2476.84 491.46 2480.22 491.592 2483.36 490.647C2486.5 489.701 2489.24 487.732 2491.14 485.044C2493.04 482.356 2494.01 479.099 2493.89 475.78C2493.76 472.461 2492.56 469.266 2490.46 466.689C2495.9 464.343 2501.79 463.184 2507.73 463.287C2513.67 463.391 2519.53 464.755 2524.94 467.29C2525.1 464.717 2524.62 462.064 2523.41 459.585C2522.31 457.352 2520.69 455.421 2518.69 453.963C2516.69 452.505 2514.37 451.565 2511.93 451.227C2514.08 450.25 2516.44 449.81 2518.81 449.943L2518.73 449.768C2517.19 446.637 2514.64 444.129 2511.49 442.668C2508.35 441.208 2504.82 440.885 2501.49 441.754C2503.19 440.244 2505.22 439.148 2507.41 438.549C2505.23 436.276 2502.42 434.739 2499.35 434.154C2496.29 433.569 2493.13 433.965 2490.31 435.286C2493.2 429.185 2498.04 424.262 2504.06 421.307C2505.12 420.782 2506.22 420.32 2507.34 419.925C2499.28 418.949 2491.13 420.336 2483.88 423.921C2459.3 436.028 2456 463.302 2464.79 481.216C2465.07 481.798 2465.37 482.379 2465.68 482.948C2464.01 486.153 2462.92 489.64 2462.46 493.243L2462.46 493.255Z" fill="#F25411"/>
<path d="M2330.84 267.337C2331.93 264.767 2332.61 262.112 2332.88 259.436L2332.89 259.445C2334.37 262.425 2335.31 265.64 2335.66 268.94C2336.19 269.214 2336.72 269.501 2337.23 269.798C2353.03 278.939 2364.37 301.41 2351.79 323.237C2348.09 329.689 2342.58 334.923 2335.95 338.313C2336.6 337.438 2337.2 336.524 2337.74 335.578C2340.83 330.239 2342.02 324.006 2341.11 317.879C2339.64 320.329 2337.44 322.251 2334.8 323.378C2332.17 324.504 2329.24 324.778 2326.43 324.161C2327.8 322.58 2328.78 320.708 2329.31 318.684C2327.22 321.053 2324.36 322.62 2321.22 323.118C2318.09 323.617 2314.87 323.016 2312.11 321.419L2311.95 321.33C2313.82 320.216 2315.4 318.671 2316.54 316.822C2314.52 317.814 2312.27 318.289 2310 318.205C2307.74 318.121 2305.52 317.481 2303.55 316.341C2301.37 315.076 2299.65 313.302 2298.47 311.259C2303.88 310.416 2309.04 308.447 2313.62 305.479C2318.2 302.512 2322.09 298.611 2325.05 294.032C2322.14 293.145 2319.6 291.328 2317.82 288.863C2316.04 286.398 2315.12 283.423 2315.2 280.399C2315.29 277.375 2316.37 274.472 2318.28 272.14C2320.2 269.809 2322.84 268.179 2325.79 267.504C2326.79 264.543 2327.28 261.427 2327.23 258.293C2329.49 260.78 2330.77 263.994 2330.84 267.337Z" fill="#F25411"/>
<path d="M2446.33 225.989C2449.24 225.685 2452.21 225.812 2455.19 226.407C2451.65 227.227 2448.51 229.322 2446.37 232.299C2449.69 231.541 2453.11 231.365 2456.49 231.778C2457.86 234.787 2460.18 237.247 2463.08 238.774C2465.99 240.301 2469.32 240.811 2472.55 240.223C2475.79 239.636 2478.75 237.986 2480.98 235.527C2483.21 233.069 2484.58 229.941 2484.88 226.628C2490.41 228.768 2495.42 232.063 2499.59 236.302C2503.77 240.54 2507.01 245.626 2509.1 251.229C2511.01 249.504 2512.52 247.27 2513.38 244.645C2514.16 242.283 2514.35 239.768 2513.93 237.322C2513.52 234.877 2512.52 232.577 2511.01 230.627C2513.23 231.439 2515.23 232.779 2516.83 234.534L2516.89 234.349C2517.98 231.035 2517.9 227.451 2516.67 224.205C2515.45 220.959 2513.15 218.25 2510.16 216.539C2512.43 216.654 2514.64 217.289 2516.63 218.398C2516.66 215.249 2515.72 212.176 2513.94 209.609C2512.16 207.042 2509.62 205.109 2506.69 204.082C2513.01 201.743 2519.9 201.617 2526.27 203.725C2527.4 204.097 2528.5 204.535 2529.58 205.038C2524.5 198.69 2517.71 193.972 2510.02 191.448C2484.01 182.874 2462.61 200.051 2456.39 219.014C2456.19 219.63 2456 220.257 2455.82 220.882C2452.39 222.001 2449.18 223.727 2446.34 225.982L2446.33 225.989Z" fill="#F25411"/>
<path d="M2378.33 176.477C2380.75 175.827 2381.58 176.921 2381.52 178.727L2381.52 178.728C2381.74 183.598 2375.61 199.753 2375.61 199.753C2375.12 201.317 2374.97 202.078 2376.55 203.262C2377.13 203.727 2378.25 204.349 2379.53 205.06C2380.85 205.792 2382.34 206.619 2383.58 207.466C2388.03 210.359 2391.48 212.879 2392.79 214.9C2394.05 216.95 2393.2 218.383 2390.92 218.996L2382.93 221.142C2380.79 221.718 2379.39 220.824 2376.38 218.891C2375.1 218.072 2373.53 217.067 2371.49 215.908C2365.54 212.67 2363.36 212.628 2362.17 212.947C2360.56 213.379 2360.2 213.958 2360.8 216.213L2362.69 223.288C2363.21 225.23 2362.89 226.524 2357.8 227.889C2349.33 230.164 2338.67 227.587 2329.56 220.001C2315.99 208.955 2310.51 199.319 2309.95 197.233C2309.64 196.061 2309.81 194.877 2312.09 194.264L2320.09 192.116C2322.13 191.567 2323.14 192.242 2324.48 194.226C2331.4 204.414 2340.62 212.466 2343.32 211.739C2344.34 211.465 2344.68 210.878 2344 208.33L2340.9 196.712C2339.83 193.455 2338.28 192.339 2337.13 191.513C2336.42 191.003 2335.86 190.603 2335.67 189.878C2335.43 188.994 2335.94 187.859 2337.21 187.518L2349.78 184.143C2351.48 183.688 2352.27 184.431 2352.81 186.438L2356.99 202.066C2357.44 203.739 2358.36 204.118 2358.87 203.982C2359.88 203.709 2360.57 202.897 2361.94 200.555C2366 192.659 2367.45 181.791 2367.45 181.791C2367.65 180.483 2368.3 179.17 2370.34 178.623L2378.33 176.477Z" fill="#F25411"/>
<path d="M2433.81 370.468C2436.23 371.118 2436.41 372.484 2435.45 374.018L2435.45 374.017C2433.21 378.343 2419.85 389.265 2419.85 389.265C2418.64 390.375 2418.12 390.954 2418.91 392.774C2419.17 393.463 2419.83 394.563 2420.59 395.82L2420.59 395.822L2420.59 395.824C2421.37 397.119 2422.25 398.581 2422.9 399.937C2425.31 404.673 2427.04 408.582 2427.17 410.992C2427.23 413.395 2425.78 414.214 2423.5 413.6L2415.51 411.454C2413.37 410.879 2412.6 409.406 2410.96 406.221C2410.26 404.872 2409.41 403.216 2408.22 401.192C2404.68 395.406 2402.81 394.273 2401.62 393.955C2400.01 393.522 2399.41 393.842 2398.81 396.097L2396.91 403.172C2396.39 405.115 2395.47 406.072 2390.38 404.708C2381.91 402.432 2373.97 394.86 2369.86 383.725C2363.62 367.357 2363.68 356.265 2364.24 354.179C2364.55 353.007 2365.29 352.069 2367.57 352.682L2375.57 354.83C2377.62 355.378 2378.15 356.465 2378.32 358.856C2379.23 371.145 2383.19 382.738 2385.9 383.465C2386.92 383.738 2387.51 383.401 2388.19 380.853L2391.3 369.235C2392 365.88 2391.21 364.135 2390.63 362.843C2390.26 362.046 2389.98 361.42 2390.18 360.695C2390.41 359.811 2391.43 359.087 2392.7 359.428L2405.26 362.803C2406.96 363.257 2407.28 364.301 2406.74 366.308L2402.56 381.936C2402.11 383.609 2402.72 384.398 2403.23 384.535C2404.25 384.808 2405.25 384.451 2407.61 383.11C2415.06 378.306 2421.74 369.621 2421.74 369.621C2422.56 368.586 2423.78 367.776 2425.82 368.322L2433.81 370.468Z" fill="#F25411"/>
<path d="M2487.75 394.847C2485.58 396.103 2484.49 395.262 2484.08 393.503L2484.09 393.501C2482.62 388.853 2484.36 371.66 2484.36 371.66C2484.43 370.022 2484.39 369.246 2482.55 368.514C2481.88 368.214 2480.63 367.904 2479.21 367.549C2477.75 367.185 2476.09 366.773 2474.68 366.276C2469.63 364.636 2465.65 363.096 2463.86 361.486C2462.12 359.831 2462.56 358.227 2464.61 357.043L2471.77 352.897C2473.7 351.785 2475.27 352.287 2478.68 353.372C2480.13 353.832 2481.9 354.396 2484.17 354.987C2490.75 356.572 2492.88 356.045 2493.94 355.429C2495.39 354.593 2495.58 353.94 2494.42 351.919L2490.77 345.576C2489.76 343.834 2489.74 342.499 2494.3 339.863C2501.9 335.468 2512.86 335.192 2523.61 340.157C2539.58 347.306 2547.36 355.192 2548.44 357.062C2549.05 358.113 2549.18 359.301 2547.14 360.486L2539.97 364.635C2538.13 365.695 2536.99 365.303 2535.18 363.736C2525.87 355.689 2514.89 350.302 2512.46 351.708C2511.54 352.235 2511.37 352.891 2512.68 355.175L2518.68 365.592C2520.55 368.461 2522.34 369.136 2523.67 369.636C2524.49 369.945 2525.13 370.187 2525.5 370.837C2525.96 371.629 2525.75 372.859 2524.61 373.518L2513.35 380.038C2511.83 380.916 2510.86 380.406 2509.83 378.607L2501.76 364.595C2500.89 363.095 2499.9 362.967 2499.45 363.231C2498.54 363.759 2498.08 364.722 2497.36 367.339C2495.48 376.02 2496.88 386.893 2496.88 386.893C2497.03 388.208 2496.74 389.646 2494.92 390.701L2487.75 394.847Z" fill="#F25411"/>
<path d="M2431.56 137.706L2413.61 168.875L2426.14 176.126L2444.09 144.958L2456.4 152.076L2463.42 141.177L2450.56 133.735L2455.28 125.541C2457.06 122.447 2458.82 120.979 2463.09 123.451C2467.04 125.735 2470.64 127.861 2470.64 127.861L2476.96 117.543C2476.96 117.543 2473.66 115.056 2468.86 112.28C2457.02 105.425 2447.89 109.367 2443.55 116.899L2438.03 126.484L2429.32 121.448L2422.86 132.67L2431.56 137.706Z" fill="#F25411"/>
<path d="M2422.55 302.127L2440.51 333.295L2453.04 326.044L2435.09 294.875L2447.39 287.757L2441.48 276.211L2428.62 283.653L2423.9 275.459C2422.12 272.365 2421.73 270.104 2426 267.632C2429.95 265.348 2433.58 263.288 2433.58 263.288L2427.83 252.647C2427.83 252.647 2424.03 254.264 2419.23 257.039C2407.38 263.895 2406.23 273.787 2410.57 281.319L2416.09 290.904L2407.38 295.941L2413.85 307.163L2422.55 302.127Z" fill="#F25411"/>
<path d="M2360.53 456.182L2329.43 474.177L2336.66 486.736L2367.76 468.741L2374.86 481.07L2386.39 475.152L2378.96 462.262L2387.14 457.531C2390.22 455.744 2392.48 455.354 2394.95 459.636C2397.23 463.592 2399.28 467.237 2399.28 467.237L2409.9 461.466C2409.9 461.466 2408.29 457.66 2405.52 452.853C2398.68 440.979 2388.8 439.82 2381.29 444.168L2371.72 449.702L2366.7 440.979L2355.5 447.458L2360.53 456.182Z" fill="#F25411"/>
<path d="M2290.23 150.374L2308.18 119.205L2295.65 111.954L2277.7 143.122L2265.39 136.004L2258.37 146.903L2271.23 154.345L2266.51 162.539C2264.73 165.633 2262.97 167.101 2258.7 164.629C2254.75 162.345 2251.15 160.219 2251.15 160.219L2244.83 170.537C2244.83 170.537 2248.13 173.024 2252.93 175.8C2264.77 182.655 2273.9 178.713 2278.24 171.181L2283.76 161.596L2292.47 166.632L2298.93 155.41L2290.23 150.374Z" fill="#F25411"/>
<path d="M2836 471.872L2830.42 436.337L2820.49 437.915L2818.48 425.121L2828.41 423.542L2826.7 412.614C2825.35 404.026 2829.98 395.208 2843.5 393.059C2848.97 392.189 2853.09 392.042 2853.09 392.042L2854.65 404.041C2854.65 404.041 2850.52 404.659 2846.01 405.375C2841.14 406.15 2840.69 408.399 2841.25 411.927L2842.71 421.269L2857.39 418.937L2858.76 431.833L2844.72 434.064L2850.3 469.6L2836 471.872Z" fill="#F25411"/>
<path d="M2918.61 400.507C2921.16 399.07 2923.94 398.003 2926.91 397.364C2923.98 399.526 2921.93 402.695 2921.14 406.281C2923.89 404.263 2926.96 402.739 2930.23 401.775C2932.68 403.99 2935.78 405.324 2939.05 405.569C2942.32 405.814 2945.58 404.957 2948.32 403.13C2951.06 401.304 2953.13 398.61 2954.21 395.468C2955.28 392.326 2955.31 388.911 2954.27 385.753C2960.2 385.516 2966.1 386.545 2971.61 388.773C2977.12 391 2982.1 394.377 2986.24 398.684C2987.32 396.341 2987.82 393.691 2987.57 390.941C2987.35 388.465 2986.53 386.081 2985.19 384.002C2983.84 381.923 2982.01 380.212 2979.86 379.022C2982.22 378.883 2984.58 379.319 2986.74 380.292L2986.73 380.099C2986.42 376.626 2984.93 373.367 2982.52 370.877C2980.11 368.387 2976.93 366.817 2973.51 366.435C2975.64 365.636 2977.93 365.339 2980.19 365.567C2978.97 362.665 2976.9 360.22 2974.24 358.574C2971.59 356.928 2968.5 356.164 2965.4 356.388C2970.28 351.727 2976.57 348.868 2983.24 348.27C2984.43 348.161 2985.62 348.124 2986.8 348.157C2979.63 344.354 2971.53 342.727 2963.47 343.47C2936.19 345.955 2923.32 370.229 2925.1 390.103C2925.15 390.749 2925.23 391.399 2925.31 392.042C2922.6 394.434 2920.33 397.297 2918.61 400.496L2918.61 400.507Z" fill="#F25411"/>
<path d="M2876.79 142.408C2878.74 140.402 2880.32 138.165 2881.53 135.766L2881.54 135.776C2881.85 139.09 2881.57 142.428 2880.72 145.635C2881.11 146.08 2881.5 146.536 2881.87 146.998C2893.34 161.197 2895.87 186.241 2876.3 202.104C2870.52 206.796 2863.51 209.709 2856.1 210.492C2857.02 209.909 2857.91 209.272 2858.76 208.584C2863.55 204.708 2866.9 199.315 2868.25 193.272C2866 195.031 2863.25 196.033 2860.39 196.14C2857.53 196.247 2854.7 195.453 2852.29 193.868C2854.13 192.883 2855.73 191.488 2856.95 189.789C2854.14 191.25 2850.91 191.687 2847.81 191.027C2844.7 190.368 2841.91 188.651 2839.91 186.17L2839.79 186.032C2841.94 185.664 2843.96 184.786 2845.7 183.471C2843.45 183.669 2841.18 183.306 2839.09 182.415C2837.01 181.523 2835.17 180.131 2833.74 178.361C2832.16 176.396 2831.19 174.125 2830.82 171.793C2836.17 172.947 2841.7 172.961 2847.03 171.833C2852.37 170.706 2857.41 168.462 2861.81 165.248C2859.41 163.377 2857.69 160.77 2856.92 157.83C2856.14 154.89 2856.35 151.783 2857.51 148.991C2858.67 146.198 2860.73 143.877 2863.35 142.388C2865.97 140.898 2869.02 140.323 2872.02 140.752C2874.02 138.349 2875.59 135.615 2876.67 132.671C2877.88 135.803 2877.93 139.264 2876.79 142.408Z" fill="#F25411"/>
<path d="M2999.43 145.243C3002.25 146.002 3004.98 147.188 3007.55 148.812C3003.95 148.306 3000.27 149.136 2997.2 151.147C3000.57 151.631 3003.83 152.695 3006.83 154.291C3007.03 157.592 3008.32 160.72 3010.48 163.187C3012.64 165.655 3015.57 167.325 3018.8 167.938C3022.03 168.551 3025.39 168.073 3028.35 166.578C3031.31 165.082 3033.71 162.654 3035.18 159.668C3039.57 163.649 3043.07 168.524 3045.45 173.977C3047.82 179.431 3049.02 185.34 3048.97 191.323C3051.37 190.398 3053.58 188.853 3055.32 186.712C3056.9 184.786 3057.98 182.506 3058.47 180.075C3058.96 177.644 3058.85 175.138 3058.14 172.777C3059.92 174.332 3061.3 176.298 3062.17 178.51L3062.29 178.359C3064.5 175.656 3065.71 172.284 3065.73 168.814C3065.75 165.344 3064.58 161.99 3062.4 159.322C3064.48 160.244 3066.32 161.63 3067.77 163.377C3068.93 160.45 3069.16 157.244 3068.41 154.208C3067.67 151.172 3066 148.459 3063.63 146.448C3070.37 146.531 3076.85 148.888 3082.03 153.139C3082.95 153.89 3083.83 154.696 3084.65 155.552C3082.19 147.804 3077.54 140.964 3071.27 135.85C3050.07 118.515 3023.93 126.874 3011.32 142.341C3010.91 142.844 3010.51 143.362 3010.12 143.882C3006.52 143.695 3002.9 144.154 2999.44 145.239L2999.43 145.243Z" fill="#F25411"/>
<path d="M2953.72 74.6326C2956.21 74.8942 2956.59 76.2146 2955.89 77.8792L2955.89 77.8789C2954.34 82.5019 2942.83 95.3853 2942.83 95.3853C2941.81 96.6698 2941.39 97.3228 2942.45 98.9969C2942.82 99.6365 2943.64 100.619 2944.58 101.744C2945.55 102.9 2946.65 104.207 2947.5 105.443C2950.62 109.74 2952.93 113.329 2953.44 115.687C2953.87 118.05 2952.57 119.085 2950.22 118.839L2941.99 117.975C2939.78 117.743 2938.8 116.408 2936.68 113.522C2935.78 112.3 2934.68 110.8 2933.19 108.987C2928.8 103.83 2926.77 103.006 2925.55 102.878C2923.89 102.703 2923.35 103.114 2923.1 105.435L2922.33 112.718C2922.12 114.718 2921.35 115.808 2916.11 115.259C2907.39 114.343 2898.36 108.114 2892.58 97.7651C2883.87 82.5844 2882.22 71.6236 2882.44 69.4761C2882.57 68.2702 2883.16 67.227 2885.51 67.4737L2893.75 68.3382C2895.85 68.559 2896.54 69.5488 2897.08 71.882C2899.89 83.8734 2905.6 94.6965 2908.39 94.9894C2909.44 95.0993 2909.97 94.6742 2910.25 92.0512L2911.52 80.0923C2911.69 76.6692 2910.64 75.0703 2909.86 73.8862C2909.38 73.1554 2909.01 72.5826 2909.09 71.8363C2909.18 70.9263 2910.07 70.0516 2911.38 70.1888L2924.32 71.5473C2926.06 71.7302 2926.54 72.7102 2926.32 74.7758L2924.62 90.8628C2924.43 92.5851 2925.16 93.2691 2925.68 93.3241C2926.73 93.434 2927.66 92.9241 2929.78 91.2299C2936.41 85.3154 2941.66 75.6913 2941.66 75.6913C2942.31 74.5402 2943.39 73.549 2945.49 73.7688L2953.72 74.6326Z" fill="#F25411"/>
<path d="M2935.91 275.614C2937.94 277.089 2937.61 278.427 2936.17 279.518L2936.17 279.516C2932.52 282.749 2916.13 288.151 2916.13 288.151C2914.61 288.754 2913.92 289.11 2914 291.089C2914 291.828 2914.22 293.093 2914.47 294.539L2914.47 294.54C2914.74 296.028 2915.03 297.708 2915.15 299.206C2915.7 304.492 2915.91 308.761 2915.17 311.058C2914.37 313.324 2912.73 313.569 2910.82 312.177L2904.13 307.307C2902.33 306.001 2902.15 304.353 2901.75 300.79C2901.59 299.28 2901.38 297.428 2901 295.112C2899.78 288.443 2898.43 286.713 2897.44 285.989C2896.09 285.008 2895.41 285.091 2894.04 286.98L2889.74 292.905C2888.56 294.532 2887.35 295.093 2883.09 291.996C2876 286.833 2871.3 276.914 2871.47 265.048C2871.51 247.529 2875.54 237.198 2876.81 235.451C2877.53 234.469 2878.55 233.859 2880.47 235.25L2887.16 240.124C2888.87 241.369 2888.98 242.575 2888.28 244.868C2884.72 256.665 2884.26 268.909 2886.53 270.56C2887.38 271.18 2888.05 271.077 2889.6 268.942L2896.67 259.212C2898.53 256.332 2898.42 254.42 2898.34 253.005C2898.29 252.131 2898.25 251.446 2898.69 250.839C2899.23 250.098 2900.43 249.785 2901.49 250.559L2912.01 258.218C2913.43 259.25 2913.36 260.339 2912.14 262.02L2902.63 275.109C2901.61 276.51 2901.9 277.465 2902.32 277.775C2903.17 278.395 2904.24 278.421 2906.92 278.014C2915.6 276.204 2924.95 270.493 2924.95 270.493C2926.09 269.822 2927.52 269.504 2929.22 270.744L2935.91 275.614Z" fill="#F25411"/>
<path d="M2977.52 317.721C2975.04 318.115 2974.33 316.94 2974.58 315.151L2974.58 315.15C2974.88 310.286 2982.67 294.862 2982.67 294.862C2983.32 293.358 2983.56 292.618 2982.11 291.276C2981.59 290.754 2980.54 290.018 2979.34 289.177C2978.1 288.312 2976.71 287.334 2975.56 286.362C2971.44 283.02 2968.28 280.155 2967.18 278.009C2966.15 275.839 2967.14 274.503 2969.48 274.131L2977.65 272.832C2979.84 272.483 2981.14 273.518 2983.93 275.755C2985.12 276.702 2986.57 277.865 2988.47 279.23C2994.05 283.071 2996.22 283.341 2997.44 283.148C2999.08 282.886 2999.5 282.348 2999.14 280.044L2998.01 272.811C2997.69 270.826 2998.16 269.573 3003.35 268.747C3012.02 267.369 3022.35 271.044 3030.61 279.538C3042.95 291.938 3047.39 302.091 3047.72 304.224C3047.91 305.421 3047.61 306.58 3045.28 306.952L3037.09 308.252C3035 308.584 3034.08 307.809 3032.95 305.696C3027.14 294.844 3018.83 285.876 3016.05 286.316C3015.01 286.482 3014.61 287.03 3015.02 289.634L3016.88 301.51C3017.6 304.86 3019.03 306.132 3020.09 307.073C3020.74 307.655 3021.25 308.11 3021.37 308.852C3021.51 309.755 3020.88 310.83 3019.58 311.036L3006.72 313.08C3004.99 313.355 3004.27 312.533 3003.95 310.482L3001.44 294.507C3001.17 292.797 3000.3 292.324 2999.78 292.406C2998.74 292.572 2997.96 293.307 2996.35 295.492C2991.48 302.919 2988.89 313.574 2988.89 313.574C2988.56 314.854 2987.77 316.091 2985.69 316.422L2977.52 317.721Z" fill="#F25411"/>
<path d="M3017.32 57.5399L2989.37 80.1924L2998.47 91.4567L3026.41 68.8041L3035.34 79.8618L3045.81 72.2087L3036.47 60.6482L3043.82 54.6928C3046.59 52.444 3048.76 51.7044 3051.86 55.5447C3054.73 59.093 3057.32 62.3687 3057.32 62.3687L3066.92 55.0037C3066.92 55.0037 3064.74 51.4989 3061.25 47.1872C3052.66 36.538 3042.72 36.9434 3035.97 42.4176L3027.38 49.3839L3021.06 41.5599L3011 49.7159L3017.32 57.5399Z" fill="#F25411"/>
<path d="M2949.92 207.784L2955.5 243.319L2969.8 241.047L2964.22 205.511L2978.26 203.28L2976.89 190.384L2962.21 192.716L2960.74 183.374C2960.19 179.846 2960.64 177.597 2965.51 176.822C2970.02 176.106 2974.15 175.488 2974.15 175.488L2972.59 163.489C2972.59 163.489 2968.47 163.636 2963 164.506C2949.48 166.655 2944.85 175.473 2946.2 184.061L2947.91 194.989L2937.98 196.568L2939.99 209.362L2949.92 207.784Z" fill="#F25411"/>
<path d="M2836.76 329.332L2801.27 334.973L2803.52 349.292L2839.01 343.652L2841.21 357.708L2854.09 356.317L2851.78 341.621L2861.11 340.138C2864.63 339.578 2866.88 340.023 2867.65 344.904C2868.35 349.415 2868.97 353.554 2868.97 353.554L2880.95 351.977C2880.95 351.977 2880.81 347.846 2879.95 342.365C2877.82 328.827 2869.02 324.204 2860.45 325.567L2849.53 327.302L2847.97 317.356L2835.2 319.387L2836.76 329.332Z" fill="#F25411"/>
<path d="M2857.74 33.9168L2885.68 11.2643L2876.58 0L2848.64 22.6526L2839.71 11.5949L2829.24 19.248L2838.58 30.8085L2831.23 36.7639C2828.46 39.0127 2826.29 39.7523 2823.19 35.912C2820.33 32.3637 2817.73 29.088 2817.73 29.088L2808.13 36.453C2808.13 36.453 2810.32 39.9578 2813.8 44.2695C2822.4 54.9187 2832.33 54.5133 2839.08 49.0391L2847.68 42.0728L2854 49.8968L2864.06 41.7408L2857.74 33.9168Z" fill="#F25411"/>
</svg>
