<svg width="2414" height="2538" viewBox="0 0 2414 2538" fill="none" xmlns="http://www.w3.org/2000/svg">
<path fill-rule="evenodd" clip-rule="evenodd" d="M1885 2508.43L1829.44 2383.52C1827.45 2379.06 1823.68 2375.6 1819.01 2373.97L1681.84 2326L1819.01 2278.03C1823.68 2276.4 1827.45 2272.94 1829.44 2268.48L1885 2143.57L1940.56 2268.48C1942.55 2272.94 1946.32 2276.4 1950.99 2278.03L2088.16 2326L1950.99 2373.97C1946.32 2375.6 1942.55 2379.06 1940.56 2383.52L1885 2508.43ZM1890.48 2525.47C1888.39 2530.18 1881.61 2530.18 1879.52 2525.47L1818.47 2388.24C1817.81 2386.75 1816.55 2385.6 1815 2385.05L1661.98 2331.54C1656.67 2329.69 1656.67 2322.31 1661.98 2320.46L1815 2266.95C1816.55 2266.4 1817.81 2265.25 1818.47 2263.76L1879.52 2126.53C1881.61 2121.82 1888.39 2121.82 1890.48 2126.53L1951.53 2263.76C1952.19 2265.25 1953.45 2266.4 1955 2266.95L2108.02 2320.46C2113.33 2322.31 2113.33 2329.69 2108.02 2331.54L1955 2385.05C1953.45 2385.6 1952.19 2386.75 1951.53 2388.24L1890.48 2525.47Z" fill="#F9F9F9"/>
<path fill-rule="evenodd" clip-rule="evenodd" d="M2233 2278.01L2193.87 2188.32C2191.88 2183.77 2188.1 2180.24 2183.42 2178.57L2087.86 2144.5L2183.42 2110.43C2188.1 2108.76 2191.88 2105.23 2193.87 2100.68L2233 2010.99L2272.13 2100.68C2274.12 2105.23 2277.9 2108.76 2282.58 2110.43L2378.14 2144.5L2282.58 2178.57C2277.9 2180.24 2274.12 2183.77 2272.13 2188.32L2233 2278.01ZM2238.49 2295.4C2236.4 2300.2 2229.6 2300.2 2227.51 2295.4L2182.88 2193.12C2182.22 2191.6 2180.96 2190.43 2179.4 2189.87L2067.98 2150.15C2062.67 2148.26 2062.67 2140.74 2067.98 2138.85L2179.4 2099.13C2180.96 2098.57 2182.22 2097.4 2182.88 2095.88L2227.51 1993.6C2229.6 1988.8 2236.4 1988.8 2238.49 1993.6L2283.12 2095.88C2283.78 2097.4 2285.04 2098.57 2286.6 2099.13L2398.02 2138.85C2403.33 2140.74 2403.33 2148.26 2398.02 2150.15L2286.6 2189.87C2285.04 2190.43 2283.78 2191.6 2283.12 2193.12L2238.49 2295.4Z" fill="#F9F9F9"/>
<path fill-rule="evenodd" clip-rule="evenodd" d="M1960 2080.06L1925.63 2001.4C1923.64 1996.86 1919.87 1993.33 1915.2 1991.67L1831.85 1962L1915.2 1932.33C1919.87 1930.67 1923.64 1927.14 1925.63 1922.6L1960 1843.94L1994.37 1922.6C1996.36 1927.14 2000.13 1930.67 2004.8 1932.33L2088.15 1962L2004.8 1991.67C2000.13 1993.33 1996.36 1996.86 1994.37 2001.4L1960 2080.06ZM1965.48 2097.41C1963.38 2102.2 1956.62 2102.2 1954.52 2097.41L1914.68 2006.22C1914.02 2004.7 1912.76 2003.53 1911.2 2002.98L1811.98 1967.65C1806.67 1965.76 1806.67 1958.24 1811.98 1956.35L1911.2 1921.02C1912.76 1920.47 1914.02 1919.3 1914.68 1917.78L1954.52 1826.59C1956.62 1821.8 1963.38 1821.8 1965.48 1826.59L2005.32 1917.78C2005.98 1919.3 2007.24 1920.47 2008.8 1921.02L2108.02 1956.35C2113.33 1958.24 2113.33 1965.76 2108.02 1967.65L2008.8 2002.98C2007.24 2003.53 2005.98 2004.7 2005.32 2006.22L1965.48 2097.41Z" fill="#F9F9F9"/>
<path fill-rule="evenodd" clip-rule="evenodd" d="M509.713 1454.57L563.248 1334.47C565.161 1330.17 568.799 1326.85 573.3 1325.28L705.466 1279.15L573.3 1233.03C568.8 1231.46 565.161 1228.14 563.248 1223.84L509.713 1103.74L456.179 1223.84C454.265 1228.14 450.627 1231.46 446.127 1233.03L313.961 1279.15L446.127 1325.28C450.627 1326.85 454.265 1330.17 456.179 1334.47L509.713 1454.57ZM504.43 1470.96C506.445 1475.48 512.982 1475.48 514.997 1470.96L573.814 1339C574.452 1337.57 575.664 1336.46 577.164 1335.94L724.604 1284.48C729.715 1282.7 729.715 1275.61 724.604 1273.82L577.164 1222.37C575.664 1221.85 574.452 1220.74 573.814 1219.31L514.997 1087.35C512.982 1082.83 506.445 1082.83 504.43 1087.35L445.613 1219.31C444.975 1220.74 443.763 1221.85 442.262 1222.37L294.823 1273.82C289.712 1275.61 289.712 1282.7 294.823 1284.48L442.262 1335.94C443.763 1336.46 444.975 1337.57 445.613 1339L504.43 1470.96Z" fill="#F9F9F9"/>
<path fill-rule="evenodd" clip-rule="evenodd" d="M174.401 1233.01L212.104 1146.77C214.019 1142.39 217.663 1139 222.171 1137.39L314.248 1104.63L222.171 1071.88C217.663 1070.27 214.019 1066.88 212.104 1062.5L174.401 976.264L136.698 1062.5C134.783 1066.88 131.139 1070.27 126.631 1071.88L34.5538 1104.63L126.631 1137.39C131.139 1139 134.783 1142.39 136.698 1146.77L174.401 1233.01ZM169.107 1249.73C171.124 1254.35 177.678 1254.35 179.695 1249.73L222.693 1151.39C223.332 1149.93 224.546 1148.8 226.049 1148.26L333.401 1110.07C338.519 1108.25 338.519 1101.02 333.401 1099.2L226.049 1061.01C224.546 1060.47 223.332 1059.34 222.693 1057.88L179.695 959.538C177.678 954.923 171.124 954.923 169.107 959.538L126.109 1057.88C125.471 1059.34 124.256 1060.47 122.753 1061.01L15.4008 1099.2C10.2831 1101.02 10.2831 1108.25 15.4008 1110.07L122.753 1148.26C124.256 1148.8 125.471 1149.93 126.109 1151.39L169.107 1249.73Z" fill="#F9F9F9"/>
<path fill-rule="evenodd" clip-rule="evenodd" d="M437.448 1042.68L470.564 967.043C472.479 962.669 476.115 959.282 480.611 957.684L560.921 929.154L480.611 900.623C476.115 899.026 472.479 895.639 470.564 891.265L437.448 815.631L404.332 891.265C402.417 895.639 398.78 899.026 394.284 900.623L313.975 929.154L394.284 957.684C398.78 959.282 402.417 962.669 404.332 967.043L437.448 1042.68ZM432.172 1059.36C434.187 1063.96 440.708 1063.96 442.723 1059.36L481.115 971.674C481.753 970.216 482.965 969.087 484.464 968.554L580.072 934.589C585.184 932.773 585.184 925.535 580.072 923.719L484.464 889.754C482.965 889.221 481.753 888.092 481.115 886.634L442.723 798.952C440.708 794.349 434.187 794.35 432.172 798.952L393.781 886.634C393.143 888.092 391.93 889.221 390.432 889.754L294.823 923.719C289.712 925.535 289.712 932.773 294.823 934.589L390.432 968.554C391.93 969.087 393.143 970.216 393.781 971.674L432.172 1059.36Z" fill="#F9F9F9"/>
<path fill-rule="evenodd" clip-rule="evenodd" d="M1885 862.433L1829.44 737.524C1827.45 733.059 1823.68 729.6 1819.01 727.967L1681.84 680L1819.01 632.033C1823.68 630.4 1827.45 626.941 1829.44 622.476L1885 497.567L1940.56 622.476C1942.55 626.941 1946.32 630.4 1950.99 632.033L2088.16 680L1950.99 727.967C1946.32 729.6 1942.55 733.059 1940.56 737.524L1885 862.433ZM1890.48 879.474C1888.39 884.175 1881.61 884.175 1879.52 879.474L1818.47 742.239C1817.81 740.75 1816.55 739.597 1815 739.053L1661.98 685.543C1656.67 683.688 1656.67 676.312 1661.98 674.457L1815 620.947C1816.55 620.403 1817.81 619.25 1818.47 617.761L1879.52 480.526C1881.61 475.825 1888.39 475.825 1890.48 480.526L1951.53 617.761C1952.19 619.25 1953.45 620.403 1955 620.947L2108.02 674.457C2113.33 676.312 2113.33 683.688 2108.02 685.543L1955 739.053C1953.45 739.597 1952.19 740.75 1951.53 742.239L1890.48 879.474Z" fill="#F9F9F9"/>
<path fill-rule="evenodd" clip-rule="evenodd" d="M2233 632.006L2193.87 542.322C2191.88 537.766 2188.1 534.236 2183.42 532.568L2087.86 498.5L2183.42 464.432C2188.1 462.764 2191.88 459.234 2193.87 454.678L2233 364.994L2272.13 454.678C2274.12 459.234 2277.9 462.764 2282.58 464.432L2378.14 498.5L2282.58 532.568C2277.9 534.236 2274.12 537.766 2272.13 542.322L2233 632.006ZM2238.49 649.401C2236.4 654.2 2229.6 654.2 2227.51 649.401L2182.88 547.123C2182.22 545.605 2180.96 544.428 2179.4 543.872L2067.98 504.152C2062.67 502.258 2062.67 494.742 2067.98 492.848L2179.4 453.128C2180.96 452.572 2182.22 451.395 2182.88 449.877L2227.51 347.599C2229.6 342.8 2236.4 342.8 2238.49 347.599L2283.12 449.877C2283.78 451.395 2285.04 452.572 2286.6 453.128L2398.02 492.848C2403.33 494.742 2403.33 502.258 2398.02 504.152L2286.6 543.872C2285.04 544.428 2283.78 545.605 2283.12 547.123L2238.49 649.401Z" fill="#F9F9F9"/>
<path fill-rule="evenodd" clip-rule="evenodd" d="M1960 434.064L1925.63 355.405C1923.64 350.855 1919.87 347.333 1915.2 345.672L1831.85 316L1915.2 286.328C1919.87 284.667 1923.64 281.145 1925.63 276.595L1960 197.936L1994.37 276.595C1996.36 281.145 2000.13 284.667 2004.8 286.328L2088.15 316L2004.8 345.672C2000.13 347.333 1996.36 350.855 1994.37 355.405L1960 434.064ZM1965.48 451.41C1963.38 456.197 1956.62 456.197 1954.52 451.41L1914.68 360.221C1914.02 358.704 1912.76 357.53 1911.2 356.976L1811.98 321.652C1806.67 319.764 1806.67 312.236 1811.98 310.348L1911.2 275.024C1912.76 274.47 1914.02 273.296 1914.68 271.779L1954.52 180.59C1956.62 175.803 1963.38 175.803 1965.48 180.59L2005.32 271.779C2005.98 273.296 2007.24 274.47 2008.8 275.024L2108.02 310.348C2113.33 312.236 2113.33 319.764 2108.02 321.652L2008.8 356.976C2007.24 357.53 2005.98 358.704 2005.32 360.221L1965.48 451.41Z" fill="#F9F9F9"/>
<path fill-rule="evenodd" clip-rule="evenodd" d="M768.75 22.1754L810.42 115.857C811.91 119.206 814.741 121.8 818.244 123.025L921.119 159L818.244 194.975C814.741 196.2 811.91 198.794 810.42 202.143L768.75 295.825L727.08 202.143C725.59 198.794 722.759 196.2 719.256 194.975L616.381 159L719.256 123.025C722.759 121.8 725.59 119.206 727.08 115.857L768.75 22.1754ZM764.638 9.39455C766.206 5.86847 771.294 5.86849 772.862 9.39457L818.644 112.321C819.141 113.437 820.085 114.302 821.252 114.71L936.016 154.843C939.995 156.234 939.995 161.766 936.016 163.157L821.252 203.29C820.085 203.698 819.141 204.563 818.644 205.679L772.862 308.605C771.294 312.132 766.206 312.132 764.638 308.605L718.856 205.679C718.359 204.563 717.415 203.698 716.248 203.29L601.484 163.157C597.505 161.766 597.505 156.234 601.484 154.843L716.248 114.71C717.415 114.302 718.359 113.437 718.856 112.321L764.638 9.39455Z" fill="#F9F9F9"/>
<path fill-rule="evenodd" clip-rule="evenodd" d="M507.75 194.996L537.097 262.259C538.588 265.675 541.424 268.323 544.933 269.574L616.604 295.125L544.933 320.676C541.424 321.927 538.588 324.575 537.097 327.991L507.75 395.254L478.403 327.991C476.912 324.575 474.076 321.927 470.567 320.676L398.896 295.125L470.567 269.574C474.076 268.323 476.912 265.675 478.403 262.259L507.75 194.996ZM503.629 181.949C505.199 178.35 510.301 178.35 511.871 181.949L545.34 258.658C545.836 259.797 546.782 260.679 547.952 261.096L631.512 290.886C635.496 292.306 635.496 297.944 631.512 299.364L547.952 329.154C546.782 329.571 545.836 330.453 545.34 331.592L511.871 408.301C510.301 411.9 505.199 411.9 503.629 408.301L470.16 331.592C469.664 330.453 468.718 329.571 467.548 329.154L383.988 299.364C380.004 297.944 380.004 292.306 383.988 290.886L467.548 261.096C468.718 260.679 469.664 259.797 470.16 258.658L503.629 181.949Z" fill="#F9F9F9"/>
<path fill-rule="evenodd" clip-rule="evenodd" d="M712.5 343.452L738.277 402.446C739.768 405.859 742.598 408.5 746.098 409.746L808.609 432L746.098 454.254C742.598 455.5 739.767 458.142 738.277 461.554L712.5 520.548L686.723 461.554C685.232 458.142 682.402 455.5 678.902 454.254L616.391 432L678.902 409.746C682.402 408.5 685.232 405.858 686.723 402.446L712.5 343.452ZM708.394 330.442C709.962 326.853 715.038 326.853 716.606 330.442L746.489 398.835C746.986 399.972 747.93 400.853 749.096 401.268L823.516 427.761C827.495 429.177 827.495 434.823 823.516 436.239L749.096 462.732C747.93 463.147 746.986 464.028 746.489 465.166L716.606 533.558C715.038 537.147 709.962 537.147 708.394 533.558L678.511 465.165C678.014 464.028 677.07 463.147 675.904 462.732L601.484 436.239C597.505 434.823 597.505 429.177 601.484 427.761L675.904 401.268C677.07 400.853 678.014 399.972 678.511 398.835L708.394 330.442Z" fill="#F9F9F9"/>
</svg>
