<svg width="320" height="151" viewBox="0 0 320 151" fill="none" xmlns="http://www.w3.org/2000/svg">
<path d="M282.774 27.4368L278.561 32.5489L344.498 43.5996L348.711 38.4876L282.774 27.4368Z" fill="#FA6425"/>
<path fill-rule="evenodd" clip-rule="evenodd" d="M315.05 1.1796C313.152 1.87235 311.323 3.01053 309.562 4.59419C307.801 6.17784 306.49 7.86424 305.628 9.65333C304.767 11.4424 304.299 13.246 304.224 15.0642C304.15 16.8824 304.425 18.6396 305.05 20.3359C305.675 22.0323 306.607 23.5677 307.846 24.9422C309.108 26.3422 310.551 27.4413 312.175 28.2394C313.798 29.0376 315.519 29.4948 317.337 29.6111C319.155 29.7275 321 29.4511 322.871 28.782C324.743 28.1128 326.559 26.9864 328.32 25.4028C330.081 23.8191 331.405 22.121 332.293 20.3082C333.155 18.5191 333.623 16.7155 333.697 14.8974C333.771 13.0792 333.496 11.322 332.871 9.62561C332.22 7.95291 331.263 6.41658 330.001 5.01661C328.762 3.6421 327.344 2.54392 325.747 1.72214C324.123 0.92399 322.402 0.466773 320.584 0.350439C318.766 0.234107 316.921 0.510483 315.05 1.1796ZM320.467 8.61399C321.572 9.04851 322.595 9.78757 323.536 10.8312C324.477 11.8748 325.106 12.9684 325.423 14.112C325.714 15.2793 325.712 16.3866 325.419 17.4338C325.126 18.4811 324.533 19.4065 323.639 20.2102C322.772 20.9902 321.801 21.4711 320.728 21.653C319.628 21.8584 318.526 21.7439 317.42 21.3094C316.315 20.8749 315.292 20.1358 314.351 19.0922C313.433 18.074 312.816 16.9932 312.499 15.8495C312.182 14.7059 312.171 13.5859 312.468 12.4895C312.761 11.4423 313.341 10.5286 314.209 9.74862C315.102 8.94498 316.086 8.45222 317.159 8.27039C318.232 8.08856 319.335 8.2031 320.467 8.61399Z" fill="#FA6425"/>
<path fill-rule="evenodd" clip-rule="evenodd" d="M305.568 41.9348C303.671 42.6276 301.841 43.7658 300.08 45.3494C298.32 46.9331 297.008 48.6195 296.147 50.4086C295.285 52.1977 294.817 54.0013 294.742 55.8194C294.668 57.6376 294.944 59.3949 295.569 61.0912C296.194 62.7875 297.126 64.323 298.365 65.6975C299.627 67.0974 301.069 68.1965 302.693 68.9946C304.317 69.7928 306.037 70.25 307.855 70.3664C309.673 70.4827 311.518 70.2063 313.39 69.5372C315.261 68.868 317.077 67.7417 318.838 66.158C320.599 64.5744 321.923 62.8762 322.811 61.0635C323.673 59.2744 324.141 57.4707 324.215 55.6526C324.29 53.8344 324.014 52.0771 323.389 50.3808C322.738 48.7081 321.781 47.1718 320.519 45.7718C319.28 44.3973 317.862 43.2992 316.265 42.4774C314.641 41.6792 312.92 41.222 311.102 41.1056C309.284 40.9893 307.44 41.2657 305.568 41.9348ZM310.985 49.3692C312.09 49.8038 313.114 50.5428 314.054 51.5864C314.995 52.63 315.624 53.7236 315.941 54.8673C316.232 56.0345 316.231 57.1418 315.937 58.189C315.644 59.2363 315.051 60.1618 314.157 60.9654C313.29 61.7454 312.32 62.2264 311.246 62.4082C310.147 62.6137 309.044 62.4991 307.938 62.0646C306.833 61.6301 305.81 60.891 304.869 59.8474C303.951 58.8292 303.334 57.7484 303.017 56.6047C302.7 55.4611 302.689 54.3411 302.986 53.2448C303.279 52.1975 303.86 51.2839 304.727 50.5039C305.62 49.7002 306.604 49.2075 307.677 49.0256C308.751 48.8438 309.853 48.9583 310.985 49.3692Z" fill="#FA6425"/>
<path fill-rule="evenodd" clip-rule="evenodd" d="M283.625 122.549C285.466 124.038 286.878 125.665 287.86 127.429C288.814 129.17 289.376 130.947 289.545 132.759C289.715 134.571 289.532 136.34 288.997 138.067C288.434 139.771 287.57 141.342 286.405 142.779C285.218 144.243 283.848 145.427 282.296 146.332C280.717 147.214 279.022 147.76 277.213 147.971C275.403 148.183 273.547 148.003 271.643 147.433C269.711 146.84 267.825 145.799 265.984 144.31C264.142 142.82 262.744 141.205 261.79 139.463C260.835 137.721 260.274 135.945 260.104 134.133C259.935 132.321 260.118 130.552 260.653 128.825C261.188 127.099 262.049 125.503 263.236 124.039C264.401 122.602 265.774 121.442 267.354 120.56C268.933 119.678 270.628 119.132 272.437 118.92C274.247 118.709 276.103 118.889 278.007 119.459C279.911 120.03 281.784 121.059 283.625 122.549ZM279.644 137.311C280.529 136.219 281.099 135.094 281.356 133.936C281.585 132.755 281.526 131.649 281.178 130.619C280.831 129.588 280.19 128.695 279.255 127.939C278.348 127.206 277.354 126.776 276.272 126.651C275.142 126.529 274.036 126.715 272.955 127.206C271.874 127.698 270.902 128.476 270.038 129.541C269.154 130.633 268.583 131.758 268.326 132.916C268.069 134.075 268.129 135.18 268.504 136.233C268.852 137.264 269.479 138.146 270.386 138.879C271.32 139.635 272.328 140.076 273.41 140.201C274.491 140.327 275.586 140.155 276.695 139.685C277.776 139.194 278.759 138.402 279.644 137.311Z" fill="#FA6425"/>
<path fill-rule="evenodd" clip-rule="evenodd" d="M329.642 130.408C328.661 128.644 327.249 127.017 325.408 125.528C323.566 124.038 321.693 123.009 319.79 122.438C317.886 121.868 316.029 121.688 314.22 121.9C312.41 122.111 310.716 122.657 309.136 123.539C307.556 124.421 306.184 125.581 305.019 127.018C303.832 128.482 302.971 130.078 302.436 131.804C301.9 133.531 301.717 135.3 301.887 137.112C302.056 138.924 302.618 140.7 303.572 142.442C304.527 144.184 305.925 145.799 307.766 147.289C309.607 148.778 311.494 149.819 313.425 150.412C315.329 150.982 317.186 151.162 318.995 150.95C320.805 150.739 322.499 150.193 324.079 149.311C325.631 148.407 327 147.222 328.187 145.758C329.353 144.321 330.217 142.75 330.779 141.046C331.314 139.319 331.497 137.55 331.328 135.738C331.159 133.926 330.597 132.149 329.642 130.408ZM323.139 136.915C322.882 138.073 322.311 139.198 321.426 140.29C320.542 141.381 319.559 142.173 318.477 142.664C317.369 143.134 316.274 143.306 315.192 143.18C314.111 143.055 313.103 142.614 312.168 141.858C311.261 141.125 310.634 140.243 310.286 139.212C309.911 138.159 309.852 137.054 310.109 135.895C310.365 134.737 310.936 133.612 311.821 132.52C312.684 131.455 313.656 130.677 314.737 130.186C315.819 129.694 316.925 129.508 318.055 129.63C319.136 129.755 320.131 130.185 321.038 130.918C321.972 131.674 322.613 132.567 322.961 133.598C323.309 134.628 323.368 135.734 323.139 136.915Z" fill="#FA6425"/>
<path d="M292.916 99.3156L298.63 102.672L298.017 169.452L292.304 166.096L292.916 99.3156Z" fill="#FA6425"/>
<path fill-rule="evenodd" clip-rule="evenodd" d="M202.409 73.3422C204.765 73.0948 206.915 73.248 208.858 73.8017C210.765 74.3591 212.42 75.2186 213.823 76.3801C215.225 77.5416 216.348 78.9218 217.192 80.5208C218.001 82.1235 218.502 83.8446 218.695 85.684C218.893 87.5575 218.762 89.3621 218.305 91.0977C217.812 92.837 217.001 94.4203 215.871 95.8477C214.741 97.275 213.301 98.4594 211.551 99.4008C209.766 100.346 207.695 100.942 205.339 101.19C202.982 101.437 200.85 101.282 198.943 100.725C197.035 100.167 195.38 99.3077 193.977 98.1462C192.575 96.9847 191.452 95.6044 190.608 94.0054C189.764 92.4064 189.244 90.6702 189.047 88.7967C188.853 86.9572 189.002 85.1678 189.495 83.4286C189.988 81.6893 190.799 80.1059 191.929 78.6786C193.059 77.2512 194.499 76.0668 196.249 75.1254C197.999 74.184 200.052 73.5896 202.409 73.3422ZM210.043 86.5923C209.896 85.1957 209.504 83.9971 208.865 82.9965C208.191 81.9996 207.367 81.2596 206.391 80.7765C205.416 80.2934 204.33 80.1147 203.134 80.2402C201.974 80.362 200.967 80.7605 200.113 81.4356C199.228 82.1484 198.577 83.0606 198.161 84.1719C197.744 85.2833 197.608 86.5202 197.751 87.8828C197.898 89.2794 198.291 90.4781 198.93 91.4787C199.568 92.4792 200.393 93.2192 201.404 93.6986C202.379 94.1817 203.447 94.3623 204.608 94.2405C205.803 94.1149 206.828 93.7146 207.682 93.0395C208.535 92.3644 209.188 91.4694 209.639 90.3543C210.056 89.243 210.19 87.9889 210.043 86.5923Z" fill="#FA6425"/>
<path fill-rule="evenodd" clip-rule="evenodd" d="M240.511 46.397C238.568 45.8433 236.419 45.6901 234.062 45.9375C231.706 46.1849 229.652 46.7793 227.902 47.7207C226.152 48.6622 224.712 49.8465 223.582 51.2739C222.453 52.7012 221.641 54.2846 221.149 56.0239C220.656 57.7632 220.507 59.5525 220.7 61.392C220.897 63.2655 221.418 65.0018 222.262 66.6007C223.105 68.1997 224.229 69.5799 225.631 70.7415C227.033 71.903 228.688 72.7624 230.596 73.3198C232.504 73.8772 234.636 74.0323 236.992 73.7849C239.349 73.5375 241.42 72.9412 243.205 71.9961C244.955 71.0547 246.395 69.8703 247.525 68.443C248.655 67.0156 249.466 65.4323 249.959 63.693C250.416 61.9574 250.546 60.1528 250.349 58.2793C250.155 56.4398 249.654 54.7188 248.846 53.1161C248.002 51.5171 246.879 50.1369 245.476 48.9754C244.074 47.8139 242.419 46.9544 240.511 46.397ZM240.519 55.5918C241.157 56.5924 241.55 57.791 241.697 59.1876C241.844 60.5843 241.709 61.8382 241.293 62.9496C240.841 64.0647 240.189 64.9598 239.335 65.6349C238.482 66.3099 237.457 66.7103 236.261 66.8358C235.1 66.9576 234.032 66.7771 233.057 66.294C232.047 65.8146 231.222 65.0746 230.583 64.074C229.945 63.0734 229.552 61.8748 229.405 60.4781C229.261 59.1156 229.398 57.8786 229.814 56.7672C230.231 55.6558 230.882 54.7438 231.767 54.0309C232.62 53.3558 233.627 52.9573 234.788 52.8355C235.984 52.7099 237.069 52.8887 238.045 53.3718C239.02 53.8549 239.845 54.5949 240.519 55.5918Z" fill="#FA6425"/>
<path d="M192.531 50.3516L198.948 48.6894L245.789 96.3425L239.373 98.0047L192.531 50.3516Z" fill="#FA6425"/>
<path fill-rule="evenodd" clip-rule="evenodd" d="M82.5908 175.345C84.3791 173.793 86.2279 172.686 88.1374 172.027C90.0202 171.391 91.8695 171.146 93.6852 171.294C95.5009 171.442 97.2135 171.93 98.8229 172.756C100.406 173.605 101.804 174.728 103.019 176.124C104.257 177.546 105.186 179.098 105.808 180.782C106.403 182.489 106.648 184.251 106.542 186.068C106.436 187.884 105.937 189.679 105.044 191.453C104.124 193.25 102.77 194.925 100.982 196.478C99.1936 198.03 97.3581 199.125 95.4753 199.761C93.5925 200.398 91.7433 200.642 89.9275 200.494C88.1118 200.346 86.3993 199.859 84.7898 199.032C83.1804 198.206 81.757 197.082 80.5197 195.66C79.3049 194.264 78.3998 192.713 77.8046 191.006C77.2094 189.299 76.9648 187.537 77.0707 185.721C77.1767 183.904 77.6761 182.109 78.5691 180.335C79.462 178.561 80.8026 176.898 82.5908 175.345ZM96.4535 181.825C95.5312 180.765 94.5211 180.008 93.4234 179.555C92.299 179.124 91.1985 178.99 90.1222 179.153C89.0458 179.317 88.0539 179.792 87.1464 180.58C86.2657 181.345 85.6695 182.248 85.358 183.29C85.0423 184.381 85.033 185.501 85.3301 186.65C85.6271 187.799 86.2256 188.891 87.1254 189.925C88.0478 190.984 89.0578 191.741 90.1556 192.195C91.2533 192.649 92.3538 192.782 93.4568 192.596C94.5332 192.433 95.5118 191.969 96.3925 191.204C97.3 190.416 97.9095 189.501 98.221 188.459C98.5325 187.417 98.553 186.31 98.2827 185.138C97.9856 183.989 97.3759 182.885 96.4535 181.825Z" fill="#FA6425"/>
<path fill-rule="evenodd" clip-rule="evenodd" d="M98.3299 131.443C96.4204 132.103 94.5716 133.209 92.7833 134.762C90.9951 136.314 89.6545 137.978 88.7616 139.751C87.8686 141.525 87.3692 143.32 87.2632 145.137C87.1572 146.954 87.4019 148.715 87.9971 150.422C88.5923 152.129 89.4973 153.681 90.7122 155.077C91.9495 156.498 93.3729 157.622 94.9823 158.449C96.5917 159.275 98.3043 159.762 100.12 159.91C101.936 160.058 103.785 159.814 105.668 159.178C107.551 158.541 109.386 157.447 111.174 155.894C112.963 154.341 114.316 152.666 115.236 150.87C116.129 149.096 116.629 147.301 116.734 145.484C116.84 143.667 116.596 141.906 116.001 140.199C115.379 138.515 114.449 136.962 113.212 135.54C111.997 134.144 110.598 133.022 109.015 132.172C107.406 131.346 105.693 130.859 103.878 130.711C102.062 130.563 100.213 130.807 98.3299 131.443ZM103.616 138.971C104.714 139.425 105.724 140.181 106.646 141.241C107.568 142.301 108.178 143.406 108.475 144.555C108.746 145.727 108.725 146.834 108.413 147.876C108.102 148.918 107.492 149.833 106.585 150.621C105.704 151.385 104.726 151.849 103.649 152.012C102.546 152.199 101.446 152.065 100.348 151.611C99.2503 151.158 98.2403 150.401 97.3179 149.341C96.418 148.307 95.8196 147.215 95.5226 146.066C95.2255 144.917 95.2348 143.797 95.5505 142.706C95.862 141.664 96.4581 140.761 97.3389 139.996C98.2464 139.208 99.2383 138.733 100.315 138.57C101.391 138.407 102.491 138.54 103.616 138.971Z" fill="#FA6425"/>
<path d="M61.2979 162.172L65.5995 157.134L131.334 169.332L127.032 174.37L61.2979 162.172Z" fill="#FA6425"/>
<path fill-rule="evenodd" clip-rule="evenodd" d="M5.94449 111.603C7.95388 110.349 9.9532 109.546 11.9425 109.193C13.9018 108.858 15.7665 108.906 17.5367 109.336C19.3069 109.766 20.922 110.515 22.3823 111.582C23.8125 112.669 25.0182 113.996 25.9995 115.565C26.9989 117.162 27.6739 118.841 28.0244 120.601C28.345 122.38 28.3107 124.159 27.9215 125.936C27.5324 127.714 26.7579 129.409 25.5982 131.021C24.4084 132.653 22.8088 134.095 20.7995 135.349C18.7901 136.604 16.8057 137.398 14.8465 137.732C12.8872 138.067 11.0224 138.019 9.25226 137.589C7.48212 137.159 5.8669 136.41 4.40669 135.343C2.94649 134.275 1.71667 132.942 0.717249 131.345C-0.264021 129.776 -0.914915 128.102 -1.23546 126.323C-1.55604 124.545 -1.52173 122.766 -1.13258 120.989C-0.743421 119.211 0.0310699 117.516 1.1908 115.903C2.35056 114.291 3.93513 112.858 5.94449 111.603ZM18.6217 120.169C17.8767 118.979 16.9976 118.073 15.9844 117.454C14.9413 116.853 13.8754 116.549 12.7867 116.541C11.6981 116.534 10.6439 116.849 9.62417 117.485C8.63449 118.103 7.90421 118.902 7.43337 119.883C6.9507 120.911 6.76606 122.016 6.87952 123.197C6.99296 124.378 7.41311 125.55 8.13996 126.712C8.88499 127.903 9.76406 128.808 10.7773 129.428C11.7904 130.047 12.8563 130.351 13.975 130.34C15.0636 130.347 16.1029 130.042 17.0925 129.424C18.1122 128.787 18.8575 127.979 19.3283 126.998C19.7992 126.018 19.9929 124.928 19.9094 123.728C19.796 122.546 19.3668 121.36 18.6217 120.169Z" fill="#FA6425"/>
<path fill-rule="evenodd" clip-rule="evenodd" d="M28.3654 70.7012C26.3761 71.0542 24.3768 71.8578 22.3674 73.112C20.358 74.3662 18.7735 75.7995 17.6137 77.4119C16.454 79.0244 15.6795 80.7194 15.2904 82.4971C14.9012 84.2747 14.8669 86.053 15.1874 87.832C15.508 89.611 16.1589 91.2848 17.1402 92.8533C18.1396 94.4509 19.3694 95.7835 20.8296 96.8511C22.2898 97.9188 23.905 98.6675 25.6752 99.0974C27.4454 99.5274 29.3101 99.5752 31.2694 99.2408C33.2287 98.9064 35.213 98.1122 37.2224 96.858C39.2318 95.6038 40.8313 94.1612 42.0211 92.53C43.1808 90.9176 43.9553 89.2225 44.3445 87.4448C44.7336 85.6672 44.7679 83.8889 44.4473 82.1099C44.0968 80.3496 43.4218 78.6707 42.4224 77.0731C41.4411 75.5046 40.2354 74.1771 38.8052 73.0908C37.345 72.0231 35.7298 71.2744 33.9596 70.8445C32.1894 70.4146 30.3247 70.3668 28.3654 70.7012ZM32.4074 78.9621C33.4205 79.5818 34.2997 80.4871 35.0447 81.678C35.7897 82.869 36.2189 84.055 36.3324 85.2363C36.4158 86.4362 36.2221 87.5264 35.7513 88.5069C35.2804 89.4874 34.5351 90.2959 33.5155 90.9324C32.5258 91.5501 31.4866 91.8554 30.3979 91.8483C29.2793 91.8599 28.2133 91.5559 27.2002 90.9362C26.187 90.3166 25.3079 89.4113 24.5629 88.2203C23.836 87.0584 23.4159 85.8869 23.3024 84.7056C23.189 83.5244 23.3736 82.4196 23.8563 81.3914C24.3271 80.4109 25.0574 79.6118 26.0471 78.9941C27.0668 78.3576 28.121 78.0429 29.2096 78.05C30.2983 78.0571 31.3642 78.3612 32.4074 78.9621Z" fill="#FA6425"/>
<path d="M-13.0232 95.2648L-7.98543 90.9611L55.0288 113.281L49.9911 117.585L-13.0232 95.2648Z" fill="#FA6425"/>
<path fill-rule="evenodd" clip-rule="evenodd" d="M20.6727 179.733C18.3091 179.898 16.1661 179.67 14.2437 179.049C12.3566 178.425 10.7326 177.509 9.37168 176.299C8.01076 175.089 6.93654 173.671 6.14904 172.043C5.39684 170.413 4.95615 168.676 4.82696 166.831C4.69541 164.951 4.88856 163.153 5.40633 161.434C5.95942 159.713 6.82556 158.159 8.00466 156.772C9.18378 155.385 10.6643 154.251 12.4461 153.371C14.2632 152.489 16.3536 151.965 18.7173 151.8C21.0809 151.635 23.2063 151.864 25.0934 152.488C26.9805 153.112 28.6045 154.028 29.9654 155.238C31.3263 156.448 32.4005 157.866 33.188 159.494C33.9755 161.121 34.435 162.874 34.5666 164.754C34.6958 166.599 34.4838 168.382 33.9307 170.103C33.3777 171.824 32.5115 173.378 31.3324 174.765C30.1533 176.152 28.6728 177.286 26.891 178.165C25.1091 179.045 23.0364 179.568 20.6727 179.733ZM13.5054 166.225C13.6035 167.625 13.9542 168.837 14.5575 169.859C15.1962 170.879 15.9944 171.647 16.9523 172.164C17.9102 172.681 18.9889 172.897 20.1884 172.814C21.3525 172.732 22.3729 172.369 23.2495 171.724C24.159 171.043 24.8412 170.154 25.2962 169.058C25.7512 167.962 25.9309 166.73 25.8352 165.363C25.7372 163.962 25.3864 162.751 24.7831 161.729C24.1798 160.706 23.3815 159.938 22.3884 159.424C21.4305 158.907 20.3695 158.689 19.2052 158.771C18.0058 158.854 16.9678 159.219 16.0912 159.864C15.2146 160.509 14.5312 161.38 14.0409 162.479C13.5859 163.575 13.4074 164.824 13.5054 166.225Z" fill="#FA6425"/>
<path fill-rule="evenodd" clip-rule="evenodd" d="M-18.3481 205.333C-16.4257 205.955 -14.2827 206.183 -11.919 206.017C-9.55539 205.852 -7.48265 205.33 -5.70079 204.45C-3.91894 203.57 -2.43844 202.437 -1.25934 201.05C-0.0801936 199.663 0.785897 198.108 1.33899 196.387C1.89205 194.666 2.10402 192.883 1.97486 191.038C1.84329 189.159 1.38377 187.406 0.596273 185.778C-0.191223 184.151 -1.26544 182.732 -2.62634 181.523C-3.98725 180.313 -5.61126 179.396 -7.49838 178.773C-9.38545 178.149 -11.5108 177.92 -13.8745 178.085C-16.2381 178.25 -18.3285 178.774 -20.1456 179.656C-21.9275 180.536 -23.408 181.669 -24.5871 183.056C-25.7662 184.444 -26.6323 185.998 -27.1854 187.719C-27.7032 189.437 -27.8963 191.236 -27.7648 193.115C-27.6356 194.961 -27.1949 196.698 -26.4427 198.328C-25.6552 199.955 -24.581 201.374 -23.2201 202.584C-21.8592 203.793 -20.2352 204.71 -18.3481 205.333ZM-18.0342 196.144C-18.6375 195.122 -18.9882 193.91 -19.0863 192.509C-19.1844 191.108 -19.0059 189.86 -18.5509 188.764C-18.0606 187.665 -17.3771 186.793 -16.5006 186.148C-15.624 185.503 -14.586 185.139 -13.3865 185.055C-12.2223 184.974 -11.1613 185.192 -10.2034 185.708C-9.21021 186.223 -8.41194 186.991 -7.80864 188.013C-7.20529 189.036 -6.85462 190.247 -6.75652 191.648C-6.66085 193.015 -6.84054 194.246 -7.29554 195.342C-7.75056 196.439 -8.43281 197.327 -9.34227 198.009C-10.2188 198.654 -11.2392 199.017 -12.4034 199.098C-13.6029 199.182 -14.6816 198.966 -15.6394 198.449C-16.5974 197.932 -17.3956 197.164 -18.0342 196.144Z" fill="#FA6425"/>
<path d="M29.7409 203.054L23.2701 204.491L-21.8778 155.234L-15.407 153.797L29.7409 203.054Z" fill="#FA6425"/>
<path fill-rule="evenodd" clip-rule="evenodd" d="M179.093 178.912C180.552 177.047 182.156 175.608 183.904 174.597C185.631 173.614 187.399 173.021 189.21 172.821C191.02 172.62 192.795 172.772 194.532 173.276C196.248 173.808 197.836 174.644 199.295 175.782C200.781 176.942 201.99 178.289 202.923 179.824C203.833 181.386 204.41 183.069 204.653 184.872C204.896 186.675 204.748 188.533 204.21 190.444C203.651 192.384 202.642 194.286 201.183 196.151C199.724 198.016 198.132 199.44 196.405 200.424C194.678 201.407 192.91 201.999 191.099 202.2C189.289 202.401 187.514 202.249 185.777 201.745C184.039 201.24 182.427 200.408 180.941 199.248C179.482 198.109 178.297 196.759 177.386 195.197C176.476 193.635 175.899 191.952 175.656 190.148C175.413 188.345 175.561 186.488 176.099 184.576C176.636 182.665 177.634 180.777 179.093 178.912ZM193.939 182.63C192.831 181.766 191.695 181.215 190.531 180.979C189.345 180.771 188.239 180.849 187.214 181.214C186.188 181.58 185.305 182.235 184.565 183.182C183.847 184.1 183.434 185.101 183.327 186.183C183.226 187.314 183.431 188.415 183.942 189.487C184.453 190.558 185.249 191.515 186.329 192.359C187.437 193.223 188.573 193.774 189.738 194.01C190.902 194.246 192.008 194.168 193.055 193.775C194.08 193.409 194.952 192.767 195.671 191.849C196.411 190.902 196.835 189.888 196.941 188.806C197.048 187.724 196.857 186.633 196.367 185.534C195.856 184.463 195.047 183.495 193.939 182.63Z" fill="#FA6425"/>
<path fill-rule="evenodd" clip-rule="evenodd" d="M186.157 132.816C184.408 133.828 182.805 135.266 181.346 137.131C179.887 138.996 178.889 140.884 178.351 142.795C177.813 144.707 177.666 146.564 177.909 148.368C178.152 150.171 178.729 151.854 179.639 153.416C180.55 154.978 181.734 156.329 183.193 157.467C184.68 158.627 186.292 159.459 188.029 159.964C189.767 160.468 191.541 160.62 193.352 160.419C195.162 160.218 196.931 159.626 198.658 158.643C200.384 157.659 201.977 156.235 203.436 154.37C204.895 152.505 205.904 150.603 206.463 148.663C207.001 146.752 207.148 144.895 206.905 143.091C206.662 141.288 206.086 139.605 205.175 138.043C204.243 136.509 203.034 135.161 201.548 134.002C200.089 132.863 198.501 132.027 196.785 131.495C195.047 130.991 193.273 130.839 191.463 131.04C189.652 131.241 187.883 131.833 186.157 132.816ZM192.783 139.198C193.948 139.434 195.084 139.985 196.192 140.849C197.3 141.714 198.109 142.682 198.62 143.753C199.109 144.852 199.301 145.943 199.194 147.025C199.087 148.107 198.664 149.122 197.923 150.068C197.205 150.987 196.333 151.628 195.308 151.994C194.26 152.387 193.155 152.465 191.99 152.229C190.826 151.993 189.69 151.443 188.582 150.578C187.501 149.734 186.705 148.777 186.194 147.706C185.683 146.635 185.478 145.533 185.58 144.402C185.687 143.32 186.099 142.32 186.818 141.401C187.558 140.455 188.441 139.799 189.466 139.434C190.492 139.068 191.597 138.99 192.783 139.198Z" fill="#FA6425"/>
<path d="M155.675 170.038L158.935 164.273L225.792 163.719L222.531 169.484L155.675 170.038Z" fill="#FA6425"/>
<path fill-rule="evenodd" clip-rule="evenodd" d="M129.647 73.5687C130.867 75.5974 131.636 77.6082 131.955 79.6011C132.256 81.5637 132.175 83.4251 131.714 85.1855C131.253 86.9459 130.475 88.546 129.381 89.9857C128.268 91.3951 126.919 92.5761 125.331 93.5287C123.715 94.499 122.023 95.1438 120.254 95.4632C118.468 95.7523 116.689 95.687 114.916 95.2673C113.143 94.8476 111.46 94.0446 109.866 92.8582C108.254 91.6415 106.838 90.0188 105.618 87.9901C104.398 85.9614 103.637 83.9658 103.337 82.0032C103.036 80.0406 103.117 78.1791 103.578 76.4187C104.039 74.6583 104.817 73.0583 105.911 71.6186C107.005 70.1789 108.36 68.9739 109.977 68.0036C111.564 67.051 113.251 66.4302 115.037 66.1411C116.824 65.852 118.603 65.9172 120.376 66.3369C122.148 66.7566 123.832 67.5597 125.425 68.7461C127.019 69.9325 128.426 71.54 129.647 73.5687ZM120.851 86.0801C122.056 85.3568 122.977 84.4947 123.615 83.4936C124.235 82.4623 124.558 81.4031 124.584 80.3159C124.61 79.2288 124.314 78.1705 123.694 77.141C123.093 76.1418 122.306 75.3985 121.333 74.9111C120.312 74.4111 119.21 74.2075 118.025 74.3002C116.841 74.3929 115.661 74.792 114.485 75.4976C113.28 76.2209 112.358 77.0831 111.72 78.0841C111.082 79.0852 110.76 80.1444 110.752 81.2618C110.726 82.349 111.013 83.3922 111.614 84.3914C112.233 85.4208 113.03 86.1793 114.003 86.6666C114.976 87.154 116.064 87.3665 117.267 87.3041C118.451 87.2114 119.646 86.8034 120.851 86.0801Z" fill="#FA6425"/>
<path fill-rule="evenodd" clip-rule="evenodd" d="M170.198 96.6747C169.879 94.6818 169.11 92.671 167.889 90.6423C166.669 88.6137 165.262 87.0062 163.668 85.8198C162.074 84.6334 160.391 83.8303 158.618 83.4106C156.846 82.9909 155.066 82.9256 153.28 83.2147C151.494 83.5038 149.807 84.1247 148.22 85.0773C146.603 86.0475 145.248 87.2525 144.154 88.6922C143.059 90.1319 142.282 91.732 141.821 93.4924C141.359 95.2528 141.279 97.1142 141.579 99.0768C141.88 101.039 142.64 103.035 143.861 105.064C145.081 107.092 146.497 108.715 148.109 109.932C149.703 111.118 151.386 111.921 153.159 112.341C154.931 112.761 156.711 112.826 158.497 112.537C160.265 112.217 161.958 111.573 163.574 110.602C165.161 109.65 166.511 108.469 167.624 107.059C168.718 105.62 169.495 104.02 169.957 102.259C170.418 100.499 170.498 98.6373 170.198 96.6747ZM161.858 100.567C161.22 101.568 160.299 102.431 159.094 103.154C157.888 103.877 156.694 104.285 155.509 104.378C154.307 104.44 153.219 104.228 152.246 103.74C151.272 103.253 150.476 102.495 149.857 101.465C149.256 100.466 148.968 99.4227 148.994 98.3355C149.002 97.2181 149.325 96.1589 149.963 95.1578C150.601 94.1568 151.523 93.2946 152.728 92.5713C153.903 91.8657 155.083 91.4665 156.268 91.3738C157.452 91.2812 158.555 91.4848 159.576 91.9848C160.549 92.4721 161.336 93.2154 161.937 94.2146C162.556 95.2441 162.853 96.3024 162.827 97.3896C162.801 98.4767 162.478 99.536 161.858 100.567Z" fill="#FA6425"/>
<path d="M146.332 54.9106L150.552 60.017L127.111 122.561L122.891 117.454L146.332 54.9106Z" fill="#FA6425"/>
<path fill-rule="evenodd" clip-rule="evenodd" d="M286.538 209.259C284.25 209.871 282.103 210.056 280.097 209.813C278.125 209.56 276.356 208.97 274.789 208.042C273.222 207.114 271.897 205.926 270.813 204.479C269.763 203.022 268.998 201.401 268.519 199.614C268.031 197.794 267.877 195.992 268.057 194.206C268.271 192.411 268.824 190.72 269.717 189.134C270.609 187.548 271.846 186.153 273.427 184.95C275.042 183.737 276.994 182.825 279.283 182.212C281.572 181.6 283.702 181.42 285.673 181.672C287.645 181.925 289.414 182.515 290.981 183.443C292.548 184.371 293.874 185.559 294.958 187.006C296.041 188.454 296.828 190.087 297.316 191.907C297.795 193.693 297.927 195.484 297.713 197.279C297.499 199.074 296.946 200.764 296.053 202.351C295.161 203.937 293.924 205.332 292.343 206.535C290.762 207.738 288.827 208.646 286.538 209.259ZM276.922 197.365C277.286 198.721 277.862 199.844 278.65 200.732C279.471 201.612 280.402 202.214 281.441 202.538C282.48 202.863 283.58 202.87 284.741 202.559C285.868 202.258 286.801 201.707 287.538 200.906C288.301 200.064 288.8 199.062 289.038 197.899C289.275 196.736 289.216 195.493 288.861 194.17C288.497 192.813 287.922 191.691 287.134 190.802C286.347 189.914 285.416 189.312 284.343 188.996C283.304 188.671 282.221 188.66 281.094 188.961C279.932 189.272 278.983 189.828 278.246 190.628C277.508 191.428 277.004 192.414 276.733 193.586C276.495 194.749 276.559 196.008 276.922 197.365Z" fill="#FA6425"/>
<path fill-rule="evenodd" clip-rule="evenodd" d="M253.125 241.826C255.131 242.07 257.278 241.885 259.567 241.272C261.855 240.66 263.79 239.752 265.371 238.549C266.952 237.345 268.189 235.951 269.081 234.364C269.974 232.778 270.527 231.087 270.741 229.292C270.956 227.498 270.823 225.707 270.344 223.92C269.856 222.101 269.07 220.467 267.986 219.02C266.902 217.572 265.576 216.384 264.009 215.456C262.442 214.528 260.673 213.938 258.702 213.686C256.73 213.433 254.6 213.613 252.311 214.226C250.022 214.838 248.071 215.751 246.455 216.963C244.874 218.166 243.638 219.561 242.745 221.148C241.853 222.734 241.299 224.425 241.085 226.219C240.905 228.005 241.059 229.808 241.547 231.627C242.027 233.414 242.791 235.036 243.841 236.492C244.925 237.94 246.25 239.127 247.817 240.055C249.384 240.984 251.153 241.574 253.125 241.826ZM251.678 232.746C250.89 231.857 250.314 230.735 249.951 229.378C249.587 228.022 249.523 226.762 249.761 225.6C250.032 224.428 250.536 223.442 251.274 222.641C252.011 221.841 252.96 221.286 254.122 220.975C255.249 220.673 256.332 220.685 257.371 221.009C258.444 221.325 259.375 221.927 260.162 222.816C260.95 223.704 261.525 224.827 261.889 226.183C262.244 227.506 262.303 228.749 262.066 229.912C261.829 231.075 261.329 232.078 260.566 232.92C259.829 233.72 258.897 234.271 257.769 234.573C256.608 234.884 255.508 234.877 254.469 234.552C253.43 234.227 252.499 233.625 251.678 232.746Z" fill="#FA6425"/>
<path d="M299.895 230.423L293.818 233.067L240.09 193.32L246.167 190.676L299.895 230.423Z" fill="#FA6425"/>
<path fill-rule="evenodd" clip-rule="evenodd" d="M112.732 369.469C112.945 367.457 112.728 365.311 112.082 363.029C111.436 360.747 110.5 358.824 109.275 357.259C108.049 355.695 106.638 354.478 105.04 353.608C103.442 352.738 101.745 352.21 99.9494 352.022C98.1535 351.835 96.367 351.994 94.5898 352.501C92.7797 353.017 91.16 353.828 89.7306 354.935C88.3011 356.042 87.1347 357.386 86.2313 358.969C85.3278 360.551 84.7648 362.331 84.5422 364.308C84.3196 366.286 84.5314 368.415 85.1775 370.697C85.8236 372.979 86.7642 374.919 87.9994 376.518C89.2249 378.082 90.6365 379.299 92.2343 380.169C93.8321 381.038 95.5289 381.567 97.3248 381.754C99.111 381.908 100.909 381.727 102.719 381.211C104.496 380.704 106.105 379.915 107.544 378.842C108.973 377.735 110.14 376.391 111.043 374.808C111.946 373.226 112.509 371.446 112.732 369.469ZM103.684 371.053C102.809 371.855 101.696 372.448 100.347 372.833C98.9976 373.217 97.7405 373.3 96.5756 373.08C95.401 372.825 94.4087 372.335 93.5985 371.609C92.7883 370.883 92.2192 369.941 91.8913 368.783C91.5731 367.66 91.5684 366.575 91.8771 365.53C92.1762 364.451 92.7636 363.511 93.6392 362.709C94.5148 361.908 95.6272 361.315 96.9766 360.93C98.293 360.555 99.5337 360.477 100.699 360.697C101.863 360.917 102.872 361.403 103.725 362.153C104.535 362.879 105.1 363.804 105.418 364.928C105.746 366.086 105.755 367.188 105.446 368.233C105.138 369.278 104.55 370.218 103.684 371.053Z" fill="#FA6425"/>
<path fill-rule="evenodd" clip-rule="evenodd" d="M80.3534 342.95C80.5663 340.938 80.3497 338.792 79.7036 336.51C79.0575 334.228 78.1217 332.305 76.8962 330.74C75.6707 329.176 74.2591 327.959 72.6613 327.089C71.0635 326.219 69.3667 325.691 67.5708 325.503C65.775 325.316 63.9884 325.475 62.2113 325.982C60.4011 326.498 58.7814 327.309 57.352 328.416C55.9226 329.522 54.7562 330.867 53.8527 332.45C52.9492 334.032 52.3862 335.812 52.1636 337.789C51.941 339.766 52.1528 341.896 52.7989 344.178C53.445 346.46 54.3857 348.4 55.6208 349.999C56.8463 351.563 58.2579 352.78 59.8557 353.65C61.4535 354.519 63.1503 355.048 64.9462 355.235C66.7324 355.389 68.5306 355.208 70.3407 354.692C72.1179 354.185 73.726 353.396 75.1651 352.323C76.5945 351.216 77.7609 349.872 78.6644 348.289C79.5678 346.707 80.1308 344.927 80.3534 342.95ZM71.3058 344.534C70.4302 345.336 69.3177 345.929 67.9684 346.314C66.6191 346.698 65.3619 346.781 64.1971 346.56C63.0225 346.306 62.0301 345.816 61.2199 345.09C60.4097 344.364 59.8406 343.422 59.5128 342.264C59.1945 341.14 59.1898 340.056 59.4985 339.011C59.7977 337.932 60.385 336.992 61.2606 336.19C62.1362 335.389 63.2487 334.796 64.598 334.411C65.9144 334.036 67.1551 333.958 68.32 334.178C69.4849 334.398 70.4937 334.884 71.3465 335.634C72.1567 336.36 72.721 337.285 73.0392 338.409C73.3671 339.567 73.3766 340.669 73.0679 341.714C72.7591 342.758 72.1718 343.699 71.3058 344.534Z" fill="#FA6425"/>
<path d="M100.642 322.823L103.374 328.866L64.4807 383.244L61.7485 377.2L100.642 322.823Z" fill="#FA6425"/>
<path d="M131.223 561.756L134.898 556.293L68.7633 551.757L65.089 557.22L131.223 561.756Z" fill="#FA6425"/>
<path fill-rule="evenodd" clip-rule="evenodd" d="M112.442 545.721C110.854 547.458 109.156 548.76 107.349 549.629C105.565 550.473 103.77 550.925 101.964 550.986C100.159 551.047 98.4169 550.762 96.7385 550.13C95.0839 549.472 93.5799 548.524 92.2266 547.285C90.8483 546.023 89.7584 544.596 88.957 543.005C88.1794 541.388 87.741 539.677 87.642 537.872C87.543 536.067 87.834 534.238 88.5152 532.386C89.2201 530.507 90.3665 528.699 91.9546 526.963C93.5426 525.226 95.2286 523.936 97.0125 523.093C98.7963 522.25 100.591 521.798 102.397 521.737C104.202 521.675 105.944 521.961 107.623 522.593C109.301 523.224 110.829 524.171 112.208 525.433C113.561 526.673 114.626 528.101 115.404 529.717C116.182 531.334 116.62 533.045 116.719 534.85C116.818 536.655 116.527 538.484 115.846 540.337C115.165 542.19 114.03 543.984 112.442 545.721ZM98.0574 540.908C99.0849 541.849 100.165 542.481 101.297 542.803C102.453 543.1 103.553 543.106 104.595 542.822C105.637 542.538 106.561 541.956 107.367 541.074C108.149 540.219 108.636 539.259 108.826 538.195C109.015 537.082 108.898 535.976 108.477 534.876C108.056 533.776 107.344 532.767 106.341 531.849C105.314 530.908 104.234 530.276 103.101 529.954C101.969 529.631 100.87 529.625 99.8038 529.935C98.7615 530.219 97.8493 530.788 97.0671 531.644C96.2612 532.525 95.7631 533.498 95.5729 534.562C95.3827 535.626 95.4864 536.721 95.8841 537.847C96.3054 538.947 97.0299 539.967 98.0574 540.908Z" fill="#FA6425"/>
<path fill-rule="evenodd" clip-rule="evenodd" d="M106.944 586.941C105.356 588.678 103.659 589.98 101.851 590.849C100.067 591.692 98.2725 592.145 96.4669 592.206C94.6612 592.267 92.9193 591.982 91.2409 591.35C89.5863 590.692 88.0823 589.744 86.729 588.505C85.3507 587.242 84.2608 585.816 83.4595 584.225C82.6818 582.608 82.2435 580.897 82.1444 579.092C82.0454 577.287 82.3365 575.458 83.0176 573.606C83.7225 571.727 84.869 569.919 86.457 568.183C88.0451 566.446 89.731 565.156 91.5149 564.313C93.2987 563.47 95.0935 563.018 96.8991 562.957C98.7047 562.895 100.447 563.181 102.125 563.813C103.803 564.444 105.332 565.391 106.71 566.653C108.063 567.892 109.129 569.32 109.906 570.937C110.684 572.554 111.122 574.265 111.222 576.07C111.321 577.875 111.029 579.704 110.348 581.557C109.667 583.409 108.533 585.204 106.944 586.941ZM92.5598 582.128C93.5873 583.069 94.6673 583.7 95.7997 584.023C96.9558 584.32 98.055 584.326 99.0973 584.042C100.14 583.758 101.064 583.176 101.87 582.294C102.652 581.439 103.138 580.479 103.328 579.415C103.517 578.302 103.401 577.196 102.979 576.096C102.558 574.996 101.846 573.987 100.844 573.069C99.8162 572.128 98.7363 571.496 97.6038 571.174C96.4714 570.851 95.3722 570.845 94.3062 571.155C93.2639 571.439 92.3516 572.008 91.5695 572.864C90.7636 573.745 90.2656 574.718 90.0753 575.782C89.8851 576.846 89.9888 577.941 90.3865 579.067C90.8079 580.167 91.5323 581.187 92.5598 582.128Z" fill="#FA6425"/>
<path fill-rule="evenodd" clip-rule="evenodd" d="M161.101 500.445C160.889 502.442 161.104 504.573 161.745 506.838C162.387 509.102 163.316 511.011 164.532 512.565C165.749 514.118 167.15 515.326 168.736 516.189C170.322 517.052 172.006 517.577 173.789 517.763C175.571 517.949 177.345 517.79 179.109 517.288C180.905 516.776 182.513 515.97 183.932 514.872C185.351 513.773 186.509 512.439 187.406 510.868C188.302 509.297 188.861 507.53 189.082 505.568C189.303 503.605 189.093 501.491 188.452 499.226C187.81 496.961 186.876 495.035 185.65 493.448C184.434 491.895 183.033 490.687 181.447 489.824C179.861 488.961 178.177 488.436 176.394 488.25C174.621 488.098 172.836 488.278 171.039 488.79C169.275 489.293 167.679 490.076 166.251 491.141C164.832 492.24 163.674 493.574 162.777 495.145C161.88 496.716 161.321 498.483 161.101 500.445ZM170.081 498.872C170.95 498.076 172.055 497.488 173.394 497.106C174.733 496.724 175.981 496.643 177.138 496.861C178.303 497.113 179.289 497.6 180.093 498.32C180.897 499.041 181.462 499.976 181.787 501.125C182.103 502.241 182.108 503.317 181.801 504.355C181.504 505.426 180.921 506.359 180.052 507.155C179.183 507.95 178.079 508.539 176.74 508.921C175.433 509.293 174.201 509.37 173.045 509.152C171.889 508.933 170.887 508.452 170.041 507.706C169.237 506.986 168.677 506.068 168.361 504.952C168.035 503.803 168.026 502.709 168.332 501.672C168.639 500.635 169.222 499.702 170.081 498.872Z" fill="#FA6425"/>
<path fill-rule="evenodd" clip-rule="evenodd" d="M128.961 474.122C128.75 476.119 128.965 478.249 129.606 480.514C130.247 482.779 131.176 484.688 132.393 486.241C133.609 487.794 135.01 489.002 136.596 489.866C138.182 490.729 139.867 491.253 141.649 491.439C143.432 491.626 145.205 491.467 146.969 490.964C148.766 490.452 150.374 489.647 151.793 488.549C153.211 487.45 154.369 486.115 155.266 484.545C156.163 482.974 156.722 481.207 156.943 479.244C157.164 477.282 156.953 475.168 156.312 472.903C155.671 470.638 154.737 468.712 153.511 467.125C152.295 465.572 150.893 464.364 149.307 463.501C147.721 462.638 146.037 462.113 144.254 461.927C142.481 461.775 140.697 461.955 138.9 462.467C137.136 462.969 135.539 463.753 134.111 464.818C132.692 465.916 131.534 467.251 130.638 468.822C129.741 470.393 129.182 472.159 128.961 474.122ZM137.942 472.549C138.811 471.753 139.915 471.164 141.255 470.783C142.594 470.401 143.842 470.319 144.998 470.538C146.164 470.79 147.149 471.277 147.953 471.997C148.757 472.718 149.322 473.653 149.648 474.802C149.964 475.918 149.968 476.994 149.662 478.031C149.365 479.102 148.782 480.036 147.913 480.832C147.044 481.627 145.939 482.216 144.6 482.598C143.293 482.97 142.062 483.047 140.906 482.829C139.749 482.61 138.748 482.128 137.901 481.383C137.097 480.663 136.537 479.744 136.221 478.629C135.896 477.48 135.886 476.386 136.193 475.349C136.499 474.312 137.082 473.378 137.942 472.549Z" fill="#FA6425"/>
<path d="M140.962 520.424L138.25 514.424L176.856 460.449L179.568 466.448L140.962 520.424Z" fill="#FA6425"/>
<path d="M337.24 459.909L338.384 466.392L287.586 508.915L286.442 502.432L337.24 459.909Z" fill="#FA6425"/>
<path fill-rule="evenodd" clip-rule="evenodd" d="M337.413 507.705C338.112 505.827 338.431 503.712 338.37 501.361C338.309 499.009 337.881 496.929 337.086 495.122C336.291 493.315 335.231 491.795 333.907 490.562C332.583 489.329 331.08 488.399 329.397 487.772C327.715 487.145 325.956 486.853 324.121 486.897C322.252 486.941 320.494 487.317 318.846 488.023C317.198 488.73 315.745 489.73 314.487 491.025C313.228 492.319 312.249 493.888 311.549 495.731C310.849 497.574 310.529 499.671 310.59 502.023C310.651 504.374 311.08 506.471 311.876 508.314C312.671 510.121 313.73 511.641 315.054 512.874C316.378 514.107 317.882 515.037 319.564 515.664C321.246 516.256 323.021 516.53 324.89 516.485C326.725 516.442 328.467 516.084 330.115 515.413C331.763 514.706 333.216 513.705 334.475 512.411C335.733 511.117 336.713 509.548 337.413 507.705ZM328.315 506.974C327.275 507.525 326.059 507.818 324.666 507.851C323.272 507.884 322.042 507.65 320.975 507.149C319.907 506.612 319.072 505.894 318.471 504.996C317.87 504.097 317.553 503.051 317.522 501.857C317.492 500.699 317.754 499.657 318.308 498.73C318.861 497.769 319.658 497.012 320.697 496.461C321.737 495.909 322.954 495.617 324.347 495.584C325.706 495.551 326.919 495.786 327.986 496.287C329.054 496.789 329.905 497.506 330.542 498.439C331.143 499.338 331.459 500.366 331.489 501.525C331.52 502.718 331.258 503.778 330.704 504.704C330.15 505.63 329.354 506.387 328.315 506.974Z" fill="#FA6425"/>
<path fill-rule="evenodd" clip-rule="evenodd" d="M312.766 474.181C313.466 472.303 313.785 470.188 313.724 467.836C313.663 465.485 313.235 463.405 312.44 461.598C311.645 459.79 310.585 458.27 309.261 457.037C307.937 455.805 306.433 454.875 304.751 454.247C303.069 453.62 301.31 453.329 299.475 453.372C297.606 453.417 295.848 453.792 294.2 454.499C292.552 455.205 291.099 456.206 289.84 457.5C288.582 458.795 287.603 460.363 286.902 462.206C286.202 464.049 285.883 466.147 285.944 468.498C286.005 470.85 286.433 472.947 287.229 474.789C288.024 476.597 289.084 478.117 290.408 479.35C291.732 480.582 293.235 481.512 294.918 482.14C296.599 482.732 298.375 483.006 300.244 482.961C302.079 482.917 303.82 482.56 305.469 481.888C307.117 481.182 308.57 480.181 309.828 478.887C311.087 477.593 312.066 476.024 312.766 474.181ZM303.669 473.449C302.629 474.001 301.412 474.293 300.019 474.327C298.626 474.36 297.396 474.126 296.329 473.624C295.261 473.088 294.426 472.37 293.825 471.471C293.223 470.573 292.907 469.526 292.876 468.333C292.846 467.175 293.108 466.132 293.662 465.206C294.215 464.245 295.011 463.488 296.051 462.937C297.091 462.385 298.307 462.093 299.701 462.059C301.06 462.027 302.273 462.261 303.34 462.763C304.407 463.264 305.259 463.981 305.895 464.915C306.497 465.813 306.812 466.842 306.842 468C306.873 469.194 306.612 470.253 306.058 471.18C305.504 472.106 304.708 472.863 303.669 473.449Z" fill="#FA6425"/>
<path d="M39.3583 516.69L43.5322 511.614L-21.7927 500.64L-25.9666 505.717L39.3583 516.69Z" fill="#FA6425"/>
<path fill-rule="evenodd" clip-rule="evenodd" d="M7.38148 542.763C9.26154 542.075 11.0738 540.945 12.8183 539.372C14.5628 537.8 15.8619 536.125 16.7157 534.349C17.5695 532.572 18.0332 530.781 18.1067 528.976C18.1803 527.17 17.9074 525.425 17.2883 523.741C16.6691 522.057 15.7458 520.532 14.5183 519.167C13.268 517.777 11.8386 516.686 10.23 515.893C8.62149 515.1 6.91666 514.646 5.11552 514.531C3.31438 514.415 1.48678 514.69 -0.367217 515.354C-2.22124 516.019 -4.02049 517.137 -5.76495 518.71C-7.50943 520.282 -8.82159 521.969 -9.70145 523.769C-10.5553 525.545 -11.019 527.336 -11.0925 529.141C-11.166 530.947 -10.8932 532.692 -10.274 534.376C-9.62881 536.037 -8.6811 537.563 -7.43084 538.953C-6.20331 540.318 -4.7983 541.408 -3.21578 542.224C-1.60722 543.017 0.0976343 543.471 1.89877 543.586C3.69991 543.702 5.52748 543.427 7.38148 542.763ZM2.0151 535.381C0.919859 534.949 -0.0937615 534.215 -1.02576 533.179C-1.95776 532.143 -2.58085 531.057 -2.89498 529.921C-3.18307 528.762 -3.18186 527.663 -2.89134 526.623C-2.60082 525.583 -2.01292 524.664 -1.12768 523.866C-0.268443 523.091 0.692853 522.614 1.75626 522.433C2.8457 522.229 3.93802 522.343 5.03326 522.774C6.12851 523.206 7.14213 523.94 8.07413 524.976C8.9834 525.987 9.59512 527.06 9.90925 528.196C10.2234 529.332 10.2335 530.444 9.93971 531.532C9.64919 532.572 9.07432 533.48 8.21511 534.254C7.32984 535.052 6.35551 535.541 5.29211 535.722C4.2287 535.903 3.13638 535.789 2.0151 535.381Z" fill="#FA6425"/>
<path fill-rule="evenodd" clip-rule="evenodd" d="M16.7753 502.294C18.6554 501.606 20.4676 500.475 22.2121 498.903C23.9566 497.33 25.2557 495.656 26.1095 493.879C26.9634 492.103 27.427 490.312 27.5005 488.506C27.5741 486.701 27.3012 484.956 26.6821 483.272C26.0629 481.587 25.1396 480.062 23.9121 478.698C22.6618 477.307 21.2324 476.216 19.6239 475.424C18.0153 474.631 16.3104 474.177 14.5093 474.061C12.7082 473.946 10.8806 474.22 9.0266 474.885C7.17257 475.549 5.37332 476.668 3.62887 478.24C1.88438 479.813 0.572225 481.499 -0.307637 483.299C-1.16147 485.076 -1.62513 486.867 -1.69864 488.672C-1.77216 490.477 -1.49935 492.222 -0.880198 493.907C-0.234991 495.568 0.712717 497.093 1.96297 498.484C3.1905 499.848 4.59552 500.939 6.17804 501.755C7.78659 502.547 9.49145 503.001 11.2926 503.117C13.0937 503.232 14.9213 502.958 16.7753 502.294ZM11.4089 494.911C10.3137 494.48 9.30006 493.746 8.36806 492.71C7.43606 491.673 6.81299 490.587 6.49884 489.452C6.21076 488.293 6.21195 487.193 6.50247 486.153C6.793 485.113 7.38089 484.195 8.26614 483.396C9.12537 482.622 10.0867 482.144 11.1501 481.964C12.2395 481.76 13.3319 481.874 14.4271 482.305C15.5223 482.736 16.5359 483.47 17.4679 484.507C18.3772 485.518 18.9889 486.591 19.3031 487.727C19.6172 488.862 19.6274 489.974 19.3335 491.063C19.043 492.103 18.4681 493.01 17.6089 493.785C16.7237 494.583 15.7493 495.072 14.6859 495.253C13.6225 495.433 12.5302 495.319 11.4089 494.911Z" fill="#FA6425"/>
<path fill-rule="evenodd" clip-rule="evenodd" d="M251.955 546.772C253.364 548.195 255.147 549.371 257.304 550.299C259.461 551.228 261.525 551.709 263.496 551.743C265.467 551.776 267.289 551.448 268.961 550.759C270.633 550.071 272.106 549.092 273.379 547.824C274.653 546.556 275.654 545.078 276.383 543.39C277.126 541.671 277.522 539.914 277.572 538.119C277.622 536.324 277.324 534.583 276.679 532.896C276.033 531.209 275.021 529.662 273.644 528.253C272.268 526.845 270.501 525.676 268.344 524.747C266.187 523.818 264.107 523.33 262.103 523.283C260.132 523.25 258.31 523.578 256.638 524.266C254.966 524.955 253.493 525.933 252.22 527.201C250.979 528.483 249.987 529.984 249.244 531.703C248.515 533.391 248.109 535.125 248.027 536.907C247.977 538.702 248.275 540.443 248.921 542.129C249.567 543.816 250.578 545.364 251.955 546.772ZM256.43 538.801C256.365 537.624 256.61 536.395 257.164 535.114C257.717 533.832 258.445 532.811 259.347 532.05C260.28 531.303 261.28 530.844 262.347 530.673C263.414 530.502 264.494 530.652 265.589 531.123C266.651 531.581 267.486 532.256 268.094 533.147C268.733 534.053 269.085 535.094 269.149 536.271C269.214 537.448 268.969 538.677 268.415 539.959C267.875 541.209 267.154 542.215 266.253 542.976C265.351 543.737 264.344 544.211 263.232 544.4C262.166 544.571 261.101 544.427 260.039 543.97C258.944 543.499 258.093 542.817 257.486 541.925C256.878 541.033 256.526 539.992 256.43 538.801Z" fill="#FA6425"/>
<path fill-rule="evenodd" clip-rule="evenodd" d="M211.245 555.163C212.654 556.585 214.437 557.761 216.594 558.69C218.751 559.619 220.815 560.1 222.786 560.133C224.757 560.166 226.579 559.838 228.251 559.15C229.923 558.461 231.396 557.483 232.669 556.215C233.942 554.946 234.944 553.468 235.673 551.78C236.416 550.061 236.812 548.304 236.862 546.509C236.912 544.714 236.614 542.973 235.968 541.287C235.323 539.6 234.311 538.052 232.934 536.643C231.557 535.235 229.79 534.066 227.633 533.137C225.476 532.208 223.396 531.72 221.393 531.673C219.422 531.64 217.6 531.968 215.928 532.656C214.256 533.345 212.783 534.324 211.51 535.592C210.269 536.874 209.277 538.374 208.534 540.093C207.805 541.781 207.399 543.516 207.317 545.297C207.267 547.092 207.565 548.833 208.211 550.52C208.856 552.207 209.868 553.754 211.245 555.163ZM215.719 547.192C215.655 546.015 215.9 544.785 216.454 543.504C217.007 542.222 217.735 541.201 218.636 540.44C219.57 539.693 220.57 539.234 221.637 539.063C222.703 538.892 223.784 539.042 224.878 539.514C225.941 539.971 226.776 540.646 227.383 541.538C228.023 542.443 228.375 543.485 228.439 544.662C228.503 545.838 228.259 547.068 227.705 548.349C227.165 549.599 226.444 550.605 225.543 551.366C224.641 552.127 223.634 552.602 222.522 552.79C221.455 552.961 220.391 552.818 219.328 552.36C218.234 551.889 217.383 551.207 216.775 550.315C216.168 549.424 215.816 548.382 215.719 547.192Z" fill="#FA6425"/>
<path d="M254.635 575.014L248.28 573.341L231.025 509.322L237.38 510.995L254.635 575.014Z" fill="#FA6425"/>
<path fill-rule="evenodd" clip-rule="evenodd" d="M329.867 391.903C327.524 392.068 325.4 391.84 323.494 391.219C321.623 390.596 320.014 389.68 318.665 388.471C317.316 387.262 316.251 385.845 315.47 384.218C314.725 382.59 314.288 380.853 314.16 379.009C314.029 377.131 314.221 375.334 314.734 373.616C315.282 371.896 316.141 370.343 317.31 368.957C318.478 367.571 319.946 366.438 321.712 365.559C323.513 364.677 325.586 364.154 327.928 363.989C330.271 363.824 332.378 364.053 334.249 364.676C336.119 365.299 337.729 366.215 339.078 367.424C340.427 368.633 341.492 370.051 342.273 371.677C343.053 373.303 343.509 375.056 343.639 376.934C343.767 378.777 343.557 380.559 343.009 382.279C342.46 383.999 341.602 385.552 340.433 386.938C339.264 388.325 337.797 389.457 336.031 390.337C334.264 391.216 332.21 391.738 329.867 391.903ZM322.762 378.404C322.859 379.804 323.207 381.014 323.805 382.036C324.438 383.055 325.229 383.823 326.179 384.339C327.128 384.856 328.198 385.072 329.387 384.988C330.541 384.907 331.552 384.544 332.421 383.9C333.322 383.219 333.999 382.33 334.45 381.235C334.901 380.14 335.079 378.909 334.984 377.543C334.887 376.143 334.539 374.932 333.941 373.911C333.343 372.889 332.552 372.121 331.567 371.607C330.618 371.091 329.566 370.873 328.412 370.955C327.223 371.038 326.194 371.403 325.325 372.047C324.456 372.691 323.779 373.563 323.293 374.661C322.842 375.756 322.665 377.004 322.762 378.404Z" fill="#FA6425"/>
<path fill-rule="evenodd" clip-rule="evenodd" d="M297.56 418.17C295.217 418.335 293.093 418.107 291.188 417.486C289.317 416.863 287.707 415.947 286.358 414.738C285.009 413.53 283.945 412.112 283.164 410.486C282.418 408.857 281.981 407.12 281.853 405.277C281.723 403.399 281.914 401.601 282.428 399.883C282.976 398.164 283.834 396.61 285.003 395.224C286.172 393.838 287.64 392.705 289.406 391.826C291.207 390.944 293.279 390.421 295.622 390.256C297.965 390.091 300.072 390.32 301.942 390.943C303.813 391.567 305.423 392.483 306.772 393.691C308.121 394.9 309.186 396.318 309.966 397.944C310.747 399.571 311.202 401.323 311.333 403.201C311.461 405.045 311.251 406.826 310.702 408.546C310.154 410.266 309.296 411.819 308.127 413.206C306.958 414.592 305.49 415.724 303.724 416.604C301.958 417.483 299.903 418.005 297.56 418.17ZM290.456 404.671C290.553 406.071 290.901 407.282 291.499 408.303C292.132 409.322 292.923 410.09 293.873 410.606C294.822 411.123 295.891 411.339 297.08 411.256C298.234 411.174 299.246 410.811 300.115 410.167C301.016 409.486 301.692 408.598 302.143 407.502C302.594 406.407 302.773 405.176 302.678 403.81C302.58 402.41 302.233 401.199 301.635 400.178C301.037 399.156 300.246 398.389 299.261 397.875C298.312 397.358 297.26 397.141 296.106 397.222C294.917 397.306 293.888 397.67 293.019 398.314C292.15 398.959 291.473 399.83 290.987 400.928C290.536 402.023 290.359 403.271 290.456 404.671Z" fill="#FA6425"/>
<path d="M332.441 416.645L338.856 415.208L294.103 365.984L287.689 367.421L332.441 416.645Z" fill="#FA6425"/>
<path d="M253.332 445.045L259.174 442.028L203.324 406.171L197.482 409.188L253.332 445.045Z" fill="#FA6425"/>
<path fill-rule="evenodd" clip-rule="evenodd" d="M244.539 421.937C242.313 422.694 240.199 423.017 238.197 422.907C236.228 422.786 234.437 422.318 232.823 421.501C231.21 420.684 229.818 419.594 228.648 418.231C227.512 416.857 226.647 415.301 226.053 413.562C225.449 411.792 225.176 410.016 225.236 408.236C225.328 406.444 225.764 404.733 226.542 403.103C227.32 401.473 228.452 400.011 229.938 398.715C231.456 397.409 233.329 396.377 235.554 395.621C237.78 394.864 239.877 394.546 241.847 394.667C243.816 394.788 245.607 395.257 247.221 396.074C248.834 396.891 250.226 397.981 251.395 399.344C252.565 400.707 253.452 402.273 254.057 404.044C254.65 405.782 254.901 407.547 254.808 409.339C254.715 411.131 254.28 412.842 253.502 414.472C252.723 416.102 251.592 417.564 250.106 418.86C248.62 420.155 246.765 421.181 244.539 421.937ZM234.225 410.785C234.676 412.105 235.321 413.179 236.16 414.007C237.032 414.825 237.993 415.36 239.044 415.614C240.094 415.868 241.184 415.802 242.314 415.419C243.41 415.046 244.296 414.439 244.973 413.598C245.672 412.714 246.101 411.688 246.258 410.521C246.416 409.354 246.275 408.126 245.835 406.838C245.384 405.519 244.74 404.444 243.901 403.616C243.062 402.787 242.1 402.252 241.017 402.009C239.966 401.756 238.893 401.815 237.796 402.188C236.667 402.572 235.764 403.184 235.087 404.025C234.41 404.866 233.976 405.875 233.786 407.054C233.628 408.221 233.775 409.465 234.225 410.785Z" fill="#FA6425"/>
<path fill-rule="evenodd" clip-rule="evenodd" d="M219.96 455.414C217.735 456.17 215.62 456.494 213.618 456.384C211.649 456.263 209.858 455.794 208.244 454.977C206.631 454.16 205.239 453.07 204.069 451.707C202.933 450.333 202.068 448.777 201.474 447.039C200.87 445.268 200.597 443.493 200.657 441.712C200.749 439.92 201.185 438.209 201.963 436.579C202.741 434.949 203.873 433.487 205.359 432.192C206.878 430.885 208.75 429.853 210.975 429.097C213.201 428.34 215.298 428.022 217.268 428.144C219.237 428.265 221.028 428.734 222.642 429.55C224.255 430.367 225.647 431.457 226.816 432.82C227.986 434.183 228.873 435.749 229.478 437.52C230.071 439.258 230.322 441.024 230.229 442.815C230.136 444.607 229.701 446.318 228.923 447.948C228.144 449.578 227.013 451.04 225.527 452.336C224.041 453.631 222.186 454.657 219.96 455.414ZM209.646 444.261C210.097 445.581 210.742 446.655 211.581 447.484C212.453 448.301 213.414 448.836 214.465 449.09C215.515 449.344 216.605 449.279 217.735 448.895C218.831 448.522 219.717 447.915 220.394 447.075C221.093 446.19 221.522 445.164 221.679 443.997C221.837 442.83 221.696 441.602 221.256 440.315C220.805 438.995 220.161 437.921 219.322 437.092C218.483 436.263 217.521 435.728 216.438 435.485C215.387 435.232 214.314 435.291 213.217 435.664C212.088 436.048 211.185 436.66 210.508 437.501C209.831 438.342 209.397 439.352 209.207 440.53C209.049 441.698 209.196 442.941 209.646 444.261Z" fill="#FA6425"/>
<path fill-rule="evenodd" clip-rule="evenodd" d="M109.986 239.973C112.159 240.909 113.956 242.094 115.375 243.527C116.763 244.946 117.781 246.505 118.432 248.204C119.083 249.904 119.383 251.658 119.332 253.466C119.25 255.26 118.841 257.008 118.106 258.708C117.358 260.44 116.359 261.952 115.108 263.243C113.825 264.521 112.342 265.507 110.657 266.2C108.973 266.894 107.137 267.224 105.152 267.191C103.133 267.143 101.038 266.652 98.8648 265.716C96.6918 264.78 94.9117 263.603 93.5245 262.184C92.1373 260.765 91.1184 259.205 90.4678 257.506C89.8171 255.807 89.517 254.053 89.5675 252.244C89.6178 250.436 90.0172 248.666 90.7654 246.934C91.5 245.234 92.5087 243.745 93.7916 242.467C95.0744 241.189 96.5581 240.204 98.2427 239.51C99.9272 238.816 101.762 238.486 103.748 238.52C105.734 238.553 107.813 239.038 109.986 239.973ZM110.128 255.272C110.686 253.981 110.932 252.743 110.867 251.557C110.77 250.357 110.416 249.308 109.804 248.41C109.192 247.512 108.334 246.825 107.231 246.35C106.161 245.889 105.089 245.745 104.014 245.917C102.894 246.107 101.879 246.585 100.971 247.351C100.063 248.118 99.3367 249.131 98.7925 250.391C98.2347 251.682 97.9882 252.92 98.053 254.106C98.1177 255.292 98.4723 256.341 99.1167 257.253C99.7287 258.152 100.57 258.831 101.64 259.292C102.743 259.767 103.831 259.918 104.906 259.746C105.981 259.574 106.988 259.112 107.929 258.359C108.837 257.592 109.57 256.563 110.128 255.272Z" fill="#FA6425"/>
<path fill-rule="evenodd" clip-rule="evenodd" d="M68.9732 248.426C71.1462 249.362 72.9425 250.546 74.3622 251.979C75.7494 253.398 76.7683 254.958 77.4189 256.657C78.0695 258.356 78.3696 260.11 78.3192 261.919C78.2364 263.713 77.8277 265.46 77.0931 267.161C76.3448 268.893 75.3455 270.404 74.0951 271.696C72.8123 272.974 71.3286 273.959 69.6441 274.653C67.9595 275.347 66.1243 275.677 64.1385 275.643C62.1203 275.596 60.0247 275.104 57.8517 274.169C55.6787 273.233 53.8986 272.055 52.5114 270.636C51.1241 269.217 50.1053 267.658 49.4546 265.959C48.804 264.259 48.5039 262.505 48.5543 260.697C48.6047 258.889 49.004 257.119 49.7522 255.387C50.4868 253.686 51.4956 252.197 52.7785 250.92C54.0613 249.642 55.545 248.656 57.2295 247.963C58.9141 247.269 60.7492 246.939 62.735 246.972C64.7208 247.006 66.8002 247.49 68.9732 248.426ZM69.1146 263.725C69.6724 262.434 69.9189 261.196 69.8541 260.01C69.7569 258.81 69.4023 257.761 68.7904 256.863C68.1784 255.964 67.3211 255.278 66.2184 254.803C65.1481 254.342 64.0757 254.197 63.0011 254.37C61.8806 254.559 60.8661 255.038 59.9579 255.804C59.0497 256.571 58.3235 257.584 57.7794 258.844C57.2216 260.135 56.9751 261.373 57.0398 262.559C57.1046 263.744 57.4592 264.793 58.1036 265.706C58.7156 266.604 59.5567 267.284 60.627 267.745C61.7297 268.22 62.8183 268.371 63.8928 268.199C64.9673 268.027 65.975 267.564 66.9156 266.812C67.8238 266.045 68.5568 265.016 69.1146 263.725Z" fill="#FA6425"/>
<path d="M78.0644 225.213L71.6619 223.528L89.0454 288.023L95.4479 289.708L78.0644 225.213Z" fill="#FA6425"/>
<path d="M278.108 289.121L282.321 284.009L348.258 295.06L344.045 300.172L278.108 289.121Z" fill="#FA6425"/>
<path fill-rule="evenodd" clip-rule="evenodd" d="M309.109 261.166C310.87 259.583 312.699 258.445 314.597 257.752C316.469 257.083 318.313 256.806 320.131 256.923C321.949 257.039 323.67 257.496 325.294 258.294C326.891 259.116 328.309 260.214 329.548 261.589C330.81 262.989 331.767 264.525 332.418 266.198C333.043 267.894 333.318 269.651 333.244 271.47C333.17 273.288 332.702 275.091 331.84 276.881C330.952 278.693 329.628 280.391 327.867 281.975C326.106 283.559 324.29 284.685 322.418 285.354C320.547 286.023 318.702 286.3 316.884 286.183C315.066 286.067 313.345 285.61 311.722 284.812C310.098 284.014 308.655 282.914 307.393 281.515C306.154 280.14 305.222 278.605 304.597 276.908C303.973 275.212 303.697 273.455 303.771 271.636C303.846 269.818 304.314 268.015 305.175 266.226C306.037 264.437 307.349 262.75 309.109 261.166ZM323.083 267.403C322.142 266.36 321.119 265.621 320.014 265.186C318.882 264.775 317.779 264.661 316.706 264.843C315.633 265.025 314.649 265.517 313.756 266.321C312.888 267.101 312.308 268.015 312.015 269.062C311.718 270.158 311.729 271.278 312.046 272.422C312.363 273.565 312.98 274.646 313.898 275.664C314.839 276.708 315.862 277.447 316.967 277.882C318.073 278.316 319.175 278.431 320.275 278.225C321.348 278.043 322.319 277.562 323.186 276.782C324.08 275.979 324.673 275.053 324.966 274.006C325.259 272.959 325.261 271.852 324.97 270.684C324.653 269.541 324.024 268.447 323.083 267.403Z" fill="#FA6425"/>
<path fill-rule="evenodd" clip-rule="evenodd" d="M299.628 301.922C301.388 300.338 303.218 299.2 305.115 298.507C306.987 297.838 308.831 297.562 310.649 297.678C312.467 297.794 314.188 298.251 315.812 299.05C317.409 299.871 318.827 300.97 320.066 302.344C321.328 303.744 322.285 305.28 322.936 306.953C323.561 308.649 323.837 310.407 323.762 312.225C323.688 314.043 323.22 315.847 322.358 317.636C321.47 319.448 320.146 321.147 318.385 322.73C316.624 324.314 314.808 325.44 312.937 326.109C311.065 326.779 309.22 327.055 307.402 326.939C305.584 326.822 303.864 326.365 302.24 325.567C300.616 324.769 299.174 323.67 297.912 322.27C296.673 320.895 295.741 319.36 295.116 317.663C294.491 315.967 294.215 314.21 294.29 312.392C294.364 310.574 294.832 308.77 295.694 306.981C296.555 305.192 297.867 303.505 299.628 301.922ZM313.601 308.159C312.661 307.115 311.637 306.376 310.532 305.942C309.4 305.531 308.298 305.416 307.224 305.598C306.151 305.78 305.167 306.273 304.274 307.076C303.407 307.856 302.826 308.77 302.533 309.817C302.236 310.913 302.247 312.033 302.564 313.177C302.881 314.321 303.498 315.402 304.416 316.42C305.357 317.463 306.38 318.202 307.485 318.637C308.591 319.071 309.694 319.186 310.793 318.98C311.867 318.799 312.837 318.318 313.704 317.538C314.598 316.734 315.191 315.809 315.484 314.761C315.778 313.714 315.779 312.607 315.488 311.44C315.171 310.296 314.542 309.202 313.601 308.159Z" fill="#FA6425"/>
<path fill-rule="evenodd" clip-rule="evenodd" d="M267.887 318.986C269.848 320.313 271.394 321.815 272.525 323.49C273.626 325.146 274.34 326.871 274.667 328.665C274.994 330.46 274.968 332.242 274.587 334.012C274.177 335.762 273.456 337.405 272.423 338.942C271.372 340.506 270.114 341.807 268.65 342.844C267.158 343.861 265.521 344.554 263.741 344.922C261.961 345.289 260.099 345.271 258.157 344.867C256.185 344.442 254.219 343.567 252.258 342.239C250.297 340.912 248.765 339.42 247.664 337.764C246.563 336.108 245.849 334.383 245.521 332.589C245.194 330.795 245.221 329.013 245.602 327.243C245.983 325.473 246.699 323.805 247.75 322.241C248.783 320.705 250.045 319.428 251.538 318.411C253.031 317.393 254.668 316.701 256.448 316.333C258.228 315.965 260.089 315.984 262.032 316.388C263.975 316.792 265.926 317.658 267.887 318.986ZM265.223 334.068C266.007 332.902 266.476 331.729 266.63 330.55C266.754 329.351 266.598 328.253 266.162 327.254C265.726 326.255 265.011 325.419 264.016 324.746C263.05 324.092 262.024 323.749 260.938 323.718C259.804 323.695 258.721 323.976 257.689 324.56C256.657 325.145 255.759 326.006 254.994 327.144C254.21 328.31 253.741 329.483 253.588 330.662C253.434 331.841 253.59 332.939 254.055 333.958C254.491 334.957 255.192 335.783 256.158 336.437C257.153 337.11 258.193 337.463 259.279 337.494C260.365 337.526 261.439 337.259 262.5 336.694C263.532 336.11 264.439 335.234 265.223 334.068Z" fill="#FA6425"/>
<path fill-rule="evenodd" clip-rule="evenodd" d="M226.092 319.633C228.053 320.961 229.599 322.462 230.729 324.138C231.831 325.794 232.545 327.519 232.872 329.313C233.199 331.107 233.172 332.889 232.792 334.66C232.382 336.41 231.661 338.053 230.628 339.589C229.577 341.154 228.319 342.454 226.855 343.492C225.362 344.509 223.726 345.202 221.946 345.569C220.166 345.937 218.304 345.919 216.362 345.514C214.39 345.09 212.423 344.214 210.462 342.887C208.501 341.56 206.97 340.068 205.869 338.412C204.768 336.756 204.053 335.031 203.726 333.237C203.399 331.443 203.426 329.661 203.807 327.89C204.187 326.12 204.904 324.453 205.955 322.888C206.987 321.352 208.25 320.076 209.743 319.058C211.236 318.041 212.873 317.348 214.653 316.981C216.433 316.613 218.294 316.631 220.237 317.036C222.179 317.44 224.131 318.306 226.092 319.633ZM223.428 334.716C224.212 333.549 224.681 332.377 224.834 331.198C224.959 329.999 224.803 328.9 224.367 327.902C223.931 326.903 223.216 326.067 222.22 325.393C221.255 324.74 220.229 324.397 219.143 324.365C218.008 324.343 216.925 324.623 215.894 325.208C214.862 325.793 213.964 326.654 213.199 327.792C212.415 328.958 211.946 330.13 211.793 331.309C211.639 332.488 211.795 333.587 212.26 334.606C212.696 335.604 213.397 336.43 214.363 337.084C215.358 337.758 216.398 338.11 217.484 338.142C218.57 338.173 219.644 337.907 220.705 337.342C221.736 336.757 222.644 335.882 223.428 334.716Z" fill="#FA6425"/>
<path d="M239.266 298.489L233.292 295.633L238.535 362.355L244.509 365.211L239.266 298.489Z" fill="#FA6425"/>
<path fill-rule="evenodd" clip-rule="evenodd" d="M2.70418 283.68C1.9997 285.572 1.67825 287.703 1.73978 290.072C1.80134 292.441 2.23256 294.536 3.03348 296.357C3.8344 298.177 4.90184 299.709 6.23581 300.951C7.56979 302.193 9.08423 303.13 10.7792 303.762C12.4741 304.393 14.2459 304.687 16.0945 304.643C17.9774 304.598 19.7489 304.22 21.4089 303.508C23.069 302.796 24.5329 301.789 25.8007 300.485C27.0686 299.181 28.0552 297.6 28.7606 295.744C29.466 293.887 29.7879 291.774 29.7264 289.405C29.6648 287.036 29.2331 284.923 28.4313 283.067C27.6304 281.246 26.5629 279.715 25.229 278.473C23.895 277.231 22.3805 276.294 20.6856 275.662C18.9916 275.065 17.2031 274.79 15.3202 274.834C13.4716 274.878 11.7168 275.239 10.0558 275.915C8.39581 276.627 6.93188 277.635 5.66403 278.939C4.39617 280.243 3.40957 281.823 2.70418 283.68ZM11.8696 284.417C12.917 283.861 14.1426 283.567 15.5462 283.533C16.9498 283.5 18.1891 283.735 19.2642 284.241C20.3401 284.781 21.1811 285.504 21.7869 286.41C22.3928 287.315 22.7113 288.369 22.7426 289.571C22.7729 290.738 22.509 291.788 21.9509 292.721C21.3937 293.69 20.5914 294.452 19.5439 295.008C18.4964 295.564 17.2708 295.858 15.8672 295.892C14.4979 295.924 13.2756 295.688 12.2006 295.183C11.1256 294.678 10.2675 293.955 9.62651 293.015C9.02065 292.11 8.70256 291.073 8.67223 289.907C8.641 288.704 8.90444 287.636 9.46255 286.703C10.0207 285.77 10.823 285.008 11.8696 284.417Z" fill="#FA6425"/>
<path fill-rule="evenodd" clip-rule="evenodd" d="M-22.1255 249.906C-22.8299 251.798 -23.1514 253.929 -23.0899 256.298C-23.0283 258.667 -22.5971 260.762 -21.7962 262.583C-20.9953 264.404 -19.9278 265.935 -18.5939 267.177C-17.2599 268.419 -15.7454 269.356 -14.0505 269.988C-12.3555 270.62 -10.5838 270.914 -8.73511 270.87C-6.85224 270.825 -5.08077 270.446 -3.42075 269.735C-1.76071 269.023 -0.296777 268.015 0.971076 266.711C2.23891 265.407 3.22552 263.827 3.9309 261.97C4.63631 260.113 4.95823 258 4.8967 255.631C4.83517 253.262 4.40348 251.149 3.60165 249.293C2.80073 247.472 1.73327 245.941 0.399292 244.699C-0.934683 243.457 -2.44912 242.52 -4.14405 241.888C-5.83807 241.292 -7.62651 241.016 -9.50941 241.061C-11.3581 241.105 -13.1129 241.465 -14.7738 242.142C-16.4338 242.853 -17.8978 243.861 -19.1656 245.165C-20.4335 246.469 -21.4201 248.05 -22.1255 249.906ZM-12.9601 250.643C-11.9126 250.087 -10.6871 249.793 -9.28345 249.759C-7.87984 249.726 -6.64051 249.962 -5.56548 250.467C-4.48951 251.007 -3.64859 251.73 -3.04273 252.636C-2.43687 253.541 -2.11835 254.595 -2.08712 255.798C-2.0568 256.964 -2.3207 258.014 -2.87881 258.948C-3.43599 259.916 -4.23833 260.678 -5.2858 261.234C-6.3333 261.79 -7.55883 262.084 -8.96245 262.118C-10.3318 262.151 -11.554 261.914 -12.6291 261.409C-13.7041 260.904 -14.5622 260.181 -15.2032 259.241C-15.809 258.336 -16.1271 257.3 -16.1574 256.133C-16.1887 254.931 -15.9252 253.863 -15.3671 252.93C-14.809 251.996 -14.0067 251.234 -12.9601 250.643Z" fill="#FA6425"/>
<path d="M-21.9515 298.058L-23.1044 291.526L28.0716 248.688L29.2245 255.219L-21.9515 298.058Z" fill="#FA6425"/>
<path fill-rule="evenodd" clip-rule="evenodd" d="M20.773 361.695C23.1367 361.53 25.2797 361.758 27.202 362.379C29.0891 363.003 30.7131 363.92 32.074 365.129C33.435 366.339 34.5092 367.758 35.2967 369.385C36.0489 371.015 36.4896 372.752 36.6187 374.597C36.7503 376.477 36.5572 378.276 36.0394 379.994C35.4863 381.715 34.6202 383.269 33.4411 384.656C32.2619 386.044 30.7815 387.177 28.9996 388.057C27.1825 388.939 25.0921 389.463 22.7284 389.628C20.3648 389.793 18.2394 389.564 16.3523 388.94C14.4653 388.317 12.8412 387.4 11.4803 386.19C10.1194 384.981 9.04519 383.562 8.2577 381.935C7.4702 380.307 7.01066 378.554 6.87911 376.675C6.74995 374.83 6.9619 373.046 7.51498 371.325C8.06807 369.604 8.93416 368.05 10.1133 366.663C11.2924 365.276 12.7729 364.143 14.5548 363.263C16.3366 362.383 18.4094 361.86 20.773 361.695ZM27.9403 375.204C27.8422 373.803 27.4915 372.591 26.8882 371.569C26.2496 370.549 25.4513 369.781 24.4934 369.264C23.5355 368.747 22.4568 368.531 21.2574 368.614C20.0932 368.696 19.0728 369.059 18.1962 369.704C17.2868 370.385 16.6045 371.274 16.1495 372.37C15.6945 373.467 15.5148 374.698 15.6105 376.065C15.7086 377.466 16.0593 378.677 16.6626 379.7C17.2659 380.722 18.0642 381.49 19.0574 382.004C20.0153 382.521 21.0763 382.739 22.2405 382.658C23.44 382.574 24.478 382.209 25.3545 381.565C26.2311 380.92 26.9145 380.048 27.4048 378.949C27.8599 377.853 28.0384 376.604 27.9403 375.204Z" fill="#FA6425"/>
<path fill-rule="evenodd" clip-rule="evenodd" d="M-11.8187 387.98C-9.45509 387.815 -7.31211 388.043 -5.38973 388.664C-3.50263 389.288 -1.87862 390.204 -0.517705 391.414C0.843212 392.624 1.91741 394.042 2.70493 395.67C3.45714 397.3 3.89782 399.037 4.02701 400.882C4.15856 402.761 3.96543 404.56 3.44765 406.279C2.89455 408 2.02841 409.554 0.849313 410.941C-0.32981 412.328 -1.81029 413.462 -3.59216 414.341C-5.40929 415.224 -7.49967 415.747 -9.8633 415.913C-12.2269 416.078 -14.3523 415.848 -16.2394 415.225C-18.1265 414.601 -19.7505 413.685 -21.1114 412.475C-22.4723 411.265 -23.5466 409.847 -24.3341 408.219C-25.1216 406.592 -25.5811 404.839 -25.7126 402.959C-25.8418 401.114 -25.6299 399.331 -25.0768 397.61C-24.5237 395.889 -23.6576 394.335 -22.4784 392.948C-21.2993 391.561 -19.8188 390.427 -18.037 389.547C-16.2551 388.668 -14.1824 388.145 -11.8187 387.98ZM-4.65148 401.488C-4.74956 400.087 -5.10028 398.876 -5.70358 397.854C-6.34219 396.834 -7.14041 396.065 -8.09832 395.549C-9.05624 395.032 -10.1349 394.815 -11.3344 394.899C-12.4986 394.98 -13.5189 395.344 -14.3955 395.988C-15.305 396.67 -15.9872 397.559 -16.4422 398.655C-16.8973 399.751 -17.0769 400.983 -16.9813 402.349C-16.8832 403.75 -16.5325 404.962 -15.9292 405.984C-15.3258 407.006 -14.5276 407.775 -13.5344 408.289C-12.5765 408.806 -11.5155 409.024 -10.3513 408.942C-9.1518 408.858 -8.11378 408.494 -7.2372 407.849C-6.36063 407.204 -5.67722 406.332 -5.18691 405.234C-4.73189 404.138 -4.5534 402.889 -4.65148 401.488Z" fill="#FA6425"/>
<path d="M-14.4162 363.222L-20.8869 364.659L24.261 413.916L30.7318 412.479L-14.4162 363.222Z" fill="#FA6425"/>
<path d="M149.615 259.585L145.913 265.09L212.54 269.659L216.241 264.155L149.615 259.585Z" fill="#FA6425"/>
<path fill-rule="evenodd" clip-rule="evenodd" d="M174.074 234.213C175.674 232.464 177.385 231.151 179.206 230.276C181.003 229.426 182.811 228.971 184.63 228.909C186.449 228.848 188.204 229.135 189.895 229.772C191.562 230.434 193.077 231.39 194.44 232.638C195.829 233.909 196.927 235.346 197.734 236.949C198.518 238.578 198.959 240.302 199.059 242.12C199.159 243.939 198.866 245.781 198.179 247.648C197.469 249.54 196.314 251.361 194.714 253.111C193.114 254.861 191.416 256.16 189.619 257.009C187.822 257.859 186.014 258.314 184.195 258.376C182.376 258.438 180.621 258.15 178.93 257.514C177.239 256.877 175.699 255.923 174.311 254.652C172.947 253.403 171.874 251.965 171.09 250.336C170.307 248.707 169.865 246.983 169.766 245.165C169.666 243.346 169.959 241.504 170.645 239.637C171.332 237.771 172.475 235.963 174.074 234.213ZM188.566 239.062C187.531 238.114 186.443 237.478 185.302 237.153C184.137 236.854 183.03 236.848 181.98 237.134C180.93 237.42 179.999 238.007 179.187 238.894C178.399 239.756 177.909 240.723 177.718 241.795C177.527 242.916 177.644 244.031 178.069 245.139C178.493 246.247 179.211 247.264 180.221 248.189C181.256 249.136 182.344 249.773 183.485 250.098C184.625 250.423 185.733 250.429 186.807 250.117C187.857 249.831 188.776 249.257 189.564 248.395C190.376 247.507 190.877 246.528 191.069 245.456C191.261 244.384 191.156 243.28 190.756 242.146C190.331 241.038 189.601 240.01 188.566 239.062Z" fill="#FA6425"/>
<path fill-rule="evenodd" clip-rule="evenodd" d="M168.536 275.74C170.136 273.99 171.846 272.678 173.667 271.802C175.464 270.953 177.272 270.497 179.092 270.436C180.911 270.374 182.665 270.662 184.356 271.298C186.023 271.961 187.538 272.916 188.902 274.165C190.29 275.436 191.388 276.873 192.196 278.476C192.979 280.105 193.421 281.828 193.52 283.647C193.62 285.465 193.327 287.308 192.641 289.174C191.931 291.067 190.776 292.888 189.176 294.638C187.576 296.387 185.877 297.687 184.08 298.536C182.283 299.385 180.475 299.841 178.656 299.903C176.837 299.964 175.082 299.677 173.391 299.04C171.7 298.404 170.161 297.45 168.772 296.178C167.409 294.93 166.335 293.491 165.552 291.862C164.768 290.234 164.327 288.51 164.227 286.691C164.127 284.873 164.421 283.03 165.107 281.164C165.793 279.297 166.936 277.489 168.536 275.74ZM183.028 280.588C181.992 279.641 180.904 279.004 179.764 278.679C178.599 278.381 177.492 278.374 176.441 278.66C175.391 278.946 174.46 279.533 173.649 280.421C172.861 281.283 172.371 282.25 172.179 283.321C171.989 284.443 172.106 285.557 172.53 286.666C172.955 287.774 173.672 288.79 174.682 289.715C175.717 290.663 176.805 291.299 177.946 291.624C179.087 291.949 180.194 291.956 181.268 291.643C182.318 291.357 183.237 290.784 184.025 289.922C184.837 289.034 185.339 288.054 185.531 286.982C185.722 285.91 185.618 284.807 185.217 283.673C184.793 282.564 184.063 281.536 183.028 280.588Z" fill="#FA6425"/>
<path fill-rule="evenodd" clip-rule="evenodd" d="M91.836 458.482C89.8895 457.165 88.3552 455.674 87.2329 454.011C86.1397 452.367 85.4307 450.655 85.106 448.874C84.7813 447.093 84.8079 445.324 85.1858 443.567C85.5928 441.829 86.3086 440.198 87.3334 438.674C88.3772 437.121 89.6255 435.829 91.0784 434.8C92.5603 433.79 94.1847 433.103 95.9517 432.738C97.7188 432.373 99.5664 432.391 101.495 432.792C103.452 433.213 105.404 434.083 107.35 435.4C109.297 436.718 110.817 438.198 111.91 439.842C113.003 441.486 113.712 443.198 114.037 444.979C114.361 446.76 114.335 448.529 113.957 450.286C113.579 452.043 112.868 453.698 111.824 455.251C110.799 456.776 109.546 458.043 108.064 459.053C106.582 460.063 104.958 460.75 103.191 461.115C101.424 461.48 99.5762 461.462 97.648 461.06C95.7198 460.659 93.7825 459.8 91.836 458.482ZM94.4802 443.511C93.7021 444.669 93.2368 445.833 93.0843 447.003C92.9608 448.193 93.1155 449.283 93.5482 450.275C93.9809 451.266 94.6912 452.096 95.679 452.765C96.6377 453.413 97.656 453.754 98.734 453.785C99.86 453.808 100.935 453.529 101.959 452.948C102.983 452.368 103.875 451.513 104.634 450.384C105.412 449.226 105.877 448.062 106.03 446.892C106.182 445.722 106.028 444.631 105.566 443.62C105.133 442.629 104.438 441.809 103.479 441.16C102.491 440.491 101.458 440.142 100.38 440.11C99.3022 440.079 98.2367 440.344 97.1835 440.904C96.1594 441.485 95.2583 442.353 94.4802 443.511Z" fill="#FA6425"/>
<path fill-rule="evenodd" clip-rule="evenodd" d="M50.3494 459.125C48.4029 457.807 46.8686 456.317 45.7463 454.654C44.6531 453.01 43.9442 451.297 43.6194 449.517C43.2947 447.736 43.3213 445.967 43.6992 444.21C44.1062 442.472 44.8221 440.841 45.8469 439.316C46.8907 437.764 48.139 436.472 49.5918 435.443C51.0737 434.433 52.6982 433.745 54.4652 433.38C56.2322 433.016 58.0798 433.034 60.0081 433.435C61.9653 433.856 63.9172 434.725 65.8637 436.043C67.8102 437.361 69.33 438.841 70.4232 440.485C71.5164 442.129 72.2254 443.841 72.5501 445.622C72.8748 447.403 72.8482 449.172 72.4703 450.929C72.0924 452.686 71.3815 454.341 70.3377 455.894C69.3129 457.419 68.0596 458.686 66.5777 459.696C65.0958 460.706 63.4713 461.393 61.7043 461.758C59.9373 462.123 58.0897 462.105 56.1615 461.703C54.2333 461.302 52.2959 460.442 50.3494 459.125ZM52.9937 444.154C52.2156 445.312 51.7503 446.476 51.5978 447.646C51.4743 448.836 51.6289 449.926 52.0617 450.918C52.4944 451.909 53.2046 452.739 54.1924 453.407C55.1511 454.056 56.1695 454.396 57.2474 454.428C58.3734 454.45 59.4485 454.172 60.4726 453.591C61.4967 453.011 62.3882 452.156 63.1474 451.027C63.9255 449.869 64.3908 448.705 64.5433 447.535C64.6958 446.365 64.5412 445.274 64.0794 444.263C63.6467 443.272 62.951 442.452 61.9922 441.803C61.0045 441.134 59.9716 440.784 58.8936 440.753C57.8157 440.722 56.7501 440.986 55.697 441.547C54.6729 442.127 53.7718 442.996 52.9937 444.154Z" fill="#FA6425"/>
<path d="M78.7595 479.47L84.6895 482.305L79.4847 416.075L73.5547 413.241L78.7595 479.47Z" fill="#FA6425"/>
<path d="M134.84 344.505L128.954 347.544L185.22 383.668L191.105 380.628L134.84 344.505Z" fill="#FA6425"/>
<path fill-rule="evenodd" clip-rule="evenodd" d="M168.46 334.059C170.702 333.297 172.832 332.971 174.849 333.082C176.833 333.204 178.637 333.676 180.263 334.499C181.888 335.322 183.29 336.42 184.469 337.793C185.614 339.177 186.485 340.745 187.083 342.496C187.692 344.28 187.967 346.069 187.907 347.863C187.813 349.668 187.375 351.392 186.591 353.033C185.807 354.675 184.666 356.149 183.17 357.454C181.64 358.77 179.754 359.809 177.511 360.572C175.269 361.334 173.156 361.654 171.172 361.532C169.189 361.41 167.384 360.938 165.758 360.115C164.133 359.292 162.731 358.194 161.552 356.821C160.374 355.448 159.48 353.869 158.871 352.086C158.274 350.334 158.021 348.556 158.115 346.751C158.208 344.946 158.647 343.222 159.431 341.58C160.215 339.938 161.355 338.465 162.851 337.16C164.348 335.855 166.218 334.821 168.46 334.059ZM178.85 345.295C178.397 343.965 177.747 342.883 176.902 342.048C176.023 341.225 175.055 340.685 173.996 340.43C172.938 340.174 171.84 340.24 170.702 340.626C169.598 341.002 168.704 341.613 168.023 342.46C167.318 343.351 166.887 344.384 166.728 345.56C166.569 346.736 166.711 347.973 167.154 349.27C167.608 350.6 168.258 351.682 169.103 352.517C169.948 353.352 170.917 353.891 172.009 354.135C173.067 354.391 174.148 354.331 175.253 353.956C176.39 353.569 177.3 352.952 177.982 352.105C178.664 351.258 179.101 350.241 179.293 349.053C179.452 347.877 179.304 346.624 178.85 345.295Z" fill="#FA6425"/>
<path fill-rule="evenodd" clip-rule="evenodd" d="M143.698 367.784C145.94 367.022 148.07 366.696 150.087 366.807C152.071 366.929 153.876 367.401 155.501 368.224C157.127 369.047 158.529 370.145 159.707 371.518C160.852 372.902 161.723 374.47 162.321 376.222C162.93 378.005 163.205 379.794 163.145 381.588C163.052 383.393 162.613 385.117 161.829 386.759C161.045 388.401 159.905 389.874 158.408 391.179C156.878 392.495 154.992 393.535 152.75 394.297C150.507 395.059 148.394 395.379 146.411 395.257C144.427 395.135 142.622 394.663 140.997 393.84C139.371 393.017 137.969 391.919 136.791 390.546C135.612 389.173 134.719 387.595 134.11 385.811C133.512 384.06 133.259 382.281 133.353 380.476C133.446 378.671 133.885 376.947 134.669 375.305C135.453 373.664 136.593 372.19 138.09 370.885C139.586 369.58 141.456 368.546 143.698 367.784ZM154.089 379.02C153.635 377.69 152.985 376.608 152.14 375.773C151.261 374.95 150.293 374.41 149.234 374.155C148.176 373.899 147.078 373.965 145.94 374.352C144.836 374.727 143.943 375.338 143.261 376.185C142.556 377.076 142.125 378.11 141.966 379.286C141.807 380.462 141.95 381.698 142.392 382.996C142.846 384.325 143.496 385.408 144.341 386.242C145.186 387.077 146.155 387.616 147.247 387.861C148.305 388.116 149.386 388.056 150.491 387.681C151.629 387.294 152.538 386.677 153.22 385.83C153.902 384.983 154.339 383.966 154.532 382.778C154.69 381.602 154.543 380.35 154.089 379.02Z" fill="#FA6425"/>
</svg>
