<svg width="196" height="419" viewBox="0 0 196 419" fill="none" xmlns="http://www.w3.org/2000/svg">
<path d="M160.115 370.257L153.429 364.74L138.975 451.077L145.661 456.593L160.115 370.257Z" fill="#FA6425"/>
<path fill-rule="evenodd" clip-rule="evenodd" d="M194.457 412.519C193.551 410.034 192.062 407.639 189.991 405.333C187.92 403.028 185.714 401.311 183.374 400.182C181.034 399.054 178.675 398.441 176.297 398.344C173.919 398.246 171.621 398.607 169.402 399.425C167.184 400.244 165.175 401.464 163.378 403.086C161.547 404.739 160.109 406.628 159.065 408.754C158.021 410.88 157.423 413.133 157.271 415.513C157.119 417.894 157.48 420.309 158.356 422.76C159.231 425.21 160.704 427.588 162.775 429.894C164.846 432.199 167.068 433.933 169.438 435.096C171.778 436.225 174.137 436.838 176.515 436.935C178.893 437.032 181.192 436.671 183.41 435.853C185.598 435 187.608 433.748 189.439 432.095C191.236 430.473 192.673 428.616 193.748 426.525C194.791 424.399 195.389 422.145 195.542 419.765C195.694 417.384 195.332 414.969 194.457 412.519ZM184.734 419.611C184.165 421.059 183.199 422.398 181.834 423.63C180.469 424.862 179.038 425.685 177.543 426.1C176.016 426.481 174.568 426.48 173.198 426.096C171.828 425.712 170.618 424.935 169.567 423.765C168.547 422.629 167.918 421.359 167.68 419.953C167.411 418.513 167.561 417.07 168.129 415.622C168.697 414.175 169.664 412.835 171.029 411.603C172.361 410.401 173.774 409.593 175.27 409.178C176.766 408.763 178.231 408.749 179.665 409.138C181.034 409.522 182.229 410.281 183.25 411.417C184.301 412.587 184.945 413.875 185.183 415.28C185.421 416.685 185.271 418.129 184.734 419.611Z" fill="#FA6425"/>
<path fill-rule="evenodd" clip-rule="evenodd" d="M141.153 400.103C140.247 397.619 138.758 395.223 136.687 392.918C134.615 390.612 132.41 388.895 130.07 387.767C127.73 386.638 125.371 386.026 122.993 385.928C120.615 385.831 118.316 386.192 116.098 387.01C113.879 387.828 111.871 389.049 110.073 390.671C108.242 392.323 106.805 394.213 105.761 396.339C104.717 398.465 104.119 400.718 103.967 403.098C103.814 405.479 104.176 407.894 105.051 410.344C105.926 412.795 107.399 415.173 109.471 417.478C111.542 419.784 113.763 421.518 116.134 422.681C118.474 423.809 120.833 424.422 123.211 424.519C125.589 424.617 127.887 424.256 130.106 423.438C132.294 422.585 134.303 421.332 136.134 419.68C137.932 418.058 139.368 416.201 140.443 414.109C141.487 411.983 142.085 409.73 142.237 407.35C142.389 404.969 142.028 402.554 141.153 400.103ZM131.429 407.196C130.861 408.643 129.894 409.983 128.529 411.215C127.164 412.447 125.734 413.27 124.238 413.685C122.711 414.066 121.263 414.064 119.893 413.68C118.524 413.296 117.313 412.519 116.262 411.349C115.242 410.214 114.613 408.943 114.375 407.538C114.106 406.098 114.256 404.654 114.825 403.207C115.393 401.759 116.36 400.42 117.724 399.188C119.056 397.986 120.47 397.178 121.966 396.763C123.461 396.347 124.926 396.334 126.36 396.722C127.73 397.106 128.925 397.866 129.945 399.002C130.996 400.172 131.641 401.459 131.878 402.865C132.116 404.27 131.966 405.714 131.429 407.196Z" fill="#FA6425"/>
<path fill-rule="evenodd" clip-rule="evenodd" d="M35.7161 371.371C33.768 373.782 31.6405 375.631 29.3336 376.916C27.0557 378.166 24.7319 378.902 22.3622 379.124C19.9926 379.345 17.6786 379.106 15.4202 378.405C13.1909 377.668 11.1363 376.537 9.25629 375.011C7.34148 373.457 5.7928 371.664 4.61023 369.632C3.45673 367.563 2.74182 365.344 2.46558 362.975C2.18933 360.606 2.42422 358.175 3.17023 355.682C3.9453 353.153 5.30682 350.683 7.25488 348.272C9.20293 345.861 11.3159 344.031 13.5938 342.781C15.8716 341.531 18.1954 340.796 20.5651 340.574C22.9347 340.352 25.2488 340.592 27.5071 341.293C29.7655 341.993 31.8521 343.121 33.7669 344.675C35.6469 346.201 37.1637 347.998 38.3171 350.066C39.4706 352.134 40.1855 354.353 40.4617 356.722C40.738 359.091 40.5031 361.523 39.7571 364.015C39.0111 366.508 37.6641 368.96 35.7161 371.371ZM16.4088 366.159C17.8362 367.317 19.3077 368.064 20.8231 368.4C22.3675 368.701 23.8136 368.623 25.1614 368.168C26.5093 367.713 27.6774 366.873 28.666 365.65C29.6255 364.462 30.1873 363.16 30.3514 361.744C30.5098 360.264 30.2675 358.816 29.6243 357.4C28.9812 355.985 27.9633 354.712 26.5707 353.581C25.1433 352.423 23.6719 351.676 22.1565 351.339C20.6411 351.003 19.195 351.081 17.8181 351.572C16.4703 352.027 15.3166 352.849 14.3571 354.036C13.3686 355.26 12.7922 356.58 12.6281 357.996C12.464 359.412 12.689 360.845 13.303 362.297C13.9462 363.713 14.9814 365 16.4088 366.159Z" fill="#FA6425"/>
<path fill-rule="evenodd" clip-rule="evenodd" d="M25.4373 431.625C27.7442 430.34 29.8717 428.492 31.8198 426.08C33.7678 423.669 35.1148 421.217 35.8608 418.724C36.6068 416.232 36.8417 413.801 36.5654 411.431C36.2892 409.062 35.5743 406.843 34.4208 404.775C33.2673 402.707 31.7506 400.91 29.8706 399.384C27.9558 397.83 25.8692 396.702 23.6108 396.002C21.3525 395.301 19.0385 395.061 16.6688 395.283C14.2991 395.505 11.9753 396.24 9.69745 397.49C7.41959 398.74 5.30664 400.57 3.35858 402.981C1.41054 405.392 0.0489962 407.862 -0.726074 410.391C-1.47206 412.884 -1.70697 415.315 -1.43073 417.684C-1.15446 420.054 -0.439621 422.272 0.713867 424.341C1.89644 426.373 3.44516 428.166 5.35999 429.72C7.23997 431.246 9.29463 432.377 11.5239 433.114C13.7823 433.815 16.0963 434.054 18.4659 433.833C20.8356 433.611 23.1594 432.875 25.4373 431.625ZM16.9268 423.109C15.4114 422.773 13.9399 422.026 12.5125 420.868C11.0851 419.709 10.0499 418.422 9.40674 417.006C8.79269 415.554 8.5677 414.121 8.73181 412.705C8.89594 411.289 9.47224 409.969 10.4608 408.745C11.4203 407.558 12.574 406.736 13.9218 406.281C15.2987 405.79 16.7448 405.712 18.2602 406.048C19.7756 406.385 21.247 407.132 22.6744 408.29C24.067 409.421 25.0848 410.694 25.728 412.109C26.3711 413.525 26.6135 414.973 26.4551 416.453C26.291 417.869 25.7292 419.171 24.7697 420.359C23.7812 421.582 22.613 422.422 21.2651 422.877C19.9173 423.332 18.4712 423.41 16.9268 423.109Z" fill="#FA6425"/>
<path d="M66.1033 383.537L61.713 391.018L-25.6299 390.217L-21.2396 382.735L66.1033 383.537Z" fill="#FA6425"/>
<path fill-rule="evenodd" clip-rule="evenodd" d="M100.074 265.029C100.398 268.114 100.198 270.929 99.4734 273.473C98.7444 275.971 97.6202 278.138 96.1011 279.974C94.5819 281.81 92.7767 283.281 90.6854 284.386C88.5892 285.445 86.3382 286.101 83.9323 286.354C81.4819 286.612 79.1217 286.442 76.8517 285.843C74.5768 285.198 72.506 284.136 70.6391 282.656C68.7722 281.177 67.2232 279.291 65.9919 277C64.7558 274.662 63.9759 271.951 63.6523 268.865C63.3288 265.78 63.5315 262.988 64.2606 260.49C64.9896 257.992 66.1137 255.825 67.6328 253.989C69.152 252.153 70.9572 250.682 73.0486 249.577C75.1399 248.472 77.4108 247.791 79.8612 247.533C82.2671 247.279 84.6074 247.475 86.8823 248.12C89.1571 248.765 91.228 249.827 93.0948 251.307C94.9617 252.786 96.5108 254.672 97.7421 256.963C98.9734 259.255 99.7508 261.943 100.074 265.029ZM82.7443 275.026C84.571 274.833 86.1387 274.319 87.4474 273.483C88.7513 272.6 89.7191 271.521 90.351 270.243C90.9828 268.966 91.2166 267.545 91.0524 265.979C90.893 264.459 90.3719 263.141 89.4889 262.023C88.5565 260.864 87.3635 260.012 85.91 259.467C84.4564 258.922 82.8386 258.743 81.0565 258.931C79.2298 259.123 77.6621 259.637 76.3534 260.474C75.0447 261.31 74.0768 262.39 73.4498 263.713C72.818 264.99 72.5818 266.388 72.7411 267.908C72.9053 269.474 73.4289 270.815 74.3119 271.933C75.1948 273.051 76.3655 273.905 77.8239 274.496C79.2775 275.042 80.9177 275.218 82.7443 275.026Z" fill="#FA6425"/>
<path fill-rule="evenodd" clip-rule="evenodd" d="M135.316 314.919C136.041 312.375 136.241 309.561 135.917 306.475C135.594 303.39 134.816 300.701 133.585 298.41C132.354 296.118 130.805 294.233 128.938 292.753C127.071 291.274 125 290.211 122.725 289.566C120.45 288.921 118.11 288.726 115.704 288.979C113.254 289.237 110.983 289.919 108.892 291.024C106.8 292.129 104.995 293.599 103.476 295.435C101.957 297.272 100.833 299.439 100.104 301.937C99.3746 304.435 99.1719 307.226 99.4954 310.312C99.819 313.397 100.599 316.109 101.835 318.446C103.066 320.738 104.615 322.623 106.482 324.103C108.349 325.582 110.42 326.644 112.695 327.289C114.965 327.888 117.325 328.059 119.775 327.801C122.181 327.547 124.432 326.891 126.528 325.832C128.62 324.727 130.425 323.257 131.944 321.42C133.463 319.584 134.587 317.417 135.316 314.919ZM123.29 314.929C121.982 315.765 120.414 316.28 118.587 316.472C116.761 316.664 115.121 316.488 113.667 315.943C112.209 315.351 111.038 314.497 110.155 313.379C109.272 312.262 108.748 310.92 108.584 309.354C108.425 307.835 108.661 306.436 109.293 305.159C109.92 303.836 110.888 302.756 112.196 301.92C113.505 301.084 115.073 300.569 116.9 300.377C118.682 300.189 120.3 300.368 121.753 300.913C123.207 301.458 124.4 302.311 125.332 303.47C126.215 304.587 126.736 305.906 126.896 307.425C127.06 308.991 126.826 310.413 126.194 311.69C125.562 312.967 124.594 314.047 123.29 314.929Z" fill="#FA6425"/>
<path d="M130.144 252.095L132.318 260.497L69.9919 321.83L67.8178 313.428L130.144 252.095Z" fill="#FA6425"/>
<path fill-rule="evenodd" clip-rule="evenodd" d="M-33.3373 108.142C-31.3065 110.484 -29.8598 112.905 -28.9971 115.405C-28.1648 117.87 -27.8454 120.292 -28.0389 122.669C-28.2325 125.046 -28.8697 127.289 -29.9505 129.396C-31.0616 131.469 -32.53 133.3 -34.3557 134.891C-36.2153 136.511 -38.2462 137.728 -40.4484 138.542C-42.681 139.322 -44.9852 139.642 -47.3612 139.503C-49.7372 139.365 -52.0852 138.711 -54.4052 137.541C-56.7554 136.337 -58.946 134.564 -60.9768 132.223C-63.0076 129.882 -64.4392 127.478 -65.2715 125.013C-66.1039 122.548 -66.4233 120.126 -66.2297 117.749C-66.0361 115.371 -65.399 113.129 -64.3182 111.022C-63.2374 108.914 -61.7673 107.05 -59.9077 105.43C-58.082 103.84 -56.0528 102.655 -53.8203 101.875C-51.5877 101.096 -49.2834 100.776 -46.9075 100.914C-44.5315 101.053 -42.1835 101.707 -39.8635 102.876C-37.5436 104.046 -35.3682 105.801 -33.3373 108.142ZM-41.8121 126.294C-40.4259 125.086 -39.4361 123.764 -38.8427 122.326C-38.2796 120.854 -38.1047 119.413 -38.318 118.004C-38.5313 116.594 -39.1533 115.295 -40.1838 114.107C-41.1841 112.954 -42.3656 112.173 -43.7285 111.766C-45.1554 111.352 -46.6203 111.34 -48.123 111.729C-49.6258 112.118 -51.0534 112.902 -52.4058 114.08C-53.792 115.287 -54.7818 116.61 -55.3752 118.047C-55.9687 119.485 -56.1436 120.926 -55.9 122.37C-55.6867 123.779 -55.0798 125.061 -54.0796 126.214C-53.049 127.402 -51.8523 128.2 -50.4895 128.608C-49.1266 129.016 -47.6787 129.043 -46.1456 128.689C-44.6429 128.3 -43.1983 127.502 -41.8121 126.294Z" fill="#FA6425"/>
<path fill-rule="evenodd" clip-rule="evenodd" d="M24.083 128.751C23.2204 126.25 21.7736 123.83 19.7428 121.488C17.712 119.147 15.5365 117.391 13.2166 116.222C10.8966 115.053 8.54861 114.399 6.17267 114.26C3.79669 114.121 1.49248 114.442 -0.740112 115.221C-2.9727 116 -5.00185 117.185 -6.82758 118.776C-8.68712 120.396 -10.1573 122.26 -11.238 124.367C-12.3188 126.475 -12.956 128.717 -13.1496 131.095C-13.3432 133.472 -13.0238 135.893 -12.1914 138.359C-11.3591 140.824 -9.92749 143.227 -7.89667 145.569C-5.86584 147.91 -3.67528 149.683 -1.32501 150.887C0.99498 152.056 3.34291 152.71 5.71887 152.849C8.09483 152.988 10.3991 152.668 12.6317 151.888C14.834 151.074 16.8649 149.857 18.7244 148.237C20.5501 146.646 22.0186 144.814 23.1296 142.742C24.2104 140.635 24.8475 138.392 25.0411 136.015C25.2347 133.637 24.9153 131.216 24.083 128.751ZM14.2374 135.672C13.644 137.109 12.6541 138.432 11.2679 139.64C9.88176 140.847 8.43727 141.646 6.93451 142.035C5.40144 142.389 3.95348 142.362 2.59064 141.954C1.2278 141.546 0.0310668 140.748 -0.999512 139.56C-1.99977 138.406 -2.60654 137.125 -2.81982 135.716C-3.06348 134.271 -2.88855 132.831 -2.2951 131.393C-1.70168 129.956 -0.711899 128.633 0.674316 127.426C2.02669 126.247 3.45432 125.464 4.95709 125.075C6.45984 124.686 7.92471 124.698 9.35168 125.111C10.7145 125.519 11.896 126.3 12.8963 127.453C13.9269 128.641 14.5488 129.94 14.7621 131.349C14.9755 132.759 14.8006 134.2 14.2374 135.672Z" fill="#FA6425"/>
<path d="M-16.1072 80.2618L-9.51807 85.8943L-25.4727 171.965L-32.0618 166.332L-16.1072 80.2618Z" fill="#FA6425"/>
<path fill-rule="evenodd" clip-rule="evenodd" d="M50.0317 7.78344C51.6721 10.4145 52.7232 13.0323 53.185 15.6371C53.6223 18.2025 53.5598 20.6441 52.9976 22.962C52.4353 25.2798 51.4559 27.3947 50.0595 29.3067C48.6386 31.1793 46.9025 32.7581 44.851 34.0429C42.7614 35.3515 40.5656 36.2353 38.2633 36.6944C35.9366 37.1141 33.6106 37.0692 31.2856 36.5596C28.9605 36.0501 26.7436 35.036 24.6346 33.5175C22.5013 31.9596 20.6144 29.8652 18.974 27.2342C17.3336 24.6032 16.2948 22.0049 15.8575 19.4395C15.4202 16.874 15.4827 14.4324 16.0449 12.1146C16.6072 9.79677 17.5865 7.68184 18.9829 5.76989C20.3793 3.85793 22.1223 2.24764 24.2118 0.939018C26.2633 -0.345833 28.4524 -1.1981 30.7792 -1.61781C33.1059 -2.03757 35.4318 -1.99265 37.7569 -1.4831C40.082 -0.973549 42.2989 0.04055 44.4078 1.55907C46.5168 3.07763 48.3914 5.15243 50.0317 7.78344ZM38.8281 24.3827C40.3858 23.4072 41.5698 22.2561 42.3803 20.9295C43.1663 19.5636 43.5639 18.1679 43.5732 16.7425C43.5825 15.317 43.171 13.9367 42.3386 12.6015C41.5306 11.3057 40.4854 10.3494 39.203 9.73293C37.8581 9.10094 36.4132 8.85918 34.8683 9.00774C33.3233 9.15627 31.791 9.70641 30.2713 10.6581C28.7137 11.6337 27.5297 12.7847 26.7192 14.1114C25.9087 15.438 25.511 16.8336 25.5262 18.2984C25.517 19.7238 25.9162 21.0846 26.7242 22.3804C27.5566 23.7156 28.614 24.6914 29.8964 25.3079C31.1788 25.9245 32.6048 26.1781 34.1742 26.0688C35.7192 25.9203 37.2705 25.3582 38.8281 24.3827Z" fill="#FA6425"/>
<path fill-rule="evenodd" clip-rule="evenodd" d="M103.529 37.1408C103.067 34.5361 102.016 31.9182 100.375 29.2872C98.7351 26.6562 96.8604 24.5814 94.7515 23.0628C92.6425 21.5443 90.4256 20.5302 88.1005 20.0207C85.7755 19.5111 83.4496 19.4662 81.1229 19.8859C78.7961 20.3057 76.6069 21.158 74.5554 22.4428C72.4659 23.7514 70.723 25.3617 69.3266 27.2736C67.9302 29.1856 66.9509 31.3005 66.3886 33.6183C65.8263 35.9362 65.7638 38.3778 66.2011 40.9432C66.6384 43.5087 67.6773 46.1069 69.3176 48.7379C70.958 51.369 72.8449 53.4634 74.9783 55.0212C77.0872 56.5398 79.3042 57.5538 81.6293 58.0634C83.9543 58.573 86.2802 58.6179 88.6069 58.1981C90.9092 57.7391 93.1051 56.8553 95.1946 55.5467C97.2461 54.2619 98.9823 52.6831 100.403 50.8104C101.8 48.8984 102.779 46.7835 103.341 44.4657C103.903 42.1479 103.966 39.7063 103.529 37.1408ZM92.7239 42.4333C91.9135 43.7599 90.7294 44.911 89.1718 45.8865C87.6141 46.862 86.0629 47.424 84.5179 47.5726C82.9484 47.6818 81.5225 47.4282 80.2401 46.8117C78.9577 46.1952 77.9003 45.2193 77.0679 43.8842C76.2599 42.5883 75.8606 41.2276 75.8699 39.8021C75.8547 38.3374 76.2523 36.9417 77.0628 35.6151C77.8733 34.2885 79.0574 33.1374 80.615 32.1619C82.1346 31.2102 83.6669 30.6601 85.2119 30.5115C86.7569 30.363 88.2018 30.6047 89.5467 31.2367C90.8291 31.8532 91.8743 32.8094 92.6822 34.1053C93.5146 35.4404 93.9262 36.8207 93.9169 38.2462C93.9076 39.6717 93.5099 41.0674 92.7239 42.4333Z" fill="#FA6425"/>
<path d="M71.4014 -17.0524L77.0302 -10.4561L47.8379 72.0532L42.209 65.457L71.4014 -17.0524Z" fill="#FA6425"/>
<path fill-rule="evenodd" clip-rule="evenodd" d="M-39.0757 27.0682C-39.2917 23.9733 -38.9935 21.1673 -38.1811 18.6502C-37.3655 16.1793 -36.1667 14.0528 -34.5845 12.2709C-33.0023 10.489 -31.147 9.08241 -29.0184 8.05128C-26.8867 7.06636 -24.6142 6.48933 -22.201 6.32018C-19.7431 6.14793 -17.3902 6.40084 -15.1425 7.07878C-12.8914 7.803 -10.8588 8.93709 -9.04462 10.481C-7.23042 12.0249 -5.74792 13.9634 -4.59717 16.2965C-3.44319 18.6758 -2.75822 21.4129 -2.5423 24.5078C-2.32637 27.6027 -2.62621 30.3856 -3.44177 32.8566C-4.25735 35.3274 -5.45622 37.4539 -7.03839 39.2358C-8.62056 41.0178 -10.476 42.4243 -12.6045 43.4555C-14.733 44.4866 -17.0262 45.0883 -19.4841 45.2605C-21.8973 45.4296 -24.2295 45.1521 -26.4805 44.4279C-28.7315 43.7038 -30.7641 42.5697 -32.5783 41.0258C-34.3925 39.4819 -35.875 37.5434 -37.0258 35.2103C-38.1765 32.8771 -38.8598 30.1631 -39.0757 27.0682ZM-21.4081 17.6836C-23.2404 17.812 -24.825 18.2712 -26.162 19.0612C-27.4959 19.8974 -28.5007 20.9426 -29.1766 22.1968C-29.8526 23.4511 -30.1358 24.8634 -30.0262 26.434C-29.9198 27.9584 -29.4449 29.2944 -28.6014 30.4422C-27.7099 31.633 -26.5474 32.5263 -25.1137 33.1221C-23.68 33.7179 -22.0694 33.9532 -20.2818 33.8279C-18.4495 33.6995 -16.8649 33.2402 -15.5278 32.4503C-14.1908 31.6603 -13.186 30.6151 -12.5133 29.3147C-11.8374 28.0604 -11.5526 26.6711 -11.6589 25.1467C-11.7685 23.5762 -12.2451 22.217 -13.0886 21.0693C-13.9321 19.9215 -15.0723 19.0266 -16.5092 18.3847C-17.9429 17.7889 -19.5759 17.5552 -21.4081 17.6836Z" fill="#FA6425"/>
<path fill-rule="evenodd" clip-rule="evenodd" d="M-72.5593 -24.0246C-73.3717 -21.5075 -73.6699 -18.7015 -73.454 -15.6066C-73.238 -12.5117 -72.5547 -9.79772 -71.4039 -7.46459C-70.2532 -5.13149 -68.7707 -3.19295 -66.9565 -1.64907C-65.1423 -0.105121 -63.1097 1.02892 -60.8587 1.75313C-58.6077 2.47728 -56.2756 2.75484 -53.8624 2.58571C-51.4044 2.41344 -49.1112 1.81175 -46.9827 0.780624C-44.8541 -0.250503 -42.9988 -1.65706 -41.4166 -3.43898C-39.8344 -5.22093 -38.6356 -7.34737 -37.82 -9.81831C-37.0044 -12.2892 -36.7046 -15.0721 -36.9205 -18.167C-37.1365 -21.2619 -37.8214 -23.999 -38.9754 -26.3783C-40.1261 -28.7114 -41.6086 -30.6499 -43.4229 -32.1939C-45.2371 -33.7378 -47.2697 -34.8718 -49.5207 -35.596C-51.7685 -36.274 -54.1213 -36.5269 -56.5792 -36.3546C-58.9924 -36.1855 -61.2649 -35.6085 -63.3967 -34.6235C-65.5252 -33.5924 -67.3806 -32.1859 -68.9627 -30.4039C-70.5449 -28.622 -71.7438 -26.4955 -72.5593 -24.0246ZM-60.5403 -23.6137C-59.2033 -24.4036 -57.6186 -24.8628 -55.7864 -24.9913C-53.9541 -25.1196 -52.3212 -24.886 -50.8875 -24.2902C-49.4505 -23.6482 -48.3103 -22.7533 -47.4668 -21.6055C-46.6233 -20.4578 -46.1467 -19.0986 -46.0372 -17.5281C-45.9308 -16.0037 -46.2155 -14.6144 -46.8915 -13.3602C-47.5642 -12.0597 -48.569 -11.0145 -49.9061 -10.2246C-51.2431 -9.43456 -52.8278 -8.97539 -54.66 -8.84694C-56.4476 -8.72167 -58.0582 -8.95696 -59.4919 -9.55272C-60.9256 -10.1485 -62.0882 -11.0418 -62.9796 -12.2327C-63.8231 -13.3804 -64.2981 -14.7165 -64.4044 -16.2408C-64.514 -17.8114 -64.2308 -19.2238 -63.5549 -20.478C-62.879 -21.7323 -61.8741 -22.7775 -60.5403 -23.6137Z" fill="#FA6425"/>
<path d="M-69.5777 38.9419L-71.4579 30.4692L-7.03375 -28.6464L-5.15356 -20.1737L-69.5777 38.9419Z" fill="#FA6425"/>
<path fill-rule="evenodd" clip-rule="evenodd" d="M-38.0018 234.5C-35.5625 236.41 -33.6815 238.51 -32.3587 240.799C-31.0723 243.06 -30.2978 245.376 -30.0352 247.747C-29.7726 250.117 -29.9711 252.44 -30.6309 254.716C-31.327 256.963 -32.4197 259.041 -33.9091 260.952C-35.426 262.898 -37.1879 264.481 -39.1946 265.702C-41.2378 266.894 -43.4388 267.649 -45.7975 267.967C-48.1562 268.285 -50.5856 268.092 -53.0855 267.388C-55.6219 266.655 -58.1097 265.334 -60.549 263.424C-62.9882 261.514 -64.8511 259.429 -66.1375 257.168C-67.4239 254.907 -68.1984 252.591 -68.461 250.22C-68.7235 247.85 -68.525 245.527 -67.8653 243.251C-67.2056 240.976 -66.1172 238.865 -64.6003 236.919C-63.111 235.009 -61.3447 233.457 -59.3015 232.265C-57.2583 231.073 -55.0573 230.318 -52.6986 230C-50.3399 229.682 -47.9106 229.875 -45.4106 230.579C-42.9107 231.283 -40.4411 232.59 -38.0018 234.5ZM-42.8652 253.939C-41.7344 252.488 -41.0146 251.001 -40.7057 249.476C-40.4332 247.923 -40.5358 246.475 -41.0135 245.133C-41.4913 243.79 -42.3491 242.634 -43.5869 241.665C-44.7883 240.724 -46.0967 240.184 -47.5122 240.044C-48.9917 239.911 -50.432 240.179 -51.8331 240.848C-53.2342 241.518 -54.4863 242.56 -55.5895 243.975C-56.7203 245.426 -57.4402 246.913 -57.7491 248.438C-58.058 249.962 -57.9554 251.41 -57.4412 252.781C-56.9635 254.124 -56.1239 255.266 -54.9225 256.206C-53.6846 257.176 -52.358 257.73 -50.9426 257.87C-49.5271 258.01 -48.1006 257.759 -46.6631 257.118C-45.262 256.449 -43.996 255.389 -42.8652 253.939Z" fill="#FA6425"/>
<path fill-rule="evenodd" clip-rule="evenodd" d="M22.2872 243.749C20.9644 241.459 19.0834 239.36 16.6441 237.45C14.2048 235.54 11.7352 234.233 9.23529 233.529C6.73534 232.824 4.306 232.632 1.94727 232.95C-0.411453 233.268 -2.61238 234.023 -4.65558 235.215C-6.69876 236.407 -8.46504 237.958 -9.95441 239.869C-11.4713 241.815 -12.5596 243.925 -13.2194 246.201C-13.8791 248.476 -14.0777 250.799 -13.8151 253.17C-13.5525 255.541 -12.778 257.857 -11.4916 260.117C-10.2052 262.378 -8.34236 264.464 -5.90308 266.374C-3.46379 268.284 -0.975983 269.605 1.56036 270.338C4.06032 271.042 6.48967 271.235 8.84839 270.916C11.2071 270.598 13.4081 269.843 15.4512 268.651C17.458 267.431 19.2199 265.847 20.7368 263.901C22.2262 261.991 23.3189 259.912 24.015 257.665C24.6747 255.39 24.8733 253.067 24.6107 250.696C24.3481 248.325 23.5736 246.01 22.2872 243.749ZM13.9402 252.426C13.6313 253.95 12.9114 255.438 11.7806 256.888C10.6498 258.339 9.3839 259.399 7.98279 260.068C6.54527 260.709 5.11882 260.959 3.70337 260.82C2.2879 260.68 0.961227 260.125 -0.276611 259.156C-1.47806 258.215 -2.31764 257.073 -2.79535 255.731C-3.30946 254.36 -3.41209 252.912 -3.10321 251.387C-2.79433 249.863 -2.07448 248.375 -0.943665 246.925C0.159561 245.509 1.41176 244.467 2.81287 243.798C4.21396 243.129 5.65422 242.861 7.13367 242.994C8.54912 243.133 9.85759 243.674 11.059 244.614C12.2969 245.584 13.1547 246.74 13.6324 248.082C14.1101 249.425 14.2127 250.873 13.9402 252.426Z" fill="#FA6425"/>
<path d="M-26.3961 203.837L-18.8557 208.106L-18.1311 295.646L-25.6715 291.377L-26.3961 203.837Z" fill="#FA6425"/>
<path fill-rule="evenodd" clip-rule="evenodd" d="M99.7781 169.756C97.1248 171.354 94.4948 172.361 91.8883 172.779C89.3214 173.172 86.8867 173.067 84.5843 172.463C82.2818 171.859 80.1891 170.841 78.3061 169.408C76.4627 167.951 74.918 166.184 73.6721 164.106C72.4031 161.989 71.5597 159.773 71.142 157.458C70.7638 155.119 70.8492 152.789 71.3981 150.468C71.9471 148.147 72.9974 145.943 74.5491 143.856C76.1404 141.746 78.2627 139.891 80.9161 138.293C83.5694 136.696 86.1796 135.7 88.7465 135.306C91.3134 134.913 93.7481 135.018 96.0505 135.622C98.353 136.226 100.446 137.244 102.329 138.677C104.212 140.11 105.788 141.884 107.057 144.001C108.303 146.079 109.115 148.288 109.493 150.627C109.871 152.966 109.786 155.296 109.237 157.617C108.688 159.938 107.637 162.142 106.086 164.229C104.534 166.316 102.431 168.158 99.7781 169.756ZM83.4142 158.239C84.3602 159.817 85.4878 161.024 86.7971 161.859C88.146 162.67 89.5314 163.093 90.9533 163.127C92.3752 163.162 93.7594 162.773 95.1059 161.962C96.4128 161.175 97.3849 160.145 98.0223 158.87C98.6763 157.534 98.9426 156.09 98.8214 154.539C98.7002 152.988 98.1782 151.443 97.2552 149.904C96.3093 148.326 95.1816 147.119 93.8723 146.284C92.563 145.448 91.1776 145.026 89.7161 145.015C88.2942 144.981 86.9299 145.358 85.623 146.145C84.2765 146.955 83.2845 147.998 82.6471 149.272C82.0097 150.547 81.7318 151.971 81.8134 153.546C81.9346 155.097 82.4683 156.661 83.4142 158.239Z" fill="#FA6425"/>
<path fill-rule="evenodd" clip-rule="evenodd" d="M69.5574 222.853C72.1639 222.435 74.7939 221.428 77.4472 219.83C80.1006 218.232 82.203 216.39 83.7548 214.303C85.3065 212.216 86.3568 210.012 86.9058 207.691C87.4547 205.37 87.5401 203.04 87.1619 200.701C86.7838 198.362 85.9718 196.153 84.7258 194.075C83.4568 191.958 81.8808 190.184 79.9978 188.751C78.1148 187.318 76.0221 186.3 73.7196 185.696C71.4172 185.092 68.9825 184.987 66.4156 185.38C63.8487 185.774 61.2385 186.77 58.5851 188.367C55.9318 189.965 53.8095 191.82 52.2181 193.93C50.6664 196.017 49.6161 198.221 49.0672 200.542C48.5183 202.863 48.4329 205.193 48.811 207.532C49.2287 209.847 50.0721 212.063 51.3411 214.18C52.5871 216.258 54.1317 218.026 55.9751 219.482C57.8581 220.915 59.9508 221.933 62.2533 222.537C64.5557 223.141 66.9904 223.246 69.5574 222.853ZM64.4662 211.933C63.1569 211.098 62.0292 209.891 61.0833 208.313C60.1373 206.735 59.6037 205.171 59.4824 203.62C59.4008 202.045 59.6788 200.621 60.3162 199.346C60.9536 198.072 61.9455 197.029 63.292 196.219C64.5989 195.432 65.9633 195.055 67.3852 195.089C68.8467 195.1 70.232 195.523 71.5413 196.358C72.8506 197.193 73.9783 198.4 74.9243 199.978C75.8472 201.517 76.3693 203.062 76.4905 204.613C76.6117 206.164 76.3454 207.608 75.6914 208.944C75.054 210.219 74.0818 211.249 72.775 212.036C71.4285 212.847 70.0443 213.236 68.6224 213.201C67.2005 213.167 65.8151 212.744 64.4662 211.933Z" fill="#FA6425"/>
<path d="M124.181 191.604L117.503 197.129L35.7006 166.436L42.3793 160.91L124.181 191.604Z" fill="#FA6425"/>
<path fill-rule="evenodd" clip-rule="evenodd" d="M-77.6934 375.186C-78.4946 372.189 -78.7361 369.378 -78.4178 366.752C-78.0877 364.17 -77.3156 361.854 -76.1018 359.802C-74.888 357.75 -73.3345 356.015 -71.4413 354.595C-69.5363 353.221 -67.4154 352.22 -65.0787 351.592C-62.6988 350.953 -60.341 350.751 -58.0054 350.987C-55.6579 351.268 -53.4468 351.992 -51.3719 353.161C-49.2971 354.329 -47.4728 355.949 -45.899 358.019C-44.3133 360.134 -43.1198 362.69 -42.3187 365.686C-41.5175 368.683 -41.282 371.472 -41.6122 374.054C-41.9423 376.635 -42.7144 378.952 -43.9282 381.004C-45.1421 383.055 -46.6955 384.791 -48.5887 386.21C-50.4818 387.629 -52.6183 388.659 -54.9983 389.298C-57.335 389.925 -59.6771 390.099 -62.0246 389.818C-64.3721 389.538 -66.5833 388.813 -68.6581 387.645C-70.7329 386.476 -72.5572 384.857 -74.131 382.787C-75.7048 380.716 -76.8922 378.183 -77.6934 375.186ZM-62.1371 362.595C-63.9112 363.072 -65.3793 363.826 -66.5414 364.857C-67.6915 365.933 -68.4789 367.151 -68.9036 368.511C-69.3283 369.872 -69.3374 371.312 -68.9309 372.833C-68.5363 374.309 -67.8157 375.53 -66.7692 376.495C-65.6675 377.494 -64.3561 378.148 -62.8353 378.459C-61.3145 378.769 -59.6888 378.692 -57.9579 378.228C-56.1837 377.751 -54.7156 376.997 -53.5535 375.966C-52.3915 374.935 -51.604 373.717 -51.1913 372.312C-50.7666 370.951 -50.7515 369.533 -51.1461 368.057C-51.5527 366.536 -52.2792 365.293 -53.3257 364.328C-54.3723 363.362 -55.662 362.702 -57.1947 362.347C-58.7155 362.036 -60.3629 362.119 -62.1371 362.595Z" fill="#FA6425"/>
<path fill-rule="evenodd" clip-rule="evenodd" d="M-120.289 331.435C-120.607 334.062 -120.366 336.873 -119.564 339.87C-118.763 342.867 -117.576 345.4 -116.002 347.47C-114.428 349.54 -112.604 351.16 -110.529 352.328C-108.454 353.497 -106.243 354.222 -103.896 354.502C-101.548 354.782 -99.206 354.609 -96.8693 353.981C-94.4893 353.342 -92.3528 352.313 -90.4597 350.894C-88.5665 349.474 -87.0131 347.739 -85.7992 345.687C-84.5854 343.635 -83.8134 341.319 -83.4832 338.737C-83.153 336.156 -83.3885 333.367 -84.1897 330.37C-84.9908 327.373 -86.1843 324.817 -87.7701 322.702C-89.3438 320.632 -91.1681 319.013 -93.2429 317.844C-95.3177 316.676 -97.5289 315.951 -99.8764 315.671C-102.212 315.435 -104.57 315.637 -106.95 316.276C-109.286 316.903 -111.407 317.904 -113.312 319.279C-115.205 320.698 -116.759 322.434 -117.973 324.486C-119.187 326.537 -119.959 328.854 -120.289 331.435ZM-108.412 329.54C-107.25 328.509 -105.782 327.755 -104.008 327.279C-102.234 326.802 -100.586 326.72 -99.0657 327.03C-97.5329 327.386 -96.2433 328.046 -95.1967 329.011C-94.1502 329.977 -93.4237 331.22 -93.0172 332.741C-92.6225 334.217 -92.6376 335.635 -93.0623 336.995C-93.4751 338.4 -94.2625 339.619 -95.4245 340.65C-96.5866 341.681 -98.0547 342.435 -99.8289 342.911C-101.56 343.376 -103.186 343.453 -104.706 343.142C-106.227 342.832 -107.538 342.177 -108.64 341.179C-109.687 340.213 -110.407 338.993 -110.802 337.517C-111.208 335.996 -111.199 334.555 -110.775 333.195C-110.35 331.834 -109.563 330.616 -108.412 329.54Z" fill="#FA6425"/>
<path d="M-105.374 392.675L-108.833 384.717L-56.8469 314.368L-53.3883 322.325L-105.374 392.675Z" fill="#FA6425"/>
<path fill-rule="evenodd" clip-rule="evenodd" d="M-287.235 147.608C-284.604 147.887 -281.796 147.604 -278.812 146.758C-275.828 145.912 -273.312 144.686 -271.266 143.082C-269.219 141.477 -267.628 139.629 -266.49 137.537C-265.353 135.444 -264.662 133.223 -264.416 130.871C-264.171 128.52 -264.38 126.181 -265.042 123.854C-265.717 121.483 -266.778 119.363 -268.226 117.491C-269.673 115.619 -271.432 114.092 -273.501 112.909C-275.571 111.726 -277.899 110.989 -280.485 110.697C-283.071 110.406 -285.857 110.683 -288.841 111.529C-291.826 112.375 -294.363 113.607 -296.454 115.224C-298.5 116.829 -300.092 118.677 -301.23 120.769C-302.367 122.861 -303.058 125.083 -303.303 127.435C-303.504 129.773 -303.267 132.128 -302.592 134.498C-301.93 136.825 -300.897 138.931 -299.494 140.815C-298.047 142.687 -296.288 144.214 -294.218 145.397C-292.149 146.58 -289.821 147.317 -287.235 147.608ZM-289.308 135.762C-290.356 134.615 -291.132 133.159 -291.635 131.392C-292.138 129.625 -292.245 127.979 -291.957 126.454C-291.625 124.916 -290.984 123.616 -290.035 122.555C-289.085 121.495 -287.853 120.749 -286.338 120.32C-284.869 119.903 -283.45 119.897 -282.084 120.302C-280.672 120.693 -279.442 121.462 -278.394 122.609C-277.346 123.755 -276.57 125.212 -276.067 126.979C-275.576 128.702 -275.475 130.327 -275.762 131.852C-276.05 133.377 -276.685 134.698 -277.667 135.815C-278.617 136.876 -279.826 137.615 -281.296 138.031C-282.811 138.461 -284.251 138.473 -285.618 138.069C-286.985 137.665 -288.215 136.896 -289.308 135.762Z" fill="#FA6425"/>
<path fill-rule="evenodd" clip-rule="evenodd" d="M-252.55 105.213C-249.919 105.491 -247.112 105.208 -244.127 104.362C-241.143 103.516 -238.627 102.291 -236.581 100.686C-234.535 99.0813 -232.943 97.2329 -231.806 95.1408C-230.668 93.0487 -229.977 90.827 -229.732 88.4755C-229.487 86.124 -229.695 83.7848 -230.358 81.4578C-231.032 79.0877 -232.093 76.9668 -233.541 75.0952C-234.988 73.2235 -236.747 71.6963 -238.817 70.5133C-240.886 69.3303 -243.214 68.5931 -245.801 68.3017C-248.387 68.0102 -251.172 68.2875 -254.156 69.1335C-257.141 69.9795 -259.678 71.2112 -261.769 72.8284C-263.816 74.4331 -265.408 76.2814 -266.545 78.3735C-267.682 80.4656 -268.374 82.6874 -268.619 85.0389C-268.819 87.3777 -268.582 89.7322 -267.908 92.1023C-267.245 94.4293 -266.212 96.5349 -264.81 98.4192C-263.362 100.291 -261.603 101.818 -259.534 103.001C-257.464 104.184 -255.136 104.921 -252.55 105.213ZM-254.623 93.3659C-255.671 92.2195 -256.447 90.7628 -256.95 88.996C-257.453 87.2292 -257.561 85.5832 -257.273 84.058C-256.94 82.5201 -256.299 81.2206 -255.35 80.1597C-254.4 79.0988 -253.168 78.3538 -251.654 77.9244C-250.184 77.5078 -248.765 77.5016 -247.399 77.9058C-245.988 78.2975 -244.758 79.0666 -243.709 80.213C-242.661 81.3595 -241.885 82.8161 -241.382 84.5829C-240.891 86.3066 -240.79 87.9311 -241.078 89.4564C-241.366 90.9817 -242 92.3026 -242.982 93.4193C-243.932 94.4801 -245.142 95.219 -246.612 95.6357C-248.126 96.0649 -249.567 96.0774 -250.933 95.6732C-252.3 95.2689 -253.53 94.4998 -254.623 93.3659Z" fill="#FA6425"/>
<path d="M-226.226 131.778L-234.13 135.355L-305.252 84.4294L-297.347 80.8519L-226.226 131.778Z" fill="#FA6425"/>
<path d="M-538.731 171.82L-531.585 176.632L-525.653 90.0369L-532.799 85.2259L-538.731 171.82Z" fill="#FA6425"/>
<path fill-rule="evenodd" clip-rule="evenodd" d="M-517.758 147.229C-520.03 145.149 -521.734 142.926 -522.87 140.56C-523.973 138.224 -524.564 135.874 -524.644 133.51C-524.724 131.145 -524.351 128.865 -523.525 126.667C-522.664 124.5 -521.424 122.531 -519.803 120.759C-518.153 118.954 -516.287 117.527 -514.206 116.478C-512.092 115.46 -509.854 114.886 -507.493 114.756C-505.132 114.627 -502.74 115.008 -500.317 115.9C-497.86 116.823 -495.495 118.324 -493.224 120.403C-490.953 122.482 -489.265 124.69 -488.163 127.026C-487.06 129.361 -486.469 131.711 -486.389 134.076C-486.309 136.44 -486.682 138.721 -487.508 140.918C-488.335 143.116 -489.573 145.117 -491.224 146.922C-492.844 148.694 -494.712 150.089 -496.827 151.107C-498.941 152.125 -501.179 152.699 -503.54 152.829C-505.901 152.959 -508.293 152.578 -510.716 151.686C-513.139 150.794 -515.487 149.308 -517.758 147.229ZM-511.463 128.394C-512.694 129.739 -513.52 131.153 -513.942 132.636C-514.33 134.15 -514.338 135.589 -513.967 136.954C-513.596 138.319 -512.834 139.529 -511.681 140.584C-510.562 141.608 -509.307 142.245 -507.915 142.494C-506.46 142.741 -505.012 142.589 -503.574 142.037C-502.135 141.485 -500.815 140.553 -499.615 139.241C-498.384 137.895 -497.558 136.481 -497.136 134.998C-496.714 133.516 -496.706 132.076 -497.111 130.681C-497.483 129.316 -498.228 128.121 -499.346 127.097C-500.499 126.042 -501.771 125.39 -503.163 125.141C-504.554 124.892 -505.987 125.027 -507.459 125.548C-508.898 126.1 -510.233 127.048 -511.463 128.394Z" fill="#FA6425"/>
<path fill-rule="evenodd" clip-rule="evenodd" d="M-571.67 140.03C-573.942 137.951 -575.646 135.728 -576.782 133.361C-577.885 131.025 -578.476 128.675 -578.557 126.311C-578.637 123.947 -578.263 121.666 -577.437 119.469C-576.577 117.302 -575.336 115.333 -573.716 113.561C-572.065 111.756 -570.199 110.329 -568.118 109.28C-566.004 108.261 -563.766 107.687 -561.405 107.558C-559.044 107.428 -556.652 107.809 -554.229 108.701C-551.772 109.624 -549.408 111.125 -547.136 113.205C-544.865 115.284 -543.178 117.492 -542.075 119.827C-540.972 122.163 -540.381 124.513 -540.301 126.877C-540.221 129.241 -540.594 131.522 -541.421 133.72C-542.247 135.917 -543.486 137.919 -545.136 139.723C-546.757 141.495 -548.624 142.891 -550.739 143.909C-552.854 144.927 -555.092 145.501 -557.452 145.631C-559.813 145.76 -562.205 145.379 -564.629 144.487C-567.052 143.595 -569.399 142.11 -571.67 140.03ZM-565.376 121.195C-566.606 122.541 -567.432 123.955 -567.854 125.438C-568.242 126.952 -568.25 128.391 -567.879 129.756C-567.508 131.12 -566.746 132.33 -565.593 133.385C-564.474 134.41 -563.219 135.046 -561.828 135.295C-560.372 135.543 -558.925 135.39 -557.486 134.839C-556.047 134.287 -554.727 133.355 -553.527 132.042C-552.296 130.697 -551.47 129.283 -551.048 127.8C-550.627 126.317 -550.618 124.878 -551.024 123.482C-551.395 122.117 -552.14 120.923 -553.259 119.899C-554.411 118.844 -555.683 118.191 -557.075 117.942C-558.467 117.693 -559.899 117.829 -561.372 118.35C-562.811 118.902 -564.145 119.85 -565.376 121.195Z" fill="#FA6425"/>
<path fill-rule="evenodd" clip-rule="evenodd" d="M-458.541 210.941C-461.153 210.664 -463.94 210.946 -466.902 211.785C-469.864 212.625 -472.361 213.842 -474.392 215.434C-476.423 217.027 -478.004 218.862 -479.133 220.938C-480.262 223.015 -480.948 225.22 -481.191 227.555C-481.434 229.889 -481.227 232.211 -480.57 234.52C-479.9 236.873 -478.847 238.978 -477.41 240.836C-475.973 242.694 -474.228 244.21 -472.173 245.384C-470.119 246.558 -467.808 247.29 -465.241 247.579C-462.674 247.869 -459.909 247.593 -456.947 246.754C-453.984 245.914 -451.465 244.691 -449.39 243.086C-447.359 241.493 -445.779 239.659 -444.65 237.582C-443.521 235.505 -442.835 233.3 -442.591 230.966C-442.392 228.644 -442.627 226.307 -443.297 223.955C-443.955 221.645 -444.98 219.555 -446.372 217.684C-447.809 215.826 -449.555 214.31 -451.609 213.136C-453.664 211.962 -455.974 211.23 -458.541 210.941ZM-456.484 222.7C-455.443 223.838 -454.673 225.284 -454.174 227.038C-453.675 228.792 -453.568 230.425 -453.853 231.939C-454.183 233.466 -454.82 234.756 -455.762 235.809C-456.705 236.862 -457.928 237.602 -459.431 238.028C-460.89 238.441 -462.298 238.447 -463.654 238.046C-465.055 237.657 -466.276 236.894 -467.317 235.756C-468.357 234.618 -469.127 233.172 -469.627 231.418C-470.114 229.707 -470.215 228.095 -469.929 226.581C-469.643 225.067 -469.013 223.756 -468.038 222.647C-467.096 221.594 -465.895 220.861 -464.436 220.447C-462.933 220.021 -461.503 220.009 -460.146 220.41C-458.79 220.811 -457.569 221.575 -456.484 222.7Z" fill="#FA6425"/>
<path fill-rule="evenodd" clip-rule="evenodd" d="M-424.113 168.858C-426.724 168.582 -429.511 168.863 -432.473 169.703C-435.436 170.543 -437.932 171.759 -439.964 173.352C-441.995 174.944 -443.575 176.779 -444.704 178.856C-445.833 180.932 -446.519 183.138 -446.762 185.472C-447.006 187.806 -446.799 190.128 -446.141 192.438C-445.471 194.79 -444.418 196.896 -442.981 198.753C-441.545 200.611 -439.799 202.127 -437.745 203.301C-435.69 204.476 -433.379 205.208 -430.812 205.497C-428.245 205.786 -425.48 205.511 -422.518 204.671C-419.556 203.831 -417.037 202.609 -414.961 201.003C-412.93 199.411 -411.35 197.576 -410.221 195.499C-409.092 193.423 -408.406 191.217 -408.163 188.883C-407.963 186.562 -408.199 184.225 -408.868 181.872C-409.526 179.562 -410.551 177.472 -411.944 175.602C-413.38 173.744 -415.126 172.228 -417.181 171.054C-419.235 169.879 -421.546 169.148 -424.113 168.858ZM-422.055 180.618C-421.014 181.756 -420.244 183.201 -419.745 184.955C-419.246 186.709 -419.139 188.343 -419.425 189.857C-419.755 191.383 -420.391 192.673 -421.334 193.726C-422.276 194.779 -423.499 195.519 -425.002 195.945C-426.461 196.359 -427.869 196.365 -429.226 195.964C-430.627 195.575 -431.847 194.811 -432.888 193.673C-433.929 192.535 -434.699 191.089 -435.198 189.336C-435.685 187.625 -435.786 186.012 -435.5 184.498C-435.215 182.984 -434.584 181.673 -433.61 180.565C-432.667 179.512 -431.466 178.778 -430.007 178.365C-428.504 177.939 -427.074 177.926 -425.717 178.327C-424.361 178.729 -423.14 179.492 -422.055 180.618Z" fill="#FA6425"/>
<path d="M-484.671 184.572L-476.825 181.021L-406.229 231.571L-414.075 235.122L-484.671 184.572Z" fill="#FA6425"/>
<path d="M-405.524 441.574L-414.003 443.072L-469.619 376.558L-461.139 375.06L-405.524 441.574Z" fill="#FA6425"/>
<path fill-rule="evenodd" clip-rule="evenodd" d="M-468.037 441.8C-465.58 442.715 -462.814 443.133 -459.738 443.053C-456.663 442.973 -453.943 442.413 -451.579 441.372C-449.215 440.331 -447.227 438.944 -445.614 437.21C-444.002 435.476 -442.786 433.508 -441.965 431.305C-441.145 429.102 -440.763 426.799 -440.821 424.396C-440.879 421.949 -441.37 419.647 -442.294 417.489C-443.218 415.332 -444.527 413.429 -446.22 411.781C-447.913 410.133 -449.964 408.851 -452.375 407.934C-454.785 407.017 -457.528 406.599 -460.604 406.679C-463.68 406.759 -466.423 407.32 -468.833 408.362C-471.196 409.403 -473.185 410.79 -474.797 412.524C-476.409 414.258 -477.626 416.226 -478.446 418.429C-479.221 420.631 -479.579 422.955 -479.52 425.403C-479.463 427.805 -478.995 430.086 -478.117 432.245C-477.193 434.402 -475.885 436.305 -474.192 437.953C-472.499 439.601 -470.447 440.883 -468.037 441.8ZM-467.08 429.888C-467.801 428.526 -468.184 426.933 -468.227 425.109C-468.271 423.285 -467.964 421.674 -467.309 420.277C-466.607 418.878 -465.668 417.785 -464.493 416.998C-463.317 416.21 -461.949 415.796 -460.388 415.756C-458.873 415.716 -457.51 416.059 -456.298 416.785C-455.041 417.509 -454.051 418.552 -453.33 419.913C-452.609 421.275 -452.226 422.867 -452.183 424.692C-452.14 426.472 -452.447 428.06 -453.103 429.457C-453.759 430.855 -454.697 431.97 -455.917 432.803C-457.093 433.59 -458.438 434.004 -459.953 434.043C-461.514 434.084 -462.9 433.741 -464.112 433.016C-465.323 432.291 -466.313 431.248 -467.08 429.888Z" fill="#FA6425"/>
<path fill-rule="evenodd" clip-rule="evenodd" d="M-424.19 409.529C-421.733 410.444 -418.967 410.862 -415.891 410.782C-412.816 410.702 -410.096 410.142 -407.732 409.101C-405.368 408.06 -403.38 406.672 -401.768 404.938C-400.155 403.205 -398.939 401.236 -398.118 399.033C-397.298 396.831 -396.916 394.528 -396.974 392.125C-397.032 389.678 -397.523 387.375 -398.447 385.218C-399.371 383.06 -400.68 381.158 -402.373 379.51C-404.066 377.862 -406.117 376.58 -408.528 375.663C-410.938 374.746 -413.681 374.328 -416.757 374.408C-419.833 374.488 -422.576 375.049 -424.986 376.091C-427.349 377.132 -429.338 378.519 -430.95 380.253C-432.562 381.987 -433.779 383.955 -434.599 386.158C-435.374 388.36 -435.732 390.684 -435.673 393.131C-435.616 395.534 -435.148 397.815 -434.27 399.974C-433.346 402.131 -432.038 404.034 -430.345 405.682C-428.652 407.329 -426.6 408.612 -424.19 409.529ZM-423.233 397.616C-423.954 396.255 -424.337 394.662 -424.38 392.838C-424.424 391.013 -424.117 389.403 -423.462 388.005C-422.76 386.607 -421.821 385.514 -420.646 384.727C-419.47 383.939 -418.102 383.525 -416.541 383.485C-415.026 383.445 -413.663 383.788 -412.451 384.513C-411.194 385.238 -410.204 386.28 -409.483 387.642C-408.762 389.003 -408.379 390.596 -408.336 392.42C-408.293 394.2 -408.6 395.789 -409.256 397.186C-409.912 398.583 -410.85 399.698 -412.07 400.532C-413.246 401.319 -414.591 401.732 -416.106 401.772C-417.667 401.812 -419.053 401.47 -420.265 400.745C-421.476 400.019 -422.466 398.976 -423.233 397.616Z" fill="#FA6425"/>
<path d="M-479.788 51.5347L-473.149 56.9999L-458.797 -28.5348L-465.436 -34.0001L-479.788 51.5347Z" fill="#FA6425"/>
<path fill-rule="evenodd" clip-rule="evenodd" d="M-513.889 9.66507C-512.99 12.1268 -511.512 14.4997 -509.455 16.7839C-507.398 19.0681 -505.208 20.7691 -502.884 21.8871C-500.561 23.0051 -498.218 23.6122 -495.857 23.7084C-493.496 23.8047 -491.213 23.4475 -489.01 22.6368C-486.807 21.8261 -484.813 20.6171 -483.028 19.0098C-481.21 17.3727 -479.782 15.5011 -478.746 13.3949C-477.709 11.2887 -477.115 9.05643 -476.964 6.69807C-476.813 4.3397 -477.172 1.94669 -478.041 -0.480888C-478.91 -2.9085 -480.373 -5.2644 -482.43 -7.54855C-484.486 -9.83273 -486.692 -11.5508 -489.046 -12.7029C-491.37 -13.8209 -493.712 -14.428 -496.074 -14.5243C-498.435 -14.6205 -500.717 -14.2633 -502.92 -13.4526C-505.093 -12.6078 -507.088 -11.3669 -508.906 -9.72982C-510.691 -8.12252 -512.118 -6.28283 -513.185 -4.21072C-514.221 -2.10452 -514.815 0.127781 -514.966 2.48615C-515.117 4.84452 -514.758 7.23749 -513.889 9.66507ZM-504.234 2.63846C-503.67 1.20438 -502.71 -0.12283 -501.355 -1.34317C-499.999 -2.5635 -498.579 -3.37936 -497.094 -3.79067C-495.578 -4.1679 -494.14 -4.16631 -492.779 -3.78591C-491.419 -3.40551 -490.217 -2.63573 -489.174 -1.47662C-488.161 -0.351555 -487.536 0.907143 -487.3 2.29954C-487.033 3.72602 -487.182 5.15629 -487.746 6.59037C-488.31 8.02445 -489.27 9.35166 -490.626 10.572C-491.948 11.7626 -493.352 12.5635 -494.837 12.9749C-496.322 13.3862 -497.777 13.3995 -499.201 13.0147C-500.561 12.6343 -501.747 11.8816 -502.761 10.7566C-503.804 9.59745 -504.444 8.32169 -504.68 6.92929C-504.917 5.5369 -504.768 4.10663 -504.234 2.63846Z" fill="#FA6425"/>
<path fill-rule="evenodd" clip-rule="evenodd" d="M-460.959 21.9651C-460.059 24.4268 -458.581 26.7998 -456.524 29.0839C-454.467 31.3681 -452.277 33.0692 -449.954 34.1871C-447.63 35.3051 -445.288 35.9122 -442.926 36.0085C-440.565 36.1047 -438.283 35.7475 -436.08 34.9368C-433.876 34.1261 -431.882 32.9171 -430.097 31.3098C-428.279 29.6728 -426.852 27.8012 -425.815 25.6949C-424.778 23.5887 -424.185 21.3564 -424.034 18.9981C-423.882 16.6397 -424.241 14.2467 -425.11 11.8191C-425.979 9.39152 -427.442 7.03563 -429.499 4.75148C-431.556 2.4673 -433.761 0.749188 -436.116 -0.402882C-438.439 -1.52086 -440.782 -2.12798 -443.143 -2.22423C-445.504 -2.32048 -447.787 -1.96328 -449.99 -1.15258C-452.162 -0.307759 -454.157 0.933148 -455.976 2.5702C-457.761 4.1775 -459.187 6.01719 -460.254 8.0893C-461.291 10.1955 -461.885 12.4278 -462.036 14.7861C-462.187 17.1445 -461.828 19.5375 -460.959 21.9651ZM-451.303 14.9385C-450.739 13.5044 -449.779 12.1772 -448.424 10.9569C-447.068 9.73652 -445.648 8.9207 -444.163 8.50935C-442.647 8.13215 -441.209 8.13371 -439.849 8.51411C-438.489 8.89451 -437.287 9.66429 -436.243 10.8234C-435.23 11.9485 -434.605 13.2072 -434.369 14.5996C-434.102 16.026 -434.251 17.4563 -434.815 18.8904C-435.38 20.3245 -436.34 21.6517 -437.695 22.872C-439.017 24.0626 -440.421 24.8636 -441.906 25.2749C-443.392 25.6862 -444.846 25.6995 -446.27 25.3148C-447.63 24.9344 -448.817 24.1817 -449.83 23.0566C-450.874 21.8975 -451.514 20.6217 -451.75 19.2293C-451.986 17.8369 -451.837 16.4067 -451.303 14.9385Z" fill="#FA6425"/>
<path fill-rule="evenodd" clip-rule="evenodd" d="M-519.133 329.904C-520.994 331.749 -522.532 334.083 -523.746 336.908C-524.961 339.732 -525.59 342.435 -525.634 345.016C-525.677 347.596 -525.249 349.982 -524.348 352.171C-523.447 354.36 -522.168 356.289 -520.509 357.956C-518.85 359.623 -516.917 360.935 -514.71 361.889C-512.461 362.862 -510.163 363.381 -507.815 363.446C-505.468 363.512 -503.191 363.122 -500.985 362.276C-498.778 361.43 -496.754 360.106 -494.912 358.303C-493.069 356.5 -491.541 354.187 -490.326 351.362C-489.111 348.538 -488.473 345.814 -488.411 343.191C-488.368 340.61 -488.796 338.225 -489.697 336.036C-490.598 333.846 -491.877 331.918 -493.536 330.251C-495.213 328.626 -497.176 327.327 -499.424 326.354C-501.632 325.399 -503.9 324.868 -506.23 324.761C-508.577 324.695 -510.854 325.085 -513.061 325.931C-515.267 326.776 -517.291 328.101 -519.133 329.904ZM-508.708 335.763C-507.168 335.679 -505.561 335.999 -503.885 336.724C-502.208 337.449 -500.873 338.402 -499.877 339.582C-498.9 340.805 -498.3 342.114 -498.076 343.511C-497.853 344.907 -498.049 346.322 -498.666 347.755C-499.264 349.146 -500.147 350.24 -501.313 351.035C-502.498 351.873 -503.859 352.333 -505.399 352.418C-506.938 352.502 -508.546 352.181 -510.222 351.456C-511.857 350.749 -513.172 349.805 -514.168 348.625C-515.163 347.444 -515.784 346.126 -516.03 344.67C-516.254 343.273 -516.066 341.879 -515.468 340.488C-514.851 339.055 -513.96 337.941 -512.794 337.145C-511.627 336.35 -510.265 335.889 -508.708 335.763Z" fill="#FA6425"/>
<path fill-rule="evenodd" clip-rule="evenodd" d="M-530.107 276.599C-531.968 278.444 -533.505 280.778 -534.72 283.603C-535.935 286.427 -536.564 289.129 -536.608 291.71C-536.651 294.291 -536.223 296.677 -535.322 298.866C-534.421 301.055 -533.142 302.984 -531.483 304.651C-529.824 306.318 -527.891 307.629 -525.684 308.584C-523.435 309.557 -521.137 310.076 -518.789 310.141C-516.442 310.207 -514.165 309.817 -511.958 308.971C-509.752 308.125 -507.728 306.801 -505.886 304.998C-504.043 303.195 -502.515 300.882 -501.3 298.057C-500.085 295.233 -499.447 292.509 -499.385 289.886C-499.342 287.305 -499.77 284.92 -500.671 282.731C-501.572 280.541 -502.851 278.613 -504.51 276.946C-506.187 275.32 -508.149 274.022 -510.398 273.049C-512.605 272.094 -514.874 271.563 -517.204 271.456C-519.551 271.39 -521.828 271.78 -524.034 272.626C-526.241 273.471 -528.265 274.796 -530.107 276.599ZM-519.682 282.458C-518.142 282.374 -516.535 282.694 -514.858 283.419C-513.182 284.144 -511.847 285.097 -510.851 286.277C-509.874 287.5 -509.274 288.809 -509.05 290.206C-508.827 291.602 -509.023 293.017 -509.64 294.45C-510.238 295.841 -511.12 296.935 -512.287 297.73C-513.471 298.568 -514.833 299.028 -516.373 299.113C-517.912 299.197 -519.52 298.876 -521.196 298.151C-522.831 297.444 -524.146 296.5 -525.142 295.32C-526.137 294.139 -526.758 292.821 -527.004 291.365C-527.228 289.968 -527.04 288.574 -526.442 287.183C-525.825 285.75 -524.934 284.636 -523.767 283.84C-522.601 283.045 -521.239 282.584 -519.682 282.458Z" fill="#FA6425"/>
<path d="M-556.071 333.413L-553.883 325.092L-470.152 302.498L-472.34 310.82L-556.071 333.413Z" fill="#FA6425"/>
<path fill-rule="evenodd" clip-rule="evenodd" d="M-316.577 431.919C-316.792 428.852 -316.495 426.07 -315.683 423.575C-314.868 421.126 -313.67 419.018 -312.089 417.252C-310.507 415.485 -308.653 414.091 -306.526 413.069C-304.396 412.093 -302.125 411.521 -299.713 411.353C-297.257 411.182 -294.906 411.433 -292.659 412.105C-290.41 412.823 -288.379 413.947 -286.566 415.477C-284.753 417.008 -283.271 418.929 -282.121 421.242C-280.968 423.6 -280.284 426.314 -280.068 429.381C-279.852 432.449 -280.152 435.208 -280.967 437.657C-281.782 440.106 -282.98 442.214 -284.561 443.98C-286.142 445.747 -287.996 447.141 -290.123 448.163C-292.25 449.185 -294.542 449.782 -296.998 449.952C-299.41 450.12 -301.74 449.845 -303.99 449.127C-306.239 448.409 -308.271 447.285 -310.084 445.755C-311.897 444.224 -313.378 442.303 -314.528 439.99C-315.678 437.677 -316.361 434.987 -316.577 431.919ZM-298.921 422.617C-300.752 422.744 -302.336 423.199 -303.672 423.982C-305.005 424.811 -306.009 425.847 -306.684 427.091C-307.36 428.334 -307.643 429.734 -307.533 431.291C-307.427 432.802 -306.952 434.126 -306.109 435.264C-305.219 436.444 -304.057 437.33 -302.624 437.92C-301.191 438.511 -299.582 438.744 -297.795 438.62C-295.964 438.493 -294.381 438.037 -293.045 437.254C-291.708 436.471 -290.704 435.435 -290.032 434.146C-289.357 432.903 -289.072 431.526 -289.178 430.015C-289.288 428.458 -289.764 427.111 -290.607 425.973C-291.45 424.835 -292.589 423.948 -294.025 423.312C-295.458 422.721 -297.09 422.49 -298.921 422.617Z" fill="#FA6425"/>
<path fill-rule="evenodd" clip-rule="evenodd" d="M-350.932 389.618C-351.148 386.55 -350.85 383.769 -350.038 381.274C-349.223 378.825 -348.025 376.717 -346.444 374.95C-344.863 373.184 -343.009 371.79 -340.881 370.768C-338.751 369.791 -336.48 369.22 -334.068 369.052C-331.612 368.881 -329.261 369.132 -327.015 369.804C-324.765 370.522 -322.734 371.646 -320.921 373.176C-319.108 374.707 -317.626 376.628 -316.476 378.941C-315.323 381.299 -314.639 384.012 -314.423 387.08C-314.207 390.148 -314.507 392.907 -315.322 395.356C-316.137 397.805 -317.335 399.913 -318.916 401.679C-320.497 403.446 -322.351 404.84 -324.478 405.862C-326.606 406.884 -328.897 407.48 -331.353 407.651C-333.765 407.819 -336.096 407.544 -338.345 406.826C-340.595 406.108 -342.626 404.984 -344.439 403.454C-346.252 401.923 -347.733 400.002 -348.883 397.689C-350.033 395.376 -350.716 392.686 -350.932 389.618ZM-333.276 380.316C-335.107 380.443 -336.691 380.898 -338.027 381.681C-339.36 382.51 -340.364 383.546 -341.04 384.789C-341.715 386.033 -341.998 387.433 -341.889 388.99C-341.782 390.501 -341.308 391.825 -340.465 392.963C-339.574 394.143 -338.412 395.029 -336.979 395.619C-335.546 396.21 -333.937 396.443 -332.151 396.319C-330.32 396.191 -328.736 395.736 -327.4 394.953C-326.064 394.17 -325.059 393.134 -324.387 391.845C-323.712 390.602 -323.427 389.225 -323.533 387.714C-323.643 386.157 -324.119 384.809 -324.962 383.672C-325.805 382.534 -326.945 381.647 -328.38 381.011C-329.813 380.42 -331.445 380.188 -333.276 380.316Z" fill="#FA6425"/>
<path d="M-348.937 435.291L-347.058 443.689L-282.677 385.091L-284.556 376.693L-348.937 435.291Z" fill="#FA6425"/>
<path d="M-386.082 331.707L-382.136 339.356L-335.238 266.227L-339.184 258.578L-386.082 331.707Z" fill="#FA6425"/>
<path fill-rule="evenodd" clip-rule="evenodd" d="M-355.859 320.193C-356.849 317.279 -357.272 314.511 -357.128 311.889C-356.97 309.311 -356.357 306.965 -355.288 304.853C-354.22 302.74 -352.795 300.918 -351.012 299.386C-349.215 297.898 -347.179 296.766 -344.906 295.989C-342.59 295.197 -340.268 294.84 -337.939 294.918C-335.595 295.039 -333.357 295.609 -331.226 296.628C-329.094 297.647 -327.181 299.129 -325.487 301.075C-323.778 303.063 -322.429 305.515 -321.439 308.429C-320.45 311.343 -320.034 314.089 -320.193 316.668C-320.351 319.246 -320.964 321.592 -322.033 323.704C-323.101 325.817 -324.526 327.639 -326.309 329.171C-328.091 330.702 -330.14 331.864 -332.456 332.655C-334.73 333.433 -337.038 333.76 -339.382 333.639C-341.726 333.518 -343.963 332.948 -346.095 331.929C-348.227 330.91 -350.14 329.428 -351.834 327.483C-353.528 325.537 -354.87 323.108 -355.859 320.193ZM-341.273 306.689C-342.999 307.279 -344.404 308.123 -345.488 309.221C-346.557 310.363 -347.257 311.622 -347.589 312.998C-347.921 314.373 -347.835 315.8 -347.333 317.279C-346.846 318.715 -346.052 319.875 -344.953 320.762C-343.796 321.677 -342.454 322.238 -340.928 322.444C-339.401 322.651 -337.795 322.466 -336.111 321.89C-334.385 321.3 -332.98 320.456 -331.896 319.357C-330.813 318.259 -330.112 317 -329.795 315.581C-329.463 314.206 -329.541 312.8 -330.028 311.365C-330.531 309.886 -331.332 308.703 -332.431 307.817C-333.531 306.931 -334.852 306.363 -336.393 306.113C-337.92 305.907 -339.546 306.098 -341.273 306.689Z" fill="#FA6425"/>
<path fill-rule="evenodd" clip-rule="evenodd" d="M-399.644 288.01C-400.633 285.096 -401.056 282.328 -400.912 279.706C-400.754 277.128 -400.141 274.782 -399.072 272.67C-398.004 270.557 -396.579 268.735 -394.796 267.203C-392.999 265.715 -390.964 264.583 -388.69 263.806C-386.374 263.014 -384.052 262.657 -381.723 262.735C-379.379 262.856 -377.141 263.426 -375.01 264.445C-372.878 265.464 -370.965 266.946 -369.271 268.892C-367.562 270.88 -366.213 273.332 -365.223 276.246C-364.234 279.16 -363.818 281.906 -363.977 284.485C-364.135 287.063 -364.748 289.409 -365.817 291.521C-366.885 293.634 -368.31 295.456 -370.093 296.988C-371.875 298.519 -373.925 299.681 -376.24 300.472C-378.514 301.249 -380.823 301.577 -383.166 301.456C-385.51 301.335 -387.748 300.765 -389.879 299.746C-392.011 298.727 -393.924 297.245 -395.618 295.299C-397.312 293.354 -398.654 290.925 -399.644 288.01ZM-385.057 274.505C-386.783 275.095 -388.188 275.94 -389.272 277.038C-390.341 278.18 -391.041 279.439 -391.373 280.815C-391.705 282.19 -391.62 283.617 -391.118 285.096C-390.63 286.532 -389.837 287.692 -388.737 288.579C-387.58 289.494 -386.239 290.055 -384.712 290.261C-383.185 290.467 -381.58 290.283 -379.895 289.707C-378.169 289.117 -376.764 288.273 -375.68 287.174C-374.597 286.076 -373.896 284.817 -373.579 283.398C-373.247 282.022 -373.325 280.617 -373.813 279.182C-374.315 277.703 -375.116 276.52 -376.215 275.634C-377.315 274.748 -378.636 274.18 -380.177 273.93C-381.704 273.724 -383.331 273.915 -385.057 274.505Z" fill="#FA6425"/>
<path fill-rule="evenodd" clip-rule="evenodd" d="M-117.866 144.013C-119.09 146.859 -120.639 149.211 -122.513 151.07C-124.369 152.886 -126.408 154.22 -128.631 155.072C-130.853 155.924 -133.147 156.317 -135.513 156.251C-137.859 156.142 -140.145 155.607 -142.369 154.645C-144.634 153.666 -146.611 152.357 -148.301 150.72C-149.972 149.04 -151.261 147.097 -152.168 144.892C-153.076 142.686 -153.507 140.283 -153.464 137.683C-153.402 135.04 -152.759 132.296 -151.535 129.451C-150.311 126.606 -148.771 124.275 -146.915 122.459C-145.059 120.642 -143.019 119.308 -140.797 118.456C-138.574 117.604 -136.28 117.211 -133.915 117.277C-131.55 117.343 -129.235 117.866 -126.97 118.846C-124.746 119.808 -122.798 121.129 -121.127 122.808C-119.456 124.488 -118.167 126.431 -117.259 128.636C-116.352 130.842 -115.92 133.245 -115.964 135.845C-116.008 138.445 -116.642 141.168 -117.866 144.013ZM-137.875 144.198C-136.187 144.929 -134.567 145.252 -133.016 145.167C-131.447 145.04 -130.075 144.575 -128.9 143.774C-127.725 142.973 -126.827 141.85 -126.206 140.406C-125.603 139.005 -125.414 137.601 -125.639 136.194C-125.887 134.726 -126.513 133.398 -127.515 132.209C-128.518 131.02 -129.843 130.069 -131.491 129.356C-133.179 128.626 -134.799 128.303 -136.35 128.388C-137.9 128.473 -139.273 128.937 -140.466 129.781C-141.641 130.582 -142.53 131.684 -143.133 133.085C-143.754 134.529 -143.952 135.954 -143.727 137.361C-143.501 138.768 -142.897 140.087 -141.912 141.319C-140.909 142.508 -139.564 143.468 -137.875 144.198Z" fill="#FA6425"/>
<path fill-rule="evenodd" clip-rule="evenodd" d="M-128.921 90.3117C-130.145 93.157 -131.694 95.509 -133.568 97.3679C-135.424 99.1843 -137.464 100.518 -139.686 101.37C-141.909 102.222 -144.203 102.615 -146.568 102.549C-148.915 102.441 -151.2 101.906 -153.424 100.944C-155.69 99.9639 -157.667 98.6554 -159.356 97.0182C-161.027 95.3385 -162.316 93.3958 -163.224 91.1901C-164.131 88.9844 -164.563 86.5814 -164.519 83.9813C-164.457 81.3387 -163.814 78.5947 -162.59 75.7494C-161.366 72.9042 -159.826 70.5733 -157.97 68.757C-156.114 66.9406 -154.075 65.6065 -151.852 64.7546C-149.63 63.9027 -147.336 63.5097 -144.97 63.5757C-142.605 63.6417 -140.29 64.1645 -138.025 65.1442C-135.801 66.1061 -133.853 67.427 -132.182 69.1067C-130.511 70.7864 -129.222 72.7291 -128.315 74.9348C-127.407 77.1405 -126.976 79.5434 -127.019 82.1436C-127.063 84.7437 -127.697 87.4665 -128.921 90.3117ZM-148.931 90.4969C-147.242 91.2272 -145.622 91.55 -144.072 91.4652C-142.503 91.3379 -141.131 90.8736 -139.955 90.0723C-138.78 89.271 -137.882 88.1484 -137.261 86.7046C-136.658 85.3032 -136.469 83.899 -136.695 82.492C-136.943 81.0248 -137.568 79.6965 -138.571 78.5073C-139.574 77.3181 -140.899 76.3673 -142.546 75.6548C-144.235 74.9244 -145.854 74.6016 -147.405 74.6864C-148.956 74.7712 -150.328 75.2355 -151.521 76.0793C-152.696 76.8806 -153.585 77.9819 -154.188 79.3833C-154.809 80.8272 -155.007 82.2526 -154.782 83.6596C-154.557 85.0665 -153.952 86.3859 -152.968 87.6175C-151.965 88.8067 -150.619 89.7665 -148.931 90.4969Z" fill="#FA6425"/>
<path d="M-98.5605 102.215L-96.3564 93.8322L-180.71 116.594L-182.914 124.977L-98.5605 102.215Z" fill="#FA6425"/>
<path d="M-182.147 364.147L-175.461 369.664L-189.914 456L-196.6 450.484L-182.147 364.147Z" fill="#FA6425"/>
<path fill-rule="evenodd" clip-rule="evenodd" d="M-145.584 404.74C-143.513 407.046 -142.024 409.441 -141.118 411.926C-140.243 414.376 -139.882 416.791 -140.034 419.172C-140.186 421.552 -140.784 423.806 -141.828 425.931C-142.903 428.023 -144.339 429.88 -146.137 431.502C-147.968 433.155 -149.977 434.407 -152.165 435.26C-154.384 436.078 -156.682 436.439 -159.06 436.342C-161.438 436.244 -163.797 435.632 -166.137 434.503C-168.508 433.34 -170.729 431.606 -172.8 429.301C-174.872 426.995 -176.345 424.617 -177.22 422.167C-178.095 419.716 -178.457 417.301 -178.304 414.92C-178.152 412.54 -177.554 410.287 -176.51 408.161C-175.466 406.035 -174.029 404.146 -172.198 402.493C-170.4 400.871 -168.392 399.651 -166.173 398.832C-163.955 398.014 -161.656 397.653 -159.278 397.751C-156.9 397.848 -154.541 398.461 -152.201 399.589C-149.861 400.717 -147.656 402.434 -145.584 404.74ZM-153.742 423.037C-152.377 421.805 -151.41 420.466 -150.842 419.018C-150.304 417.536 -150.155 416.092 -150.392 414.687C-150.63 413.282 -151.275 411.994 -152.326 410.824C-153.346 409.688 -154.541 408.929 -155.911 408.545C-157.345 408.156 -158.81 408.17 -160.305 408.585C-161.801 409 -163.215 409.808 -164.546 411.01C-165.911 412.242 -166.878 413.582 -167.446 415.029C-168.015 416.477 -168.165 417.92 -167.896 419.36C-167.658 420.766 -167.029 422.036 -166.009 423.172C-164.958 424.342 -163.747 425.119 -162.378 425.503C-161.008 425.887 -159.56 425.888 -158.033 425.507C-156.537 425.092 -155.107 424.269 -153.742 423.037Z" fill="#FA6425"/>
<path fill-rule="evenodd" clip-rule="evenodd" d="M-198.889 392.325C-196.818 394.63 -195.329 397.026 -194.423 399.51C-193.548 401.961 -193.186 404.376 -193.338 406.757C-193.49 409.137 -194.088 411.39 -195.132 413.516C-196.207 415.608 -197.643 417.465 -199.441 419.087C-201.272 420.739 -203.282 421.992 -205.469 422.845C-207.688 423.663 -209.986 424.023 -212.364 423.926C-214.742 423.829 -217.101 423.216 -219.441 422.088C-221.812 420.925 -224.033 419.191 -226.105 416.885C-228.176 414.58 -229.649 412.202 -230.524 409.751C-231.4 407.301 -231.761 404.886 -231.609 402.505C-231.457 400.125 -230.859 397.871 -229.815 395.746C-228.771 393.62 -227.333 391.73 -225.502 390.078C-223.705 388.456 -221.696 387.235 -219.478 386.417C-217.259 385.599 -214.961 385.238 -212.583 385.335C-210.205 385.432 -207.846 386.045 -205.506 387.174C-203.166 388.302 -200.96 390.019 -198.889 392.325ZM-207.046 410.622C-205.681 409.39 -204.715 408.05 -204.146 406.603C-203.609 405.121 -203.459 403.677 -203.697 402.272C-203.935 400.866 -204.579 399.579 -205.63 398.409C-206.651 397.273 -207.846 396.513 -209.215 396.129C-210.649 395.741 -212.114 395.754 -213.61 396.169C-215.106 396.585 -216.519 397.393 -217.851 398.595C-219.216 399.827 -220.183 401.166 -220.751 402.614C-221.319 404.061 -221.469 405.505 -221.2 406.945C-220.962 408.35 -220.333 409.621 -219.313 410.756C-218.262 411.926 -217.052 412.703 -215.682 413.087C-214.312 413.471 -212.864 413.473 -211.337 413.092C-209.842 412.677 -208.411 411.854 -207.046 410.622Z" fill="#FA6425"/>
<path fill-rule="evenodd" clip-rule="evenodd" d="M-221.207 350.765C-222.943 353.333 -224.907 355.357 -227.099 356.837C-229.265 358.279 -231.521 359.214 -233.867 359.642C-236.214 360.071 -238.545 360.036 -240.86 359.537C-243.15 359 -245.299 358.056 -247.308 356.704C-249.354 355.327 -251.055 353.681 -252.412 351.764C-253.742 349.809 -254.648 347.667 -255.129 345.336C-255.61 343.005 -255.586 340.568 -255.057 338.024C-254.502 335.442 -253.357 332.867 -251.621 330.3C-249.885 327.732 -247.934 325.727 -245.768 324.285C-243.602 322.843 -241.346 321.908 -238.999 321.48C-236.653 321.051 -234.322 321.086 -232.007 321.585C-229.691 322.083 -227.511 323.021 -225.464 324.398C-223.455 325.75 -221.786 327.403 -220.455 329.358C-219.124 331.313 -218.219 333.456 -217.738 335.786C-217.257 338.117 -217.281 340.555 -217.81 343.098C-218.339 345.642 -219.471 348.197 -221.207 350.765ZM-240.934 347.277C-239.408 348.303 -237.875 348.917 -236.333 349.118C-234.765 349.281 -233.328 349.077 -232.021 348.506C-230.715 347.935 -229.622 346.999 -228.741 345.696C-227.886 344.431 -227.438 343.088 -227.396 341.666C-227.366 340.18 -227.734 338.762 -228.498 337.411C-229.263 336.06 -230.389 334.884 -231.878 333.883C-233.403 332.857 -234.937 332.243 -236.478 332.042C-238.02 331.84 -239.457 332.044 -240.79 332.653C-242.096 333.224 -243.176 334.142 -244.031 335.407C-244.912 336.71 -245.373 338.072 -245.415 339.494C-245.456 340.916 -245.107 342.322 -244.368 343.711C-243.604 345.062 -242.459 346.25 -240.934 347.277Z" fill="#FA6425"/>
<path fill-rule="evenodd" clip-rule="evenodd" d="M-222.054 296.039C-223.79 298.607 -225.754 300.631 -227.946 302.111C-230.112 303.553 -232.368 304.489 -234.715 304.917C-237.061 305.345 -239.392 305.31 -241.707 304.812C-243.997 304.275 -246.146 303.33 -248.155 301.979C-250.201 300.602 -251.902 298.955 -253.259 297.039C-254.59 295.084 -255.495 292.941 -255.976 290.61C-256.457 288.279 -256.433 285.842 -255.904 283.298C-255.349 280.717 -254.204 278.142 -252.468 275.574C-250.732 273.007 -248.781 271.002 -246.615 269.56C-244.449 268.118 -242.193 267.182 -239.847 266.754C-237.5 266.326 -235.169 266.361 -232.854 266.859C-230.539 267.358 -228.358 268.296 -226.312 269.672C-224.303 271.024 -222.633 272.678 -221.302 274.632C-219.971 276.587 -219.066 278.73 -218.585 281.061C-218.104 283.392 -218.128 285.829 -218.657 288.373C-219.186 290.916 -220.318 293.472 -222.054 296.039ZM-241.781 292.551C-240.255 293.578 -238.722 294.191 -237.18 294.393C-235.612 294.555 -234.175 294.352 -232.869 293.781C-231.562 293.21 -230.469 292.273 -229.588 290.97C-228.733 289.705 -228.285 288.362 -228.243 286.94C-228.213 285.455 -228.581 284.037 -229.345 282.686C-230.11 281.335 -231.236 280.159 -232.725 279.157C-234.25 278.131 -235.784 277.517 -237.326 277.316C-238.868 277.115 -240.305 277.319 -241.637 277.928C-242.943 278.499 -244.023 279.416 -244.878 280.681C-245.759 281.984 -246.221 283.347 -246.262 284.768C-246.303 286.19 -245.954 287.596 -245.216 288.985C-244.451 290.336 -243.306 291.525 -241.781 292.551Z" fill="#FA6425"/>
<path d="M-194.399 313.289L-190.664 305.466L-277.931 312.332L-281.666 320.154L-194.399 313.289Z" fill="#FA6425"/>
<path fill-rule="evenodd" clip-rule="evenodd" d="M-175.03 3.54068C-177.505 2.61826 -180.291 2.19736 -183.39 2.27793C-186.489 2.35852 -189.229 2.92316 -191.61 3.97187C-193.992 5.02057 -195.995 6.41824 -197.619 8.16492C-199.243 9.91159 -200.469 11.8946 -201.295 14.1139C-202.122 16.3332 -202.506 18.6531 -202.448 21.0737C-202.39 23.5391 -201.895 25.8586 -200.964 28.0322C-200.033 30.2058 -198.715 32.1227 -197.009 33.7827C-195.304 35.4428 -193.237 36.7347 -190.808 37.6583C-188.38 38.5819 -185.616 39.0034 -182.518 38.9229C-179.419 38.8423 -176.656 38.277 -174.228 37.2271C-171.847 36.1784 -169.844 34.7807 -168.219 33.0341C-166.595 31.2874 -165.37 29.3044 -164.543 27.0851C-163.763 24.867 -163.402 22.5252 -163.461 20.0598C-163.518 17.6393 -163.99 15.3416 -164.874 13.1668C-165.805 10.9932 -167.124 9.07633 -168.829 7.41623C-170.535 5.75614 -172.602 4.4643 -175.03 3.54068ZM-175.994 15.5416C-175.267 16.9132 -174.882 18.5179 -174.838 20.3557C-174.794 22.1935 -175.103 23.8163 -175.763 25.2239C-176.47 26.6328 -177.416 27.7339 -178.6 28.5272C-179.785 29.3205 -181.163 29.7375 -182.735 29.7784C-184.262 29.8181 -185.635 29.4726 -186.856 28.7418C-188.122 28.0123 -189.119 26.9617 -189.846 25.5902C-190.573 24.2186 -190.958 22.6139 -191.002 20.7761C-191.045 18.983 -190.736 17.3827 -190.075 15.9751C-189.414 14.5674 -188.469 13.4439 -187.24 12.6046C-186.055 11.8113 -184.7 11.3948 -183.174 11.3551C-181.602 11.3142 -180.205 11.6592 -178.984 12.3899C-177.764 13.1207 -176.767 14.1713 -175.994 15.5416Z" fill="#FA6425"/>
<path fill-rule="evenodd" clip-rule="evenodd" d="M-130.857 -28.9707C-133.332 -29.8931 -136.118 -30.314 -139.217 -30.2334C-142.315 -30.1529 -145.056 -29.5882 -147.437 -28.5395C-149.818 -27.4908 -151.821 -26.0931 -153.446 -24.3465C-155.07 -22.5998 -156.296 -20.6168 -157.122 -18.3975C-157.948 -16.1782 -158.333 -13.8582 -158.275 -11.4376C-158.217 -8.97225 -157.722 -6.65273 -156.791 -4.47915C-155.86 -2.30554 -154.541 -0.388699 -152.836 1.2714C-151.13 2.93146 -149.064 4.2233 -146.635 5.14692C-144.207 6.07056 -141.443 6.49207 -138.345 6.41151C-135.246 6.33094 -132.483 5.76569 -130.055 4.7158C-127.674 3.66709 -125.671 2.26939 -124.046 0.522713C-122.422 -1.22396 -121.196 -3.20693 -120.37 -5.42623C-119.59 -7.64434 -119.229 -9.98607 -119.288 -12.4515C-119.345 -14.8721 -119.817 -17.1698 -120.701 -19.3446C-121.632 -21.5182 -122.951 -23.435 -124.656 -25.0951C-126.362 -26.7552 -128.428 -28.047 -130.857 -28.9707ZM-131.821 -16.9697C-131.094 -15.5982 -130.709 -13.9935 -130.665 -12.1556C-130.621 -10.3178 -130.93 -8.69503 -131.59 -7.28741C-132.297 -5.87856 -133.243 -4.77749 -134.427 -3.98418C-135.611 -3.19088 -136.99 -2.77383 -138.562 -2.73293C-140.088 -2.69323 -141.462 -3.03878 -142.682 -3.76955C-143.949 -4.49911 -144.946 -5.54968 -145.673 -6.9212C-146.4 -8.29278 -146.785 -9.89746 -146.829 -11.7353C-146.871 -13.5283 -146.562 -15.1287 -145.902 -16.5363C-145.241 -17.9439 -144.296 -19.0674 -143.067 -19.9068C-141.882 -20.7001 -140.527 -21.1165 -139.001 -21.1562C-137.428 -21.1971 -136.032 -20.8522 -134.811 -20.1214C-133.591 -19.3906 -132.594 -18.3401 -131.821 -16.9697Z" fill="#FA6425"/>
<path d="M-193.835 -28.7428L-185.292 -30.2524L-129.263 36.7561L-137.805 38.2658L-193.835 -28.7428Z" fill="#FA6425"/>
<path fill-rule="evenodd" clip-rule="evenodd" d="M-277.068 27.1996C-276.852 30.2945 -277.15 33.1005 -277.963 35.6176C-278.778 38.0885 -279.977 40.2149 -281.559 41.9969C-283.141 43.7788 -284.997 45.1854 -287.125 46.2165C-289.257 47.2014 -291.529 47.7784 -293.943 47.9476C-296.401 48.1198 -298.753 47.867 -301.001 47.189C-303.252 46.4648 -305.285 45.3307 -307.099 43.7868C-308.913 42.2429 -310.396 40.3044 -311.547 37.9713C-312.701 35.592 -313.385 32.8549 -313.601 29.76C-313.817 26.6651 -313.517 23.8822 -312.702 21.4113C-311.886 18.9404 -310.687 16.8139 -309.105 15.0319C-307.523 13.25 -305.668 11.8435 -303.539 10.8123C-301.411 9.78121 -299.117 9.1795 -296.66 9.00726C-294.246 8.83813 -291.914 9.11565 -289.663 9.83984C-287.412 10.564 -285.38 11.6981 -283.565 13.242C-281.751 14.7859 -280.269 16.7245 -279.118 19.0576C-277.967 21.3907 -277.284 24.1047 -277.068 27.1996ZM-294.735 36.5842C-292.903 36.4558 -291.319 35.9966 -289.982 35.2066C-288.648 34.3704 -287.643 33.3252 -286.967 32.071C-286.291 30.8167 -286.008 29.4044 -286.117 27.8338C-286.224 26.3094 -286.699 24.9734 -287.542 23.8256C-288.434 22.6348 -289.596 21.7415 -291.03 21.1457C-292.464 20.5499 -294.074 20.3146 -295.862 20.4399C-297.694 20.5684 -299.279 21.0275 -300.616 21.8175C-301.953 22.6075 -302.958 23.6527 -303.63 24.9531C-304.306 26.2074 -304.591 27.5967 -304.485 29.1211C-304.375 30.6916 -303.899 32.0507 -303.055 33.1985C-302.212 34.3463 -301.071 35.2411 -299.634 35.8831C-298.201 36.4789 -296.568 36.7126 -294.735 36.5842Z" fill="#FA6425"/>
<path fill-rule="evenodd" clip-rule="evenodd" d="M-311.446 -15.4753C-311.23 -12.3803 -311.528 -9.57438 -312.341 -7.05726C-313.156 -4.58634 -314.355 -2.45991 -315.937 -0.677956C-317.52 1.104 -319.375 2.51052 -321.503 3.54168C-323.635 4.5266 -325.908 5.10363 -328.321 5.27279C-330.779 5.44503 -333.132 5.19216 -335.379 4.51418C-337.63 3.78997 -339.663 2.65587 -341.477 1.11199C-343.291 -0.431927 -344.774 -2.37043 -345.925 -4.70356C-347.079 -7.08287 -347.764 -9.81996 -347.98 -12.9148C-348.195 -16.0097 -347.896 -18.7927 -347.08 -21.2636C-346.264 -23.7345 -345.066 -25.8609 -343.483 -27.6429C-341.901 -29.4248 -340.046 -30.8314 -337.917 -31.8625C-335.789 -32.8936 -333.496 -33.4953 -331.038 -33.6676C-328.625 -33.8367 -326.292 -33.5592 -324.041 -32.835C-321.79 -32.1108 -319.758 -30.9768 -317.944 -29.4328C-316.129 -27.8889 -314.647 -25.9504 -313.496 -23.6173C-312.345 -21.2842 -311.662 -18.5702 -311.446 -15.4753ZM-329.114 -6.09062C-327.281 -6.21903 -325.697 -6.67826 -324.36 -7.46821C-323.026 -8.30439 -322.021 -9.34956 -321.345 -10.6038C-320.669 -11.8581 -320.386 -13.2705 -320.496 -14.841C-320.602 -16.3654 -321.077 -17.7014 -321.92 -18.8492C-322.812 -20.04 -323.974 -20.9334 -325.408 -21.5292C-326.842 -22.1249 -328.453 -22.3602 -330.24 -22.2349C-332.072 -22.1065 -333.657 -21.6473 -334.994 -20.8573C-336.331 -20.0674 -337.336 -19.0221 -338.009 -17.7217C-338.685 -16.4674 -338.969 -15.0782 -338.863 -13.5538C-338.753 -11.9832 -338.277 -10.6241 -337.433 -9.4763C-336.59 -8.32853 -335.45 -7.43369 -334.013 -6.7917C-332.579 -6.1959 -330.946 -5.9622 -329.114 -6.09062Z" fill="#FA6425"/>
<path d="M-279.064 -18.8763L-280.944 -27.3489L-345.368 31.7666L-343.488 40.2393L-279.064 -18.8763Z" fill="#FA6425"/>
<path d="M-143.516 195.902L-150.715 191.055L-156.692 278.294L-149.493 283.141L-143.516 195.902Z" fill="#FA6425"/>
<path fill-rule="evenodd" clip-rule="evenodd" d="M-110.332 227.929C-108.043 230.023 -106.327 232.263 -105.182 234.647C-104.071 237.001 -103.475 239.368 -103.395 241.75C-103.314 244.132 -103.69 246.43 -104.522 248.643C-105.389 250.826 -106.639 252.81 -108.271 254.595C-109.934 256.413 -111.814 257.851 -113.91 258.908C-116.041 259.934 -118.295 260.512 -120.673 260.643C-123.052 260.773 -125.462 260.389 -127.903 259.491C-130.378 258.561 -132.76 257.049 -135.048 254.954C-137.337 252.859 -139.036 250.635 -140.147 248.282C-141.258 245.929 -141.854 243.561 -141.935 241.18C-142.015 238.798 -141.639 236.5 -140.807 234.286C-139.974 232.072 -138.726 230.056 -137.064 228.238C-135.431 226.453 -133.549 225.047 -131.419 224.021C-129.288 222.996 -127.034 222.417 -124.656 222.287C-122.277 222.156 -119.867 222.54 -117.426 223.439C-114.985 224.337 -112.62 225.834 -110.332 227.929ZM-116.673 246.904C-115.434 245.548 -114.602 244.124 -114.177 242.63C-113.786 241.105 -113.777 239.655 -114.151 238.28C-114.525 236.905 -115.293 235.686 -116.454 234.623C-117.581 233.591 -118.846 232.95 -120.248 232.699C-121.714 232.45 -123.172 232.603 -124.622 233.159C-126.071 233.715 -127.401 234.654 -128.61 235.976C-129.85 237.332 -130.682 238.756 -131.107 240.25C-131.532 241.744 -131.541 243.194 -131.132 244.6C-130.758 245.975 -130.008 247.178 -128.881 248.21C-127.719 249.273 -126.438 249.93 -125.036 250.181C-123.634 250.432 -122.191 250.295 -120.707 249.771C-119.258 249.215 -117.913 248.259 -116.673 246.904Z" fill="#FA6425"/>
<path fill-rule="evenodd" clip-rule="evenodd" d="M-164.645 220.677C-162.357 222.772 -160.64 225.011 -159.495 227.396C-158.384 229.749 -157.788 232.116 -157.708 234.498C-157.627 236.88 -158.003 239.178 -158.836 241.391C-159.702 243.574 -160.952 245.558 -162.585 247.343C-164.248 249.161 -166.127 250.599 -168.224 251.656C-170.354 252.682 -172.608 253.26 -174.987 253.391C-177.365 253.521 -179.775 253.138 -182.216 252.239C-184.692 251.309 -187.073 249.797 -189.362 247.702C-191.65 245.607 -193.35 243.383 -194.461 241.03C-195.571 238.677 -196.167 236.31 -196.248 233.928C-196.329 231.546 -195.953 229.248 -195.12 227.034C-194.287 224.82 -193.04 222.804 -191.377 220.986C-189.744 219.201 -187.863 217.795 -185.732 216.769C-183.602 215.744 -181.347 215.165 -178.969 215.035C-176.59 214.904 -174.181 215.288 -171.739 216.187C-169.298 217.085 -166.933 218.582 -164.645 220.677ZM-170.987 239.652C-169.747 238.296 -168.915 236.872 -168.49 235.378C-168.099 233.853 -168.091 232.403 -168.465 231.028C-168.839 229.653 -169.606 228.434 -170.768 227.371C-171.895 226.339 -173.159 225.698 -174.561 225.447C-176.028 225.198 -177.486 225.351 -178.935 225.907C-180.385 226.463 -181.714 227.402 -182.924 228.724C-184.163 230.08 -184.996 231.504 -185.421 232.998C-185.845 234.492 -185.854 235.942 -185.446 237.348C-185.072 238.723 -184.321 239.926 -183.194 240.958C-182.033 242.021 -180.751 242.678 -179.349 242.929C-177.947 243.18 -176.504 243.043 -175.021 242.519C-173.571 241.963 -172.226 241.007 -170.987 239.652Z" fill="#FA6425"/>
<path fill-rule="evenodd" clip-rule="evenodd" d="M-403.657 120.248C-401.934 117.699 -399.984 115.69 -397.809 114.221C-395.659 112.789 -393.419 111.861 -391.09 111.436C-388.761 111.01 -386.447 111.045 -384.149 111.54C-381.876 112.073 -379.743 113.01 -377.749 114.352C-375.718 115.719 -374.029 117.353 -372.683 119.256C-371.362 121.196 -370.463 123.323 -369.985 125.637C-369.508 127.95 -369.532 130.37 -370.057 132.894C-370.607 135.457 -371.744 138.013 -373.468 140.562C-375.191 143.11 -377.127 145.1 -379.277 146.532C-381.427 147.963 -383.667 148.892 -385.996 149.317C-388.325 149.742 -390.639 149.707 -392.937 149.212C-395.235 148.717 -397.4 147.787 -399.431 146.42C-401.425 145.078 -403.083 143.437 -404.403 141.497C-405.724 139.556 -406.623 137.429 -407.101 135.116C-407.578 132.802 -407.554 130.383 -407.029 127.858C-406.504 125.333 -405.38 122.796 -403.657 120.248ZM-384.076 123.71C-385.59 122.691 -387.113 122.082 -388.643 121.882C-390.199 121.721 -391.626 121.923 -392.922 122.49C-394.219 123.056 -395.304 123.986 -396.179 125.28C-397.028 126.535 -397.473 127.868 -397.513 129.28C-397.543 130.754 -397.178 132.162 -396.419 133.503C-395.66 134.844 -394.542 136.011 -393.065 137.005C-391.551 138.024 -390.029 138.633 -388.498 138.833C-386.968 139.033 -385.541 138.83 -384.219 138.225C-382.923 137.659 -381.85 136.748 -381.001 135.493C-380.127 134.199 -379.669 132.847 -379.628 131.435C-379.587 130.024 -379.933 128.629 -380.667 127.25C-381.426 125.909 -382.562 124.729 -384.076 123.71Z" fill="#FA6425"/>
<path fill-rule="evenodd" clip-rule="evenodd" d="M-404.498 65.9262C-402.774 63.3775 -400.825 61.3685 -398.649 59.899C-396.5 58.4676 -394.26 57.5393 -391.931 57.1142C-389.602 56.689 -387.288 56.7238 -384.99 57.2186C-382.717 57.7515 -380.584 58.6889 -378.59 60.0307C-376.559 61.3974 -374.87 63.0319 -373.523 64.9342C-372.203 66.8746 -371.303 69.0016 -370.826 71.3153C-370.349 73.629 -370.373 76.0482 -370.898 78.573C-371.448 81.1358 -372.585 83.6915 -374.308 86.2402C-376.032 88.7889 -377.968 90.7789 -380.118 92.2103C-382.268 93.6417 -384.508 94.5701 -386.837 94.9952C-389.166 95.4204 -391.48 95.3855 -393.778 94.8907C-396.076 94.3959 -398.241 93.4651 -400.272 92.0984C-402.266 90.7566 -403.923 89.1155 -405.244 87.1751C-406.565 85.2348 -407.464 83.1077 -407.942 80.7941C-408.419 78.4804 -408.395 76.0611 -407.87 73.5364C-407.345 71.0116 -406.221 68.4749 -404.498 65.9262ZM-384.917 69.3885C-386.431 68.3697 -387.953 67.7605 -389.484 67.5608C-391.04 67.3991 -392.467 67.6015 -393.763 68.1682C-395.06 68.7348 -396.145 69.6647 -397.02 70.9581C-397.868 72.2135 -398.313 73.5468 -398.354 74.9583C-398.384 76.4327 -398.019 77.8403 -397.26 79.1812C-396.501 80.5221 -395.383 81.6896 -393.906 82.6835C-392.392 83.7023 -390.87 84.3116 -389.339 84.5113C-387.808 84.711 -386.382 84.5086 -385.06 83.9039C-383.763 83.3373 -382.691 82.4263 -381.842 81.171C-380.967 79.8777 -380.51 78.5253 -380.469 77.1138C-380.428 75.7023 -380.774 74.3071 -381.507 72.9281C-382.266 71.5872 -383.403 70.4073 -384.917 69.3885Z" fill="#FA6425"/>
<path d="M-431.107 103.126L-434.815 110.89L-348.192 104.075L-344.485 96.3106L-431.107 103.126Z" fill="#FA6425"/>
<path d="M-254.584 176.556L-258.559 168.849L-305.806 242.522L-301.831 250.229L-254.584 176.556Z" fill="#FA6425"/>
<path fill-rule="evenodd" clip-rule="evenodd" d="M-240.922 220.577C-239.925 223.513 -239.499 226.301 -239.644 228.943C-239.803 231.54 -240.421 233.903 -241.497 236.032C-242.573 238.16 -244.009 239.996 -245.805 241.539C-247.616 243.038 -249.666 244.179 -251.957 244.962C-254.29 245.759 -256.63 246.119 -258.976 246.04C-261.337 245.918 -263.591 245.344 -265.739 244.317C-267.886 243.291 -269.813 241.798 -271.52 239.838C-273.242 237.834 -274.601 235.365 -275.598 232.429C-276.595 229.493 -277.014 226.726 -276.854 224.129C-276.695 221.531 -276.077 219.168 -275 217.04C-273.924 214.911 -272.488 213.076 -270.692 211.533C-268.897 209.99 -266.832 208.82 -264.499 208.022C-262.209 207.239 -259.883 206.909 -257.522 207.031C-255.161 207.153 -252.906 207.728 -250.759 208.754C-248.611 209.781 -246.684 211.274 -244.977 213.234C-243.27 215.193 -241.919 217.641 -240.922 220.577ZM-255.617 234.182C-253.878 233.588 -252.462 232.737 -251.371 231.631C-250.294 230.48 -249.588 229.212 -249.254 227.826C-248.92 226.44 -249.005 225.003 -249.511 223.513C-250.002 222.067 -250.802 220.897 -251.91 220.004C-253.075 219.082 -254.427 218.517 -255.965 218.309C-257.503 218.102 -259.12 218.288 -260.817 218.867C-262.556 219.462 -263.971 220.312 -265.063 221.419C-266.155 222.526 -266.861 223.794 -267.18 225.224C-267.514 226.609 -267.436 228.025 -266.945 229.471C-266.439 230.961 -265.632 232.153 -264.524 233.045C-263.416 233.938 -262.086 234.51 -260.533 234.762C-258.995 234.97 -257.356 234.777 -255.617 234.182Z" fill="#FA6425"/>
<path fill-rule="evenodd" clip-rule="evenodd" d="M-285.032 188.154C-284.035 191.09 -283.609 193.879 -283.753 196.52C-283.913 199.118 -284.531 201.481 -285.607 203.609C-286.683 205.738 -288.119 207.573 -289.915 209.116C-291.726 210.616 -293.776 211.757 -296.067 212.539C-298.4 213.337 -300.739 213.696 -303.086 213.618C-305.447 213.496 -307.701 212.921 -309.849 211.895C-311.996 210.868 -313.923 209.375 -315.63 207.415C-317.352 205.412 -318.711 202.942 -319.708 200.006C-320.705 197.071 -321.123 194.304 -320.964 191.706C-320.804 189.109 -320.187 186.746 -319.11 184.617C-318.034 182.489 -316.598 180.653 -314.802 179.11C-313.006 177.567 -310.942 176.397 -308.609 175.6C-306.319 174.817 -303.993 174.487 -301.632 174.609C-299.27 174.731 -297.016 175.305 -294.869 176.332C-292.721 177.358 -290.794 178.852 -289.087 180.811C-287.38 182.771 -286.029 185.219 -285.032 188.154ZM-299.727 201.76C-297.988 201.165 -296.572 200.315 -295.481 199.208C-294.404 198.058 -293.698 196.789 -293.364 195.404C-293.03 194.018 -293.115 192.58 -293.621 191.09C-294.112 189.644 -294.912 188.475 -296.02 187.582C-297.185 186.66 -298.536 186.095 -300.075 185.887C-301.613 185.679 -303.23 185.865 -304.927 186.445C-306.666 187.039 -308.081 187.89 -309.173 188.997C-310.265 190.103 -310.971 191.372 -311.29 192.801C-311.624 194.187 -311.546 195.603 -311.055 197.049C-310.549 198.539 -309.742 199.73 -308.634 200.623C-307.526 201.516 -306.196 202.088 -304.643 202.34C-303.105 202.548 -301.466 202.354 -299.727 201.76Z" fill="#FA6425"/>
</svg>
