<svg width="320" height="138" viewBox="0 0 320 138" fill="none" xmlns="http://www.w3.org/2000/svg">
<path d="M37.6794 110.583L41.8925 105.475L-24.0447 94.4322L-28.2577 99.5405L37.6794 110.583Z" fill="#F25411"/>
<path fill-rule="evenodd" clip-rule="evenodd" d="M5.40293 136.821C7.3006 136.129 9.12986 134.992 10.8907 133.409C12.6515 131.827 13.9628 130.141 14.8246 128.354C15.6865 126.566 16.1545 124.764 16.2287 122.947C16.3029 121.13 16.0275 119.374 15.4026 117.679C14.7776 115.984 13.8456 114.449 12.6066 113.076C11.3446 111.677 9.90182 110.579 8.27818 109.781C6.65455 108.984 4.93372 108.527 3.1157 108.41C1.29769 108.294 -0.54702 108.57 -2.41841 109.239C-4.28981 109.908 -6.10592 111.033 -7.86674 112.616C-9.62756 114.198 -10.952 115.895 -11.8401 117.707C-12.7019 119.494 -13.17 121.297 -13.2442 123.113C-13.3184 124.93 -13.043 126.686 -12.418 128.381C-11.7668 130.053 -10.8102 131.588 -9.54823 132.987C-8.30921 134.36 -6.89102 135.458 -5.29367 136.279C-3.67003 137.077 -1.9492 137.533 -0.131186 137.65C1.68684 137.766 3.53153 137.49 5.40293 136.821ZM-0.0137588 129.392C-1.11926 128.958 -2.14238 128.219 -3.08312 127.177C-4.02386 126.134 -4.65277 125.041 -4.96985 123.898C-5.26064 122.732 -5.25942 121.625 -4.96618 120.579C-4.67294 119.532 -4.07954 118.608 -3.18599 117.804C-2.31872 117.025 -1.3484 116.544 -0.275031 116.363C0.824618 116.157 1.92719 116.272 3.03269 116.706C4.1382 117.14 5.16132 117.879 6.10206 118.922C7.01985 119.939 7.63729 121.019 7.95436 122.162C8.27144 123.305 8.2817 124.424 7.98512 125.519C7.69188 126.566 7.11162 127.479 6.24435 128.258C5.3508 129.061 4.36734 129.554 3.29397 129.736C2.2206 129.917 1.11803 129.803 -0.0137588 129.392Z" fill="#F25411"/>
<path fill-rule="evenodd" clip-rule="evenodd" d="M14.8848 96.0958C16.7825 95.4036 18.6117 94.2662 20.3725 92.6837C22.1334 91.1012 23.4447 89.4161 24.3065 87.6283C25.1683 85.8405 25.6363 84.0382 25.7105 82.2214C25.7847 80.4045 25.5094 78.6486 24.8844 76.9535C24.2595 75.2584 23.3275 73.7241 22.0884 72.3506C20.8265 70.9516 19.3837 69.8534 17.76 69.0558C16.1364 68.2583 14.4156 67.8014 12.5976 67.6851C10.7795 67.5689 8.93483 67.8451 7.06344 68.5137C5.19205 69.1823 3.37593 70.3079 1.61512 71.8904C-0.14571 73.4729 -1.47017 75.1698 -2.35827 76.9812C-3.22009 78.769 -3.68811 80.5713 -3.76232 82.3881C-3.83652 84.2049 -3.56115 85.9609 -2.93619 87.656C-2.28495 89.3275 -1.32835 90.8627 -0.0663782 92.2616C1.17264 93.6351 2.59083 94.7325 4.18818 95.5537C5.81182 96.3512 7.53265 96.8081 9.35066 96.9244C11.1687 97.0406 13.0134 96.7644 14.8848 96.0958ZM9.46809 88.6669C8.36259 88.2327 7.33946 87.4941 6.39873 86.4513C5.45799 85.4084 4.82908 84.3156 4.512 83.1728C4.22121 82.0064 4.22243 80.9 4.51567 79.8535C4.80891 78.807 5.40231 77.8822 6.29587 77.0792C7.16314 76.2997 8.13345 75.8192 9.20682 75.6374C10.3065 75.4321 11.4091 75.5466 12.5145 75.9808C13.6201 76.415 14.6432 77.1535 15.5839 78.1964C16.5017 79.2138 17.1191 80.2939 17.4362 81.4366C17.7533 82.5794 17.7635 83.6986 17.467 84.7941C17.1737 85.8406 16.5935 86.7536 15.7262 87.5331C14.8326 88.3361 13.8492 88.8285 12.7758 89.0102C11.7025 89.1919 10.5999 89.0775 9.46809 88.6669Z" fill="#F25411"/>
<path fill-rule="evenodd" clip-rule="evenodd" d="M36.828 15.5408C34.9866 14.0525 33.575 12.427 32.5932 10.6645C31.6388 8.92418 31.0769 7.14881 30.9075 5.33832C30.7382 3.52786 30.9211 1.75991 31.4563 0.0345021C32.019 -1.66871 32.883 -3.23848 34.0483 -4.67483C35.2352 -6.13777 36.6047 -7.32099 38.1568 -8.22449C39.7364 -9.10579 41.4309 -9.65195 43.2403 -9.863C45.0498 -10.0741 46.9064 -9.89462 48.8103 -9.32466C50.7417 -8.7325 52.6281 -7.69225 54.4695 -6.20391C56.3109 -4.71557 57.7087 -3.10123 58.6631 -1.36094C59.6175 0.37937 60.1794 2.15477 60.3487 3.96524C60.5181 5.77571 60.3352 7.54365 59.8 9.26906C59.2647 10.9945 58.4037 12.5887 57.2168 14.0516C56.0515 15.488 54.679 16.6468 53.0994 17.5281C51.5199 18.4093 49.8253 18.9555 48.0159 19.1666C46.2065 19.3776 44.3498 19.1982 42.4459 18.6282C40.5421 18.0583 38.6694 17.0291 36.828 15.5408ZM40.8092 0.78982C39.9245 1.8804 39.3537 3.00456 39.097 4.16233C38.8678 5.34233 38.927 6.4472 39.2747 7.47694C39.6224 8.5067 40.2635 9.39921 41.1979 10.1545C42.1049 10.8876 43.0991 11.3168 44.1805 11.4422C45.311 11.5632 46.4168 11.378 47.4981 10.8866C48.5793 10.3953 49.5515 9.6176 50.4147 8.55364C51.2994 7.46308 51.8702 6.33891 52.1269 5.18113C52.3836 4.02336 52.3244 2.91848 51.9492 1.86651C51.6015 0.836768 50.9742 -0.044641 50.0672 -0.777703C49.1328 -1.53297 48.1248 -1.97332 47.0434 -2.0987C45.962 -2.22408 44.8669 -2.05219 43.7582 -1.58304C42.677 -1.09169 41.694 -0.300732 40.8092 0.78982Z" fill="#F25411"/>
<path fill-rule="evenodd" clip-rule="evenodd" d="M-9.18939 7.68767C-8.20752 9.45018 -6.7959 11.0756 -4.95452 12.564C-3.11313 14.0523 -1.24049 15.0814 0.663397 15.6514C2.56729 16.2213 4.42394 16.4008 6.23337 16.1897C8.0428 15.9787 9.73732 15.4325 11.3169 14.5512C12.8965 13.6699 14.2689 12.5111 15.4343 11.0748C16.6211 9.61183 17.4822 8.01765 18.0174 6.29224C18.5526 4.56681 18.7356 2.79887 18.5662 0.988398C18.3968 -0.822065 17.835 -2.59745 16.8806 -4.33776C15.9262 -6.07807 14.5283 -7.69239 12.6869 -9.18074C10.8455 -10.6691 8.95916 -11.7093 7.02779 -12.3015C5.1239 -12.8714 3.26725 -13.0509 1.45781 -12.8398C-0.351616 -12.6288 -2.04613 -12.0826 -3.62572 -11.2013C-5.17783 -10.2978 -6.54732 -9.1146 -7.73421 -7.65165C-8.89952 -6.21531 -9.76352 -4.64553 -10.3262 -2.94232C-10.8615 -1.21691 -11.0444 0.551036 -10.875 2.3615C-10.7056 4.17197 -10.1438 5.94736 -9.18939 7.68767ZM-2.68555 1.18551C-2.42882 0.0277244 -1.85808 -1.09645 -0.973307 -2.187C-0.0885364 -3.27756 0.894459 -4.06852 1.97568 -4.55989C3.08439 -5.02903 4.17945 -5.20091 5.26087 -5.07553C6.3423 -4.95014 7.35023 -4.50981 8.28466 -3.75452C9.19161 -3.02147 9.81894 -2.14006 10.1666 -1.11031C10.5418 -0.0583444 10.6011 1.04652 10.3444 2.20429C10.0876 3.36207 9.51689 4.48624 8.63213 5.57681C7.76893 6.64077 6.79673 7.41843 5.71551 7.90979C4.63429 8.40114 3.52843 8.58634 2.39794 8.46532C1.31652 8.33995 0.322332 7.91073 -0.584615 7.17766C-1.51905 6.42239 -2.16013 5.52988 -2.50784 4.50012C-2.85555 3.47038 -2.91478 2.36551 -2.68555 1.18551Z" fill="#F25411"/>
<path d="M27.5372 38.7571L21.8233 35.4028L22.4355 -31.3284L28.1494 -27.9741L27.5372 38.7571Z" fill="#F25411"/>
<path fill-rule="evenodd" clip-rule="evenodd" d="M118.044 64.7114C115.688 64.9586 113.538 64.8056 111.595 64.2523C109.688 63.6953 108.033 62.8364 106.63 61.6758C105.228 60.5151 104.105 59.1359 103.261 57.5381C102.452 55.9366 101.951 54.2168 101.758 52.3787C101.56 50.5065 101.691 48.7033 102.148 46.969C102.641 45.231 103.452 43.6488 104.582 42.2225C105.712 40.7962 107.152 39.6127 108.902 38.6719C110.687 37.7275 112.758 37.1317 115.114 36.8845C117.471 36.6373 119.603 36.7922 121.51 37.3492C123.418 37.9062 125.073 38.765 126.476 39.9257C127.878 41.0863 129.001 42.4655 129.845 44.0633C130.689 45.6612 131.209 47.3961 131.406 49.2683C131.6 51.1064 131.451 52.8945 130.958 54.6325C130.465 56.3705 129.654 57.9526 128.524 59.379C127.394 60.8053 125.954 61.9888 124.204 62.9295C122.454 63.8702 120.401 64.4642 118.044 64.7114ZM110.41 51.471C110.556 52.8666 110.949 54.0644 111.588 55.0642C112.262 56.0604 113.086 56.7998 114.062 57.2826C115.037 57.7653 116.123 57.944 117.319 57.8185C118.479 57.6967 119.486 57.2986 120.34 56.624C121.225 55.9116 121.876 55.0002 122.292 53.8897C122.709 52.7791 122.845 51.543 122.702 50.1815C122.555 48.7859 122.162 47.5881 121.523 46.5883C120.885 45.5884 120.06 44.849 119.049 44.3699C118.074 43.8872 117.006 43.7067 115.845 43.8285C114.65 43.9539 113.625 44.3539 112.771 45.0285C111.918 45.7031 111.265 46.5975 110.814 47.7118C110.397 48.8223 110.263 50.0754 110.41 51.471Z" fill="#F25411"/>
<path fill-rule="evenodd" clip-rule="evenodd" d="M79.9419 91.6369C81.8848 92.1902 84.0344 92.3432 86.3909 92.096C88.7473 91.8488 90.8006 91.2548 92.5506 90.3141C94.3006 89.3734 95.7406 88.1899 96.8705 86.7636C98.0005 85.3373 98.8117 83.7551 99.3043 82.0171C99.797 80.2791 99.9465 78.491 99.7529 76.6529C99.5558 74.7807 99.0353 73.0458 98.1914 71.448C97.3475 69.8501 96.2244 68.4709 94.8221 67.3103C93.4197 66.1496 91.7647 65.2908 89.857 64.7338C87.9492 64.1768 85.8171 64.0219 83.4607 64.2691C81.1042 64.5163 79.0334 65.1121 77.2482 66.0565C75.4982 66.9973 74.0582 68.1808 72.9283 69.6071C71.7983 71.0334 70.9871 72.6156 70.4945 74.3536C70.037 76.0879 69.9069 77.8912 70.104 79.7633C70.2976 81.6014 70.7987 83.3212 71.6074 84.9227C72.4513 86.5205 73.5744 87.8998 74.9767 89.0604C76.3791 90.2211 78.0341 91.0799 79.9419 91.6369ZM79.9344 82.4488C79.2958 81.449 78.903 80.2512 78.756 78.8556C78.609 77.46 78.7438 76.207 79.1602 75.0964C79.6119 73.9822 80.2644 73.0877 81.1179 72.4131C81.9714 71.7385 82.9961 71.3385 84.1919 71.2131C85.3525 71.0913 86.4205 71.2718 87.3959 71.7545C88.4065 72.2336 89.2311 72.973 89.8697 73.9729C90.5084 74.9728 90.9012 76.1705 91.0482 77.5661C91.1916 78.9277 91.055 80.1637 90.6386 81.2743C90.2221 82.3848 89.5714 83.2963 88.6863 84.0086C87.8328 84.6832 86.8257 85.0814 85.6651 85.2031C84.4692 85.3286 83.3837 85.1499 82.4083 84.6672C81.4329 84.1845 80.6083 83.445 79.9344 82.4488Z" fill="#F25411"/>
<path d="M127.922 87.6852L121.505 89.3462L74.6638 41.728L81.0805 40.067L127.922 87.6852Z" fill="#F25411"/>
<path fill-rule="evenodd" clip-rule="evenodd" d="M237.862 -37.2169C236.074 -35.6653 234.225 -34.56 232.316 -33.9009C230.433 -33.265 228.584 -33.021 226.768 -33.1689C224.952 -33.3168 223.24 -33.8036 221.63 -34.6293C220.047 -35.4782 218.649 -36.6001 217.434 -37.995C216.196 -39.4157 215.267 -40.9673 214.645 -42.6499C214.05 -44.3556 213.805 -46.1161 213.911 -47.9314C214.017 -49.7466 214.516 -51.5405 215.409 -53.313C216.329 -55.1086 217.683 -56.7823 219.471 -58.3338C221.259 -59.8854 223.095 -60.9792 224.978 -61.6151C226.861 -62.251 228.71 -62.495 230.525 -62.3471C232.341 -62.1992 234.054 -61.7124 235.663 -60.8867C237.273 -60.061 238.696 -58.9378 239.933 -57.517C241.148 -56.1222 242.053 -54.5719 242.648 -52.8661C243.244 -51.1604 243.488 -49.3999 243.382 -47.5847C243.276 -45.7694 242.777 -43.9755 241.884 -42.203C240.991 -40.4305 239.65 -38.7685 237.862 -37.2169ZM223.999 -43.6918C224.922 -42.6327 225.932 -41.8765 227.03 -41.4231C228.154 -40.9929 229.254 -40.8592 230.331 -41.0222C231.407 -41.1852 232.399 -41.6603 233.307 -42.4477C234.187 -43.2119 234.783 -44.1146 235.095 -45.1559C235.411 -46.2461 235.42 -47.3653 235.123 -48.5134C234.826 -49.6615 234.227 -50.7522 233.328 -51.7855C232.405 -52.8446 231.395 -53.6008 230.297 -54.0542C229.2 -54.5076 228.099 -54.6412 226.996 -54.4551C225.92 -54.2921 224.941 -53.8285 224.06 -53.0643C223.153 -52.2769 222.544 -51.3626 222.232 -50.3214C221.921 -49.2802 221.9 -48.1739 222.17 -47.0026C222.467 -45.8545 223.077 -44.7509 223.999 -43.6918Z" fill="#F25411"/>
<path fill-rule="evenodd" clip-rule="evenodd" d="M222.123 6.65301C224.033 5.99393 225.881 4.88859 227.67 3.33702C229.458 1.78544 230.798 0.123397 231.691 -1.6491C232.584 -3.42158 233.084 -5.21546 233.19 -7.03072C233.296 -8.846 233.051 -10.6065 232.456 -12.3122C231.861 -14.0179 230.956 -15.5682 229.741 -16.9631C228.504 -18.3838 227.08 -19.5071 225.471 -20.3328C223.861 -21.1585 222.149 -21.6453 220.333 -21.7932C218.517 -21.9411 216.668 -21.6971 214.785 -21.0612C212.902 -20.4252 211.067 -19.3315 209.279 -17.7799C207.49 -16.2283 206.137 -14.5547 205.217 -12.7591C204.324 -10.9866 203.824 -9.1927 203.719 -7.37743C203.613 -5.56216 203.857 -3.80167 204.452 -2.09595C205.074 -0.413384 206.004 1.13825 207.241 2.55897C208.456 3.95384 209.855 5.07573 211.438 5.92461C213.047 6.75034 214.76 7.23714 216.575 7.38504C218.391 7.53294 220.24 7.28892 222.123 6.65301ZM216.837 -0.869161C215.739 -1.32256 214.729 -2.0788 213.807 -3.13787C212.885 -4.19694 212.275 -5.30056 211.978 -6.44869C211.707 -7.61997 211.728 -8.72624 212.04 -9.76747C212.351 -10.8087 212.961 -11.723 213.868 -12.5104C214.749 -13.2746 215.727 -13.7382 216.804 -13.9011C217.907 -14.0873 219.007 -13.9536 220.105 -13.5002C221.203 -13.0469 222.213 -12.2906 223.135 -11.2315C224.035 -10.1983 224.633 -9.10761 224.93 -7.95947C225.227 -6.81135 225.218 -5.69217 224.902 -4.60194C224.591 -3.56072 223.995 -2.658 223.114 -1.89377C222.207 -1.10641 221.215 -0.631234 220.138 -0.468268C219.062 -0.30529 217.962 -0.438925 216.837 -0.869161Z" fill="#F25411"/>
<path d="M259.155 -24.0528L254.853 -19.0187L189.119 -31.2082L193.421 -36.2424L259.155 -24.0528Z" fill="#F25411"/>
<path fill-rule="evenodd" clip-rule="evenodd" d="M314.509 26.4782C312.499 27.7315 310.5 28.5345 308.511 28.8873C306.551 29.2214 304.687 29.1737 302.916 28.7441C301.146 28.3145 299.531 27.5663 298.071 26.4994C296.641 25.4139 295.435 24.0874 294.454 22.52C293.454 20.9236 292.779 19.2459 292.429 17.4869C292.108 15.7093 292.142 13.9322 292.531 12.1559C292.921 10.3795 293.695 8.6857 294.855 7.07445C296.045 5.44451 297.644 4.00292 299.654 2.74964C301.663 1.49639 303.647 0.702712 305.607 0.368607C307.566 0.0344916 309.431 0.0822311 311.201 0.511814C312.971 0.941397 314.586 1.68963 316.046 2.75648C317.507 3.82334 318.736 5.15498 319.736 6.75139C320.717 8.3188 321.368 9.99131 321.688 11.769C322.009 13.5466 321.975 15.3236 321.586 17.1C321.196 18.8764 320.422 20.5702 319.262 22.1814C318.102 23.7927 316.518 25.2249 314.509 26.4782ZM301.831 17.9185C302.576 19.1085 303.455 20.0132 304.469 20.6324C305.512 21.2329 306.578 21.5367 307.666 21.5438C308.755 21.5509 309.809 21.2365 310.829 20.6005C311.819 19.9832 312.549 19.1847 313.02 18.2049C313.502 17.1774 313.687 16.0734 313.573 14.8931C313.46 13.7127 313.04 12.542 312.313 11.381C311.568 10.1909 310.689 9.28628 309.676 8.66705C308.663 8.04784 307.597 7.74403 306.478 7.75564C305.389 7.74854 304.35 8.05363 303.36 8.6709C302.341 9.30689 301.596 10.1148 301.125 11.0945C300.654 12.0743 300.46 13.1637 300.544 14.3628C300.657 15.5432 301.086 16.7284 301.831 17.9185Z" fill="#F25411"/>
<path fill-rule="evenodd" clip-rule="evenodd" d="M292.088 67.3505C294.077 66.9977 296.076 66.1947 298.086 64.9414C300.095 63.6882 301.68 62.2559 302.839 60.6447C303.999 59.0334 304.773 57.3396 305.163 55.5633C305.552 53.7869 305.586 52.0099 305.266 50.2322C304.945 48.4545 304.294 46.782 303.313 45.2146C302.313 43.6182 301.084 42.2866 299.623 41.2197C298.163 40.1529 296.548 39.4046 294.778 38.975C293.008 38.5455 291.143 38.4977 289.184 38.8318C287.224 39.1659 285.24 39.9596 283.231 41.2129C281.221 42.4661 279.622 43.9077 278.432 45.5377C277.272 47.1489 276.498 48.8427 276.109 50.6191C275.719 52.3955 275.685 54.1725 276.006 55.9502C276.356 57.7091 277.031 59.3868 278.031 60.9832C279.012 62.5506 280.218 63.8771 281.648 64.9627C283.108 66.0295 284.723 66.7777 286.493 67.2073C288.264 67.6369 290.128 67.6847 292.088 67.3505ZM288.046 59.0956C287.032 58.4764 286.153 57.5718 285.408 56.3817C284.663 55.1917 284.234 54.0064 284.121 52.8261C284.037 51.627 284.231 50.5376 284.702 49.5578C285.173 48.578 285.918 47.7701 286.938 47.1341C287.927 46.5169 288.966 46.2118 290.055 46.2189C291.174 46.2073 292.24 46.5111 293.253 47.1303C294.266 47.7495 295.145 48.6541 295.89 49.8442C296.617 51.0052 297.037 52.1759 297.151 53.3563C297.264 54.5367 297.079 55.6406 296.597 56.6681C296.126 57.6479 295.396 58.4464 294.406 59.0637C293.386 59.6997 292.332 60.0141 291.243 60.0071C290.155 60 289.089 59.6961 288.046 59.0956Z" fill="#F25411"/>
<path d="M333.476 42.8049L328.438 47.1054L265.424 24.802L270.462 20.5015L333.476 42.8049Z" fill="#F25411"/>
<path fill-rule="evenodd" clip-rule="evenodd" d="M299.78 -41.6011C302.144 -41.7661 304.287 -41.5383 306.209 -40.9176C308.096 -40.2945 309.72 -39.3786 311.081 -38.1698C312.442 -36.961 313.516 -35.5435 314.304 -33.9172C315.056 -32.2885 315.497 -30.5523 315.626 -28.7086C315.758 -26.8307 315.564 -25.0331 315.047 -23.3158C314.494 -21.596 313.627 -20.043 312.448 -18.6569C311.269 -17.2709 309.789 -16.1382 308.007 -15.259C306.19 -14.3774 304.099 -13.8541 301.736 -13.6891C299.372 -13.5241 297.247 -13.7532 295.36 -14.3763C293.473 -14.9994 291.849 -15.9154 290.488 -17.1242C289.127 -18.333 288.052 -19.7505 287.265 -21.3767C286.477 -23.0029 286.018 -24.755 285.886 -26.6329C285.757 -28.4766 285.969 -30.2584 286.522 -31.9782C287.075 -33.698 287.941 -35.2509 289.121 -36.637C290.3 -38.0231 291.78 -39.1557 293.562 -40.0349C295.344 -40.9141 297.417 -41.4362 299.78 -41.6011ZM306.948 -28.1029C306.849 -29.5027 306.499 -30.7134 305.895 -31.7349C305.257 -32.754 304.459 -33.5217 303.501 -34.0381C302.543 -34.5545 301.464 -34.7709 300.265 -34.6871C299.1 -34.6059 298.08 -34.243 297.204 -33.5986C296.294 -32.9175 295.612 -32.0293 295.157 -30.934C294.702 -29.8386 294.522 -28.608 294.618 -27.2423C294.716 -25.8424 295.067 -24.6317 295.67 -23.6102C296.273 -22.5887 297.071 -21.821 298.065 -21.307C299.023 -20.7906 300.084 -20.5731 301.248 -20.6543C302.447 -20.738 303.485 -21.1021 304.362 -21.7466C305.238 -22.391 305.922 -23.2622 306.412 -24.36C306.867 -25.4554 307.046 -26.703 306.948 -28.1029Z" fill="#F25411"/>
<path fill-rule="evenodd" clip-rule="evenodd" d="M338.801 -67.183C336.879 -67.8037 334.736 -68.0315 332.372 -67.8666C330.008 -67.7016 327.936 -67.1795 326.154 -66.3003C324.372 -65.4211 322.891 -64.2885 321.712 -62.9024C320.533 -61.5163 319.667 -59.9634 319.114 -58.2436C318.561 -56.5238 318.349 -54.742 318.478 -52.8983C318.61 -51.0204 319.069 -49.2684 319.857 -47.6421C320.644 -46.0159 321.718 -44.5984 323.079 -43.3896C324.44 -42.1808 326.064 -41.2648 327.951 -40.6417C329.838 -40.0186 331.964 -39.7896 334.327 -39.9545C336.691 -40.1195 338.782 -40.6428 340.599 -41.5245C342.381 -42.4037 343.861 -43.5363 345.04 -44.9224C346.219 -46.3085 347.085 -47.8614 347.638 -49.5812C348.156 -51.2985 348.349 -53.0961 348.218 -54.974C348.089 -56.8177 347.648 -58.5539 346.896 -60.1827C346.108 -61.8089 345.034 -63.2264 343.673 -64.4352C342.312 -65.644 340.688 -66.56 338.801 -67.183ZM338.487 -58.0004C339.091 -56.9788 339.441 -55.7682 339.539 -54.3683C339.637 -52.9684 339.459 -51.7208 339.004 -50.6254C338.514 -49.5276 337.83 -48.6565 336.954 -48.012C336.077 -47.3675 335.039 -47.0035 333.84 -46.9197C332.675 -46.8385 331.614 -47.0561 330.656 -47.5725C329.663 -48.0864 328.865 -48.8542 328.262 -49.8757C327.658 -50.8972 327.308 -52.1079 327.21 -53.5077C327.114 -54.8735 327.294 -56.104 327.749 -57.1994C328.204 -58.2947 328.886 -59.183 329.795 -59.864C330.672 -60.5085 331.692 -60.8713 332.856 -60.9526C334.056 -61.0363 335.135 -60.8199 336.092 -60.3035C337.05 -59.7871 337.849 -59.0194 338.487 -58.0004Z" fill="#F25411"/>
<path d="M290.712 -64.905L297.183 -66.3415L342.331 -17.1206L335.86 -15.6841L290.712 -64.905Z" fill="#F25411"/>
<path fill-rule="evenodd" clip-rule="evenodd" d="M141.36 -40.7806C139.901 -38.917 138.297 -37.4799 136.549 -36.4692C134.822 -35.4864 133.054 -34.8947 131.243 -34.694C129.433 -34.4934 127.658 -34.6451 125.921 -35.1491C124.205 -35.681 122.617 -36.5159 121.158 -37.6537C119.672 -38.8127 118.463 -40.1588 117.53 -41.692C116.62 -43.253 116.043 -44.9346 115.8 -46.7367C115.557 -48.5388 115.705 -50.3948 116.243 -52.3048C116.802 -54.2426 117.811 -56.1433 119.27 -58.007C120.729 -59.8706 122.321 -61.2938 124.048 -62.2767C125.775 -63.2595 127.543 -63.8512 129.354 -64.0519C131.164 -64.2525 132.939 -64.1008 134.676 -63.5968C136.414 -63.0927 138.026 -62.2612 139.512 -61.1023C140.971 -59.9644 142.156 -58.6149 143.067 -57.0539C143.977 -55.4929 144.554 -53.8113 144.797 -52.0092C145.04 -50.2071 144.892 -48.3511 144.354 -46.4411C143.817 -44.5311 142.819 -42.6443 141.36 -40.7806ZM126.514 -44.4964C127.622 -43.6324 128.758 -43.0824 129.922 -42.8464C131.108 -42.6383 132.214 -42.7167 133.239 -43.0816C134.265 -43.4466 135.148 -44.102 135.888 -45.0477C136.606 -45.9656 137.019 -46.9653 137.126 -48.0467C137.227 -49.177 137.022 -50.2774 136.511 -51.3479C136 -52.4184 135.204 -53.375 134.124 -54.2179C133.016 -55.0819 131.88 -55.6318 130.715 -55.8678C129.551 -56.1038 128.445 -56.0254 127.398 -55.6326C126.373 -55.2676 125.501 -54.6262 124.782 -53.7083C124.042 -52.7626 123.618 -51.749 123.512 -50.6676C123.405 -49.5861 123.596 -48.4963 124.086 -47.398C124.597 -46.3275 125.406 -45.3603 126.514 -44.4964Z" fill="#F25411"/>
<path fill-rule="evenodd" clip-rule="evenodd" d="M134.296 5.281C136.045 4.27036 137.648 2.83321 139.107 0.969575C140.566 -0.894072 141.564 -2.78088 142.102 -4.69087C142.64 -6.60087 142.787 -8.4569 142.544 -10.259C142.301 -12.0611 141.724 -13.7427 140.814 -15.3037C139.903 -16.8647 138.719 -18.2142 137.26 -19.352C135.773 -20.511 134.161 -21.3425 132.424 -21.8465C130.686 -22.3506 128.912 -22.5023 127.101 -22.3016C125.291 -22.101 123.522 -21.5093 121.795 -20.5265C120.069 -19.5436 118.476 -18.1204 117.017 -16.2568C115.558 -14.3931 114.549 -12.4924 113.99 -10.5546C113.452 -8.64459 113.305 -6.78854 113.548 -4.98645C113.791 -3.18437 114.367 -1.50281 115.278 0.0582136C116.21 1.59143 117.419 2.93751 118.905 4.09646C120.364 5.23435 121.952 6.06921 123.668 6.60107C125.406 7.1051 127.18 7.25681 128.99 7.05617C130.801 6.85555 132.57 6.26383 134.296 5.281ZM127.67 -1.09623C126.505 -1.33224 125.369 -1.88221 124.261 -2.74616C123.153 -3.61011 122.344 -4.57731 121.833 -5.64778C121.344 -6.74606 121.152 -7.83591 121.259 -8.91734C121.366 -9.99877 121.789 -11.0123 122.53 -11.9581C123.248 -12.876 124.12 -13.5174 125.145 -13.8824C126.193 -14.2752 127.298 -14.3536 128.463 -14.1176C129.627 -13.8816 130.763 -13.3317 131.871 -12.4677C132.952 -11.6248 133.748 -10.6681 134.259 -9.59768C134.77 -8.52722 134.975 -7.42682 134.873 -6.29651C134.766 -5.21508 134.354 -4.2154 133.635 -3.29749C132.895 -2.35177 132.012 -1.69641 130.987 -1.33143C129.961 -0.966446 128.856 -0.888058 127.67 -1.09623Z" fill="#F25411"/>
<path d="M164.778 -31.9137L161.518 -26.1528L94.6613 -25.5992L97.9216 -31.3601L164.778 -31.9137Z" fill="#F25411"/>
<path fill-rule="evenodd" clip-rule="evenodd" d="M190.807 64.4851C189.586 62.4579 188.817 60.4486 188.498 58.4572C188.197 56.496 188.278 54.6359 188.739 52.8768C189.2 51.1177 189.978 49.5188 191.072 48.0802C192.185 46.6718 193.534 45.4916 195.122 44.5397C196.738 43.5702 198.43 42.9258 200.199 42.6067C201.985 42.3178 203.764 42.383 205.537 42.8024C207.31 43.2218 208.993 44.0242 210.587 45.2098C212.199 46.4256 213.615 48.047 214.835 50.0742C216.055 52.1014 216.816 54.0956 217.116 56.0568C217.417 58.018 217.336 59.8781 216.875 61.6372C216.414 63.3963 215.636 64.9952 214.542 66.4338C213.448 67.8725 212.093 69.0766 210.476 70.0461C208.889 70.998 207.202 71.6184 205.416 71.9073C203.629 72.1962 201.85 72.1309 200.077 71.7116C198.305 71.2922 196.621 70.4897 195.028 69.3042C193.434 68.1187 192.027 66.5123 190.807 64.4851ZM199.602 51.9829C198.397 52.7056 197.476 53.5671 196.838 54.5674C196.218 55.598 195.895 56.6565 195.869 57.7428C195.843 58.8292 196.139 59.8867 196.759 60.9154C197.36 61.9139 198.147 62.6567 199.12 63.1437C200.141 63.6433 201.243 63.8468 202.428 63.7542C203.612 63.6616 204.792 63.2627 205.968 62.5576C207.173 61.8348 208.095 60.9733 208.733 59.973C209.371 58.9727 209.694 57.9142 209.701 56.7976C209.728 55.7112 209.44 54.6688 208.839 53.6704C208.22 52.6416 207.423 51.8838 206.45 51.3968C205.477 50.9098 204.389 50.6974 203.186 50.7598C202.002 50.8524 200.807 51.2601 199.602 51.9829Z" fill="#F25411"/>
<path fill-rule="evenodd" clip-rule="evenodd" d="M150.255 41.396C150.574 43.3874 151.343 45.3968 152.564 47.424C153.784 49.4512 155.191 51.0575 156.785 52.2431C158.379 53.4286 160.062 54.231 161.835 54.6504C163.607 55.0698 165.387 55.135 167.173 54.8461C168.959 54.5572 170.646 53.9368 172.233 52.9849C173.85 52.0154 175.205 50.8113 176.299 49.3727C177.394 47.934 178.171 46.3351 178.633 44.576C179.094 42.8169 179.174 40.9568 178.874 38.9956C178.573 37.0345 177.813 35.0403 176.592 33.0131C175.372 30.9859 173.956 29.3644 172.344 28.1486C170.75 26.9631 169.067 26.1606 167.294 25.7413C165.522 25.3219 163.742 25.2566 161.956 25.5455C160.188 25.8647 158.495 26.509 156.879 27.4786C155.292 28.4305 153.942 29.6106 152.829 31.019C151.735 32.4577 150.958 34.0565 150.496 35.8156C150.035 37.5747 149.955 39.4349 150.255 41.396ZM158.595 37.5063C159.233 36.506 160.154 35.6444 161.359 34.9217C162.565 34.199 163.759 33.7913 164.944 33.6986C166.146 33.6363 167.234 33.8486 168.207 34.3356C169.181 34.8226 169.977 35.5805 170.596 36.6092C171.197 37.6077 171.485 38.6501 171.459 39.7364C171.451 40.853 171.128 41.9115 170.49 42.9118C169.852 43.9121 168.93 44.7737 167.725 45.4964C166.55 46.2015 165.37 46.6004 164.185 46.693C163.001 46.7856 161.898 46.5821 160.877 46.0825C159.904 45.5955 159.117 44.8528 158.516 43.8543C157.897 42.8256 157.6 41.768 157.626 40.6817C157.652 39.5953 157.975 38.5369 158.595 37.5063Z" fill="#F25411"/>
<path d="M174.121 83.1295L169.901 78.0268L193.342 15.529L197.562 20.6316L174.121 83.1295Z" fill="#F25411"/>
<path fill-rule="evenodd" clip-rule="evenodd" d="M33.9145 -71.1056C36.2032 -71.7177 38.3504 -71.9022 40.3561 -71.6591C42.3277 -71.4068 44.0969 -70.817 45.6639 -69.8896C47.2309 -68.9622 48.5564 -67.7753 49.6403 -66.3289C50.69 -64.8734 51.4545 -63.253 51.9338 -61.4678C52.4219 -59.6495 52.576 -57.8481 52.396 -56.0637C52.1818 -54.2702 51.6285 -52.5808 50.736 -50.9956C49.8435 -49.4104 48.6068 -48.0166 47.0257 -46.8142C45.4105 -45.6027 43.4586 -44.6909 41.1699 -44.0788C38.8812 -43.4667 36.7511 -43.2868 34.7796 -43.539C32.808 -43.7913 31.0387 -44.3811 29.4718 -45.3085C27.9048 -46.2359 26.5793 -47.4228 25.4954 -48.8692C24.4115 -50.3155 23.6255 -51.9479 23.1374 -53.7662C22.6581 -55.5514 22.5256 -57.3408 22.7397 -59.1344C22.9539 -60.9279 23.5072 -62.6173 24.3997 -64.2025C25.2922 -65.7877 26.5289 -67.1814 28.11 -68.3838C29.691 -69.5862 31.6259 -70.4935 33.9145 -71.1056ZM43.5306 -59.2203C43.1667 -60.5758 42.591 -61.6975 41.8035 -62.5853C40.9818 -63.464 40.0514 -64.0656 39.0124 -64.3901C37.9734 -64.7145 36.8732 -64.7215 35.7117 -64.4109C34.5845 -64.1094 33.6522 -63.5589 32.9149 -62.7593C32.1524 -61.9176 31.6525 -60.9157 31.4152 -59.7538C31.1779 -58.5919 31.2368 -57.3497 31.5918 -56.0273C31.9557 -54.6719 32.5314 -53.5502 33.3189 -52.6624C34.1064 -51.7745 35.0368 -51.173 36.11 -50.8576C37.149 -50.5331 38.2321 -50.5216 39.3594 -50.8231C40.5208 -51.1337 41.4702 -51.6888 42.2074 -52.4884C42.9447 -53.2879 43.449 -54.2732 43.7205 -55.4443C43.9577 -56.6062 43.8944 -57.8649 43.5306 -59.2203Z" fill="#F25411"/>
<path fill-rule="evenodd" clip-rule="evenodd" d="M67.3281 -103.649C65.3224 -103.892 63.1752 -103.708 60.8865 -103.096C58.5978 -102.483 56.6629 -101.576 55.0819 -100.374C53.5008 -99.1714 52.2641 -97.7777 51.3716 -96.1925C50.4791 -94.6073 49.9258 -92.9179 49.7116 -91.1244C49.4975 -89.3309 49.63 -87.5415 50.1093 -85.7562C50.5974 -83.9379 51.3834 -82.3055 52.4673 -80.8592C53.5512 -79.4128 54.8767 -78.2259 56.4437 -77.2985C58.0107 -76.3711 59.7799 -75.7813 61.7515 -75.529C63.723 -75.2768 65.8531 -75.4567 68.1418 -76.0688C70.4305 -76.6809 72.3824 -77.5927 73.9976 -78.8043C75.5787 -80.0067 76.8155 -81.4004 77.7079 -82.9856C78.6004 -84.5708 79.1537 -86.2602 79.3679 -88.0537C79.5479 -89.8381 79.3938 -91.6395 78.9057 -93.4578C78.4264 -95.243 77.6619 -96.8634 76.6122 -98.3189C75.5283 -99.7653 74.2028 -100.952 72.6359 -101.88C71.0689 -102.807 69.2996 -103.397 67.3281 -103.649ZM68.7754 -94.5753C69.5629 -93.6875 70.1386 -92.5658 70.5025 -91.2103C70.8664 -89.8549 70.9297 -88.5962 70.6924 -87.4343C70.421 -86.2632 69.9166 -85.2779 69.1794 -84.4784C68.4421 -83.6788 67.4927 -83.1237 66.3313 -82.8131C65.204 -82.5116 64.1209 -82.5231 63.0819 -82.8476C62.0087 -83.163 61.0784 -83.7646 60.2908 -84.6524C59.5033 -85.5402 58.9276 -86.6619 58.5637 -88.0174C58.2087 -89.3398 58.1499 -90.5819 58.3871 -91.7438C58.6244 -92.9057 59.1243 -93.9076 59.8869 -94.7493C60.6241 -95.5489 61.5564 -96.0994 62.6837 -96.4009C63.8451 -96.7115 64.9453 -96.7046 65.9843 -96.3801C67.0234 -96.0556 67.9537 -95.454 68.7754 -94.5753Z" fill="#F25411"/>
<path d="M20.5581 -92.2542L26.6354 -94.8966L80.3631 -55.1786L74.2858 -52.5361L20.5581 -92.2542Z" fill="#F25411"/>
<path fill-rule="evenodd" clip-rule="evenodd" d="M207.721 -231.198C207.508 -229.188 207.725 -227.043 208.371 -224.763C209.017 -222.483 209.953 -220.561 211.178 -218.998C212.404 -217.434 213.815 -216.218 215.413 -215.349C217.011 -214.48 218.708 -213.952 220.504 -213.764C222.299 -213.577 224.086 -213.737 225.863 -214.243C227.673 -214.758 229.293 -215.569 230.722 -216.675C232.152 -217.781 233.318 -219.124 234.222 -220.706C235.125 -222.287 235.688 -224.065 235.911 -226.041C236.133 -228.017 235.922 -230.145 235.275 -232.425C234.629 -234.705 233.689 -236.644 232.454 -238.242C231.228 -239.805 229.816 -241.021 228.219 -241.89C226.621 -242.759 224.924 -243.287 223.128 -243.475C221.342 -243.628 219.544 -243.447 217.734 -242.931C215.957 -242.425 214.348 -241.636 212.909 -240.564C211.48 -239.459 210.313 -238.115 209.41 -236.534C208.507 -234.952 207.944 -233.174 207.721 -231.198ZM216.769 -232.782C217.644 -233.583 218.757 -234.175 220.106 -234.56C221.455 -234.944 222.713 -235.026 223.877 -234.806C225.052 -234.552 226.044 -234.063 226.855 -233.337C227.665 -232.612 228.234 -231.67 228.562 -230.513C228.88 -229.39 228.885 -228.307 228.576 -227.262C228.277 -226.184 227.689 -225.245 226.814 -224.444C225.938 -223.642 224.826 -223.05 223.476 -222.666C222.16 -222.291 220.919 -222.213 219.754 -222.433C218.59 -222.653 217.581 -223.138 216.728 -223.888C215.918 -224.614 215.353 -225.538 215.035 -226.661C214.707 -227.818 214.698 -228.919 215.007 -229.963C215.315 -231.007 215.903 -231.947 216.769 -232.782Z" fill="#F25411"/>
<path fill-rule="evenodd" clip-rule="evenodd" d="M240.1 -204.698C239.887 -202.688 240.103 -200.543 240.749 -198.263C241.395 -195.983 242.331 -194.061 243.557 -192.498C244.782 -190.934 246.194 -189.718 247.792 -188.849C249.39 -187.98 251.086 -187.452 252.882 -187.265C254.678 -187.078 256.465 -187.237 258.242 -187.743C260.052 -188.259 261.672 -189.069 263.101 -190.175C264.53 -191.281 265.697 -192.625 266.6 -194.206C267.504 -195.787 268.067 -197.566 268.289 -199.542C268.512 -201.518 268.3 -203.646 267.654 -205.926C267.008 -208.206 266.067 -210.145 264.832 -211.742C263.607 -213.305 262.195 -214.522 260.597 -215.391C258.999 -216.26 257.303 -216.788 255.507 -216.975C253.721 -217.128 251.922 -216.947 250.112 -216.432C248.335 -215.926 246.727 -215.137 245.288 -214.065C243.859 -212.959 242.692 -211.615 241.789 -210.034C240.885 -208.453 240.322 -206.674 240.1 -204.698ZM249.147 -206.282C250.023 -207.083 251.135 -207.676 252.485 -208.06C253.834 -208.444 255.091 -208.526 256.256 -208.307C257.43 -208.053 258.423 -207.563 259.233 -206.837C260.043 -206.112 260.612 -205.171 260.94 -204.014C261.258 -202.891 261.263 -201.807 260.954 -200.763C260.655 -199.685 260.068 -198.745 259.192 -197.944C258.317 -197.143 257.204 -196.55 255.855 -196.166C254.539 -195.791 253.298 -195.713 252.133 -195.933C250.968 -196.153 249.959 -196.638 249.106 -197.388C248.296 -198.114 247.732 -199.038 247.414 -200.161C247.086 -201.318 247.076 -202.419 247.385 -203.463C247.694 -204.507 248.281 -205.447 249.147 -206.282Z" fill="#F25411"/>
<path d="M219.811 -184.586L217.079 -190.625L255.972 -244.963L258.704 -238.924L219.811 -184.586Z" fill="#F25411"/>
<path d="M189.23 -423.344L185.555 -417.885L251.69 -413.353L255.364 -418.812L189.23 -423.344Z" fill="#F25411"/>
<path fill-rule="evenodd" clip-rule="evenodd" d="M208.011 -407.321C209.599 -409.056 211.297 -410.358 213.104 -411.227C214.888 -412.069 216.683 -412.521 218.489 -412.582C220.294 -412.643 222.036 -412.358 223.714 -411.727C225.369 -411.069 226.873 -410.122 228.226 -408.883C229.605 -407.622 230.695 -406.197 231.496 -404.607C232.274 -402.992 232.712 -401.282 232.811 -399.478C232.91 -397.674 232.619 -395.847 231.938 -393.995C231.233 -392.118 230.086 -390.312 228.498 -388.577C226.91 -386.841 225.224 -385.552 223.441 -384.71C221.657 -383.867 219.862 -383.415 218.056 -383.354C216.251 -383.293 214.509 -383.578 212.83 -384.21C211.152 -384.841 209.624 -385.787 208.245 -387.048C206.892 -388.287 205.827 -389.713 205.049 -391.329C204.271 -392.945 203.833 -394.654 203.734 -396.458C203.635 -398.262 203.926 -400.09 204.607 -401.941C205.288 -403.792 206.423 -405.586 208.011 -407.321ZM222.396 -402.512C221.368 -403.452 220.288 -404.083 219.156 -404.405C218 -404.702 216.9 -404.708 215.858 -404.424C214.816 -404.141 213.892 -403.559 213.086 -402.678C212.304 -401.823 211.817 -400.864 211.627 -399.801C211.438 -398.689 211.555 -397.583 211.976 -396.484C212.397 -395.384 213.109 -394.376 214.112 -393.459C215.139 -392.519 216.219 -391.888 217.352 -391.566C218.484 -391.243 219.583 -391.237 220.649 -391.546C221.692 -391.83 222.604 -392.399 223.386 -393.254C224.192 -394.135 224.69 -395.107 224.88 -396.17C225.07 -397.233 224.967 -398.327 224.569 -399.453C224.148 -400.552 223.423 -401.572 222.396 -402.512Z" fill="#F25411"/>
<path fill-rule="evenodd" clip-rule="evenodd" d="M213.508 -448.511C215.097 -450.246 216.794 -451.548 218.602 -452.416C220.386 -453.259 222.181 -453.711 223.986 -453.772C225.792 -453.833 227.534 -453.548 229.212 -452.916C230.867 -452.259 232.371 -451.311 233.724 -450.073C235.102 -448.812 236.192 -447.387 236.993 -445.797C237.771 -444.181 238.21 -442.472 238.309 -440.668C238.408 -438.864 238.117 -437.037 237.435 -435.185C236.73 -433.308 235.584 -431.502 233.996 -429.766C232.408 -428.031 230.722 -426.742 228.938 -425.899C227.154 -425.057 225.359 -424.605 223.554 -424.544C221.748 -424.483 220.006 -424.768 218.328 -425.399C216.65 -426.031 215.121 -426.977 213.743 -428.238C212.39 -429.476 211.324 -430.903 210.546 -432.519C209.769 -434.134 209.33 -435.844 209.231 -437.648C209.132 -439.452 209.423 -441.279 210.105 -443.131C210.786 -444.982 211.92 -446.775 213.508 -448.511ZM227.893 -443.701C226.866 -444.642 225.786 -445.273 224.653 -445.595C223.497 -445.891 222.398 -445.898 221.356 -445.614C220.313 -445.33 219.389 -444.748 218.583 -443.868C217.801 -443.013 217.315 -442.054 217.125 -440.991C216.936 -439.879 217.052 -438.773 217.474 -437.673C217.895 -436.574 218.607 -435.566 219.609 -434.649C220.637 -433.709 221.717 -433.078 222.849 -432.755C223.982 -432.433 225.081 -432.427 226.147 -432.736C227.189 -433.02 228.101 -433.589 228.883 -434.444C229.689 -435.324 230.187 -436.296 230.378 -437.36C230.568 -438.423 230.464 -439.517 230.066 -440.642C229.645 -441.742 228.921 -442.761 227.893 -443.701Z" fill="#F25411"/>
<path fill-rule="evenodd" clip-rule="evenodd" d="M159.352 -362.079C159.564 -364.074 159.349 -366.203 158.707 -368.466C158.066 -370.729 157.137 -372.637 155.921 -374.189C154.704 -375.741 153.303 -376.948 151.717 -377.811C150.131 -378.673 148.447 -379.197 146.664 -379.383C144.882 -379.569 143.108 -379.411 141.344 -378.909C139.548 -378.397 137.94 -377.592 136.521 -376.494C135.102 -375.397 133.944 -374.063 133.047 -372.493C132.151 -370.924 131.592 -369.158 131.371 -367.197C131.15 -365.236 131.36 -363.124 132.001 -360.86C132.643 -358.597 133.576 -356.672 134.802 -355.087C136.019 -353.535 137.42 -352.328 139.006 -351.465C140.592 -350.603 142.276 -350.078 144.059 -349.892C145.832 -349.74 147.617 -349.92 149.414 -350.432C151.178 -350.934 152.774 -351.717 154.202 -352.781C155.621 -353.879 156.779 -355.213 157.676 -356.782C158.573 -358.352 159.132 -360.117 159.352 -362.079ZM150.372 -360.507C149.503 -359.711 148.398 -359.123 147.059 -358.742C145.72 -358.36 144.472 -358.279 143.315 -358.497C142.15 -358.749 141.164 -359.235 140.36 -359.955C139.556 -360.675 138.991 -361.61 138.666 -362.758C138.35 -363.873 138.345 -364.949 138.652 -365.985C138.948 -367.055 139.532 -367.988 140.401 -368.783C141.27 -369.578 142.374 -370.166 143.713 -370.548C145.02 -370.92 146.252 -370.997 147.408 -370.779C148.564 -370.56 149.566 -370.079 150.412 -369.334C151.216 -368.614 151.776 -367.697 152.092 -366.582C152.418 -365.434 152.427 -364.341 152.121 -363.305C151.814 -362.268 151.231 -361.335 150.372 -360.507Z" fill="#F25411"/>
<path fill-rule="evenodd" clip-rule="evenodd" d="M191.492 -335.775C191.703 -337.77 191.488 -339.899 190.847 -342.162C190.206 -344.425 189.277 -346.333 188.06 -347.885C186.844 -349.437 185.443 -350.644 183.857 -351.507C182.271 -352.369 180.586 -352.893 178.804 -353.079C177.021 -353.265 175.248 -353.107 173.484 -352.605C171.687 -352.093 170.079 -351.288 168.66 -350.19C167.242 -349.093 166.084 -347.759 165.187 -346.189C164.29 -344.62 163.731 -342.854 163.51 -340.893C163.289 -338.932 163.5 -336.82 164.141 -334.556C164.782 -332.293 165.716 -330.369 166.942 -328.783C168.158 -327.231 169.56 -326.024 171.146 -325.161C172.732 -324.299 174.416 -323.774 176.199 -323.588C177.972 -323.436 179.756 -323.616 181.553 -324.128C183.317 -324.63 184.913 -325.413 186.342 -326.477C187.761 -327.575 188.919 -328.909 189.815 -330.478C190.712 -332.048 191.271 -333.813 191.492 -335.775ZM182.511 -334.203C181.642 -333.408 180.538 -332.819 179.198 -332.438C177.859 -332.056 176.611 -331.975 175.455 -332.193C174.289 -332.445 173.304 -332.931 172.5 -333.651C171.695 -334.371 171.131 -335.306 170.805 -336.454C170.489 -337.569 170.485 -338.645 170.791 -339.681C171.088 -340.751 171.671 -341.684 172.54 -342.479C173.409 -343.274 174.514 -343.863 175.853 -344.244C177.16 -344.616 178.391 -344.693 179.547 -344.475C180.704 -344.257 181.705 -343.775 182.552 -343.03C183.356 -342.31 183.916 -341.393 184.232 -340.278C184.557 -339.13 184.567 -338.037 184.26 -337.001C183.954 -335.964 183.371 -335.032 182.511 -334.203Z" fill="#F25411"/>
<path d="M179.491 -382.042L182.203 -376.047L143.597 -322.111L140.885 -328.106L179.491 -382.042Z" fill="#F25411"/>
<path d="M-16.7871 -321.572L-17.9315 -328.051L32.8666 -370.542L34.0111 -364.063L-16.7871 -321.572Z" fill="#F25411"/>
<path fill-rule="evenodd" clip-rule="evenodd" d="M-16.9598 -369.333C-17.659 -367.456 -17.9781 -365.343 -17.9171 -362.993C-17.856 -360.643 -17.4279 -358.565 -16.6329 -356.759C-15.8379 -354.953 -14.7784 -353.434 -13.4542 -352.202C-12.1301 -350.97 -10.6268 -350.041 -8.94442 -349.414C-7.26199 -348.788 -5.50329 -348.496 -3.66829 -348.54C-1.7993 -348.584 -0.0409244 -348.96 1.60684 -349.666C3.25462 -350.372 4.70775 -351.371 5.96623 -352.665C7.22471 -353.958 8.20404 -355.526 8.90422 -357.367C9.6044 -359.209 9.92395 -361.305 9.86287 -363.655C9.80178 -366.005 9.37329 -368.1 8.57737 -369.941C7.78237 -371.747 6.7228 -373.266 5.39867 -374.498C4.07455 -375.73 2.57129 -376.659 0.888873 -377.286C-0.792641 -377.878 -2.56788 -378.151 -4.43687 -378.107C-6.27187 -378.063 -8.01372 -377.706 -9.6624 -377.035C-11.3102 -376.329 -12.7633 -375.329 -14.0218 -374.036C-15.2803 -372.742 -16.2596 -371.175 -16.9598 -369.333ZM-7.86209 -368.602C-6.82233 -369.153 -5.60582 -369.445 -4.21258 -369.479C-2.81933 -369.512 -1.58916 -369.278 -0.522057 -368.777C0.545959 -368.241 1.38067 -367.524 1.98206 -366.626C2.58345 -365.727 2.89963 -364.682 2.93063 -363.49C2.96072 -362.332 2.69877 -361.291 2.14478 -360.365C1.59171 -359.404 0.795299 -358.648 -0.244446 -358.097C-1.2842 -357.546 -2.50069 -357.254 -3.89394 -357.22C-5.25321 -357.188 -6.46638 -357.422 -7.53349 -357.923C-8.60059 -358.424 -9.4523 -359.141 -10.0886 -360.074C-10.69 -360.972 -11.0057 -362 -11.0358 -363.157C-11.0668 -364.349 -10.8053 -365.409 -10.2513 -366.334C-9.69733 -367.26 -8.90093 -368.016 -7.86209 -368.602Z" fill="#F25411"/>
<path fill-rule="evenodd" clip-rule="evenodd" d="M7.68654 -335.833C6.98727 -333.957 6.66819 -331.843 6.72928 -329.493C6.79036 -327.143 7.21841 -325.065 8.01342 -323.259C8.80842 -321.453 9.86798 -319.934 11.1921 -318.703C12.5162 -317.471 14.0195 -316.541 15.7019 -315.915C17.3843 -315.288 19.143 -314.996 20.978 -315.04C22.847 -315.084 24.6054 -315.46 26.2532 -316.166C27.901 -316.872 29.3541 -317.872 30.6126 -319.165C31.871 -320.458 32.8504 -322.026 33.5506 -323.868C34.2507 -325.709 34.5703 -327.805 34.5092 -330.155C34.4481 -332.505 34.0196 -334.6 33.2237 -336.441C32.4287 -338.247 31.3691 -339.766 30.045 -340.998C28.7209 -342.23 27.2176 -343.16 25.5352 -343.786C23.8537 -344.378 22.0784 -344.652 20.2094 -344.607C18.3744 -344.563 16.6326 -344.206 14.9839 -343.535C13.3361 -342.829 11.883 -341.829 10.6245 -340.536C9.36606 -339.243 8.38673 -337.675 7.68654 -335.833ZM16.7843 -335.102C17.824 -335.654 19.0405 -335.946 20.4337 -335.979C21.827 -336.012 23.0572 -335.778 24.1243 -335.277C25.1923 -334.741 26.027 -334.024 26.6284 -333.126C27.2298 -332.228 27.546 -331.182 27.577 -329.99C27.607 -328.832 27.3451 -327.791 26.7911 -326.865C26.2381 -325.904 25.4416 -325.148 24.4019 -324.597C23.3621 -324.046 22.1456 -323.754 20.7524 -323.721C19.3931 -323.688 18.18 -323.923 17.1128 -324.424C16.0457 -324.925 15.194 -325.641 14.5578 -326.574C13.9564 -327.472 13.6406 -328.5 13.6105 -329.657C13.5795 -330.85 13.841 -331.909 14.395 -332.835C14.949 -333.76 15.7454 -334.516 16.7843 -335.102Z" fill="#F25411"/>
<path d="M281.095 -378.311L276.921 -373.239L342.246 -362.274L346.42 -367.346L281.095 -378.311Z" fill="#F25411"/>
<path fill-rule="evenodd" clip-rule="evenodd" d="M313.071 -404.365C311.191 -403.678 309.379 -402.548 307.635 -400.977C305.89 -399.406 304.591 -397.732 303.737 -395.957C302.883 -394.182 302.42 -392.392 302.346 -390.588C302.273 -388.784 302.546 -387.04 303.165 -385.357C303.784 -383.674 304.707 -382.15 305.935 -380.787C307.185 -379.397 308.614 -378.307 310.223 -377.515C311.831 -376.723 313.536 -376.269 315.337 -376.154C317.139 -376.038 318.966 -376.313 320.82 -376.977C322.674 -377.641 324.473 -378.758 326.218 -380.33C327.962 -381.901 329.275 -383.586 330.154 -385.385C331.008 -387.16 331.472 -388.95 331.545 -390.754C331.619 -392.558 331.346 -394.301 330.727 -395.985C330.082 -397.644 329.134 -399.169 327.884 -400.558C326.656 -401.922 325.251 -403.011 323.669 -403.827C322.06 -404.619 320.355 -405.073 318.554 -405.188C316.753 -405.303 314.925 -405.029 313.071 -404.365ZM318.438 -396.988C319.533 -396.557 320.547 -395.824 321.479 -394.788C322.411 -393.753 323.034 -392.668 323.348 -391.533C323.636 -390.375 323.635 -389.276 323.344 -388.237C323.054 -387.198 322.466 -386.279 321.581 -385.482C320.721 -384.708 319.76 -384.231 318.697 -384.05C317.607 -383.847 316.515 -383.96 315.42 -384.391C314.324 -384.822 313.311 -385.556 312.379 -386.591C311.47 -387.602 310.858 -388.674 310.544 -389.809C310.23 -390.944 310.219 -392.055 310.513 -393.143C310.804 -394.182 311.379 -395.089 312.238 -395.863C313.123 -396.66 314.097 -397.149 315.161 -397.329C316.224 -397.51 317.317 -397.396 318.438 -396.988Z" fill="#F25411"/>
<path fill-rule="evenodd" clip-rule="evenodd" d="M303.678 -363.926C301.798 -363.238 299.985 -362.109 298.241 -360.537C296.496 -358.966 295.197 -357.293 294.343 -355.517C293.49 -353.742 293.026 -351.952 292.952 -350.148C292.879 -348.344 293.152 -346.601 293.771 -344.917C294.39 -343.234 295.313 -341.711 296.541 -340.347C297.791 -338.958 299.221 -337.867 300.829 -337.075C302.438 -336.283 304.143 -335.829 305.944 -335.714C307.745 -335.599 309.572 -335.873 311.426 -336.537C313.28 -337.201 315.08 -338.318 316.824 -339.89C318.569 -341.461 319.881 -343.146 320.761 -344.945C321.614 -346.72 322.078 -348.51 322.152 -350.314C322.225 -352.118 321.952 -353.862 321.333 -355.545C320.688 -357.205 319.74 -358.729 318.49 -360.118C317.262 -361.482 315.857 -362.572 314.275 -363.387C312.666 -364.179 310.962 -364.633 309.16 -364.748C307.359 -364.864 305.532 -364.589 303.678 -363.926ZM309.044 -356.549C310.139 -356.118 311.153 -355.384 312.085 -354.349C313.017 -353.313 313.64 -352.228 313.954 -351.093C314.242 -349.935 314.241 -348.836 313.951 -347.797C313.66 -346.758 313.072 -345.84 312.187 -345.042C311.328 -344.268 310.366 -343.791 309.303 -343.611C308.213 -343.407 307.121 -343.52 306.026 -343.952C304.931 -344.383 303.917 -345.116 302.985 -346.152C302.076 -347.162 301.464 -348.234 301.15 -349.369C300.836 -350.504 300.826 -351.615 301.119 -352.703C301.41 -353.742 301.985 -354.649 302.844 -355.423C303.729 -356.22 304.704 -356.709 305.767 -356.89C306.83 -357.07 307.923 -356.956 309.044 -356.549Z" fill="#F25411"/>
<path fill-rule="evenodd" clip-rule="evenodd" d="M68.498 -408.372C67.0888 -409.793 65.3057 -410.968 63.1488 -411.896C60.9919 -412.824 58.9278 -413.305 56.9566 -413.338C54.9855 -413.371 53.1639 -413.044 51.4918 -412.356C49.8197 -411.668 48.347 -410.69 47.0736 -409.423C45.8002 -408.156 44.7989 -406.679 44.0697 -404.992C43.327 -403.274 42.9307 -401.518 42.8806 -399.725C42.8306 -397.931 43.1285 -396.191 43.7743 -394.506C44.4201 -392.82 45.4315 -391.274 46.8085 -389.866C48.1854 -388.458 49.9524 -387.291 52.1094 -386.362C54.2663 -385.434 56.3464 -384.947 58.3498 -384.9C60.3209 -384.866 62.1426 -385.194 63.8147 -385.882C65.4868 -386.57 66.9595 -387.548 68.2328 -388.815C69.474 -390.096 70.466 -391.596 71.2087 -393.313C71.9379 -395 72.3436 -396.733 72.4258 -398.513C72.4758 -400.307 72.178 -402.046 71.5321 -403.732C70.8863 -405.418 69.8749 -406.964 68.498 -408.372ZM64.0232 -400.406C64.0875 -399.23 63.8428 -398.002 63.2891 -396.721C62.7355 -395.441 62.0079 -394.42 61.1064 -393.66C60.1727 -392.913 59.1725 -392.455 58.1059 -392.284C57.0393 -392.113 55.9587 -392.263 54.8642 -392.734C53.8018 -393.191 52.9669 -393.866 52.3594 -394.757C51.7198 -395.662 51.3678 -396.702 51.3035 -397.878C51.2392 -399.054 51.4839 -400.283 52.0376 -401.563C52.5777 -402.813 53.2985 -403.817 54.2001 -404.578C55.1016 -405.338 56.1085 -405.813 57.2208 -406.001C58.2874 -406.172 59.3519 -406.028 60.4143 -405.571C61.5088 -405.1 62.3598 -404.419 62.9673 -403.528C63.5748 -402.637 63.9267 -401.596 64.0232 -400.406Z" fill="#F25411"/>
<path fill-rule="evenodd" clip-rule="evenodd" d="M109.208 -416.756C107.799 -418.177 106.016 -419.352 103.859 -420.28C101.702 -421.208 99.6381 -421.689 97.6669 -421.722C95.6958 -421.756 93.8742 -421.428 92.2021 -420.74C90.53 -420.052 89.0573 -419.074 87.7839 -417.807C86.5105 -416.54 85.5092 -415.063 84.78 -413.376C84.0373 -411.658 83.641 -409.902 83.591 -408.109C83.5409 -406.315 83.8388 -404.575 84.4846 -402.89C85.1304 -401.204 86.1418 -399.658 87.5188 -398.25C88.8958 -396.843 90.6627 -395.675 92.8197 -394.747C94.9766 -393.818 97.0568 -393.331 99.0601 -393.284C101.031 -393.25 102.853 -393.578 104.525 -394.266C106.197 -394.954 107.67 -395.932 108.943 -397.199C110.184 -398.48 111.176 -399.98 111.919 -401.698C112.648 -403.384 113.054 -405.117 113.136 -406.897C113.186 -408.691 112.888 -410.431 112.242 -412.116C111.597 -413.802 110.585 -415.348 109.208 -416.756ZM104.734 -408.79C104.798 -407.614 104.553 -406.386 103.999 -405.106C103.446 -403.825 102.718 -402.804 101.817 -402.044C100.883 -401.297 99.8828 -400.839 98.8162 -400.668C97.7496 -400.497 96.669 -400.647 95.5745 -401.118C94.5121 -401.575 93.6772 -402.25 93.0697 -403.141C92.43 -404.046 92.0781 -405.086 92.0138 -406.262C91.9495 -407.438 92.1942 -408.667 92.7479 -409.947C93.288 -411.197 94.0089 -412.202 94.9104 -412.962C95.8119 -413.722 96.8188 -414.197 97.9311 -414.385C98.9977 -414.556 100.062 -414.413 101.125 -413.955C102.219 -413.484 103.07 -412.803 103.678 -411.912C104.285 -411.021 104.637 -409.98 104.734 -408.79Z" fill="#F25411"/>
<path d="M65.8176 -436.592L72.1728 -434.921L89.428 -370.949L83.0728 -372.621L65.8176 -436.592Z" fill="#F25411"/>
<path fill-rule="evenodd" clip-rule="evenodd" d="M-9.41381 -253.616C-7.07086 -253.78 -4.94663 -253.553 -3.04108 -252.933C-1.17051 -252.31 0.439274 -251.395 1.78827 -250.187C3.13727 -248.979 4.20207 -247.562 4.98269 -245.937C5.7283 -244.309 6.16514 -242.574 6.2932 -240.732C6.4236 -238.855 6.23215 -237.059 5.7189 -235.343C5.17065 -233.624 4.31211 -232.072 3.14332 -230.687C1.97453 -229.302 0.507004 -228.17 -1.25926 -227.291C-3.06047 -226.41 -5.13253 -225.887 -7.47548 -225.722C-9.81843 -225.557 -11.9252 -225.786 -13.7958 -226.409C-15.6663 -227.032 -17.2761 -227.947 -18.6251 -229.155C-19.9741 -230.363 -21.0389 -231.78 -21.8195 -233.405C-22.6001 -235.03 -23.0556 -236.781 -23.186 -238.657C-23.3141 -240.5 -23.104 -242.28 -22.5557 -243.999C-22.0075 -245.718 -21.149 -247.27 -19.9802 -248.655C-18.8114 -250.04 -17.3438 -251.172 -15.5776 -252.05C-13.8114 -252.929 -11.7568 -253.451 -9.41381 -253.616ZM-2.3093 -240.126C-2.40652 -241.525 -2.75416 -242.735 -3.35219 -243.756C-3.98521 -244.774 -4.77644 -245.542 -5.72597 -246.058C-6.67549 -246.574 -7.74471 -246.79 -8.93369 -246.706C-10.0877 -246.625 -11.0991 -246.262 -11.968 -245.618C-12.8695 -244.938 -13.5458 -244.05 -13.9968 -242.956C-14.4479 -241.861 -14.626 -240.631 -14.5311 -239.266C-14.4339 -237.867 -14.0863 -236.658 -13.4882 -235.637C-12.8902 -234.616 -12.0989 -233.849 -11.1144 -233.335C-10.1649 -232.819 -9.11319 -232.602 -7.95919 -232.683C-6.77021 -232.766 -5.74128 -233.13 -4.87239 -233.774C-4.00349 -234.418 -3.32605 -235.289 -2.84005 -236.386C-2.38901 -237.481 -2.21209 -238.727 -2.3093 -240.126Z" fill="#F25411"/>
<path fill-rule="evenodd" clip-rule="evenodd" d="M22.8926 -279.864C25.2355 -280.028 27.3598 -279.801 29.2653 -279.18C31.1359 -278.558 32.7456 -277.642 34.0946 -276.434C35.4436 -275.226 36.5084 -273.81 37.289 -272.185C38.0347 -270.557 38.4715 -268.822 38.5995 -266.98C38.7299 -265.103 38.5385 -263.307 38.0252 -261.59C37.477 -259.872 36.6185 -258.32 35.4497 -256.935C34.2809 -255.549 32.8134 -254.418 31.0471 -253.539C29.2459 -252.658 27.1738 -252.135 24.8309 -251.97C22.4879 -251.805 20.3812 -252.034 18.5106 -252.657C16.64 -253.28 15.0302 -254.195 13.6812 -255.403C12.3322 -256.611 11.2674 -258.027 10.4868 -259.653C9.70624 -261.278 9.25073 -263.029 9.12032 -264.905C8.99229 -266.748 9.20239 -268.528 9.75062 -270.247C10.2989 -271.966 11.1574 -273.518 12.3262 -274.903C13.495 -276.288 14.9625 -277.42 16.7288 -278.298C18.495 -279.177 20.5496 -279.699 22.8926 -279.864ZM29.9971 -266.374C29.8998 -267.773 29.5522 -268.983 28.9542 -270.004C28.3212 -271.022 27.5299 -271.789 26.5804 -272.306C25.6309 -272.822 24.5617 -273.038 23.3727 -272.954C22.2187 -272.873 21.2072 -272.51 20.3383 -271.866C19.4368 -271.186 18.7606 -270.298 18.3095 -269.203C17.8585 -268.109 17.6804 -266.879 17.7752 -265.514C17.8725 -264.115 18.2201 -262.905 18.8182 -261.885C19.4162 -260.864 20.2074 -260.097 21.1919 -259.583C22.1414 -259.067 23.1932 -258.849 24.3472 -258.931C25.5362 -259.014 26.5651 -259.378 27.434 -260.022C28.3029 -260.666 28.9803 -261.537 29.4663 -262.634C29.9174 -263.729 30.0943 -264.975 29.9971 -266.374Z" fill="#F25411"/>
<path d="M-11.9885 -278.339L-18.4026 -276.904L26.35 -227.716L32.7641 -229.151L-11.9885 -278.339Z" fill="#F25411"/>
<path d="M67.121 -306.719L61.2788 -303.704L117.129 -267.873L122.971 -270.888L67.121 -306.719Z" fill="#F25411"/>
<path fill-rule="evenodd" clip-rule="evenodd" d="M75.9138 -283.628C78.1395 -284.384 80.2535 -284.707 82.2559 -284.598C84.2251 -284.477 86.0164 -284.008 87.6299 -283.192C89.2434 -282.376 90.635 -281.287 91.8047 -279.925C92.9412 -278.552 93.8062 -276.996 94.3997 -275.259C95.0041 -273.49 95.2767 -271.716 95.2173 -269.936C95.1247 -268.146 94.6892 -266.436 93.911 -264.808C93.1328 -263.179 92.0009 -261.718 90.5153 -260.423C88.9965 -259.117 87.1243 -258.087 84.8986 -257.331C82.673 -256.575 80.5756 -256.257 78.6064 -256.378C76.6372 -256.499 74.8459 -256.968 73.2324 -257.784C71.6189 -258.6 70.2273 -259.689 69.0576 -261.051C67.8879 -262.413 67.0008 -263.978 66.3963 -265.748C65.8028 -267.485 65.5524 -269.249 65.645 -271.039C65.7376 -272.83 66.1731 -274.54 66.9513 -276.168C67.7295 -277.797 68.8614 -279.258 70.347 -280.553C71.8326 -281.847 73.6882 -282.872 75.9138 -283.628ZM86.2279 -272.484C85.7772 -273.803 85.1324 -274.876 84.2935 -275.704C83.4213 -276.521 82.4599 -277.056 81.4094 -277.309C80.3589 -277.563 79.2689 -277.498 78.1394 -277.114C77.0432 -276.742 76.1567 -276.135 75.4799 -275.295C74.7808 -274.412 74.3524 -273.387 74.1949 -272.22C74.0373 -271.054 74.1783 -269.827 74.6179 -268.54C75.0686 -267.221 75.7134 -266.148 76.5524 -265.32C77.3913 -264.492 78.3527 -263.957 79.4364 -263.715C80.4869 -263.461 81.5603 -263.521 82.6565 -263.893C83.786 -264.277 84.6891 -264.889 85.366 -265.729C86.0428 -266.569 86.4766 -267.578 86.6674 -268.756C86.825 -269.922 86.6785 -271.165 86.2279 -272.484Z" fill="#F25411"/>
<path fill-rule="evenodd" clip-rule="evenodd" d="M100.493 -317.08C102.718 -317.836 104.832 -318.159 106.835 -318.049C108.804 -317.928 110.595 -317.46 112.209 -316.644C113.822 -315.827 115.214 -314.738 116.384 -313.376C117.52 -312.003 118.385 -310.448 118.979 -308.711C119.583 -306.942 119.856 -305.168 119.796 -303.388C119.704 -301.598 119.268 -299.888 118.49 -298.259C117.712 -296.631 116.58 -295.169 115.094 -293.875C113.575 -292.569 111.703 -291.538 109.478 -290.782C107.252 -290.026 105.155 -289.709 103.185 -289.83C101.216 -289.951 99.4248 -290.419 97.8113 -291.236C96.1978 -292.052 94.8062 -293.141 93.6365 -294.503C92.4668 -295.865 91.5797 -297.43 90.9753 -299.199C90.3818 -300.936 90.1313 -302.7 90.2239 -304.491C90.3166 -306.282 90.752 -307.991 91.5302 -309.62C92.3085 -311.248 93.4404 -312.71 94.926 -314.004C96.4115 -315.299 98.2671 -316.324 100.493 -317.08ZM110.807 -305.935C110.356 -307.254 109.711 -308.328 108.872 -309.156C108 -309.972 107.039 -310.507 105.988 -310.761C104.938 -311.015 103.848 -310.949 102.718 -310.566C101.622 -310.193 100.736 -309.587 100.059 -308.747C99.3597 -307.863 98.9314 -306.838 98.7738 -305.672C98.6162 -304.505 98.7573 -303.279 99.1969 -301.992C99.6475 -300.673 100.292 -299.6 101.131 -298.772C101.97 -297.944 102.932 -297.409 104.015 -297.166C105.066 -296.913 106.139 -296.972 107.235 -297.345C108.365 -297.728 109.268 -298.34 109.945 -299.18C110.622 -300.021 111.056 -301.03 111.246 -302.207C111.404 -303.374 111.257 -304.617 110.807 -305.935Z" fill="#F25411"/>
<path fill-rule="evenodd" clip-rule="evenodd" d="M210.467 -101.798C208.294 -102.733 206.497 -103.916 205.078 -105.348C203.69 -106.766 202.672 -108.324 202.021 -110.022C201.37 -111.721 201.07 -113.473 201.121 -115.28C201.203 -117.073 201.612 -118.819 202.347 -120.519C203.095 -122.249 204.094 -123.76 205.345 -125.05C206.628 -126.327 208.111 -127.312 209.796 -128.005C211.48 -128.699 213.316 -129.029 215.301 -128.995C217.32 -128.948 219.415 -128.456 221.588 -127.521C223.761 -126.586 225.541 -125.41 226.928 -123.992C228.316 -122.574 229.335 -121.016 229.985 -119.317C230.636 -117.619 230.936 -115.867 230.886 -114.06C230.835 -112.253 230.436 -110.484 229.688 -108.753C228.953 -107.054 227.944 -105.566 226.661 -104.289C225.379 -103.013 223.895 -102.028 222.21 -101.335C220.526 -100.641 218.691 -100.311 216.705 -100.345C214.719 -100.378 212.64 -100.863 210.467 -101.798ZM210.325 -117.085C209.767 -115.795 209.521 -114.558 209.586 -113.373C209.683 -112.174 210.037 -111.126 210.649 -110.228C211.261 -109.33 212.119 -108.644 213.222 -108.17C214.292 -107.709 215.364 -107.565 216.439 -107.737C217.559 -107.926 218.574 -108.404 219.482 -109.17C220.39 -109.936 221.116 -110.949 221.66 -112.207C222.218 -113.497 222.465 -114.735 222.4 -115.92C222.335 -117.105 221.981 -118.153 221.336 -119.065C220.724 -119.962 219.883 -120.642 218.813 -121.102C217.71 -121.577 216.622 -121.728 215.547 -121.556C214.472 -121.384 213.465 -120.922 212.524 -120.17C211.616 -119.403 210.883 -118.375 210.325 -117.085Z" fill="#F25411"/>
<path fill-rule="evenodd" clip-rule="evenodd" d="M251.48 -110.244C249.307 -111.179 247.51 -112.363 246.091 -113.795C244.704 -115.213 243.685 -116.771 243.034 -118.469C242.383 -120.167 242.083 -121.92 242.134 -123.727C242.217 -125.52 242.625 -127.266 243.36 -128.965C244.108 -130.696 245.107 -132.206 246.358 -133.497C247.641 -134.774 249.124 -135.759 250.809 -136.452C252.493 -137.145 254.329 -137.475 256.314 -137.442C258.333 -137.394 260.428 -136.903 262.601 -135.968C264.774 -135.033 266.554 -133.856 267.942 -132.438C269.329 -131.02 270.348 -129.462 270.998 -127.764C271.649 -126.066 271.949 -124.313 271.899 -122.506C271.848 -120.699 271.449 -118.93 270.701 -117.2C269.966 -115.501 268.957 -114.013 267.675 -112.736C266.392 -111.459 264.908 -110.474 263.223 -109.781C261.539 -109.088 259.704 -108.758 257.718 -108.791C255.732 -108.825 253.653 -109.309 251.48 -110.244ZM251.338 -125.532C250.781 -124.242 250.534 -123.004 250.599 -121.819C250.696 -120.621 251.051 -119.572 251.663 -118.675C252.275 -117.777 253.132 -117.091 254.235 -116.616C255.305 -116.155 256.377 -116.011 257.452 -116.183C258.572 -116.373 259.587 -116.851 260.495 -117.617C261.403 -118.383 262.129 -119.395 262.674 -120.654C263.231 -121.944 263.478 -123.181 263.413 -124.366C263.348 -125.551 262.994 -126.599 262.349 -127.511C261.737 -128.409 260.896 -129.088 259.826 -129.549C258.723 -130.023 257.635 -130.174 256.56 -130.002C255.486 -129.83 254.478 -129.368 253.537 -128.616C252.629 -127.85 251.896 -126.822 251.338 -125.532Z" fill="#F25411"/>
<path d="M242.389 -87.0483L248.791 -85.3644L231.408 -149.812L225.005 -151.496L242.389 -87.0483Z" fill="#F25411"/>
<path d="M42.3454 -150.909L38.1324 -145.801L-27.8048 -156.844L-23.5917 -161.952L42.3454 -150.909Z" fill="#F25411"/>
<path fill-rule="evenodd" clip-rule="evenodd" d="M11.3436 -122.975C9.5828 -121.393 7.75354 -120.255 5.85587 -119.563C3.98447 -118.894 2.13977 -118.618 0.321749 -118.734C-1.49627 -118.851 -3.2171 -119.308 -4.84073 -120.105C-6.43809 -120.926 -7.85627 -122.024 -9.0953 -123.397C-10.3573 -124.796 -11.3139 -126.331 -11.9651 -128.003C-12.5901 -129.698 -12.8654 -131.454 -12.7912 -133.271C-12.717 -135.088 -12.249 -136.89 -11.3872 -138.678C-10.4991 -140.489 -9.17462 -142.186 -7.4138 -143.768C-5.65298 -145.351 -3.83687 -146.477 -1.96548 -147.145C-0.0940849 -147.814 1.75062 -148.09 3.56864 -147.974C5.38666 -147.857 7.10748 -147.401 8.73112 -146.603C10.3548 -145.805 11.7976 -144.707 13.0595 -143.308C14.2985 -141.935 15.2305 -140.4 15.8555 -138.705C16.4805 -137.01 16.7558 -135.254 16.6816 -133.437C16.6074 -131.621 16.1394 -129.818 15.2776 -128.031C14.4158 -126.243 13.1044 -124.558 11.3436 -122.975ZM-2.63019 -129.208C-1.68945 -128.165 -0.666329 -127.426 0.439176 -126.992C1.57096 -126.581 2.67354 -126.467 3.7469 -126.649C4.82027 -126.83 5.80373 -127.323 6.69728 -128.126C7.56455 -128.905 8.14481 -129.818 8.43805 -130.865C8.73463 -131.96 8.72438 -133.079 8.4073 -134.222C8.09022 -135.365 7.47279 -136.445 6.555 -137.462C5.61426 -138.505 4.59113 -139.244 3.48563 -139.678C2.38012 -140.112 1.27755 -140.227 0.177904 -140.021C-0.895461 -139.84 -1.86578 -139.359 -2.73305 -138.58C-3.6266 -137.777 -4.22 -136.852 -4.51325 -135.805C-4.80649 -134.759 -4.80771 -133.652 -4.51692 -132.486C-4.19984 -131.343 -3.57093 -130.25 -2.63019 -129.208Z" fill="#F25411"/>
<path fill-rule="evenodd" clip-rule="evenodd" d="M20.8255 -163.7C19.0646 -162.118 17.2354 -160.981 15.3377 -160.288C13.4663 -159.62 11.6216 -159.344 9.8036 -159.46C7.98558 -159.576 6.26475 -160.033 4.64112 -160.831C3.04377 -161.652 1.62558 -162.749 0.386557 -164.123C-0.875411 -165.521 -1.83202 -167.057 -2.48326 -168.728C-3.10822 -170.423 -3.38359 -172.179 -3.30938 -173.996C-3.23517 -175.813 -2.76716 -177.615 -1.90533 -179.403C-1.01723 -181.214 0.307228 -182.911 2.06805 -184.494C3.82887 -186.076 5.64498 -187.202 7.51638 -187.87C9.38777 -188.539 11.2325 -188.815 13.0505 -188.699C14.8685 -188.583 16.5893 -188.126 18.213 -187.328C19.8366 -186.531 21.2794 -185.433 22.5414 -184.034C23.7804 -182.66 24.7124 -181.126 25.3374 -179.431C25.9623 -177.736 26.2377 -175.98 26.1635 -174.163C26.0893 -172.346 25.6212 -170.544 24.7594 -168.756C23.8976 -166.968 22.5863 -165.283 20.8255 -163.7ZM6.85166 -169.933C7.7924 -168.89 8.81553 -168.152 9.92103 -167.717C11.0528 -167.307 12.1554 -167.192 13.2288 -167.374C14.3021 -167.556 15.2856 -168.048 16.1791 -168.851C17.0464 -169.631 17.6267 -170.544 17.9199 -171.59C18.2165 -172.686 18.2062 -173.805 17.8892 -174.948C17.5721 -176.09 16.9546 -177.17 16.0368 -178.188C15.0961 -179.231 14.073 -179.969 12.9675 -180.403C11.862 -180.838 10.7594 -180.952 9.65976 -180.747C8.58639 -180.565 7.61607 -180.084 6.7488 -179.305C5.85525 -178.502 5.26185 -177.577 4.96861 -176.531C4.67536 -175.484 4.67414 -174.378 4.96494 -173.211C5.28202 -172.069 5.91092 -170.976 6.85166 -169.933Z" fill="#F25411"/>
<path fill-rule="evenodd" clip-rule="evenodd" d="M52.5657 -180.752C50.6047 -182.078 49.059 -183.579 47.9284 -185.253C46.827 -186.908 46.1128 -188.632 45.7857 -190.425C45.4585 -192.217 45.4853 -193.998 45.8661 -195.767C46.2761 -197.516 46.9973 -199.158 48.0297 -200.693C49.0812 -202.256 50.3388 -203.556 51.8025 -204.593C53.2954 -205.609 54.932 -206.301 56.7121 -206.669C58.4923 -207.036 60.3537 -207.018 62.2962 -206.614C64.268 -206.19 66.2344 -205.315 68.1954 -203.989C70.1564 -202.662 71.6875 -201.172 72.7888 -199.517C73.8902 -197.862 74.6044 -196.138 74.9315 -194.346C75.2587 -192.553 75.2319 -190.772 74.8511 -189.003C74.4704 -187.234 73.7543 -185.568 72.7027 -184.005C71.6703 -182.47 70.4076 -181.194 68.9147 -180.177C67.4218 -179.161 65.7853 -178.469 64.0051 -178.101C62.2249 -177.734 60.3636 -177.752 58.421 -178.156C56.4785 -178.56 54.5267 -179.426 52.5657 -180.752ZM55.2297 -195.823C54.4458 -194.658 53.977 -193.486 53.8234 -192.308C53.699 -191.11 53.8547 -190.012 54.2907 -189.014C54.7266 -188.016 55.4422 -187.181 56.4373 -186.508C57.4031 -185.855 58.4291 -185.512 59.515 -185.481C60.6494 -185.458 61.7325 -185.738 62.7642 -186.323C63.7959 -186.907 64.6941 -187.767 65.4589 -188.904C66.2428 -190.07 66.7115 -191.241 66.8652 -192.42C67.0188 -193.598 66.8631 -194.696 66.3978 -195.713C65.9619 -196.711 65.261 -197.537 64.2952 -198.19C63.3 -198.863 62.2595 -199.215 61.1735 -199.247C60.0875 -199.278 59.014 -199.012 57.953 -198.448C56.9213 -197.863 56.0135 -196.989 55.2297 -195.823Z" fill="#F25411"/>
<path fill-rule="evenodd" clip-rule="evenodd" d="M94.3609 -181.399C92.3999 -182.726 90.8542 -184.226 89.7236 -185.901C88.6223 -187.555 87.908 -189.279 87.5809 -191.072C87.2538 -192.865 87.2805 -194.645 87.6613 -196.414C88.0713 -198.163 88.7925 -199.805 89.8249 -201.34C90.8764 -202.904 92.134 -204.204 93.5977 -205.24C95.0906 -206.257 96.7271 -206.949 98.5073 -207.316C100.287 -207.684 102.149 -207.665 104.091 -207.261C106.063 -206.837 108.03 -205.962 109.991 -204.636C111.952 -203.309 113.483 -201.819 114.584 -200.164C115.685 -198.509 116.4 -196.786 116.727 -194.993C117.054 -193.2 117.027 -191.419 116.646 -189.65C116.266 -187.881 115.549 -186.215 114.498 -184.652C113.465 -183.117 112.203 -181.841 110.71 -180.825C109.217 -179.808 107.58 -179.116 105.8 -178.748C104.02 -178.381 102.159 -178.399 100.216 -178.803C98.2736 -179.208 96.3219 -180.073 94.3609 -181.399ZM97.0248 -196.47C96.2409 -195.305 95.7722 -194.133 95.6185 -192.955C95.4941 -191.757 95.6499 -190.659 96.0859 -189.661C96.5218 -188.664 97.2374 -187.828 98.2325 -187.155C99.1983 -186.502 100.224 -186.159 101.31 -186.128C102.445 -186.105 103.528 -186.386 104.559 -186.97C105.591 -187.554 106.489 -188.415 107.254 -189.552C108.038 -190.717 108.507 -191.889 108.66 -193.067C108.814 -194.245 108.658 -195.343 108.193 -196.36C107.757 -197.358 107.056 -198.184 106.09 -198.837C105.095 -199.51 104.055 -199.863 102.969 -199.894C101.883 -199.926 100.809 -199.659 99.7482 -199.095C98.7165 -198.511 97.8087 -197.636 97.0248 -196.47Z" fill="#F25411"/>
<path d="M81.1871 -160.271L87.1612 -157.417L81.9177 -224.09L75.9436 -226.944L81.1871 -160.271Z" fill="#F25411"/>
<path fill-rule="evenodd" clip-rule="evenodd" d="M317.749 -145.472C318.453 -147.363 318.775 -149.492 318.713 -151.859C318.652 -154.227 318.22 -156.32 317.42 -158.14C316.619 -159.959 315.551 -161.489 314.217 -162.73C312.883 -163.971 311.369 -164.908 309.674 -165.539C307.979 -166.17 306.207 -166.464 304.358 -166.42C302.476 -166.375 300.704 -165.997 299.044 -165.286C297.384 -164.575 295.92 -163.567 294.652 -162.264C293.384 -160.961 292.398 -159.382 291.692 -157.527C290.987 -155.672 290.665 -153.56 290.727 -151.193C290.788 -148.825 291.22 -146.714 292.022 -144.859C292.823 -143.04 293.89 -141.51 295.224 -140.269C296.558 -139.028 298.072 -138.091 299.767 -137.46C301.461 -136.864 303.25 -136.588 305.133 -136.633C306.981 -136.677 308.736 -137.037 310.397 -137.713C312.057 -138.424 313.521 -139.432 314.789 -140.735C316.057 -142.038 317.043 -143.617 317.749 -145.472ZM308.583 -146.208C307.536 -145.653 306.31 -145.359 304.907 -145.325C303.503 -145.292 302.264 -145.528 301.189 -146.032C300.113 -146.572 299.272 -147.295 298.666 -148.2C298.06 -149.105 297.742 -150.158 297.71 -151.359C297.68 -152.525 297.944 -153.574 298.502 -154.507C299.059 -155.475 299.862 -156.236 300.909 -156.792C301.957 -157.347 303.182 -157.641 304.586 -157.675C305.955 -157.707 307.177 -157.471 308.252 -156.967C309.327 -156.462 310.185 -155.74 310.826 -154.8C311.432 -153.896 311.75 -152.86 311.781 -151.694C311.812 -150.493 311.549 -149.426 310.99 -148.493C310.432 -147.561 309.63 -146.799 308.583 -146.208Z" fill="#F25411"/>
<path fill-rule="evenodd" clip-rule="evenodd" d="M342.578 -111.723C343.283 -113.614 343.604 -115.743 343.543 -118.11C343.481 -120.478 343.05 -122.571 342.249 -124.391C341.448 -126.21 340.381 -127.74 339.047 -128.981C337.713 -130.222 336.198 -131.159 334.504 -131.79C332.809 -132.422 331.037 -132.715 329.188 -132.671C327.305 -132.626 325.534 -132.248 323.874 -131.537C322.214 -130.826 320.75 -129.819 319.482 -128.515C318.214 -127.212 317.227 -125.633 316.522 -123.778C315.817 -121.923 315.495 -119.811 315.556 -117.444C315.618 -115.076 316.05 -112.965 316.851 -111.111C317.652 -109.291 318.72 -107.761 320.054 -106.52C321.388 -105.279 322.902 -104.342 324.597 -103.711C326.291 -103.115 328.08 -102.839 329.962 -102.884C331.811 -102.928 333.566 -103.288 335.227 -103.964C336.887 -104.675 338.351 -105.683 339.619 -106.986C340.886 -108.289 341.873 -109.868 342.578 -111.723ZM333.413 -112.46C332.366 -111.904 331.14 -111.61 329.736 -111.576C328.333 -111.543 327.094 -111.779 326.018 -112.283C324.943 -112.824 324.102 -113.546 323.496 -114.451C322.89 -115.356 322.571 -116.409 322.54 -117.61C322.51 -118.776 322.774 -119.825 323.332 -120.758C323.889 -121.726 324.691 -122.488 325.739 -123.043C326.786 -123.598 328.012 -123.892 329.415 -123.926C330.785 -123.959 332.007 -123.722 333.082 -123.218C334.157 -122.713 335.015 -121.991 335.656 -121.052C336.262 -120.147 336.58 -119.111 336.61 -117.945C336.642 -116.744 336.378 -115.677 335.82 -114.744C335.262 -113.812 334.46 -113.05 333.413 -112.46Z" fill="#F25411"/>
<path d="M342.404 -159.839L343.557 -153.313L292.381 -110.506L291.228 -117.032L342.404 -159.839Z" fill="#F25411"/>
<path fill-rule="evenodd" clip-rule="evenodd" d="M299.68 -223.43C297.316 -223.265 295.173 -223.493 293.251 -224.114C291.364 -224.737 289.74 -225.653 288.379 -226.862C287.018 -228.071 285.944 -229.488 285.156 -231.114C284.404 -232.743 283.963 -234.479 283.834 -236.323C283.703 -238.201 283.896 -239.998 284.414 -241.716C284.967 -243.436 285.833 -244.988 287.012 -246.375C288.191 -247.761 289.672 -248.893 291.453 -249.772C293.271 -250.654 295.361 -251.177 297.725 -251.342C300.088 -251.507 302.214 -251.278 304.101 -250.655C305.988 -250.032 307.612 -249.116 308.973 -247.907C310.334 -246.699 311.408 -245.281 312.195 -243.655C312.983 -242.029 313.442 -240.277 313.574 -238.399C313.703 -236.555 313.491 -234.773 312.938 -233.053C312.385 -231.334 311.519 -229.781 310.34 -228.395C309.161 -227.008 307.68 -225.876 305.898 -224.997C304.116 -224.117 302.044 -223.595 299.68 -223.43ZM292.513 -236.929C292.611 -235.529 292.961 -234.318 293.565 -233.297C294.203 -232.278 295.002 -231.51 295.96 -230.993C296.917 -230.477 297.996 -230.261 299.196 -230.344C300.36 -230.426 301.38 -230.788 302.257 -231.433C303.166 -232.114 303.848 -233.002 304.303 -234.098C304.759 -235.193 304.938 -236.423 304.843 -237.789C304.744 -239.189 304.394 -240.4 303.79 -241.421C303.187 -242.443 302.389 -243.211 301.396 -243.724C300.438 -244.241 299.377 -244.458 298.213 -244.377C297.013 -244.293 295.975 -243.929 295.098 -243.285C294.222 -242.64 293.538 -241.769 293.048 -240.672C292.593 -239.576 292.415 -238.328 292.513 -236.929Z" fill="#F25411"/>
<path fill-rule="evenodd" clip-rule="evenodd" d="M332.272 -249.696C329.908 -249.531 327.765 -249.759 325.843 -250.379C323.956 -251.002 322.332 -251.918 320.971 -253.127C319.61 -254.336 318.536 -255.753 317.748 -257.38C316.996 -259.008 316.555 -260.745 316.426 -262.588C316.294 -264.466 316.488 -266.264 317.005 -267.981C317.558 -269.701 318.425 -271.254 319.604 -272.64C320.783 -274.026 322.263 -275.159 324.045 -276.038C325.862 -276.92 327.953 -277.443 330.316 -277.608C332.68 -277.773 334.805 -277.544 336.692 -276.921C338.579 -276.297 340.204 -275.382 341.564 -274.173C342.925 -272.964 344 -271.546 344.787 -269.92C345.575 -268.294 346.034 -266.542 346.166 -264.664C346.295 -262.82 346.083 -261.039 345.53 -259.319C344.977 -257.599 344.111 -256.046 342.931 -254.66C341.752 -253.274 340.272 -252.141 338.49 -251.262C336.708 -250.383 334.635 -249.861 332.272 -249.696ZM325.104 -263.194C325.203 -261.794 325.553 -260.583 326.157 -259.562C326.795 -258.543 327.593 -257.775 328.551 -257.259C329.509 -256.742 330.588 -256.526 331.787 -256.61C332.952 -256.691 333.972 -257.054 334.848 -257.698C335.758 -258.379 336.44 -259.268 336.895 -260.363C337.35 -261.458 337.53 -262.689 337.434 -264.055C337.336 -265.454 336.985 -266.665 336.382 -267.687C335.779 -268.708 334.981 -269.476 333.987 -269.99C333.029 -270.506 331.968 -270.724 330.804 -270.643C329.605 -270.559 328.567 -270.195 327.69 -269.55C326.814 -268.906 326.13 -268.035 325.64 -266.937C325.185 -265.842 325.006 -264.594 325.104 -263.194Z" fill="#F25411"/>
<path d="M334.869 -224.955L341.34 -226.392L296.192 -275.613L289.721 -274.176L334.869 -224.955Z" fill="#F25411"/>
<path d="M170.838 -121.395L174.54 -126.895L107.913 -131.461L104.212 -125.961L170.838 -121.395Z" fill="#F25411"/>
<path fill-rule="evenodd" clip-rule="evenodd" d="M146.379 -96.0417C144.779 -94.2934 143.068 -92.9818 141.247 -92.107C139.45 -91.2583 137.642 -90.8031 135.823 -90.7415C134.004 -90.6799 132.249 -90.9671 130.558 -91.6033C128.891 -92.2654 127.376 -93.2202 126.013 -94.4676C124.624 -95.7381 123.526 -97.1741 122.719 -98.7756C121.935 -100.403 121.494 -102.126 121.394 -103.943C121.294 -105.76 121.587 -107.601 122.274 -109.466C122.984 -111.358 124.139 -113.177 125.739 -114.926C127.339 -116.674 129.037 -117.972 130.834 -118.821C132.631 -119.67 134.439 -120.125 136.258 -120.187C138.077 -120.248 139.832 -119.961 141.523 -119.325C143.214 -118.689 144.754 -117.736 146.142 -116.465C147.506 -115.218 148.579 -113.78 149.363 -112.153C150.146 -110.525 150.588 -108.802 150.687 -106.985C150.787 -105.168 150.494 -103.327 149.808 -101.462C149.121 -99.5968 147.978 -97.79 146.379 -96.0417ZM131.887 -100.887C132.922 -99.9397 134.01 -99.3038 135.151 -98.9791C136.316 -98.6806 137.423 -98.6742 138.473 -98.9599C139.523 -99.2457 140.454 -99.8322 141.266 -100.719C142.054 -101.581 142.544 -102.547 142.735 -103.618C142.926 -104.738 142.809 -105.852 142.384 -106.96C141.96 -108.067 141.242 -109.083 140.232 -110.007C139.197 -110.954 138.109 -111.59 136.968 -111.914C135.828 -112.239 134.72 -112.245 133.646 -111.934C132.596 -111.648 131.677 -111.074 130.889 -110.213C130.077 -109.326 129.576 -108.347 129.384 -107.276C129.192 -106.205 129.297 -105.102 129.697 -103.969C130.122 -102.861 130.852 -101.834 131.887 -100.887Z" fill="#F25411"/>
<path fill-rule="evenodd" clip-rule="evenodd" d="M151.917 -137.538C150.317 -135.79 148.607 -134.478 146.786 -133.603C144.989 -132.754 143.181 -132.299 141.361 -132.238C139.542 -132.176 137.788 -132.463 136.097 -133.099C134.43 -133.762 132.915 -134.716 131.551 -135.964C130.163 -137.234 129.065 -138.67 128.257 -140.272C127.474 -141.899 127.032 -143.622 126.933 -145.439C126.833 -147.256 127.126 -149.097 127.812 -150.962C128.522 -152.854 129.677 -154.673 131.277 -156.422C132.877 -158.17 134.576 -159.469 136.373 -160.317C138.17 -161.166 139.978 -161.621 141.797 -161.683C143.616 -161.744 145.371 -161.457 147.062 -160.821C148.753 -160.185 150.292 -159.232 151.681 -157.961C153.044 -156.714 154.118 -155.276 154.901 -153.649C155.685 -152.021 156.126 -150.299 156.226 -148.481C156.326 -146.664 156.032 -144.823 155.346 -142.958C154.66 -141.093 153.517 -139.286 151.917 -137.538ZM137.425 -142.383C138.461 -141.436 139.549 -140.8 140.689 -140.475C141.854 -140.177 142.961 -140.17 144.012 -140.456C145.062 -140.742 145.993 -141.328 146.804 -142.216C147.592 -143.077 148.082 -144.043 148.274 -145.114C148.464 -146.234 148.347 -147.348 147.923 -148.456C147.498 -149.563 146.781 -150.579 145.771 -151.503C144.736 -152.45 143.648 -153.086 142.507 -153.411C141.366 -153.735 140.259 -153.742 139.185 -153.43C138.135 -153.144 137.216 -152.571 136.428 -151.709C135.616 -150.822 135.114 -149.843 134.922 -148.772C134.731 -147.701 134.835 -146.598 135.236 -145.465C135.66 -144.357 136.39 -143.33 137.425 -142.383Z" fill="#F25411"/>
<path fill-rule="evenodd" clip-rule="evenodd" d="M228.617 -320.146C230.563 -318.83 232.098 -317.34 233.22 -315.678C234.313 -314.035 235.022 -312.324 235.347 -310.545C235.672 -308.765 235.645 -306.998 235.267 -305.242C234.86 -303.506 234.144 -301.876 233.12 -300.352C232.076 -298.8 230.827 -297.51 229.375 -296.481C227.893 -295.472 226.268 -294.785 224.501 -294.421C222.734 -294.056 220.887 -294.074 218.958 -294.475C217.001 -294.896 215.049 -295.765 213.103 -297.081C211.156 -298.398 209.636 -299.877 208.543 -301.52C207.45 -303.162 206.741 -304.873 206.416 -306.653C206.092 -308.432 206.118 -310.2 206.496 -311.956C206.874 -313.712 207.585 -315.366 208.629 -316.917C209.653 -318.441 210.907 -319.707 212.389 -320.716C213.871 -321.726 215.495 -322.412 217.262 -322.777C219.029 -323.142 220.877 -323.124 222.805 -322.723C224.733 -322.322 226.671 -321.463 228.617 -320.146ZM225.973 -305.186C226.751 -306.343 227.216 -307.506 227.369 -308.675C227.492 -309.864 227.338 -310.954 226.905 -311.945C226.472 -312.935 225.762 -313.765 224.774 -314.433C223.815 -315.081 222.797 -315.421 221.719 -315.452C220.593 -315.475 219.518 -315.196 218.494 -314.617C217.47 -314.037 216.578 -313.183 215.819 -312.054C215.041 -310.897 214.576 -309.734 214.423 -308.565C214.271 -307.395 214.425 -306.305 214.887 -305.295C215.32 -304.305 216.015 -303.485 216.974 -302.837C217.962 -302.169 218.995 -301.819 220.073 -301.788C221.151 -301.756 222.216 -302.021 223.269 -302.581C224.294 -303.161 225.195 -304.029 225.973 -305.186Z" fill="#F25411"/>
<path fill-rule="evenodd" clip-rule="evenodd" d="M270.104 -320.788C272.05 -319.472 273.584 -317.983 274.707 -316.32C275.8 -314.678 276.509 -312.967 276.834 -311.187C277.158 -309.408 277.132 -307.64 276.754 -305.884C276.347 -304.148 275.631 -302.518 274.606 -300.995C273.562 -299.443 272.314 -298.152 270.861 -297.124C269.379 -296.115 267.755 -295.428 265.988 -295.063C264.221 -294.698 262.373 -294.716 260.445 -295.117C258.488 -295.538 256.536 -296.407 254.589 -297.723C252.643 -299.04 251.123 -300.52 250.03 -302.162C248.937 -303.805 248.228 -305.516 247.903 -307.295C247.578 -309.075 247.605 -310.843 247.983 -312.598C248.361 -314.354 249.071 -316.008 250.115 -317.56C251.14 -319.083 252.393 -320.35 253.875 -321.359C255.357 -322.368 256.982 -323.055 258.749 -323.42C260.516 -323.784 262.363 -323.766 264.292 -323.365C266.22 -322.964 268.157 -322.105 270.104 -320.788ZM267.459 -305.828C268.237 -306.985 268.703 -308.148 268.855 -309.318C268.979 -310.507 268.824 -311.597 268.391 -312.587C267.959 -313.578 267.248 -314.407 266.261 -315.075C265.302 -315.724 264.284 -316.063 263.206 -316.095C262.08 -316.117 261.005 -315.839 259.98 -315.259C258.956 -314.679 258.065 -313.825 257.306 -312.696C256.528 -311.54 256.062 -310.376 255.91 -309.207C255.757 -308.038 255.912 -306.948 256.374 -305.938C256.806 -304.947 257.502 -304.128 258.461 -303.479C259.449 -302.811 260.481 -302.461 261.559 -302.43C262.637 -302.399 263.703 -302.663 264.756 -303.224C265.78 -303.803 266.681 -304.672 267.459 -305.828Z" fill="#F25411"/>
<path d="M241.694 -341.119L235.764 -343.951L240.968 -277.77L246.898 -274.938L241.694 -341.119Z" fill="#F25411"/>
<path d="M185.613 -206.252L191.499 -209.29L135.233 -245.387L129.347 -242.35L185.613 -206.252Z" fill="#F25411"/>
<path fill-rule="evenodd" clip-rule="evenodd" d="M151.993 -195.814C149.751 -195.053 147.621 -194.727 145.604 -194.838C143.62 -194.96 141.816 -195.432 140.19 -196.254C138.564 -197.076 137.163 -198.173 135.984 -199.545C134.839 -200.929 133.968 -202.495 133.37 -204.245C132.761 -206.028 132.486 -207.815 132.546 -209.608C132.64 -211.412 133.078 -213.134 133.862 -214.775C134.646 -216.415 135.787 -217.888 137.283 -219.192C138.813 -220.507 140.699 -221.546 142.942 -222.307C145.184 -223.069 147.297 -223.389 149.281 -223.267C151.264 -223.145 153.069 -222.673 154.695 -221.851C156.32 -221.029 157.722 -219.931 158.901 -218.559C160.079 -217.187 160.973 -215.61 161.582 -213.828C162.179 -212.078 162.432 -210.301 162.338 -208.497C162.245 -206.693 161.806 -204.971 161.022 -203.33C160.238 -201.689 159.098 -200.217 157.601 -198.913C156.105 -197.609 154.235 -196.576 151.993 -195.814ZM141.602 -207.042C142.056 -205.713 142.706 -204.631 143.551 -203.797C144.43 -202.975 145.398 -202.436 146.457 -202.18C147.515 -201.925 148.613 -201.99 149.751 -202.377C150.855 -202.752 151.749 -203.363 152.43 -204.209C153.135 -205.099 153.566 -206.132 153.725 -207.307C153.884 -208.482 153.742 -209.718 153.299 -211.014C152.845 -212.343 152.195 -213.425 151.35 -214.259C150.505 -215.093 149.536 -215.632 148.444 -215.876C147.386 -216.131 146.305 -216.071 145.2 -215.696C144.063 -215.31 143.153 -214.693 142.471 -213.847C141.789 -213 141.352 -211.984 141.16 -210.797C141.001 -209.622 141.149 -208.37 141.602 -207.042Z" fill="#F25411"/>
<path fill-rule="evenodd" clip-rule="evenodd" d="M176.755 -229.515C174.513 -228.753 172.383 -228.428 170.366 -228.538C168.382 -228.66 166.577 -229.132 164.952 -229.954C163.326 -230.777 161.924 -231.874 160.746 -233.246C159.601 -234.629 158.73 -236.196 158.132 -237.946C157.523 -239.728 157.248 -241.516 157.308 -243.308C157.401 -245.112 157.84 -246.835 158.624 -248.475C159.408 -250.116 160.548 -251.588 162.045 -252.892C163.575 -254.208 165.461 -255.246 167.703 -256.008C169.946 -256.77 172.059 -257.089 174.042 -256.968C176.026 -256.846 177.831 -256.374 179.456 -255.551C181.082 -254.729 182.484 -253.632 183.662 -252.26C184.841 -250.888 185.734 -249.311 186.343 -247.528C186.941 -245.778 187.194 -244.001 187.1 -242.197C187.007 -240.393 186.568 -238.671 185.784 -237.03C185 -235.39 183.86 -233.917 182.363 -232.613C180.867 -231.309 178.997 -230.276 176.755 -229.515ZM166.364 -240.742C166.818 -239.413 167.468 -238.332 168.313 -237.498C169.192 -236.675 170.16 -236.136 171.219 -235.881C172.277 -235.625 173.375 -235.691 174.513 -236.077C175.617 -236.452 176.51 -237.063 177.192 -237.91C177.897 -238.8 178.328 -239.833 178.487 -241.008C178.646 -242.183 178.503 -243.419 178.061 -244.715C177.607 -246.044 176.957 -247.125 176.112 -247.959C175.267 -248.793 174.298 -249.332 173.206 -249.576C172.148 -249.832 171.067 -249.772 169.962 -249.397C168.824 -249.01 167.914 -248.394 167.233 -247.547C166.551 -246.701 166.114 -245.684 165.921 -244.498C165.763 -243.323 165.91 -242.071 166.364 -240.742Z" fill="#F25411"/>
</svg>
