<svg width="251" height="339" viewBox="0 0 251 339" fill="none" xmlns="http://www.w3.org/2000/svg">
<path d="M-390.055 -80.3752C-387.049 -80.6317 -384.172 -81.3342 -381.478 -82.4299L-381.484 -82.4204C-383.581 -79.4833 -386.176 -76.9469 -389.148 -74.9299C-389.143 -74.2854 -389.152 -73.6349 -389.176 -72.9914C-389.919 -53.1839 -405.644 -30.8777 -432.842 -31.8513C-440.876 -32.1298 -448.655 -34.7495 -455.248 -39.3968C-454.082 -39.2152 -452.906 -39.1033 -451.727 -39.0614C-445.07 -38.8131 -438.517 -40.8425 -433.124 -44.8232C-436.207 -44.9909 -439.158 -46.1319 -441.564 -48.0865C-443.971 -50.041 -445.712 -52.7112 -446.545 -55.7232C-444.345 -55.2157 -442.058 -55.222 -439.858 -55.7416C-443.178 -56.547 -446.119 -58.4929 -448.18 -61.2493C-450.241 -64.0057 -451.296 -67.4028 -451.166 -70.8641L-451.159 -71.0571C-449.149 -69.8267 -446.878 -69.1014 -444.533 -68.9416C-446.506 -70.3846 -448.095 -72.3 -449.161 -74.5177C-450.226 -76.7354 -450.734 -79.1869 -450.64 -81.6548C-450.537 -84.3961 -449.711 -86.9441 -448.358 -89.1188C-444.819 -84.3553 -440.33 -80.4021 -435.182 -77.5157C-430.033 -74.6294 -424.341 -72.8744 -418.473 -72.3647C-419.097 -75.6066 -418.646 -78.9693 -417.192 -81.9308C-415.738 -84.8923 -413.362 -87.287 -410.431 -88.743C-407.501 -90.199 -404.182 -90.6349 -400.988 -89.983C-397.794 -89.3311 -394.905 -87.6278 -392.769 -85.1377C-389.433 -85.6782 -386.211 -86.7943 -383.245 -88.4375C-384.477 -85.0037 -386.897 -82.138 -390.055 -80.3752Z" fill="#FA6425"/>
<path d="M-378.155 183.109C-376.654 180.898 -374.814 178.892 -372.648 177.159C-374.163 180.114 -374.553 183.53 -373.746 186.77C-372.316 184.003 -370.424 181.507 -368.151 179.389C-365.251 180.188 -362.176 180.004 -359.404 178.865C-356.633 177.726 -354.319 175.696 -352.822 173.09C-351.325 170.485 -350.729 167.449 -351.126 164.454C-351.523 161.46 -352.891 158.674 -355.018 156.53C-350.277 153.915 -345.035 152.336 -339.632 151.894C-334.229 151.453 -328.786 152.16 -323.657 153.968C-323.731 151.624 -324.397 149.265 -325.715 147.129C-326.9 145.206 -328.536 143.603 -330.479 142.463C-332.423 141.323 -334.612 140.681 -336.854 140.594C-334.982 139.516 -332.877 138.904 -330.715 138.811L-330.808 138.661C-332.471 135.964 -335.007 133.923 -337.985 132.883C-340.963 131.843 -344.201 131.869 -347.147 132.956C-345.731 131.435 -343.988 130.261 -342.048 129.52C-344.218 127.658 -346.908 126.52 -349.742 126.266C-352.576 126.012 -355.411 126.656 -357.852 128.106C-355.759 122.321 -351.786 117.426 -346.574 114.208C-345.652 113.636 -344.697 113.12 -343.714 112.661C-351.116 112.503 -358.393 114.493 -364.673 118.393C-385.945 131.571 -386.599 156.567 -377.08 171.998C-376.771 172.499 -376.446 172.998 -376.115 173.486C-377.358 176.539 -378.048 179.794 -378.154 183.099L-378.155 183.109Z" fill="#FA6425"/>
<path d="M-500.696 154.446C-498.373 156.367 -495.829 157.879 -493.142 158.981L-493.153 158.983C-496.701 159.618 -500.324 159.617 -503.853 158.98C-504.3 159.445 -504.761 159.904 -505.227 160.348C-519.595 174.009 -546.397 178.967 -565.12 159.224C-570.657 153.398 -574.377 146.075 -575.833 138.131C-575.128 139.078 -574.368 139.981 -573.556 140.837C-568.98 145.677 -562.887 148.813 -556.259 149.739C-558.341 147.461 -559.649 144.577 -560.001 141.492C-560.352 138.408 -559.729 135.276 -558.219 132.537C-557.004 134.441 -555.368 136.038 -553.435 137.207C-555.242 134.305 -555.98 130.852 -555.525 127.435C-555.07 124.019 -553.449 120.848 -550.938 118.461L-550.798 118.327C-550.224 120.616 -549.11 122.726 -547.549 124.482C-547.948 122.067 -547.744 119.583 -546.955 117.249C-546.166 114.915 -544.816 112.804 -543.025 111.103C-541.036 109.212 -538.666 107.967 -536.182 107.357C-536.985 113.246 -536.544 119.22 -534.888 124.892C-533.231 130.564 -530.396 135.807 -526.566 140.28C-524.746 137.523 -522.076 135.43 -518.97 134.328C-515.863 133.226 -512.495 133.176 -509.387 134.186C-506.28 135.195 -503.607 137.208 -501.784 139.911C-499.961 142.614 -499.089 145.857 -499.305 149.136C-496.548 151.085 -493.47 152.542 -490.205 153.443C-493.483 155.039 -497.212 155.395 -500.696 154.446Z" fill="#FA6425"/>
<path d="M-458.691 230.826C-459.593 232.378 -459.378 233.728 -456.954 234.298L-448.953 236.182C-446.916 236.661 -445.726 235.82 -444.94 234.767C-444.94 234.767 -438.556 225.942 -431.288 220.944C-428.987 219.541 -428.001 219.156 -426.983 219.395C-426.474 219.515 -425.847 220.28 -426.243 221.954L-429.943 237.593C-430.418 239.601 -430.068 240.627 -428.373 241.026L-415.79 243.988C-414.519 244.287 -413.533 243.537 -413.324 242.652C-413.152 241.927 -413.451 241.315 -413.832 240.535C-414.45 239.27 -415.284 237.563 -414.684 234.211L-411.934 222.586C-411.331 220.036 -410.755 219.683 -409.737 219.923C-407.024 220.562 -402.749 231.944 -401.492 244.113C-401.251 246.48 -400.691 247.542 -398.646 248.024L-390.638 249.909C-388.352 250.447 -387.643 249.493 -387.366 248.32C-386.872 246.233 -387.132 235.223 -393.809 219.171C-398.209 208.247 -406.32 200.976 -414.803 198.979C-419.891 197.782 -420.786 198.76 -421.245 200.704L-422.92 207.784C-423.454 210.04 -424.042 210.377 -425.655 209.997C-426.843 209.718 -428.738 208.651 -432.419 203.018C-433.656 201.045 -434.554 199.429 -435.286 198.111C-437.014 195.001 -437.813 193.563 -439.958 193.058L-447.96 191.174C-450.246 190.636 -451.659 191.493 -451.528 193.876C-451.327 196.263 -449.497 200.09 -446.964 204.716C-446.279 206.041 -445.364 207.465 -444.554 208.727C-443.766 209.953 -443.077 211.025 -442.795 211.702C-441.965 213.484 -442.462 214.074 -443.625 215.213C-443.625 215.213 -456.585 226.465 -458.688 230.826L-458.691 230.826Z" fill="#FA6425"/>
<path d="M-413.965 34.5948C-415.52 35.4892 -416.008 36.7669 -414.196 38.4746L-408.214 44.1134C-406.692 45.5483 -405.242 45.4149 -404.036 44.8961C-404.036 44.8961 -394.107 40.4409 -385.323 39.7464C-382.631 39.6817 -381.586 39.8413 -380.825 40.5587C-380.444 40.9174 -380.284 41.8943 -381.463 43.1476L-392.473 54.8535C-393.887 56.3566 -394.097 57.4209 -392.83 58.6152L-383.423 67.4826C-382.473 68.3784 -381.246 68.221 -380.623 67.5588C-380.112 67.0158 -380.065 66.3359 -380.005 65.4686C-379.908 64.0633 -379.777 62.1658 -377.584 59.5605L-369.399 50.8583C-367.604 48.9497 -366.93 48.9324 -366.169 49.6499C-364.14 51.5617 -366.127 63.5695 -371.116 74.7478C-372.09 76.921 -372.136 78.1221 -370.607 79.5635L-364.621 85.2066C-362.912 86.8177 -361.822 86.3448 -360.997 85.4673C-359.527 83.9046 -354.254 74.2301 -352.014 56.971C-350.364 45.2984 -353.751 34.9348 -360.093 28.9566C-363.896 25.3714 -365.159 25.7721 -366.527 27.227L-371.512 32.5267C-373.1 34.2153 -373.777 34.2127 -374.982 33.0764C-375.871 32.2386 -376.977 30.3659 -377.349 23.6396C-377.434 21.3098 -377.404 19.4585 -377.379 17.9505C-377.32 14.3896 -377.293 12.7425 -378.897 11.2305L-384.879 5.59169C-386.588 3.98061 -388.238 4.01609 -389.315 6.1481C-390.333 8.31821 -390.661 12.5522 -390.78 17.8303C-390.849 19.3219 -390.769 21.015 -390.698 22.5142C-390.629 23.9711 -390.568 25.2455 -390.662 25.9733C-390.834 27.9339 -391.559 28.1973 -393.134 28.6014C-393.134 28.6014 -409.965 31.8685 -413.963 34.5969L-413.965 34.5948Z" fill="#FA6425"/>
<path d="M-447.339 -5.33709C-446.869 -7.06925 -447.425 -8.31656 -449.915 -8.23933L-458.135 -7.98441C-460.227 -7.91952 -461.159 -6.799 -461.647 -5.57904C-461.647 -5.57904 -465.535 4.59543 -471.267 11.3038C-473.128 13.2553 -473.981 13.8826 -475.027 13.9151C-475.55 13.9313 -476.353 13.3554 -476.403 11.6362L-476.871 -4.42106C-476.931 -6.48283 -477.534 -7.38268 -479.275 -7.32867L-492.201 -6.92768C-493.507 -6.88718 -494.265 -5.90739 -494.239 -4.99909C-494.217 -4.2542 -493.77 -3.74107 -493.2 -3.0864C-492.277 -2.02572 -491.03 -0.593445 -490.743 2.79781L-490.395 14.7347C-490.319 17.3527 -490.784 17.8422 -491.83 17.8746C-494.617 17.9611 -501.69 8.0794 -506.051 -3.34292C-506.896 -5.56593 -507.711 -6.44663 -509.812 -6.38145L-518.039 -6.12628C-520.387 -6.05342 -520.825 -4.94825 -520.79 -3.7445C-520.728 -1.60103 -517.631 8.96076 -507.028 22.7281C-499.952 32.1347 -490.234 37.0521 -481.519 36.7817C-476.293 36.6196 -475.682 35.443 -475.74 33.4473L-475.952 26.1777C-476.019 23.8613 -475.538 23.3839 -473.881 23.3326C-472.66 23.2947 -470.554 23.8333 -465.54 28.3178C-463.834 29.9015 -462.549 31.2296 -461.501 32.3115C-459.028 34.8664 -457.883 36.0486 -455.679 35.9802L-447.459 35.7252C-445.11 35.6524 -443.967 34.4593 -444.71 32.1922C-445.521 29.9398 -448.279 26.7192 -451.922 22.9094C-452.927 21.808 -454.18 20.6698 -455.289 19.6619C-456.367 18.6823 -457.309 17.8255 -457.757 17.2456C-459.02 15.7402 -458.693 15.0411 -457.862 13.6406C-457.862 13.6406 -448.247 -0.580818 -447.342 -5.33699L-447.339 -5.33709Z" fill="#FA6425"/>
<path d="M-491.395 224.346L-521.773 243.164L-516.528 251.667L-527.465 258.442L-532.71 249.939L-542.052 255.726C-549.393 260.273 -559.232 259.427 -566.371 247.854C-569.262 243.168 -570.975 239.44 -570.975 239.44L-560.593 233.386C-560.593 233.386 -558.445 236.94 -556.067 240.796C-553.492 244.97 -551.263 244.513 -548.247 242.645L-540.261 237.698L-548.011 225.134L-536.736 218.905L-529.324 230.922L-498.946 212.105L-491.395 224.346Z" fill="#FA6425"/>
<path d="M-437.552 67.8421L-436.512 103.561L-426.526 103.251L-426.152 116.111L-436.137 116.421L-435.817 127.406C-435.566 136.037 -441.233 144.147 -454.824 144.568C-460.327 144.739 -464.411 144.366 -464.411 144.366L-464.44 132.347C-464.44 132.347 -460.289 132.256 -455.761 132.116C-450.859 131.964 -450.136 129.803 -450.24 126.257L-450.513 116.867L-465.268 117.325L-465 104.444L-450.888 104.007L-451.928 68.2881L-437.552 67.8421Z" fill="#FA6425"/>
<path d="M-274.069 -3.13049L-309.747 -2.0238L-309.456 7.97305L-322.301 8.37151L-322.593 -1.62536L-333.564 -1.28501C-342.186 -1.01758 -350.276 -6.6772 -350.672 -20.284C-350.832 -25.7932 -350.453 -29.8825 -350.453 -29.8825L-338.448 -29.9335C-338.448 -29.9335 -338.365 -25.7777 -338.233 -21.244C-338.09 -16.3372 -335.933 -15.6173 -332.391 -15.7271L-323.012 -16.0181L-323.442 -30.7894L-310.578 -30.5451L-310.166 -16.4166L-274.489 -17.5232L-274.069 -3.13049Z" fill="#FA6425"/>
<path d="M-397.858 305.279L-367.48 286.461L-372.725 277.959L-361.788 271.183L-356.543 279.686L-347.201 273.899C-339.86 269.352 -330.02 270.198 -322.882 281.771C-319.991 286.457 -318.278 290.185 -318.278 290.185L-328.66 296.239C-328.66 296.239 -330.808 292.685 -333.186 288.829C-335.761 284.655 -337.99 285.112 -341.005 286.98L-348.992 291.928L-341.242 304.491L-352.517 310.72L-359.929 298.703L-390.307 317.52L-397.858 305.279Z" fill="#FA6425"/>
<path d="M-176.259 -31.491C-178.63 -29.8057 -181.268 -28.4613 -184.135 -27.5212C-181.467 -29.9622 -179.769 -33.3073 -179.358 -36.9322C-181.868 -34.6515 -184.747 -32.8254 -187.87 -31.5333C-190.521 -33.4662 -193.724 -34.4604 -196.982 -34.3613C-200.24 -34.2623 -203.371 -33.0756 -205.888 -30.9856C-208.406 -28.8956 -210.169 -26.0191 -210.904 -22.8027C-211.639 -19.5864 -211.305 -16.2101 -209.954 -13.1982C-215.781 -12.3467 -221.725 -12.7473 -227.398 -14.3741C-233.072 -16.0008 -238.349 -18.8174 -242.888 -22.6408C-243.705 -20.2136 -243.924 -17.5439 -243.394 -14.8522C-242.919 -12.4287 -241.862 -10.1594 -240.315 -8.24567C-238.769 -6.33192 -236.782 -4.83284 -234.531 -3.88147C-236.849 -3.49847 -239.227 -3.68266 -241.465 -4.41874L-241.428 -4.2292C-240.76 -0.830559 -238.953 2.23341 -236.313 4.44275C-233.674 6.6521 -230.366 7.87077 -226.949 7.89198C-228.971 8.90299 -231.195 9.43425 -233.453 9.44562C-231.951 12.186 -229.643 14.3849 -226.852 15.7344C-224.061 17.084 -220.926 17.5167 -217.887 16.972C-222.222 22.0849 -228.133 25.5649 -234.67 26.8523C-235.827 27.0824 -236.997 27.2434 -238.174 27.3345C-230.69 30.3435 -222.517 31.1065 -214.633 29.5323C-187.94 24.2335 -177.758 -1.08804 -181.583 -20.5368C-181.708 -21.1686 -181.849 -21.8037 -182.001 -22.43C-179.572 -25.0755 -177.629 -28.1402 -176.263 -31.4803L-176.259 -31.491Z" fill="#FA6425"/>
<path d="M-108.046 219.131C-109.756 221.315 -111.086 223.69 -112.039 226.187L-112.041 226.176C-112.697 222.936 -112.772 219.609 -112.263 216.352C-112.698 215.954 -113.129 215.543 -113.545 215.126C-126.353 202.293 -131.458 177.815 -113.78 160.104C-108.564 154.867 -101.939 151.258 -94.6979 149.712C-95.5495 150.384 -96.3605 151.106 -97.1269 151.874C-101.461 156.203 -104.202 161.88 -104.911 167.99C-102.869 166.019 -100.257 164.741 -97.4403 164.338C-94.6241 163.934 -91.7447 164.423 -89.2052 165.738C-90.9225 166.904 -92.3496 168.448 -93.3787 170.253C-90.7604 168.518 -87.6158 167.749 -84.4784 168.077C-81.341 168.405 -78.4042 169.81 -76.1661 172.052L-76.0413 172.177C-78.1237 172.765 -80.0318 173.843 -81.6066 175.323C-79.4046 174.892 -77.126 175.014 -74.973 175.678C-72.8199 176.341 -70.8589 177.525 -69.264 179.125C-67.4913 180.901 -66.3013 183.044 -65.6907 185.309C-71.0981 184.726 -76.5575 185.288 -81.7144 186.959C-86.8715 188.629 -91.6109 191.37 -95.6252 195.004C-93.0625 196.603 -91.0909 199 -90.0166 201.823C-88.9422 204.646 -88.8252 207.738 -89.6837 210.617C-90.5422 213.497 -92.3281 216.004 -94.7642 217.75C-97.2003 219.495 -100.15 220.38 -103.156 220.268C-104.882 222.852 -106.151 225.716 -106.907 228.737C-108.437 225.77 -108.842 222.355 -108.046 219.131Z" fill="#FA6425"/>
<path d="M-229.493 229.113C-232.362 228.657 -235.185 227.77 -237.888 226.433C-234.278 226.557 -230.731 225.354 -227.907 223.048C-231.292 222.921 -234.622 222.21 -237.753 220.946C-238.296 217.705 -239.889 214.749 -242.284 212.537C-244.68 210.325 -247.743 208.98 -250.999 208.711C-254.256 208.442 -257.523 209.265 -260.293 211.051C-263.063 212.837 -265.182 215.486 -266.32 218.588C-271.074 215.114 -275.038 210.662 -277.953 205.522C-280.868 200.382 -282.669 194.669 -283.24 188.754C-285.518 189.918 -287.538 191.674 -289.039 193.971C-290.392 196.038 -291.221 198.402 -291.453 200.855C-291.685 203.308 -291.313 205.773 -290.37 208.031C-292.292 206.68 -293.861 204.883 -294.945 202.787L-295.051 202.949C-296.947 205.849 -297.796 209.307 -297.454 212.738C-297.112 216.168 -295.601 219.358 -293.176 221.768C-295.326 221.074 -297.284 219.896 -298.904 218.322C-299.745 221.335 -299.632 224.525 -298.582 227.447C-297.531 230.368 -295.596 232.874 -293.046 234.614C-299.71 235.234 -306.36 233.582 -311.925 229.922C-312.912 229.276 -313.86 228.571 -314.763 227.812C-311.521 235.209 -306.219 241.482 -299.491 245.881C-276.735 260.796 -251.788 249.814 -240.942 233.219C-240.59 232.68 -240.247 232.126 -239.918 231.572C-236.337 231.381 -232.811 230.55 -229.504 229.117L-229.493 229.113Z" fill="#FA6425"/>
<path d="M-176.975 294.105C-179.465 294.106 -179.984 292.842 -179.464 291.124H-179.46C-178.415 286.396 -168.386 272.469 -168.386 272.469C-167.515 271.094 -167.167 270.405 -168.384 268.861C-168.814 268.267 -169.731 267.382 -170.779 266.37C-171.857 265.328 -173.075 264.151 -174.046 263.019C-177.573 259.099 -180.233 255.794 -180.978 253.518C-181.653 251.228 -180.475 250.07 -178.126 250.068L-169.905 250.064C-167.701 250.063 -166.593 251.279 -164.197 253.909C-163.183 255.023 -161.937 256.391 -160.28 258.026C-155.403 262.663 -153.315 263.266 -152.093 263.265C-150.437 263.264 -149.942 262.802 -149.94 260.484L-149.936 253.208C-149.935 251.211 -149.29 250.053 -144.063 250.05C-135.347 250.045 -125.783 255.258 -118.993 264.88C-108.807 278.969 -106.025 289.625 -106.027 291.77C-106.027 292.975 -106.498 294.067 -108.846 294.068L-117.073 294.072C-119.174 294.073 -119.963 293.168 -120.742 290.919C-124.76 279.365 -131.534 269.268 -134.321 269.27C-135.367 269.27 -135.847 269.746 -135.848 272.366L-135.855 284.313C-135.669 287.712 -134.465 289.182 -133.574 290.271C-133.023 290.943 -132.592 291.47 -132.593 292.215C-132.593 293.125 -133.38 294.081 -134.686 294.082L-147.613 294.089C-149.354 294.09 -149.93 293.172 -149.929 291.108L-149.92 275.038C-149.919 273.317 -150.705 272.717 -151.228 272.717C-152.274 272.718 -153.145 273.319 -155.062 275.214C-160.988 281.747 -165.174 291.802 -165.174 291.802C-165.698 293.007 -166.663 294.099 -168.755 294.101L-176.975 294.105Z" fill="#FA6425"/>
<path d="M-180.335 93.696C-182.49 92.45 -182.309 91.0944 -181.001 89.8667L-180.998 89.8683C-177.733 86.2946 -162.103 79.2494 -162.103 79.2494C-160.663 78.4943 -160.018 78.0714 -160.301 76.1238C-160.377 75.3939 -160.728 74.1677 -161.13 72.7653C-161.543 71.3225 -162.01 69.6931 -162.286 68.2256C-163.382 63.0612 -164.035 58.8651 -163.543 56.5191C-162.985 54.1969 -161.387 53.7834 -159.354 54.9589L-152.237 59.0731C-150.328 60.1763 -149.976 61.7854 -149.216 65.2644C-148.893 66.7379 -148.498 68.547 -147.88 70.7949C-145.973 77.256 -144.466 78.8246 -143.409 79.4359C-141.975 80.265 -141.315 80.1121 -140.157 78.1038L-136.523 71.8009C-135.525 70.0706 -134.389 69.3907 -129.863 72.0065C-122.318 76.3684 -116.642 85.6772 -115.567 97.4166C-113.782 114.729 -116.693 125.356 -117.765 127.214C-118.366 128.258 -119.318 128.968 -121.352 127.793L-128.474 123.676C-130.293 122.624 -130.524 121.444 -130.076 119.106C-127.787 107.08 -128.611 94.937 -131.024 93.5421C-131.93 93.0186 -132.582 93.1902 -133.891 95.4601L-139.858 105.809C-141.394 108.849 -141.086 110.726 -140.858 112.116C-140.717 112.974 -140.607 113.646 -140.979 114.292C-141.433 115.08 -142.592 115.515 -143.722 114.861L-154.914 108.391C-156.422 107.52 -156.462 106.436 -155.431 104.648L-147.403 90.7263C-146.544 89.2357 -146.924 88.3218 -147.377 88.0601C-148.283 87.5366 -149.336 87.6213 -151.942 88.3026C-160.33 90.9958 -168.972 97.6124 -168.972 97.6124C-170.026 98.3943 -171.407 98.8572 -173.218 97.8102L-180.335 93.696Z" fill="#FA6425"/>
<path d="M-225.827 56.4342C-223.422 55.7873 -222.594 56.8734 -222.653 58.6672L-222.656 58.668C-222.445 63.5049 -228.537 79.5546 -228.537 79.5546C-229.024 81.1083 -229.182 81.864 -227.607 83.039C-227.038 83.5006 -225.924 84.1178 -224.65 84.8237L-224.648 84.8248C-223.337 85.5508 -221.858 86.3705 -220.627 87.2114C-216.207 90.0826 -212.783 92.5838 -211.476 94.5895C-210.232 96.6254 -211.071 98.0493 -213.34 98.6595L-221.281 100.796C-223.411 101.368 -224.796 100.481 -227.79 98.5625C-229.058 97.75 -230.615 96.7526 -232.639 95.6028C-238.548 92.3896 -240.722 92.3491 -241.902 92.6665C-243.502 93.0969 -243.861 93.6721 -243.263 95.911L-241.388 102.938C-240.873 104.867 -241.198 106.152 -246.247 107.51C-254.667 109.775 -265.255 107.221 -274.301 99.6908C-287.783 88.7267 -293.223 79.1585 -293.776 77.0867C-294.086 75.9232 -293.914 74.747 -291.645 74.1367L-283.697 71.999C-281.667 71.453 -280.671 72.1229 -279.338 74.0924C-272.471 84.208 -263.317 92.2009 -260.625 91.4767C-259.614 91.2049 -259.274 90.6217 -259.949 88.0911L-263.029 76.5532C-264.087 73.3185 -265.63 72.211 -266.772 71.3908C-267.477 70.8845 -268.03 70.4877 -268.222 69.7677C-268.457 68.8897 -267.944 67.762 -266.682 67.4227L-254.193 64.0636C-252.511 63.6112 -251.718 64.3485 -251.186 66.3414L-247.043 81.862C-246.599 83.5237 -245.685 83.8997 -245.18 83.7638C-244.169 83.4921 -243.483 82.6856 -242.12 80.3588C-238.082 72.5134 -236.635 61.718 -236.635 61.718C-236.44 60.4185 -235.79 59.1138 -233.769 58.5702L-225.827 56.4342Z" fill="#FA6425"/>
<path d="M-238.025 317.621L-212.781 292.329L-222.942 282.149L-248.186 307.441L-258.16 297.447L-267.703 306.099L-257.275 316.547L-263.911 323.196C-266.417 325.707 -268.482 326.663 -271.946 323.193C-275.147 319.986 -278.053 317.02 -278.053 317.02L-286.767 325.297C-286.767 325.297 -284.243 328.531 -280.354 332.428C-270.748 342.052 -260.977 340.616 -254.877 334.504L-247.114 326.727L-240.056 333.798L-230.967 324.691L-238.025 317.621Z" fill="#FA6425"/>
<path d="M-187.105 162.167L-196.321 127.643L-210.211 131.378L-200.995 165.903L-214.629 169.57L-211.932 182.168L-197.677 178.334L-195.254 187.41C-194.339 190.838 -194.546 193.107 -199.282 194.38C-203.657 195.557 -207.676 196.599 -207.676 196.599L-204.887 208.29C-204.887 208.29 -200.827 207.715 -195.51 206.285C-182.379 202.753 -178.726 193.559 -180.953 185.215L-183.787 174.598L-174.14 172.003L-177.458 159.573L-187.105 162.167Z" fill="#FA6425"/>
<path d="M-87.9787 30.2914L-53.509 21.0203L-57.2226 7.10858L-91.6922 16.3797L-95.3376 2.72328L-107.914 5.44005L-104.103 19.7177L-113.165 22.1551C-116.587 23.0755 -118.851 22.8701 -120.117 18.1273C-121.287 13.7451 -122.322 9.71942 -122.322 9.71942L-133.995 12.5263C-133.995 12.5263 -133.425 16.5935 -132.004 21.9185C-128.493 35.0706 -119.32 38.721 -110.99 36.4806L-100.389 33.6294L-97.8101 43.2922L-85.3993 39.9542L-87.9787 30.2914Z" fill="#FA6425"/>
<path d="M-77.9128 324.325L-103.156 349.616L-92.9956 359.796L-67.752 334.505L-57.7777 344.498L-48.235 335.846L-58.6631 325.398L-52.0265 318.749C-49.5205 316.239 -47.4557 315.282 -43.9916 318.753C-40.791 321.959 -37.885 324.925 -37.885 324.925L-29.1709 316.648C-29.1709 316.648 -31.6942 313.414 -35.5835 309.517C-45.1895 299.893 -54.9604 301.329 -61.0607 307.441L-68.8238 315.218L-75.8813 308.148L-84.9702 317.254L-77.9128 324.325Z" fill="#FA6425"/>
<path d="M34.803 -20.5868C32.949 -18.3659 30.7482 -16.4024 28.2221 -14.7674C30.1683 -17.7881 30.9427 -21.4251 30.4006 -24.9998C28.5665 -22.1732 26.2583 -19.6872 23.5765 -17.6497C20.5156 -18.8198 17.1641 -18.9498 14.0425 -18.0195C10.921 -17.0891 8.20386 -15.1504 6.31317 -12.5044C4.42249 -9.85846 3.46387 -6.65319 3.5863 -3.38628C3.70868 -0.119377 4.90515 3.02638 6.98999 5.56261C1.58142 7.87202 -4.26324 9.01277 -10.1648 8.91085C-16.0663 8.80894 -21.8928 7.46662 -27.2661 4.97102C-27.4271 7.50371 -26.9479 10.1151 -25.7398 12.5556C-24.6534 14.7532 -23.0444 16.6539 -21.0555 18.089C-19.0667 19.5241 -16.7593 20.4493 -14.3383 20.7825C-16.4789 21.7437 -18.8231 22.1771 -21.1757 22.0467L-21.0906 22.2185C-19.5655 25.3 -17.027 27.7691 -13.9059 29.2069C-10.7849 30.6447 -7.2735 30.9625 -3.96765 30.1066C-5.65912 31.5928 -7.6698 32.6716 -9.84784 33.2615C-7.68787 35.4992 -4.88928 37.0118 -1.84393 37.5877C1.20142 38.1637 4.34106 37.774 7.1355 36.4733C4.27155 42.4785 -0.537537 47.3252 -6.51819 50.2337C-7.57666 50.7507 -8.66522 51.2049 -9.77814 51.5938C-1.77039 52.5545 6.32153 51.1888 13.5295 47.6603C37.9429 35.743 41.2241 8.89641 32.4949 -8.73697C32.2113 -9.30985 31.9106 -9.88152 31.6014 -10.4419C33.2629 -13.5968 34.3466 -17.0283 34.8016 -20.5755L34.803 -20.5868Z" fill="#FA6425"/>
<path d="M180.696 195.939C181.029 198.669 181.765 201.265 182.854 203.683L182.845 203.677C180.093 201.867 177.691 199.59 175.751 196.952C175.162 196.978 174.567 196.993 173.979 196.993C155.857 196.993 134.963 183.431 134.963 158.622C134.955 151.294 137.094 144.118 141.124 137.954C140.996 139.022 140.932 140.097 140.933 141.173C140.924 147.246 142.992 153.145 146.805 157.922C146.858 155.108 147.804 152.381 149.511 150.122C151.218 147.863 153.601 146.185 156.325 145.324C155.934 147.345 156.014 149.428 156.561 151.414C157.188 148.362 158.87 145.617 161.321 143.645C163.772 141.674 166.841 140.597 170.007 140.597H170.184C169.126 142.469 168.537 144.563 168.468 146.705C169.722 144.858 171.42 143.345 173.411 142.299C175.403 141.252 177.626 140.705 179.883 140.707C182.392 140.707 184.746 141.373 186.778 142.53C182.541 145.917 179.076 150.141 176.607 154.93C174.139 159.719 172.722 164.964 172.448 170.326C175.389 169.647 178.476 169.943 181.23 171.166C183.983 172.389 186.249 174.472 187.675 177.092C189.101 179.711 189.608 182.72 189.116 185.652C188.625 188.584 187.164 191.274 184.958 193.305C185.561 196.325 186.686 199.221 188.285 201.867C185.107 200.863 182.41 198.756 180.696 195.939Z" fill="#FA6425"/>
<path d="M50.8323 242.491C47.9429 242.791 44.987 242.665 42.03 242.079C45.5486 241.272 48.6638 239.211 50.7943 236.28C47.4925 237.026 44.0917 237.199 40.74 236.793C39.3766 233.831 37.0729 231.41 34.1866 229.907C31.3004 228.404 27.9929 227.902 24.778 228.48C21.5629 229.058 18.6202 230.683 16.4066 233.102C14.193 235.522 12.8323 238.602 12.5359 241.862C7.04382 239.756 2.06317 236.512 -2.08276 232.34C-6.22876 228.168 -9.44745 223.162 -11.5298 217.647C-13.4289 219.345 -14.9257 221.544 -15.7812 224.127C-16.5528 226.452 -16.7416 228.928 -16.3311 231.336C-15.9204 233.743 -14.9231 236.006 -13.4274 237.926C-15.6344 237.126 -17.6151 235.808 -19.2045 234.081L-19.2648 234.262C-20.3452 237.524 -20.2701 241.052 -19.0523 244.247C-17.8344 247.442 -15.5488 250.108 -12.5832 251.793C-14.8389 251.68 -17.0358 251.055 -19.0079 249.964C-19.0403 253.063 -18.1057 256.088 -16.3348 258.615C-14.564 261.141 -12.0457 263.044 -9.13232 264.055C-15.4091 266.358 -22.2599 266.481 -28.5828 264.406C-29.7035 264.04 -30.8013 263.609 -31.8707 263.114C-26.8243 269.362 -20.0791 274.007 -12.4423 276.491C13.3998 284.93 34.6545 268.022 40.8361 249.357C41.0369 248.751 41.2247 248.133 41.3984 247.518C44.8081 246.417 47.9996 244.717 50.8232 242.498L50.8323 242.491Z" fill="#FA6425"/>
<path d="M162.827 226.113C164.983 224.877 166.064 225.704 166.471 227.436L166.469 227.438C167.925 232.013 166.194 248.936 166.194 248.936C166.126 250.548 166.169 251.312 167.994 252.033C168.663 252.329 169.898 252.634 171.311 252.982L171.312 252.983C172.766 253.341 174.41 253.747 175.816 254.236C180.83 255.851 184.784 257.366 186.566 258.951C188.294 260.58 187.852 262.159 185.819 263.325L178.7 267.406C176.791 268.5 175.224 268.006 171.835 266.938L171.834 266.937C170.399 266.485 168.638 265.929 166.386 265.348C159.846 263.788 157.736 264.307 156.678 264.913C155.244 265.736 155.046 266.378 156.203 268.368L159.833 274.612C160.83 276.326 160.849 277.64 156.323 280.235C148.776 284.562 137.888 284.833 127.2 279.945C111.34 272.909 103.609 265.146 102.538 263.305C101.937 262.271 101.799 261.101 103.833 259.935L110.957 255.851C112.777 254.808 113.912 255.194 115.709 256.737C124.961 264.657 135.872 269.96 138.285 268.576C139.191 268.057 139.369 267.411 138.061 265.163L132.1 254.91C130.241 252.085 128.464 251.42 127.148 250.928C126.336 250.625 125.699 250.387 125.327 249.747C124.874 248.967 125.077 247.756 126.208 247.108L137.402 240.69C138.91 239.825 139.867 240.328 140.897 242.098L148.916 255.891C149.774 257.368 150.755 257.493 151.208 257.233C152.113 256.714 152.567 255.766 153.282 253.19C155.152 244.645 153.755 233.942 153.755 233.942C153.607 232.648 153.898 231.232 155.709 230.194L162.827 226.113Z" fill="#FA6425"/>
<path d="M140.612 81.4026C142.883 82.4131 142.842 83.7678 141.667 85.1101L141.664 85.1088C138.784 88.9613 123.959 97.485 123.959 97.485C122.604 98.3748 122.005 98.8568 122.487 100.748C122.638 101.46 123.113 102.632 123.656 103.974L123.657 103.975C124.216 105.355 124.847 106.915 125.272 108.333C126.892 113.313 127.973 117.384 127.724 119.746C127.406 122.092 125.86 122.661 123.717 121.707L116.215 118.371C114.204 117.476 113.689 115.925 112.575 112.572C112.103 111.152 111.524 109.409 110.679 107.256C108.119 101.079 106.46 99.685 105.345 99.1893C103.833 98.5168 103.193 98.7342 102.247 100.831L99.2792 107.411C98.4642 109.217 97.4033 110.003 92.6339 107.881C84.681 104.343 78.08 95.7404 75.8058 84.2767C72.2548 67.3912 74.0594 56.6215 74.9346 54.6813C75.4261 53.5917 76.3001 52.7952 78.4434 53.7486L85.9504 57.0879C87.8679 57.9409 88.2184 59.0805 88.0124 61.4311C86.9695 73.5166 89.0356 85.4035 91.5789 86.5348C92.5333 86.9594 93.1643 86.7243 94.2333 84.3545L99.1074 73.5497C100.323 70.3986 99.8242 68.5795 99.4546 67.2323C99.2265 66.4008 99.0477 65.749 99.3519 65.0748C99.7228 64.2526 100.83 63.7068 102.022 64.2369L113.818 69.4842C115.407 70.191 115.558 71.2556 114.716 73.1218L108.16 87.6562C107.458 89.2124 107.93 90.0748 108.407 90.2871C109.362 90.7116 110.401 90.5217 112.923 89.587C120.991 86.0848 128.907 78.6896 128.907 78.6896C129.876 77.8123 131.201 77.2167 133.11 78.0658L140.612 81.4026Z" fill="#FA6425"/>
<path d="M9.67981 76.2789C11.8356 75.043 12.9167 75.8701 13.3236 77.6022L13.3209 77.6037C14.777 82.179 13.0464 99.1025 13.0464 99.1025C12.9784 100.714 13.0212 101.478 14.8467 102.199C15.5159 102.495 16.7518 102.8 18.1653 103.149C19.6192 103.508 21.2621 103.913 22.6686 104.402C27.6819 106.017 31.6366 107.533 33.4184 109.117C35.1468 110.747 34.7048 112.325 32.671 113.491L25.5526 117.572C23.6438 118.666 22.0765 118.172 18.6878 117.104L18.6855 117.103L18.6839 117.102C17.2495 116.65 15.4889 116.095 13.2382 115.514C6.69812 113.955 4.58801 114.473 3.53046 115.08C2.09595 115.902 1.89819 116.544 3.05499 118.534L6.68542 124.778C7.68213 126.493 7.70111 127.806 3.17523 130.401C-4.37158 134.728 -15.2599 134.999 -25.9474 130.112C-41.8075 123.075 -49.5387 115.312 -50.6092 113.471C-51.2103 112.437 -51.3482 111.267 -49.3144 110.101L-42.1906 106.017C-40.371 104.974 -39.2357 105.36 -37.4382 106.903C-28.1869 114.823 -17.276 120.126 -14.8625 118.742C-13.9568 118.223 -13.7789 117.577 -15.0864 115.329L-21.0477 105.076C-22.9068 102.251 -24.6837 101.587 -25.9996 101.095C-26.8118 100.791 -27.4484 100.553 -27.8204 99.913C-28.274 99.1328 -28.0705 97.9219 -26.9397 97.2736L-15.7456 90.8558C-14.2379 89.9914 -13.2806 90.4936 -12.2509 92.2645L-4.23187 106.057C-3.37335 107.534 -2.39288 107.659 -1.94 107.399C-1.0343 106.88 -0.5802 105.932 0.13446 103.356C2.00397 94.8113 0.607727 84.1077 0.607727 84.1077C0.459412 82.8142 0.75 81.3985 2.56146 80.36L9.67981 76.2789Z" fill="#FA6425"/>
<path d="M46.2156 325.887L35.0702 359.541L48.7262 364L59.8716 330.347L73.277 334.724L77.8997 322.807L63.8845 318.23L66.8146 309.382C67.9211 306.041 69.3336 304.272 73.9893 305.793C78.2909 307.197 82.2209 308.521 82.2209 308.521L86.2728 297.305C86.2728 297.305 82.5632 295.573 77.3361 293.866C64.4257 289.649 56.3494 295.288 53.656 303.421L50.2285 313.77L40.7433 310.673L36.7305 322.789L46.2156 325.887Z" fill="#FA6425"/>
<path d="M59.2847 179.961L72.3813 212.915L85.7532 207.674L72.6565 174.721L85.783 169.577L81.6647 157.478L67.941 162.856L64.4979 154.193C63.1978 150.921 63.1448 148.664 67.7036 146.878C71.9158 145.227 75.7897 143.75 75.7897 143.75L71.6845 132.553C71.6845 132.553 67.7167 133.576 62.5983 135.582C49.9566 140.536 47.3767 149.999 50.5416 157.963L54.5692 168.097L45.2814 171.737L49.9968 183.601L59.2847 179.961Z" fill="#FA6425"/>
<path d="M136.068 15.9055L166.964 -1.8079L159.776 -14.1705L128.88 3.54284L121.824 -8.59292L110.379 -2.76732L117.756 9.92051L109.633 14.5774C106.566 16.3358 104.326 16.72 101.875 12.5053C99.6109 8.61106 97.5691 5.02351 97.5691 5.02351L87.0208 10.7034C87.0208 10.7034 88.6236 14.4501 91.3749 19.1822C98.1702 30.8698 107.976 32.0111 115.442 27.7305L124.944 22.2831L129.936 30.8699L141.06 24.4923L136.068 15.9055Z" fill="#FA6425"/>
<path d="M205.905 316.921L188.067 347.602L200.516 354.739L218.354 324.059L230.575 331.066L237.554 320.338L224.777 313.013L229.466 304.947C231.237 301.901 232.984 300.456 237.229 302.889C241.15 305.137 244.725 307.231 244.725 307.231L251 297.074C251 297.074 247.725 294.625 242.96 291.893C231.19 285.146 222.124 289.026 217.813 296.44L212.327 305.875L203.68 300.917L197.258 311.964L205.905 316.921Z" fill="#FA6425"/>
</svg>
