<svg width="549" height="471" viewBox="0 0 549 471" fill="none" xmlns="http://www.w3.org/2000/svg">
<path fill-rule="evenodd" clip-rule="evenodd" d="M239 698.433L183.44 573.524C181.454 569.059 177.678 565.6 173.008 563.967L35.841 516L173.008 468.033C177.678 466.4 181.454 462.941 183.44 458.476L239 333.567L294.56 458.476C296.546 462.941 300.322 466.4 304.992 468.033L442.159 516L304.992 563.967C300.322 565.6 296.546 569.059 294.56 573.524L239 698.433ZM244.483 715.474C242.392 720.175 235.608 720.175 233.517 715.474L172.474 578.239C171.812 576.75 170.554 575.597 168.997 575.053L15.9788 521.543C10.6737 519.688 10.6737 512.312 15.9788 510.457L168.997 456.947C170.554 456.403 171.812 455.25 172.474 453.761L233.517 316.526C235.608 311.825 242.392 311.825 244.483 316.526L305.526 453.761C306.188 455.25 307.446 456.403 309.003 456.947L462.021 510.457C467.326 512.312 467.326 519.688 462.021 521.543L309.003 575.053C307.446 575.597 306.188 576.75 305.526 578.239L244.483 715.474Z" fill="#F9F9F9"/>
<path fill-rule="evenodd" clip-rule="evenodd" d="M587 468.006L547.87 378.322C545.883 373.766 542.101 370.236 537.422 368.568L441.861 334.5L537.422 300.432C542.101 298.764 545.883 295.234 547.87 290.678L587 200.994L626.13 290.678C628.117 295.234 631.899 298.764 636.578 300.432L732.139 334.5L636.578 368.568C631.899 370.236 628.117 373.766 626.13 378.322L587 468.006ZM592.495 485.401C590.401 490.2 583.599 490.2 581.505 485.401L536.881 383.123C536.218 381.605 534.958 380.428 533.398 379.872L421.984 340.152C416.672 338.258 416.672 330.742 421.984 328.848L533.398 289.128C534.958 288.572 536.218 287.395 536.881 285.877L581.505 183.599C583.599 178.8 590.401 178.8 592.495 183.599L637.119 285.877C637.782 287.395 639.042 288.572 640.602 289.128L752.016 328.848C757.328 330.742 757.328 338.258 752.016 340.152L640.602 379.872C639.042 380.428 637.782 381.605 637.119 383.123L592.495 485.401Z" fill="#F9F9F9"/>
<path fill-rule="evenodd" clip-rule="evenodd" d="M314 270.064L279.631 191.405C277.643 186.855 273.869 183.333 269.203 181.672L185.855 152L269.203 122.328C273.869 120.667 277.643 117.145 279.631 112.595L314 33.9362L348.369 112.595C350.357 117.145 354.131 120.667 358.797 122.328L442.145 152L358.797 181.672C354.131 183.333 350.357 186.855 348.369 191.405L314 270.064ZM319.475 287.41C317.384 292.197 310.616 292.197 308.525 287.41L268.681 196.221C268.018 194.704 266.76 193.53 265.205 192.976L165.979 157.652C160.674 155.764 160.674 148.236 165.979 146.348L265.205 111.024C266.76 110.47 268.018 109.296 268.681 107.779L308.525 16.5897C310.616 11.8034 317.384 11.8035 319.475 16.5897L359.319 107.779C359.982 109.296 361.24 110.47 362.795 111.024L462.021 146.348C467.326 148.236 467.326 155.764 462.021 157.652L362.795 192.976C361.24 193.53 359.982 194.704 359.319 196.221L319.475 287.41Z" fill="#F9F9F9"/>
</svg>
