<svg width="24" height="24" viewBox="0 0 24 24" fill="none" xmlns="http://www.w3.org/2000/svg">
<path d="M23 5.13513C22.191 5.49594 21.3219 5.73973 20.4082 5.84992C21.3509 5.28218 22.0562 4.38861 22.3925 3.33596C21.5068 3.86546 20.5374 4.23817 19.5265 4.43789C18.8467 3.70736 17.9462 3.22316 16.965 3.06045C15.9837 2.89775 14.9766 3.06564 14.0999 3.53806C13.2231 4.01049 12.5259 4.76102 12.1164 5.67313C11.7069 6.58523 11.6081 7.60789 11.8353 8.58232C10.0406 8.49162 8.28485 8.02214 6.68208 7.20432C5.07931 6.38651 3.66531 5.23865 2.53184 3.83524C2.14428 4.5081 1.92143 5.28823 1.92143 6.11906C1.921 6.86701 2.104 7.60349 2.45421 8.26318C2.80442 8.92286 3.311 9.48535 3.92901 9.90073C3.21228 9.87778 2.51137 9.68287 1.88461 9.33221V9.39072C1.88454 10.4397 2.24508 11.4565 2.90505 12.2684C3.56502 13.0803 4.48377 13.6375 5.50542 13.8453C4.84054 14.0264 4.14346 14.053 3.46684 13.9233C3.75508 14.8259 4.31656 15.6152 5.07267 16.1807C5.82878 16.7462 6.74166 17.0595 7.68352 17.0769C6.08466 18.3402 4.11008 19.0254 2.07742 19.0224C1.71736 19.0225 1.3576 19.0013 1 18.959C3.06326 20.2941 5.46505 21.0027 7.918 21C16.2215 21 20.7609 14.0783 20.7609 8.07523C20.7609 7.8802 20.756 7.68322 20.7473 7.48819C21.6302 6.84553 22.3924 6.04973 22.9981 5.13805L23 5.13513Z" fill="black"/>
</svg>
