<svg width="24" height="24" viewBox="0 0 24 24" fill="none" xmlns="http://www.w3.org/2000/svg">
<path fill-rule="evenodd" clip-rule="evenodd" d="M23.4495 6.948C23.6155 6.402 23.4495 6 22.6545 6H20.0296C19.3616 6 19.0536 6.347 18.8866 6.73C18.8866 6.73 17.5516 9.926 15.6607 12.002C15.0487 12.604 14.7707 12.795 14.4367 12.795C14.2697 12.795 14.0187 12.604 14.0187 12.057V6.948C14.0187 6.292 13.8347 6 13.2787 6H9.15081C8.73382 6 8.48282 6.304 8.48282 6.593C8.48282 7.214 9.4288 7.358 9.5258 9.106V12.904C9.5258 13.737 9.3728 13.888 9.03881 13.888C8.14883 13.888 5.98387 10.677 4.6989 7.003C4.44991 6.288 4.19791 6 3.52693 6H0.899981C0.149997 6 0 6.347 0 6.73C0 7.412 0.889981 10.8 4.14491 15.281C6.31487 18.341 9.3698 20 12.1527 20C13.8217 20 14.0277 19.632 14.0277 18.997V16.684C14.0277 15.947 14.1857 15.8 14.7147 15.8C15.1047 15.8 15.7717 15.992 17.3296 17.467C19.1096 19.216 19.4026 20 20.4046 20H23.0295C23.7795 20 24.1555 19.632 23.9395 18.904C23.7015 18.18 22.8515 17.129 21.7245 15.882C21.1126 15.172 20.1946 14.407 19.9156 14.024C19.5266 13.533 19.6376 13.314 19.9156 12.877C19.9156 12.877 23.1155 8.451 23.4485 6.948H23.4495Z" fill="black"/>
</svg>
